/* XPM */
static char *Angle[] = {
/* columns rows colors chars-per-pixel */
"110 37 25 1",
"  c #000000",
". c #002500",
"X c #000034",
"o c #002534",
"O c #004100",
"+ c #004134",
"@ c #005B34",
"# c #00005D",
"$ c #00255D",
"% c #005B5D",
"& c #00745D",
"* c #002582",
"= c #007482",
"- c #0041A6",
"; c #0074A6",
": c #005BC8",
"> c #0074C8",
", c #0074E8",
"< c #008B82",
"1 c #008BA6",
"2 c #00A2A6",
"3 c #008BC8",
"4 c #00A2C8",
"5 c #008BE8",
"6 c #00A2E8",
/* pixels */
"                                                                                                              ",
"                                                                                                              ",
"                                                                                                              ",
"                                                                                                              ",
"                                                                                                              ",
"                                                                                                              ",
"                                                                                                              ",
"                                                                                                              ",
"                                                                                                              ",
"                                                                                                              ",
"                                                                                                              ",
"                         -6&      :6666<  ,66664.    *66666=5O *666666O    *66666666666@                      ",
"                        X562      -6664+   :6664+  X566666666@  ,66666@    -61566666666&                      ",
"                        X566&      #6631.   *6&   X566<   ,66&  #6;<        X566<    :62                      ",
"                        *666<       :666@   *6&   :662    X56&  X5;<        #156&                             ",
"                        ,6664.      -2 ,6<  -3&  #666&     *6O  X5;<        #156@                             ",
"                       *6<:66@      *2 #66& *6&  -666@      :O  X5;<        #366@  :O                         ",
"                       ,6@*662      -2  -62 *6&  -666O          X53<        #1566664.                         ",
"                      *62 -666O     *4. X>6456&  :664.  ,66666@ X5;<        #366&  ,O                         ",
"                      ,6666666&     *4.  *6666&  -666O    -664+ X5=%        #=56O   o                         ",
"                     X566666664.    -6O   :666&  #666@    X56&  X5==    X3. #=54.                             ",
"                     :62   X566@    :6O    ,66&   :64+    #66<  X562    -6O #=1X+     X5O                     ",
"                    X56@    *66<   X>6&    -66&     #4.   *66@  #664.  X56O #666&    $56@                     ",
"                   5664.     :666O*66666@   :6&   #6<:64>6364. *6666666666O #1564.  ,661.                     ",
"                   666666& #66666@:66662     ,<     *@#666@    o,666666664.#66666666663<                      ",
"                                                                                                              ",
"                                                                                                              ",
"                                                                                                              ",
"                                                                                                              ",
"                                                                                                              ",
"                                                                                                              ",
"                                                                                                              ",
"                                                                                                              ",
"                                                                                                              ",
"                                                                                                              ",
"                                                                                                              ",
"                                                                                                              "
};
