/* XPM */
static char *Back_[] = {
/* columns rows colors chars-per-pixel */
"133 42 168 2",
"   c #020101",
".  c #0A0001",
"X  c #0A0A04",
"o  c #020209",
"O  c #0D010B",
"+  c #0A090B",
"@  c #110301",
"#  c #190B02",
"$  c #13050A",
"%  c #140A0A",
"&  c #190D0B",
"*  c #0B100D",
"=  c #13130D",
"-  c #1E1008",
";  c #050813",
":  c #0A0C12",
">  c #130D10",
",  c #1E0D13",
"<  c #0D1212",
"1  c #151314",
"2  c #1C1314",
"3  c #101319",
"4  c #1C1619",
"5  c #1B191C",
"6  c #220B02",
"7  c #25160D",
"8  c #2E160D",
"9  c #241316",
"0  c #2E1610",
"q  c #271910",
"w  c #2B1C13",
"e  c #241419",
"r  c #271C19",
"t  c #2D1B1D",
"y  c #312219",
"u  c #262325",
"i  c #2C2426",
"p  c #27272E",
"a  c #2E272B",
"s  c #352424",
"d  c #3A2727",
"f  c #372B2E",
"g  c #3D2B2B",
"h  c #3D312E",
"j  c #342E31",
"k  c #2E3431",
"l  c #3C3235",
"z  c #3D373A",
"x  c #442E27",
"c  c #433232",
"v  c #463C3D",
"b  c #4E3F3F",
"n  c #4B423F",
"m  c #424242",
"M  c #4D4345",
"N  c #4E4B46",
"B  c #504242",
"V  c #524946",
"C  c #5F4B46",
"Z  c #504649",
"A  c #554C4B",
"S  c #5C4E4E",
"D  c #5F5249",
"F  c #4B4B50",
"G  c #525252",
"H  c #5C5250",
"J  c #5F595C",
"K  c #624E49",
"L  c #67524D",
"P  c #6A554E",
"I  c #635353",
"U  c #6A5550",
"Y  c #645957",
"T  c #6F5952",
"R  c #675C59",
"E  c #6B5A5A",
"W  c #725C56",
"Q  c #67645F",
"!  c #6C625F",
"~  c #7A6757",
"^  c #74675C",
"/  c #7A645C",
"(  c #676264",
")  c #6C6A64",
"_  c #726764",
"`  c #7D6762",
"'  c #756A66",
"]  c #776C6A",
"[  c #7A6C6B",
"{  c #74726C",
"}  c #7D726F",
"|  c #777274",
" . c #7D7274",
".. c #7D7A74",
"X. c #816B63",
"o. c #857262",
"O. c #81736B",
"+. c #8B746C",
"@. c #8E7A6A",
"#. c #827774",
"$. c #807D77",
"%. c #897C73",
"&. c #82777A",
"*. c #897C7A",
"=. c #937D74",
"-. c #8D8077",
";. c #84827C",
":. c #8D817B",
">. c #968077",
",. c #9C8274",
"<. c #93827B",
"1. c #99827A",
"2. c #8E8285",
"3. c #938382",
"4. c #9C8181",
"5. c #968880",
"6. c #968B8C",
"7. c #9F8E8E",
"8. c #938E91",
"9. c #9C9193",
"0. c #A58E85",
"q. c #A88E80",
"w. c #AB8E8B",
"e. c #A89188",
"r. c #B39382",
"t. c #B1938E",
"y. c #A39493",
"u. c #A89696",
"i. c #A29699",
"p. c #AB9C9B",
"a. c #BC9F99",
"s. c #A59FA2",
"d. c #B7A5A5",
"f. c #B3A8A5",
"g. c #B7ABA8",
"h. c #BAAEAB",
"j. c #BCB1AE",
"k. c #BFB3B1",
"l. c #BFBCB7",
"z. c #C5AEA8",
"x. c #CBAEAB",
"c. c #C2B7B3",
"v. c #C5BAB7",
"b. c #C9BBBA",
"n. c #D6BAB3",
"m. c #D9BAB3",
"M. c #DCBFBC",
"N. c #DFC5B7",
"B. c #E8C2B1",
"V. c #D0C5C2",
"C. c #DFCECE",
"Z. c #D9CED0",
"A. c #D6D0D3",
"S. c #E5C8C5",
"D. c #E5D6CE",
"F. c #EDD6D0",
"G. c #EBDFDC",
"H. c #F6DFD9",
"J. c #F4E5D9",
"K. c #FDE5DF",
"L. c #FAEADE",
"P. c #FDE9E2",
"I. c #FCEBE8",
"U. c #FFF5EA",
"Y. c #FFF9EC",
"T. c #FFF3F3",
"R. c #FFFCF3",
"E. c #FFFFFF",
/* pixels */
"        o o   o o   o     o   o   o o       o   o                                                   .                                                                                                                                       o   o     o   o o   o   o   o ",
": 3 o o o   o     o o o ; + + ; : : :     .         + + + +                     . . . . . . . . . . . . . . . . . . . . .                                                                                                   X     . * + + o   o o ; ; ; : : : :   o   o   ",
"o o o o o 5 5 5 5 o o o     o         + + + + o o . > 1 > % . . . . . . . . . . . . . . . . . . . . . . . . . . . . . . . . . . .       . . . .       . . . .   .   . . . .       . . . .       . . . .       . . . .       . . . .               o o o : ; ; : o o + o o ",
"o     o o             . . . . . Z M Z  . . .#.#.#.#.3.3.2.3.*.*.*.3.*.3.:.<.:.:.1.<.=.<.>.>.>.>.<.=.<.=.>.>.>.>.>.>.>.>.>.:.:.<.<.:.:.:.<.:.:.:.:.:.:.<.:.<.:.:.;.-.-.:.:.<.:.:.:.<.<.<.<.-.-.;.%.%.%.%.:.:.:.<.5.5.<.:.:.:.} O.} } ! ! ( p p p p o o o     o   ; + + + : ",
"o o       . .   . Z Z Z 9.9.9.9.G.G.G.T.T.T.T.I.I.I.I.T.T.U.T.U.U.P.P.P.P.K.K.P.P.K.P.H.P.P.K.K.K.K.L.J.L.K.K.K.K.K.K.K.P.L.L.K.L.L.P.L.P.P.P.P.P.L.L.P.P.P.P.L.L.P.P.P.P.P.L.L.P.L.K.K.K.J.J.J.K.H.K.J.L.L.P.I.P.I.I.L.P.P.H.H.J.H.D.D.D.s.s.s.s.F F F o o   o       > & ",
". . . . . e e e 9 d.d.d.E.E.E.E.E.E.E.E.E.E.E.E.E.E.E.E.E.E.E.E.E.E.E.E.E.E.E.E.E.E.E.E.E.E.E.E.E.E.E.E.E.E.E.E.E.E.E.E.E.E.E.E.E.E.E.E.E.E.E.E.E.E.E.E.E.E.E.E.E.E.E.E.E.E.E.E.E.E.E.E.E.E.E.E.E.E.E.E.E.E.E.E.E.E.E.E.E.E.E.E.E.E.E.E.E.E.E.E.E.A.A.A.> 1 1 >       . . ",
". . @ @ . A A S S Z.C.Z.E.T.E.E.R.R.R.E.E.E.E.R.R.R.E.E.E.E.E.R.E.Y.Y.Y.Y.Y.R.Y.Y.Y.Y.Y.U.U.U.U.U.U.U.U.U.U.U.U.Y.U.U.U.U.Y.U.T.Y.Y.Y.Y.Y.Y.Y.Y.Y.Y.Y.R.Y.Y.Y.Y.R.Y.Y.Y.Y.Y.Y.Y.Y.Y.Y.R.Y.R.Y.R.Y.R.Y.R.Y.Y.Y.U.U.U.U.U.Y.U.U.U.U.Y.R.R.R.E.E.E.E.E.E.E.J Y Y J . .   . . ",
". . @ @ @ 4.4.4.4.F.F.F.S.S.S.S.x.x.x.M.M.M.M.M.M.M.M.M.M.M.M.M.M.M.M.M.M.M.M.M.M.M.M.M.M.M.M.M.M.N.M.M.N.M.M.N.M.M.N.n.n.n.m.m.n.n.n.n.n.n.n.n.n.n.n.n.n.n.n.n.n.n.n.n.n.n.m.m.n.n.n.n.n.n.n.n.n.n.m.m.m.m.m.n.m.m.m.m.m.n.M.B.B.B.N.N.N.b.b.b.b.Z.Z.A.i.9.y.i.X . . . . ",
". . @ @ @ +.+.+.+.z.z.z.t.w.w.t.4.0.4.a.a.a.a.a.a.a.a.a.a.a.a.a.a.a.a.a.a.a.a.a.a.a.a.a.a.a.a.a.a.a.a.a.a.a.a.a.a.a.a.t.t.t.t.t.t.t.t.t.t.t.t.t.e.t.t.t.t.t.t.t.t.t.t.t.t.t.t.t.t.t.t.t.t.t.t.t.e.t.q.q.r.q.q.w.q.,.r.e.r.q.q.r.r.r.r.1.,.p.y.y.y.i.i.i.b.b.b.b.. . . . @ ",
"  . . O . %.%.#.#.0.e.e.=.=.=.=.=.=.=.=.4.=.4.=.1.3.1.=.1.1.1.1.4.=.1.1.1.1.=.=.1.1.1.=.1.1.1.=.>.>.1.1.0.=.=.=.0.=.=.+.+.+.=.+.+.=.+.+.+.+.=.+.%.%.+.+.+.=.=.+.+.+.+.=.+.+.=.+.=.+.+.+.+.=.+.+.=.+.1.1.=.=.=.1.1.1.1.1.=.=.=.,.,.,.1.1.1.<.<.<.<.3.6.4.p.p.p.p.@ @ @ . . ",
"  o . . . } O.O.O.w.0.0.=.+.=.=.+.+.=.=.=.=.=.=.=.=.=.=.=.=.=.=.=.=.=.=.=.=.=.=.=.=.=.=.=.=.=.=.=.=.=.>.=.=.=.=.=.=.=.=.+.+.+.+.+.+.+.+.+.+.+.+.+.+.+.+.+.+.+.+.+.+.+.+.+.+.+.+.+.+.+.+.+.+.+.+.+.+.=.=.=.=.=.=.=.=.=.=.=.=.@.@.@.@.@.%.>.:.:.-.<.3.3.*.u.u.u.u.@ @ @ . . ",
"o   .   . [ [ [ [ 1.1.1.+.X.X.O.X.X.X.X.+.+.+.+.+.O.+.+.+.O.+.+.+.X.+.+.+.+.+.+.+.+.+.O.+.+.+.+.O.+.o.+.X.+.+.+.+.+.+.X.X.X.X.X.X.X.X.X.X.X.X.X.X.X.X.X.X.X.X.X.X.X.X.X.X.X.X.X.X.X.X.X.X.X.X.X.X.` +.+.+.+.o.+.+.+.+.+.o.+.+.o.o.o.+.o.o.O.O.O.O.#.#.#.7.7.7.7.@ . . . . ",
"o   .     ! E _ E +.+.+.W W W W W W W X./ / / / X.W X.W W / / / W X.W X.W ` / / / / / / / / / / / / / / / / / / W W W W W W W W W W W T W W W W W W W W T W W W W W W W W W W W W W W W W W W W W W / / / / ~ / / / ~ / / / X.~ ~ ~ ^ ^ ^ ' ^ ^ ' ] ] ] 4.6.3.3.. . . . . ",
"  o       E E E E O.X.X.U T U U U U L T W W W W W W W W W W W W W W W W W W W W W W W W W W W W W W W W W W W W W W W W W W W W W W W W W W W U P U P L P P P P U U P U P U P L P P P P U U L U L L P W P W T T W P T T T T T P T P L P L P Y P L D ! E 2.:.:.:..   . . @ ",
"o         Y Y I I ` ` ` K K K K C K K L L L L L L L L L L L P L L L L K U U K L U K I L L L L L L L L L I L L L U U L L U L L K L L P P L L L K K K K K K K K K K K K K K K K K K K K K K K K K K K L L L L L L K P L L L K P K K L D D K K K K D D H H } }  . .. . . @ @ ",
"  o     . A A A S E E E E E E E I E E U E U E E E E E E E E E E E E E E E E E E E.E.E.E.E.E.E.E.E.E.E.E.b b b b B B b E.E.E.E.E.b b b b b b b b b b E.E.E.E.E.E.b b b b b E.E.E.E.E.E.b b E.E.E.E.E.E.b b b b b n b b b b b b b b n n n n n n b n n b B _ _ _ _ . . . @ @ ",
"  o   .   M M M M H S S S S S S S S S S I S S H S S S S S S S S S S S H S S S H S E.E.E.E.E.E.E.E.E.E.E.E.c c c c c c E.E.E.E.c c c c c c c c c c E.E.E.E.E.E.E.E.c c c c c E.E.E.E.c c c E.E.E.E.c c c c c c c c c c c c c c c c c c x c c c c c c c v ( ! ! ! . . . . X ",
"    o o   v v v v c c c c c c c c c c c c c c c c c c c c v c c c c c c c c c c v E.E.E.E.c c c d E.E.E.E.g d x d g g E.E.E.E.E.d x d x d g g d E.E.E.E.E.g g E.E.E.E.d d g E.E.E.E.g g E.E.E.E.g g g x g g g g g g d g g g d x g g g g x d d g g g g z A A Z A % & % . . ",
"  o X + + l l l l d d d g d s d d d x d s s d d g d d d d d d d d d d d g d d d s E.E.E.E.d d d t E.E.E.E.t t t t t E.E.E.E.E.E.t t t t t t t E.E.E.E.E.t t t t E.E.t t t t E.E.E.E.E.E.E.E.t t t t t t t t t t t t t t t t t t t t t t t t t t t t t a v v v v O . . . . ",
"    o + X i i a i t t t t t t t t t t t t t t t t t t t t t t t t t t r t t t t t E.E.E.E.E.E.E.E.E.E.E.9 9 9 9 9 9 E.E.E.E.E.E.E., 9 9 9 9 , E.E.E.E.e 9 9 9 , 9 , 9 9 9 9 E.E.E.E.E.E.E.9 9 , 9 , , 9 , 9 9 e , 9 9 , 9 9 9 9 9 , 9 9 9 9 9 e , 9 9 4 j j j j       . . ",
"    X X o e e e e , , , , , , , , , , , , , , , , , , , , , , , & , , , , , , , , E.E.E.E.E.E.E.E.E.E.E.$ $ $ $ $ E.E.E.$ E.E.E.E.E.$ $ $ $ $ E.E.E.E.$ & $ $ $ $ $ $ $ $ $ E.E.E.E.E.E.E.E.$ $ $ $ $ $ $ $ $ $ $ $ $ $ $ $ $ $ $ $ $ $ $ & $ $ $ $ $ + i i u u       $ $ ",
"          % + % : $ $ O + $ $ $ O O $ $ $ O + $ $ O $ $ O O $ O O $ $ $ $ O $ + $ E.E.E.E.O $ $ . E.E.E.E.. O . . E.E.E.E.E.E.E.E.E.O . O . . E.E.E.E.. O . . o O . . . . . E.E.E.E.E.E.E.E.E.. O . . @ . . . . O . @ @ . . O . . O . . . $ . . @ . O . 4 4 4 4       + + ",
"          o . o . O . . . . . . O O . . . . . . . . . . . O O . . O . . . . . . . E.E.E.E.. . . . E.E.E.E.. . . E.E.E.E.E.E.E.E.E.E.E.. . . . E.E.E.E.E.. . . . E.E.. . . . E.E.E.E.. E.E.E.E.E.. . . . . . . . . . . . . . . . . . . . . . . . . . .   4 > > 1   .   X + ",
"          O : O + O O O O O O O O O O O O O O O O O O O O O O O O O O O O O O O O E.E.E.E.O O O o E.E.E.E.o . o E.E.E.. o . o E.E.E.E.. o . o . E.E.E.E.E.. . E.E.E.E.. o . E.E.E.E.o . E.E.E.E.E.o O . O . o . o . o . . o o   . o . o o . o . o . o   4 > 4 4       O O ",
"          + % % + % % % % $ $ % $ % % + % % % % % % % % $ % @ % % % + $ % % % % % E.E.E.E.E.E.E.E.E.E.E.O O O E.E.E.O O O O O O E.E.E.E.O O O O O E.E.E.E.E.E.E.E.O O O O O E.E.E.E.O O O E.E.E.E.E.O O O O O O o O O O O O O O O O O O O O O O O $ O   5 5 r 5       + + ",
"o X       u u u u & % # & % & % # % % & % % % & % % % % & % % & % & % & % % % & E.E.E.E.E.E.E.E.E.E.E.. . . E.E.E.E.E.. . . . E.E.E.E.E.E.. . .   . E.E.E.E.E.E.. . . . . E.E.E.E.E.E.. . E.E.E.E.E.E.. .   . . . . . . . . . . . . . . .   . . . . X * u u u u           ",
"  X       a s s s & & & & & & & & & - & & & & & & - & & & - & & - & & & & & & - & & & & & & & & . . . . . . . . . . . . .   . . . . . . . . . .   . . . . . . . . . .   . . . . . . .   . . . . . . . . .   .     .   . . . . .   . . . . . . . . . . < k k k k       o o ",
"          h h l l - 9 & . . . . . . . @ @ @ @ @ @ @ X @ O @ @ @ @ @ @ @ @ @ @ @ X @ @ X @ @ @ @ X @ X @ X @ X . @ @ @ . . . . . . . . . . . . . . . . . . . . . . . . . . . . . . . . . . . . . . . .   . . . . . . . .   .   . . .       o X o o 1 3 1 m m m m       X X ",
".         n n v b e r r . . @ @ . . . @ @ @ @ @ @ @ @ @ X @ @ @ @ @ @ @ @ @ @ @ @ @ @ @ @ @ @ @ @ @ @ @ @ @ @ X @ @ @ . . . . . . . . . . . . . . . . . . . . . . . . . . . . . . . . . . . . . . . . .   . . . . . . . . . . . . . . . . . O o X 1 1 1 G G G G       X + ",
"    .     V V V Z s s s @ @ @ @ . . . @ @ @ @ . @ @ @ @ @ @ @ @ @ @ . @ @ @ @ @ @ @ @ @ @ @ @ @ @ @ @ @ @ @ @ @ @ @ . . . @ . @ . . . @ @ @ @ . . . @ . . @ . @ . . . @ @ @ @ . . . @ . @ . @ . . . . . . . . . @ . . . . . . . . . . . . .   . o 1 4 2 ( ( ( (       o o ",
"    . O . I L I S g x x @ @ @ @ . . . @ . @ @ . . . @ . . @ . . . @ . . . . @ . . @ . . @ . . @ . . @ . @ . . @ . @ . @ @ . @ . . . @ . . @ . @ . @ . @ @ . @ . . . @ . . @ . @ . @ . @ . @ . @ . @ . . . . . . . . . . . . . @ . @ @ . . . O . . 2 1 1 | | | |       . . ",
". . . . . E Y E E c c c @ @ @ @ . . . . @ . . @ . @ . . @ . . @ @ . @ @ . @ . . @ . @ . . . @ . @ . . @ . . @ . @ . @ . . . . . . . . . . . . . . . . . . . . . . . . . . . . . . . . . . . . . . . . . . . . . . . . . . . . . @ . @ . . . . . . 2 4 4 2.2.2.2.  . . . . ",
". . . . . ! ! E ! c c c $ $ $ # . . . . . . . . . . . . . . . . . . . . . . . . . . . . . . . . . . . . . . . . . . . . . . . . . . . . . . . . . . . . . . . . . . . . . . . . . . . . . . . . . . . . @ . . . . . . . . . . @ . . @ . . $ . O . 2 2 4 6.6.6.6.. . . . . ",
"    $ + + L I I U E E ! @ . . @ . . . 9 9 w 9 9 w 9 e w 9 9 w 9 w e 9 w w e w e 9 w 9 w w 9 e w w 9 9 w e w w e w e w . . . . . . . . . . . . . . . . . . . . X . . . . . . . . . . . . . . . . . . . . . . . . . . . . . . . . @ . . @ . . . . . Z M M &.&.&.&.. .   % % ",
"          v v v b 3.*.=.b b b b 9 9 9 s s s s s s s s s s s s y s s s s s y s y s s s s y s s s s s s y s s s y s s s s d s s d d s d s d s s d d s s d d s s s d s d s d s s d d s d s d s d s d s B B B B B B M B B B B B B d d d s s s j f f f i.i.i.v v v v . . O . . ",
"      . . @ . X . 6.6.6.u.p.p.p.*.:.:.' ' ' ' Y Y I ' [ ] ] R R Y }  .[ } }  .}  .[ } } #.}  .[ } } } } [  .} } [ #.[  .} } } }  .O.} } } } } } } } } }  .O.} }  .O.} } } } } } O.' ' ' ' ' ' ' _ _ _ _ _ _ _ ' ' ' ' ' ' ' [ [ ] ' } } } 6.6.6.6.s.s.s.        . o . X + ",
"+ + X + +         n n n *.*.-.*.c.c.c.V.V.N.V.f.f.f.j.j.j.j.v.v.v.h.h.h.h.h.j.j.g.j.j.j.g.g.g.j.j.j.h.j.h.h.h.h.h.h.j.h.h.f.h.g.g.g.g.g.h.g.g.g.g.g.g.g.g.g.g.g.g.g.g.g.g.g.g.g.g.k.h.k.j.j.c.j.c.k.c.c.v.v.v.v.v.v.v.b.b.b.b.b.b.b.l.l.l.8.8.8.8.l l z               + + ",
"X                         X X   N N N ;.$.;.;.$.$.$.........;.;.;.;.;.;.;.;.;.;.;.;.;.;.*.2.;.;.;.;.;.;.;.;.;.;.;.;.;.;.;.;.;.;.;.;.;.;.;.;.;.;.;.;.;.:.;.;.;.;.;.;.;.;.;.;.;.;.;.........;.$.$.;.;.;.;.*.;.;.........{ { { ) ) ) ) Q Q Q i u u i       1 4 1 1           ",
"          X X X X                                           .   .                                                                   .                   .           .                           X     . X X X     X X                                   * * * +           ",
"    * * *               = = = = X X X                       X   X                                               .         X       X       X   X   X       X       X     X   X                                                             X o X   < < <               o o ",
"          > < = * .               .       . .   X                                           .             .                                       .                               . X   X .                                 .       . X .     .                 4 4 5     ",
"o   3 3 3 X O o + .   . . . . . 2 - 7 @ @ @ X # # # x x x x 6 6 6 0 0 0 8 8 8 8 0 0 0 0 0 0 0 8 0 8 0 0 0 8 q q q q q q q 7 7 7 7 q 7 7 7 7 7 7 7 7 7 7 7 7 7 7 7 q 7 7 7 7 7 7 7 y y y y w w w q 7 7 7 q q q w w w w q q q - - 7 - @ @ @ . . . . X @ . O $ $ O           "
};
