/* XPM */
static char *CaptionPlayer_[] = {
/* columns rows colors chars-per-pixel */
"148 47 256 2",
"   c #020202",
".  c #0B0001",
"X  c #04050A",
"o  c #09030A",
"O  c #07080A",
"+  c #0A0A0B",
"@  c #130000",
"#  c #1C0D03",
"$  c #1A0401",
"%  c #000213",
"&  c #000914",
"*  c #0E0E11",
"=  c #00041C",
"-  c #000B1A",
";  c #0A0517",
":  c #110F13",
">  c #0F1012",
",  c #04101A",
"<  c #131314",
"1  c #161719",
"2  c #1A1B1C",
"3  c #17181A",
"4  c #161009",
"5  c #230C00",
"6  c #250D08",
"7  c #291807",
"8  c #341707",
"9  c #2D1818",
"0  c #200D13",
"q  c #2B231A",
"w  c #000322",
"e  c #010B23",
"r  c #000B29",
"t  c #0A0A22",
"y  c #001223",
"u  c #00122E",
"i  c #1E1E20",
"p  c #060B33",
"a  c #281A27",
"s  c #1F2023",
"d  c #182733",
"f  c #232325",
"g  c #262529",
"h  c #27282A",
"j  c #2B2B2C",
"k  c #352626",
"l  c #2E2F31",
"z  c #252F39",
"x  c #352E38",
"c  c #333334",
"v  c #363638",
"b  c #3B3B3D",
"n  c #39373A",
"m  c #2B3230",
"M  c #40190A",
"N  c #5C3E2C",
"B  c #573C35",
"V  c #48332B",
"C  c #4A4A39",
"Z  c #594A39",
"A  c #5B513C",
"S  c #57452D",
"D  c #66492A",
"F  c #6A4B36",
"G  c #664837",
"H  c #69553A",
"J  c #1E344B",
"K  c #1B3654",
"L  c #233648",
"P  c #3E3E40",
"I  c #323842",
"U  c #2A3752",
"Y  c #333951",
"T  c #3D3B60",
"R  c #4C3F43",
"E  c #503D41",
"W  c #3F4042",
"Q  c #36475E",
"!  c #39546D",
"~  c #3C5766",
"^  c #395777",
"/  c #394462",
"(  c #424244",
")  c #464649",
"_  c #4B4B4D",
"`  c #4A4846",
"'  c #5A4948",
"]  c #4F4E52",
"[  c #474F57",
"{  c #504F54",
"}  c #4D5356",
"|  c #525354",
" . c #565658",
".. c #5A5B5C",
"X. c #565857",
"o. c #545140",
"O. c #604C44",
"+. c #685959",
"@. c #61524F",
"#. c #716754",
"$. c #455568",
"%. c #5E5F61",
"&. c #565C6C",
"*. c #534E6C",
"=. c #605F64",
"-. c #5F6062",
";. c #636465",
":. c #656669",
">. c #676869",
",. c #6B6B6C",
"<. c #7B7468",
"1. c #6E6E71",
"2. c #6D7179",
"3. c #737374",
"4. c #767678",
"5. c #7B7C7D",
"6. c #777878",
"7. c #825D57",
"8. c #886D4A",
"9. c #8C7149",
"0. c #886C57",
"q. c #907556",
"w. c #857068",
"e. c #7B8270",
"r. c #9D8C78",
"t. c #AD997B",
"y. c #B49574",
"u. c #6A7E8A",
"i. c #7E7E81",
"p. c #74748E",
"a. c #827E83",
"s. c #7D8183",
"d. c #7F878A",
"f. c #6B849B",
"g. c #6A869A",
"h. c #738395",
"j. c #728598",
"k. c #6986A5",
"l. c #828384",
"z. c #868689",
"x. c #868889",
"c. c #8B8C8C",
"v. c #8E8E91",
"b. c #8D9191",
"n. c #949495",
"m. c #969B9A",
"M. c #9B9B9C",
"N. c #97959B",
"B. c #AA9A8A",
"V. c #B59482",
"C. c #9E9EA1",
"Z. c #9192A6",
"A. c #8194A3",
"S. c #9EA3A5",
"D. c #98A7B8",
"F. c #A3A3A4",
"G. c #A6A6A9",
"H. c #ABABAC",
"J. c #A7A7AB",
"K. c #AEAFB2",
"L. c #A2ABB4",
"P. c #B3B3B4",
"I. c #B6B6B9",
"U. c #B6B8B9",
"Y. c #BABBBC",
"T. c #B7B7B7",
"R. c #AFB0B2",
"E. c #DDB99F",
"W. c #D7BDA8",
"Q. c #D5B8B0",
"!. c #BAC6B8",
"~. c #D5C39C",
"^. c #D8C2A6",
"/. c #CDC2B3",
"(. c #C9C2BD",
"). c #D3C3B2",
"_. c #EBD7B8",
"`. c #F5D9BB",
"'. c #8EAAC5",
"]. c #94ABC5",
"[. c #BEBEC1",
"{. c #B3BDC7",
"}. c #C1BEC2",
"|. c #C8BCC0",
" X c #BFC0C2",
".X c #AAC2D5",
"XX c #B8C8D8",
"oX c #BDD0D7",
"OX c #B4CCE4",
"+X c #B7CCE9",
"@X c #B5D1E6",
"#X c #B1D0EA",
"$X c #C3C3C4",
"%X c #C6C7C9",
"&X c #CBCCCC",
"*X c #CAC5C8",
"=X c #CECFD1",
"-X c #C1CDDA",
";X c #CFD1D3",
":X c #D3D3D4",
">X c #D5D5D8",
",X c #D7D8DB",
"<X c #DCDCDC",
"1X c #DCD8D7",
"2X c #D2CDD1",
"3X c #EEDBC3",
"4X c #E9DBC9",
"5X c #F1D7C7",
"6X c #E4DAD4",
"7X c #DCE4DD",
"8X c #FFFACD",
"9X c #FFF0CF",
"0X c #E6E5DD",
"qX c #FFEBD7",
"wX c #FFF2D4",
"eX c #FFF4DC",
"rX c #FFFADC",
"tX c #FFFAD3",
"yX c #EFE1CC",
"uX c #DEDEE0",
"iX c #C4D6EA",
"pX c #DEE1E1",
"aX c #DFE9E1",
"sX c #CAEBFF",
"dX c #D3ECFF",
"fX c #DCEAFC",
"gX c #DDF4FF",
"hX c #DBFBFF",
"jX c #DDF0F4",
"kX c #DCF4E7",
"lX c #E3E3E4",
"zX c #E9E8E6",
"xX c #E6E6E9",
"cX c #ECECED",
"vX c #E8E6EA",
"bX c #FFF5E4",
"nX c #FFFDE4",
"mX c #F3F4ED",
"MX c #FEFDEC",
"NX c #FAF7EB",
"BX c #EEEFF0",
"VX c #E0E7FA",
"CX c #E4F6FF",
"ZX c #ECF4FF",
"AX c #E6FFFF",
"SX c #EDFEFF",
"DX c #EFF0F1",
"FX c #F4F4F4",
"GX c #F9F6F6",
"HX c #F5FAF5",
"JX c #FEFDF4",
"KX c #F6F6F9",
"LX c #FAF5FA",
"PX c #F4FEFE",
"IX c #FDFDFD",
"UX c #EEF2E7",
/* pixels */
"  O                                           +     + +     O   O   O             +     + X :   :   o X + *     < + o   >   * <     X X       O X *     O O   X 1   +   O >   * + * o             O                                                     X                                               ",
"O         O                                             +     O   + <     O   O O < >   +   + X X + *   >   +     +   <         X X X   X   X + X     > * * X     * o * X   2 * +   + O   4     4 O   O                                                       X                                         ",
"  O   X                               O +   X X           O       >   + +       X   + +       O   X   X       * X X O   + X s   X   O +   + X X     2   > * X X i 2 1 s 2 2   O + n 2 ` ` _ ;._ n <                                                                 O                                   ",
"    w.3     O             O   g < v c c P n P ( ;.v c W 1.| c.s.C.n.n.1.S.T.m.T.6.C.%Xe.cXIX1.<XY.6X&X:X:X%X%X XK.FX:XGX[.F.C.H.S.l.IX:X<X[.S.K.K.b %.U.I.Y.$XH.=XI.I.[.I.G.P.I.r.x.z.;.;.n.%.X.m O : 2   O 3 < O f +       < : + j O g f g c 3 f P c l 1 * + 1 < 3 < X O     *                         ",
"X f <Xb < +       X     +   * g g ] ) I R  .x { 1.i _ s.;.5.J.) %.C.d.d.,.U.pXDX XcX<XC.DXHX..G.IXIXFXlXBXGXlX$XP.IXHXIX;XH.w.z.$XI.BXFXIXP W P j ] f _ c ) ) ]  ...n .._ + 2 3 & O     : 5.* + +   O 2 9 n ) s.f 5.2 < < < j 2 j -.j ] | >.c.4.:.m.a.:.2 3 i l i h s j g   < X                         ",
"X C cXIXf + < O     o j P :.R C.4.i.K.i.i.K.n.&XJ.L.>X,X3.%Xs.IX;X[.pX5.pXcXS.IXcX,XcX7XR.<XKXGXIXIXzXFXGXKXFXIXIXIXIXGXDXxXPXIXIXcXFXuXIX,X:X$XFXuXIXFXIXKXFXKXxXcXKXFXFX<XIXIXFXcXcXcXIXcXIXIXGXIXIXIXDXHXIXHXKXGXIXIXIXFXcXFX:XIXcXIXGXIXlXIXY.G.=X:X[.FX:XG.uXuXC.K.v.3 + X                         ",
"  b GXHXY.O       O X =.] 1.K.IXIXFXIXKXuXI.uXIX$XIXU.&XIXPXIXIXb.KXIXKXaXKXmXIXIXIXIXIXHXIXHXHXFXFXIXIXIXIXFXIXIXIXIXKXIXIXIXIXIXIXIXIXLXKXIXFXKXIXIXIXKXIXIXIXIXKXIXIXIXIXIXIXIXFXIXHXFXIXIXIXIXDXIXIXIXIXIXIXFXuXIXlXFXFXHXGXIXcXIXIXIXFXIXGXIXIXIXGXIXIXIXuXIXKX1XY.$X3.4.+ +   O                   ",
"  2 GXIXmX..O     : o 1 i I 2.LXFXFXIXIXIXKXFXLXDXIXIXIXKXIXIXIXFXKXKXBXKXIXIXIXPXDXIX,.:.H.IXIXIXIXIXIXIXIXFXFXGXIXFXIXDXFXIXIXIXKXIXIXIXLXKXIXIXIXIXIXIXIXIXIXIXIXIXGXIXIXIXIXFXIXIXIXGXIXIXIXIXIXIXIXIXIXIXGXIXmXIXH.IXIXIXKXFXJXFXIXIXIXIXIXIXIXIXIXKXBXFXIXIXKX1XH.Y.BXIX) n O                     ",
"  | 5.GXIXj X < +   ) i _ R >X%.c.<XlXmX&X,X<X1X=X*X;X&X&XHXHXFXGXKXFXC.$XKX&XG.IXG.xXV ,.$XFXIXFXF.5.R.J.P.r.U.I.$XP.K.P.$XIXIXIXIX:X&X<XIXIXIXIXIXIXIXIXIXIXIXIXIXIXIXIXIXIXIXIXIXIXIXIXIXIXIXIXGXIXIXIXIXIXIXIX$XN.IXIXFXIXIXIXIXIXIXKXIXIXIXIXIXGXGXIXIXIXlXGXFXKX<X X>XxXM.G.O                     ",
"  b ` cXIX3   <   * ( { =.) {.g b M.N.n.s.d.r.M.1.x.w.6.6.S.&XY.C.M.F. .5.K.H.N.cXx.,Xj a.I.6XzXcX5.X.n.l.m._ m.d.P.l.4.F.Y.GXIXIXFX:X&X,XFXIXIXIXLXIXIXIXIXIXIXIXIXIXIXIXIXIXIXIXIXIXIXIXIXIXIXIXIXHXIXIXIXIXIXGXm.N.DXIXIXGXIXGXFXFXcXlX0X<X,X&X&X&XK.Y.P.P.n.M.M.M.v.4.s.l...,.<                     ",
"X C v.GXKXl   < =XIXFXl >.&X:.IXJXGXHXIXGXKXIXIXIXIXGXIXIXIXIXzXIXzXIXGXIXIXLXIXIXIXLXIXIXGXIXIXIXIXIXIXIXKXIXIXIXHXIXIXIXIXIXIXIXIXIXIXIXIXIXIXIXIXIXIXIXIXIXIXIXIXIXIXIXIXIXIXDXIXIXGXcXIXIXHXIXGXFXGXIXFXGXIXIXIXzXHXIXIXIXIXIXKXIXIXIXIXIXIXIXIXIXIXGXlXcXGXIXKXIXGX*X$XxXIX<X_   o   X             ",
"  2 G.IXFXn.J.uXIXIXIXf i BXIXIXIXHXIXIXIXIXIXIXIXIXIXIXGXIXFXHXIXIXIXIXDXLXGXIXGXIXIXIXGXIXIXIXIXIXIXzXIXGXGXIXIXGXIXIXIXIXIXIXIXIXKXGXIXGXIXIXIXIXIXIXIXIXIXIXIXIXIXIXIXIXIXIXFXIXKXIXGXGXIXIXKXIXIXGXGXIXIXIXFXIXIXFXGXIXIXIXIXIXGXIXIXIXIXIXIXIXcXIXIXIXIXIXGXIXIXIXDXIXIX<XU.g ,.  < O X           ",
"+ c l.GXKX .X IXIXIXIXIXIXIXIXFXIXIXIXIXFXIXIXIXGXIXIXIXIXIXIXIXIXIXIXIXIXIXIXIXIXIXIXIXIXIXIXIXIXIXIXIXIXIXIXIXIXIXIXIXIXIXIXIXIXIXIXIXIXIXIXIXIXIXIXIXIXIXIXIXIXIXIXIXIXIXIXIXIXIXIXIXIXIXIXIXIXIXIXIXIXIXIXIXIXIXIXIXIXIXIXIXIXIXIXIXIXIXIXIXIXIXIXIXIXIXIXIXIXIXIXIXIXIXIXIXGX>X..P.[.X X           ",
"  c  .IXIXl 3 IXIXLXIXIXIXIXKXIXIXIXDXGXIXIXIXIXIXIXIXIXIXIXIXIXIXIXIXIXIXIXIXIXIXIXIXIXIXIXIXIXIXIXIXIXIXIXIXIXIXIXIXIXIXIXIXIXIXIXIXIXIXIXIXIXIXIXIXIXIXIXIXIXIXIXIXIXIXIXIXIXIXIXGXIXIXIXIXIXIXIXIXIXIXIXIXIXIXIXIXIXIXIXIXIXIXIXIXIXIXIXIXIXIXIXIXIXIXIXIXIXIXIXIXIXIXIXIXIXcXP.| =XN.X             ",
"X i + FXBXX   IXIXIXIXIXIXGXIXIXIXIXIXFXIXIXIXIXIXIXIXIXIXIXIXIXIXIXIXIXIXIXIXIXIXIXIXIXIXIXIXIXIXIXIXIXIXIXIXIXIXIXIXIXIXIXIXIXIXIXIXIXIXIXIXIXIXIXIXIXIXIXIXIXIXIXIXIXIXIXIXIXIXIXIXIXIXIXIXIXIXIXIXIXIXIXIXIXIXIXIXIXIXIXIXIXIXIXIXIXIXIXIXIXIXIXIXIXIXIXIXIXIXIXIXIXIXIXIXIXIXIXIX%XP i             ",
"O X c >XvX+   IXIXGXIXIXIXIXGXFXIXFXIXFXIXIXIXIXKXIXIXIXIXIXIXIXIXIXIXPXIXIXIXIXJXJXIXIXIXIXPXIXIXIXIXIXIXIXIXIXIXJXJXIXIXPXIXIXIXIXJXJXIXIXIXIXIXIXJXIXIXIXIXIXIXJXIXIXIXIXIXIXIXIXIXIXIXPXIXJXIXIXIXIXIXIXIXIXIXPXIXIXIXIXIXIXIXIXIXIXIXJXIXIXIXIXIXPXIXIXIXIXIXIXIXIXIXIXIXIXLXIXxXi.g :             ",
"  o c.IX<XO   GXIXIXIXIXIXlXc.BXIXIXIX*XGXIXGXPXmXJXMXbXq |.a x bX` } SXPXPXPXJX3X5       X = ].IXIXIXIXIXIXIXIXIXMX^.. $.AXPXIXIXMXnXt.. .   X h.PX#.$   X = D.4X5     .             X k.SX).@     % X   O X I CXSXIXIXIXIXIXIXIXIXIXIXMXMXQ.. . X ! AXPXIXIXIXIXIXIXIXIXIXIXIXJXGXIXF.: + O O         ",
"< < j KX:X  + GXIXIXIXIXIXIXBXIXDXIXIX*XIXIXIXIXIXNXMXyX# @ o o .       X L CXIXnX8..   X % w p.IXIXIXIXIXIXIXIXJXbXD @ y sXPXIXIXJXtXq.. . X % ~ AX8 @   - ! PX).@ k R               X ! SXMXt..   % j.IX+.a x & j.IXIXIXIXIXIXIXIXIXJXJX0.    .   = ! SXPXIXJXIXIXIXIXIXIXIXIXIXIXzX< 2 g q O         ",
"  f 1.KX>XX X IXIXIXIXIXIXlX=XIXLXFXLX}.GXIXIXIXIXIXJXbX8 @ o X h.PXnXA . X w g.HXtX7 ` *.ZXPXPXIXIXIXIXIXIXJXJXMXnXG . w ^ PXIXIXIXMXeX8 @ % r fX7XwXZ & g.SXIXMXeXG X X J ZXIXIXJXB.. e fXJXeX8 . r sXIX0Xr.. X = gXSXIXIXIXIXIXIXIXMX' @ $XJXbX0.  e OXSXPXIXIXIXIXIXIXIXIXIXIXJXFXIXj lXx.  O O     ",
"*   6.IXFXn.H.cXIXIXIXIXIXM.C IXIXIXvXJ.KXIXIXFXIXHXIXMXwXG . = OXSXMX_.5 . w K kXnXZ +.T ZXPXIXIXIXIXHXIXIXIXJXMX_.5 . w K CXIXIXIXIXJXeX8 ; U AXIXnX/.! AXPXHXMXrXG B = ^ PXIXHXIXJXJXIXPXIXMX0.@ K hXIXMX^.@ X Y '.AXSXIXIXIXIXJXMX6X1 a.PXSXrX^.  % '.AXIXIXIXIXIXIXIXIXIXIXIXIXIXIX$XIXH.          ",
"  X M.KXIXIXIXIXIXIXIXIXIX$X1 zXIXIXcXK.KXIXIXDXIXHXJXMXrXV.o r OXAXNXrXG @ w u kXMXS @.Q gXIXIXIXIXPXIXIXIXIXJXrX9..   % e +XSXIXIXIXJXnXW.. % @XSXnX' ].AXPXJXrXwXG E w k.PXIXIXHXIXIXIXIXIXJXq.@ r dXPXMX~.@   = f.SXPXIXIXIXIXJXnX).@ o OXSXrX^.. % k.AXPXIXIXIXIXIXIXIXIXIXIXIXIXmXIXIX..    + O   ",
"  1   R lXIXIXIXIXIXIXIXJX%X3 IXIXKXL.x.KXIXIXIXIXIXIXMXeXy.o = @XAXNXrX9 X t fXHXUXA +.Q AXIXIXIXIXIXIXIXIXIXJX`.5 m b.  X f.AXPXJXIXJXMXnXG o L jXQ.X XXSXIXMXnXeXN 0 w k.IXIXm.L.PXIXIXIXIXJXF V = +XIXMXt.O   L gXSXIXIXKXIXJXJXnXbX9 X D.KXnX8.% e gXSXPXIXIXIXIXIXIXIXIXIXIXIXIXGXIXGX..X         ",
"    l [.cXIXIXGXIXIXIXIXIX*X< GXIXKXJ.b.IXKXIXIXIXIXIXMX8Xy.w.$.g.SX6X4 X $.IXIXIXJXA q Q ZXIXIXJXJXIXIXIXIXIXJX0.. e.7X< X u sXPXIXIXJXJXMX5X5   g.i $.IXIXIXIXnXtXG B % w X X & oXIXIXIXIXIXJX8.@ % D.Q.. .   $.SXPXPXIXIXIXIXJXJXJXIXLXC.IXJXrXS & k.SXPXIXPXIXIXIXIXIXIXIXIXGXFX<Xc ]  X( +   +     ",
"  X *   IXIXIXIXIXIXIXIXIX<X< IXIXKXS.N.IXIXIXIXIXIXIXJX8X9.. X Y %     f.AXIXIXIXJXC C $.KXIXJXJXJXIXIXIXIXbX5X6 # aX!.  X e '.PXHXIXIXIXJXeX8.  % r +XIXIXIXJXnXrXN 6 % $.PXPX2.D.HXJXIXIXIXJXy.@ , OXMX3X< D.AXSXPXIXIXIXIXIXIXIXIXIXLXIXJXMX`.# J gXIXIXIXIXIXIXIXIXIXIXIXIXIXFXxX  3 3 O <   O     ",
"  %.X BX  IXGXIXIXIXIXIXIXuX< IXGXIXG.C.IXIXIXJXIXLXIXJX8X9.. t XXKXPXPXPXPXIXIXJXNXo._ Z.IXIXJXJXJXIXIXIXJXeXq..       O   w ^ PXPXIXIXIXJXrX~.  X K gXIXIXIXMXMXnX0.' = ].PXIXIX6XJXJXJXIXIXJXq.. d A.6 $   X k.AXPXIXIXIXIXIXIXIXIXIXHXIXMXMXO.b -XPXIXIXIXIXIXIXIXIXIXIXIXIXFXGXFX  + <   X   O     ",
"      + X IXIXIXIXIXIXIXIXIX: IXJXmXH.G.LXGXJXmXIXIXLXMX8X9.. = -Xu.jXPXIXIXIXIXMXMXo.) p.ZXIXJXMXNX} -XIXMXtXD   &       . % r OXSXIXIXIXJXrX`.5   k.AXSXIXIXMXnXeX0.' w +XIXIXIXJXJXJXHXIXIXJXq.H - gX6X5 . X u sXIXIXIXIXIXIXIXPXIXIXIXJXMXB.x L.IXPXIXIXIXIXIXIXIXIXIXIXIXIXHXIX,X3   X     O       ",
"X *     l b IXGXKXIXIXIXIXIXIXIXGXGXI.z.IXIXJXIXIXIXIXJX8X9.q , u.XXAXSXPXIXIXIXMXrXN $ p fXIXJXnX/.= '.IXbXy.. , sXIXJXeXG   % k.SXPXIXIXGXbXE.. & ^ hXSXIXIXMXbXbX+.+.dX.XKXIXJXIXnXMX_ D.IXMXy.5 e dXIXV.@   w '.PXIXIXIXIXIXIXIXIXJXJXMX<.  D.PXJXJX&.fXIXIXIXIXIXIXIXIXIXIXIXJ.| :.c 1 X X   X   X ",
"      * < :.xXFXIXIXIXIXIXGXBXIXIXFX}.a.FXIXIXIXIXIXIXJXeXD   b f.XXCXPXIXIXIXJXrXwX8 o w +XPXIXnXo.= '.IXMXD . f.AXSXIXrX_.6   L hXSXPXIXMXqXM . & K hXPXIXIXJXnXbX8 $ % ~ IXIXIXJX4XC % h.IXMXq.V e dXIXbXF @ % U ZXPXPXPXIXIXIXIXIXMXMX).  s.IXIXJX(.L AXIXIXIXIXIXIXIXIXIX*X:XF.:X( P + ( *         ",
"      <   FXKXFXGXIXIXIXIXIXIXFXIXIX2Xa.IXIXIXJXIXNXIXMXQ.$ +.  = $.PXPXIXIXIXJX_.7     X           - D.' @ .   XXSXSXPXnXrXt..   X '.SXMXeX8 $ . X e +XSXPXIXIXMXeXO.B X - XXIXJX<.    J iXIXnX5X7 X h.KXIXqX8 X % D.PXSXPXIXIXIXIXIXJXeX8     X       w +XPXIXIXIXIXIXIXHXIXF.zXX.IX5.Z.  3 X +       ",
"  X       F.xX*XHXIXIXIXIXGXIXIXJXJXF.( IXIXIXIXIXIXJXGX9 .   d.y % u.IXIXIXIXJXyX#.                - {.9 @ .   X X $.PXMX7 . @   X f.SXMX4X6 .     % % D.IXIXIXbX7 . . X X X     .   z Q CX6X5 .   X & j.IXnXW.  X % = oXPXJXIXIXIXIXJXQ.@ .         X ! SXIXIXIXIXIXIXIXHXIX>.$X| _ J.v.X :.3 X       ",
"X       O G.pXIX&XGXIXIXGXIXIXIXIXDXG.x IXFXHXIXIXIXJXJXJXIXIXIXIXPXIXIXIXIXIXIXIXJXIXJXIXIXIXIXJXIXIXPXHXmXIXIXIXIXPXIXIXJXJXIXIXIXPXIXIXJXIXJXIXIXIXIXIXIXIXIXIXJXIXGXIXIXIXIXIXJXIXIXPXIXIXIXIXIXIXPXIXIXMXJXIXIXIXPXIXPXIXIXIXIXIXIXIXJXJXJXHXIXIXIXPXPXIXIXIXIXIXIXIXIXIXm.IX;.> W c 3   X         ",
"          c.,.IXIXIXIXIXIXIXzXGXIXFXLXvXKXIXHXHXIXHXIXGXIXIXIXHXIXHXIXLXIXIXBXKXKXIXIXIXJXIXIXIXJXJXIXIXHXHXcXIXIXKXFXIXIXIXIXIXIXKXIXIXIXIXIXIXIXIXIXIXIXHXIXIXIXIXIXIXIXIXIXIXIXIXIXIXIXIXIXIXIXIXIXIXIXIXIXJXIXIXIXIXIXIXIXIXIXIXIXIXIXIXIXIXJXIXIXIXIXIXIXIXIXIXIXIXIXIXIXP.$Xc m.W v X X   X       ",
"X       n IXJXxXzXIXIXIXIXmX&XIXIXIXKXcXIXGXHXIXIXIXIXFXIXFXIXGXIXIXIXIXIXIXIXKXIXFXIXIXIXFXIXGXFXIXIXcXIXDXIX,.I.M.lXKXKXIXIXJXIXGXIXIXIXIXIXIXIXIXIXIXHXIXIXIXIXIXIXIXIXIXIXIXIXIXIXIXIXIXIXIXIXIXIXIXIXIXIXIXIXIXIXIXIXIXIXIXIXIXIXIXIXIXIXIXIXIXIXIXIXIXIXIXIXIXIXIXIXIXIXxX X4.IXg f X X X         ",
"      <   2Xv HXxXIXIXIXFXIXzXIXBXIXIXIXFXIXIXIXIXFXFXIXmXIXcXIXIXHXIXIXzXDXFXIXcXIXcXGXIXGXIXHXIXIXIXDXDXpXIX<XcX XDXKXIXIXFXIXIXIXIXHXIXIXIXcXIX<XJXIX&XIXKXIXIXIXIXIXIXIXIXIXIXIXIXIXIXIXIXIXIXIXIXIXIXGXIXIXIXIXIXIXIXIXIXIXIXIXIXIXIXIXIXIXIXIXIXIXIXIXIXIXIXIXHXIXIXIXcX*XpXc cX) g P 3   X     X ",
"O       f H.Y.IXY.cXIXGXGXIXzXIX0XcXHXKXGXKXGXIXGXJXcXFXIXIXzXIXIXGXxXFXDXFXKXFXIXIXIX:XGXFXIXIXFXHXBXIX&X,.KX,XFXN.IXlXHXFXFXKXGXFXGXKXFXcXDXIX:XC.1XIXz.cXIXIXIXIXIXIXIXIXIXIXIXIXIXIXIXIXIXIXIXIXIXIXIXGXIXIXIXIXIXIXIXIXIXIXIXIXIXIXIXIXIXIXIXIXIXIXIXIXIXIXIXIXIXIXIXFXFX0Xc.1.cX;.g c O X o       ",
"O         f c.FXIXIXIXGXGXIXIXP.  O   f P l.lX&Xg 1 2 O < 1 h ..$X  3 + b ;XIX>XFXGXH.,XGXP.| FXS.DXW vX3.,X<XBXIXKXY.4.7XcXIX7XM.;XGXIXIXFXKX1 +   v.l.&XzXIXIXIXFXGXIXIXIXIXGXIXIXIXGXcXIXIXIXIXIXIXIXzXIXIXIXIXIXIXIXIXIXIXIXIXIXKXGXIXIXIXIXIXIXIXIXFXIXIXIXIXIXIXIXIXIX<XFXIXv.cXIX<Xo   X     X   ",
"O     O < ( v.zXFXcXIXIXIXcX[.n s > b W 6.M.pX| K._ b H._ * ..| _ + > _ v =XBXI.KXFX%X3.H.,X X| 1.KXl.vX:.i.BXFXFXvXx.S.x.< cX;.<Xg IXKXxXcX;XcX;.< b 2 xXcXIXIXIXGXIXIXmXIXIXIXcXIXxXlX,XIXIXIXIXIXIXIXIX<XIXIXIXmXIXIXIXIXIXIXIXIXIXIXIXIXIXIXIXIXIXIXIXIXIXIXIXIXIXKXIXIXc.lXIXM.cXIXKX+   X +       ",
"                   .i   O O   f _ * v 3 a.6.,. .R + { j _ g b.{ v P.:XU.;.1.=Xz.IX6.G._ C.;.m.>XIXKX%.[.] b FXpX$Xs.IXW F.>.H.6.M.s.uXxXcX .1.%.j ..] ;.i.l.G.R.U.n.IX<XP.IXm.v.3.GX<X:Xc.M.0X&X<XM.KXKXuXxXIXcXP.H.1X4.cXGX1.IXIXGX&XIX,.n.cXIXIXKXGXIXzXN.IXcXIXIXIXIXIXY.IXm.h IXDXIXIXIXcX&X] + +   ",
"            X   X 3   + + ; X ] i i c s J.l.b  .c   * W } ( W | l pXxX..>.%.$XpXFX} n.W C.3.:.uXIX=Xc Y. .v IX=XxX3.FX3 m.) F.%X Xx.R.IX;X{ ..j ( s.< l.%.b -.KX*Xc.>X:XN.zX5.( 6.IXmXFXK.U.zXU.IXz.zX0XIXcXGXIXn.%.H.G.<XIXg UX<XmX>XFXx.N.IXzXcXFXIXIXmX,.lXIX X[.=X&XzXF.c.` b IXIXIXKXGXFX:X6.(     ",
"                o X X   X *   f g * ) * l %.O :.) X l W ..2  Xh ) U.v.z.H.v cXv K.v %.6.x.2 ,XW ;X} b.-.>XC.IX_ K.s R.,.m._ =XuX;Xn xXN. X,.,.j s.c 1 O 1 O   FX7XlXN.<X$X:X&XlXP.GXIXGXIXzX<XIXY.*XN.n.IXzXIXP.F.6.<X:X2XlXX.Y._ <XzXF.P.0XGX,XIXIXGXIXIXIXFXv.X       *   + < l IXIXIXIXIXFXGXFXmX    ",
"                  + X 3 ..s : X   +   <         * * 1         >.      * h         i X 3 2 ) ,X;XR {.1.I   g _ b c | K.3.;X] [.4.&X,.O 1 2 1 O >   U.> +   i + IXcXN.C pXP.Y.F.0X=XG.v 0XHXIXzX(.T.&XIXlXIXIXFXmXl.lXIX:XmXGXv zXY.IXn.zXc.H.JX<X&XlXIXmXIXIXcXIXIXPXIXIXlXuX>X0X=XFXKXIXIXGXHXIXIXzXO   ",
"                  X   i ( * X X   O X   * 1 h {           +   X   O     X   +   l.G.%.* > + BXKXIXP   c       X   X < < 2 h f 2 3 :.+ +   1 X + + 3   X X     5.W q < g ) ] X.j c q ] v x.5.c f C KXIXN.j P.] c.v.< ..c F.F.O R.( pXw.&Xv.F.M.F.H.lXT.n.GX<Xc.GXDXIXIXKXIXuXzXzXFXIXIXGXIXIXzXJXGX<X    ",
"                    <   O X   X   X X   H.    * X X         +   X     X X     + X H.I.m h  .&X  * l f f 2 i X X O X +   * + X   + > + & +   O <     +     * + X       +       O   + O 4     f O   O   O     <   O O < 4   + f     2   O O         O     < :   3. XG.b.e.c   < O n 0XzXIXFXIXIXDX] +     ",
"                X   +     X             z.* X     X     X X     X             X O c.[.W h i I.1 * X O   *       X   X   O X     X   > O X X   < X   +   X >   >     + : O           O +   O +   O O         <     c   +   + + + O       O   O O O   +   1     (  .W v b g O     g | N.&X0XmXJXP.2       ",
"                        o         O O         O                     X     O X   * + O   X     > O   (   O O               +   X         O   O                                 O O < f + +   _ 3 + +       : +   + v < O   O   O                         O +         + O                         4       ",
"                                        O     <                               1 H.  X   O   i X o   ;.                                                                            : 2 O     O   O                 + O                                                                     O           O ",
"                                                                                + O O       <   : O       O                 X                                                               +   O 4             O   O   O                   O                 O O                                     1X"
};
