/* XPM */
static char *CaptionCPU[] = {
/* columns rows colors chars-per-pixel */
"148 47 256 2",
"   c #020202",
".  c #0B0001",
"X  c #050509",
"o  c #09050A",
"O  c #07080A",
"+  c #0A0A0B",
"@  c #130000",
"#  c #1A0000",
"$  c #1D0B02",
"%  c #1C0C0C",
"&  c #0E100F",
"*  c #1C1002",
"=  c #19120C",
"-  c #000313",
";  c #0E0E11",
":  c #01041B",
">  c #01091D",
",  c #0D0115",
"<  c #110710",
"1  c #100F14",
"2  c #0F1113",
"3  c #091219",
"4  c #131314",
"5  c #161719",
"6  c #17181A",
"7  c #1A1B1C",
"8  c #230000",
"9  c #2E0A00",
"0  c #231107",
"q  c #26150B",
"w  c #351A03",
"e  c #30190B",
"r  c #33160E",
"t  c #311813",
"y  c #2F241E",
"u  c #322C1C",
"i  c #000422",
"p  c #020C22",
"a  c #1E0D20",
"s  c #001128",
"d  c #1E1E20",
"f  c #121421",
"g  c #211928",
"h  c #1F2023",
"j  c #232325",
"k  c #262529",
"l  c #27282A",
"z  c #2B2B2C",
"x  c #2C252C",
"c  c #2E2F31",
"v  c #332C3A",
"b  c #2A303C",
"n  c #323334",
"m  c #353639",
"M  c #37383B",
"N  c #3B3B3D",
"B  c #313C36",
"V  c #4B4B3F",
"C  c #574B31",
"Z  c #5F4831",
"A  c #5E463A",
"S  c #694834",
"D  c #694628",
"F  c #173954",
"G  c #28344A",
"H  c #293E4F",
"J  c #343843",
"K  c #3E3E40",
"L  c #3F4042",
"P  c #3B566B",
"I  c #424344",
"U  c #464649",
"Y  c #48474C",
"T  c #47484C",
"R  c #4B4B4D",
"E  c #54504F",
"W  c #4F4E52",
"Q  c #464F58",
"!  c #494553",
"~  c #504F54",
"^  c #5A4556",
"/  c #4F5052",
"(  c #48555D",
")  c #525354",
"_  c #565857",
"`  c #565658",
"'  c #5A5B5C",
"]  c #666052",
"[  c #7E6D51",
"{  c #7F7456",
"}  c #445569",
"|  c #5E5F61",
" . c #555C6F",
".. c #475770",
"X. c #605F64",
"o. c #5F6062",
"O. c #636465",
"+. c #656669",
"@. c #676869",
"#. c #6B6B6C",
"$. c #6E6E71",
"%. c #626979",
"&. c #6B7175",
"*. c #737374",
"=. c #767877",
"-. c #767678",
";. c #77787A",
":. c #7B7C7D",
">. c #8A6747",
",. c #8A6E49",
"<. c #84694E",
"1. c #867047",
"2. c #887249",
"3. c #816C54",
"4. c #896D53",
"5. c #867257",
"6. c #907057",
"7. c #80776E",
"8. c #AF9A6F",
"9. c #AE967E",
"0. c #AD997E",
"q. c #B49579",
"w. c #B39A7B",
"e. c #B69977",
"r. c #7E7E81",
"t. c #6E7D92",
"y. c #817F80",
"u. c #7E8182",
"i. c #7A828D",
"p. c #658197",
"a. c #6F8494",
"s. c #69839A",
"d. c #728292",
"f. c #728299",
"g. c #6484A2",
"h. c #6A84A2",
"j. c #6788A9",
"k. c #6B8BA2",
"l. c #838384",
"z. c #868688",
"x. c #868889",
"c. c #8B8C8C",
"v. c #8E8E91",
"b. c #8F9092",
"n. c #949495",
"m. c #959598",
"M. c #979899",
"N. c #9B9B9C",
"B. c #AF9D85",
"V. c #AA9C8F",
"C. c #B39B83",
"Z. c #9E9FA1",
"A. c #8695B2",
"S. c #A29DA4",
"D. c #9EA1A0",
"F. c #9FAAB0",
"G. c #92A7BA",
"H. c #A3A4A4",
"J. c #A6A6A9",
"K. c #A7A8AA",
"L. c #ABABAC",
"P. c #AFAFB2",
"I. c #AFB0B2",
"U. c #B3B3B4",
"Y. c #B8B6B7",
"T. c #B6B8B7",
"R. c #B6B6B9",
"E. c #B6B8B9",
"W. c #BABBBC",
"Q. c #DDB7A2",
"!. c #DABCA0",
"~. c #E1BCAC",
"^. c #BEC4B6",
"/. c #C7C4BF",
"(. c #EFDDB5",
"). c #8EA7C5",
"_. c #8BACC4",
"`. c #8FAECB",
"'. c #92ACC4",
"]. c #93ADC8",
"[. c #8EB0CB",
"{. c #90B0C5",
"}. c #BEBEC1",
"|. c #C3BDC3",
" X c #BFC0C2",
".X c #B3C3DD",
"XX c #BDC8DB",
"oX c #BACCE1",
"OX c #B9CEED",
"+X c #B3CDE7",
"@X c #BAD2EC",
"#X c #ABCDF0",
"$X c #C3C3C4",
"%X c #C6C7C9",
"&X c #C8C7CC",
"*X c #C3CFCF",
"=X c #CBCCCC",
"-X c #CECFD1",
";X c #CFD1D3",
":X c #D3D3D4",
">X c #D8D6D7",
",X c #D5D5D8",
"<X c #D7D8DB",
"1X c #DCDCDC",
"2X c #E0D8CD",
"3X c #EAD6CB",
"4X c #F3DBC4",
"5X c #FDDAC4",
"6X c #E3DED8",
"7X c #EDDAD4",
"8X c #DCE0C5",
"9X c #DEE0DF",
"0X c #FFF5CF",
"qX c #E0E0DE",
"wX c #F3E6D6",
"eX c #FFF5D4",
"rX c #FFFBD4",
"tX c #FFF5DB",
"yX c #FFFADA",
"uX c #DDDEE1",
"iX c #D5DEE3",
"pX c #E4DAE5",
"aX c #DEE1E1",
"sX c #DFECEB",
"dX c #DCE8F6",
"fX c #D1EFFF",
"gX c #D8ECFF",
"hX c #D7FEFF",
"jX c #E3E3E4",
"kX c #E9E8E6",
"lX c #E6E7E9",
"zX c #E7E8EA",
"xX c #ECECED",
"cX c #EDF9E5",
"vX c #FFF7E2",
"bX c #FEFCE4",
"nX c #F0F0EE",
"mX c #FBF5EA",
"MX c #FEFDEE",
"NX c #F4FEE5",
"BX c #E1EBF4",
"VX c #EEEFF1",
"CX c #F4EFF3",
"ZX c #EEF2F3",
"AX c #EBF7FB",
"SX c #E4FFFF",
"DX c #ECFEFF",
"FX c #ECFCF1",
"GX c #F4F4F4",
"HX c #FAF6F5",
"JX c #F5FAF6",
"KX c #FEFDF4",
"LX c #F6F6F9",
"PX c #F9F7F8",
"IX c #F5FEFE",
"UX c #FEFEFE",
/* pixels */
"  O                                           +     O +     O   O           X     +     +   4   1   O O O +   O 4 o +   ;   ; 4     X O     X O X +     O ;     5   +   O ;   ; ; ; O             O                                                     X                                               ",
"O         O                                     X       O   X X   & 4     O   O O 4 &   O   + . O + ;   1   O     +   4 X       X X X     O X O   X   2 ; + X     ; O ; O   7 + o   O O   +     + O   O                                                       X                                         ",
"  O                                 O   o   O O           O       &   O +   X X O   O O   O   +   X   O       + O X O   + O d       O +   X O X     d   2 ; X X j 7 5 g 7 7   O + M d U U R O.R N =             O                                                                                       ",
"    7.5     O             O   j 4 m n n N m K I O.B n I $.) c.u.D.n.n.$.D.T.n.T.:.N.%X:.VXPX&.<XW.uX&X:X:X%X%X$XP.ZX:XHX}.H.N.P.D.z.UX-XuX XD.I.P.M o.E.R.W.$XP.=XE.E.W.R.J.U.R.9.c.l.O.@.m.] ' c O 4 7   O 6 4   j &       4 & + z O k j l n 6 j K n c 4 ; ; 4 4 7 4   O     +                         ",
"  j 1XN 4 +   O X       +   ; k k W Y M I ` v W $.h Y i.O.;.K.T | N.x.i.#.E.aXGX XzX1XN.nXJX' J.UXUXZXjXVXLXjX$XT.PXPXUX;XK.9.c.%XU.VXCXUXI I N z T k T c U U / ` | M ' T + 7 7 X X     ; :.4 O O   O j d n I l.j :.d 4 & 5 l d z ] z R ) @.c.=.+.M.y.+.d 6 d c d l j z k   4 O                         ",
"O V xXUXj O 4 .     o z K #.K S.;.r.P.r.y.P.m.&XK.K.,X<X*.%Xu.UX;X}.aXr.aXZXD.UXkX<XVXjXL.9XPXGXUXUXzXGXHXPXGXPXUXUXUXPXxXuXdXUXUXVXGXuXUX<X:X|.GXjXUXVXUXLXGXLXjXxXLXGXHX1XUXUXZXzXxXxXUXxXUXUXHXUXPXUXnXUXUXKXPXGXKXUXUXHXkXGX:XUXGXUXPXUXjXUX}.J.-X:X}.GX:XJ.pXuXN.U.v.7 O O                         ",
"  m JXPXW.O       +   X.W $.U.UXUXCXUXLXuXR.uXUX%XUXE.&XUXIXUXUXv.IXUXLXaXLXnXPXUXPXUXUXJXPXPXJXGXGXUXUXUXUXHXPXUXUXUXJXUXUXUXPXUXUXUXUXLXLXUXGXLXUXUXUXLXUXUXUXUXLXUXUXUXUXPXPXUXGXUXJXHXUXUXUXUXVXUXPXUXUXUXUXGXjXUXkXGXGXPXPXUXzXUXUXUXGXPXUXLXUXUXLXUXUXUXuXLXUX<XW.$X$.;.+ +   O                   ",
"  7 PXUXnX' O     1 + 5 7 J $.LXCXGXUXUXUXLXCXUXZXUXUXUXGXUXUXUXZXGXLXVXIXUXUXUXPXZXUX#.@.L.UXUXUXPXUXUXUXUXJXGXPXPXGXUXZXGXPXUXLXUXLXUXUXLXLXUXUXUXUXUXUXUXUXUXUXUXUXLXUXUXUXUXGXUXUXUXJXPXUXPXUXUXUXUXUXUXUXGXPXVXUXK.UXUXUXPXGXUXGXPXUXUXPXUXUXUXUXUXLXVXGXUXUXPX>XL.W.nXLXU M O                     ",
"  ) :.PXLXn   1 ;   Y d R I ,X' c.1XjXnX*X;X1X>X=X%X;X&X=XJXJXHXGXGXCXZ.$XLX=XJ.UXH.jXI %.~.CXUXHXH.;.U.K.U.9.}.I.%XT.L.U.$XUXUXUXPX:X%X1XUXUXUXUXUXUXUXUXUXUXUXUXUXUXUXUXUXUXUXUXUXUXUXUXUXUXUXPXPXPXUXUXUXUXUXPX$XM.UXUXGXPXUXPXPXUXUXPXPXUXUXUXUXHXHXUXUXPXzXGXGXUXuX}.,XlXN.K.O                     ",
"  N R xXUX7   5   + I W X.Y |.k N D.M.n.u.i.9.N.$.c.7.=.=.H.%XW.S.N.J.` r.K.L.m.xXz.>Xz r.T.6XzXxX:._ n.l.M.L m.i.U.l.=.J.$XJXUXUXGX:X=X1XHXPXUXUXPXUXUXUXUXUXUXUXUXUXUXUXUXUXUXPXUXPXUXPXUXUXUXUXUXPXUXUXUXUXUXJXM.m.GXPXUXPXUXPXGXGXxXjX9X1X>X=X=X&XP.W.U.U.m.D.N.N.c.-.r.z.' #.1                     ",
"O V c.KXLXc   ; -XUXCXc @.=X+.UXPXPXPXUXHXPXUXUXUXUXHXUXUXUXPXkXUXkXUXLXUXUXHXUXUXUXUXPXIXLXUXUXPXUXUXUXUXPXPXUXUXPXUXPXPXUXUXUXUXUXUXUXUXUXUXUXUXUXUXUXUXUXUXUXUXUXUXUXUXUXUXUXGXPXUXJXVXUXUXPXUXHXJXPXPXGXHXUXUXUXjXUXUXUXUXPXUXPXUXUXUXUXUXUXUXUXUXUXHXqXxXPXUXPXPXHX$X XjXUX1XR   O   O             ",
"  7 J.UXGXn.K.jXUXUXUXk g VXUXLXUXJXUXPXUXUXUXUXUXKXUXUXPXUXJXPXUXUXUXUXGXUXHXUXHXUXUXPXLXUXUXUXUXUXUXkXUXPXPXUXUXPXUXUXUXUXPXUXUXUXIXPXPXHXPXUXUXUXUXUXUXUXUXUXUXUXUXUXUXUXUXUXGXUXPXUXGXPXUXPXPXUXUXJXHXUXUXUXGXUXUXGXHXUXUXUXUXUXPXUXUXUXUXUXUXLXnXUXUXUXUXUXPXUXPXUXGXUXUXuXY.k #.  4 O             ",
"O c r.LXPX`   UXUXUXUXUXUXUXUXGXPXUXUXUXHXUXUXPXPXUXPXUXUXUXUXUXUXUXUXUXUXUXUXUXUXUXUXUXUXUXUXUXUXUXUXUXUXUXUXUXUXUXUXUXUXUXUXUXUXUXUXUXUXUXUXUXUXUXUXUXUXUXUXUXUXUXUXUXUXUXUXUXUXUXUXUXUXUXUXUXUXUXUXUXUXUXUXUXUXPXUXUXUXUXUXUXUXUXUXUXUXUXUXUXUXUXUXUXUXUXUXUXUXUXUXUXUXUXUXUXLX,X' U.}.X             ",
"  n ' UXUXc 7 UXUXLXUXUXUXUXLXUXUXUXnXGXPXUXUXUXUXUXUXUXUXUXUXUXUXUXUXUXUXUXUXUXUXUXUXUXUXUXUXUXUXUXUXUXUXUXUXUXUXUXUXUXUXUXPXUXUXUXUXUXUXUXUXUXUXUXUXUXUXUXUXUXUXUXUXUXUXUXUXUXUXUXHXUXUXPXUXUXUXUXUXUXUXUXUXUXUXUXUXUXUXUXUXUXUXUXUXUXUXUXUXUXUXUXUXUXUXUXUXUXUXUXUXUXUXUXUXUXxXU.) :XZ.    X         ",
"O d + CXVXO   PXUXUXUXUXUXGXUXUXUXUXUXHXUXUXUXUXUXUXUXUXUXUXUXUXUXUXUXUXUXUXUXUXUXPXUXUXUXUXUXUXUXUXUXUXUXUXUXUXUXUXUXUXUXUXUXUXUXUXUXPXUXUXUXUXUXUXUXUXUXUXUXUXUXUXUXUXUXUXUXUXUXUXUXUXUXUXUXUXUXUXUXUXUXUXUXUXUXUXUXUXUXUXUXUXUXUXUXUXUXUXUXUXUXUXUXUXUXUXUXUXUXUXUXUXLXUXUXUXUXUXUX&XJ d X           ",
"O O n :XzX+   UXUXGXUXUXUXUXGXGXPXGXUXGXUXUXUXUXLXUXUXUXUXUXUXUXUXPXUXUXUXUXUXUXUXUXUXUXUXUXUXUXUXPXUXUXUXUXUXUXUXPXUXUXKXUXUXUXUXUXUXUXUXKXUXUXUXUXUXUXUXUXUXUXUXKXUXUXUXUXUXUXUXUXKXUXUXUXUXIXUXUXUXUXUXUXUXUXUXUXUXUXUXUXPXUXUXUXUXUXUXUXUXUXUXUXUXUXUXUXUXUXUXUXUXUXUXUXUXUXLXUXlX;.l ;             ",
"  O c.UX1XO   PXUXUXUXUXUXjXn.nXUXUXUX$XPXUXGXUXGXPXUXUXUXUXUXUXUXUXUXUXUXUXUXUXUXUXUXUXUXUXUXUXIXUXUXKXUXUXUXUXPXUXKXKXV.    X X F.IXiXKXNXy |.g v mXV ( IXIXUXPXKXA @     - i *X^.      X G.DXUXUXUXUXUXUXUXUXUXUXUXUXUXUXUXUXUXUXUXUXUXUXUXUXUXUXUXUXUXUXUXUXUXUXUXUXUXUXUXUXPXJXUXH.& + O O         ",
"1 4 z LX-X  4 PXUXUXUXUXUXUXxXPXGXUXUX%XUXUXUXUXUXUXUXUXUXUXUXUXUXUXUXUXUXUXUXUXUXUXUXUXUXUXUXUXUXUXKXKXUXUXUXUXKXmX3X0     X - *X&.- J cX8X8 @ X X       X - b AXmXw # .   i A.sXKX5..   p +XDXUXUXUXUXUXUXUXUXUXUXUXUXUXUXUXUXUXUXUXUXUXUXUXUXUXUXUXUXUXUXUXUXUXUXUXUXUXUXUXUXUXUXkX= 6 z y X         ",
"  j $.LX,X    UXUXUXUXUXUXqX:XUXPXGXPX XHXUXUXPXUXUXUXUXUXUXUXUXUXUXUXUXUXUXUXUXUXUXUXUXUXUXUXUXUXUXUXUXUXUXUXKXbXeXe . - P UXUXMX2Xa v FXNXw @ < - d.IXbXC   X : i.vXC.  : @XDXUXMXrX[ X '.DXIXUXUXUXUXUXUXUXUXUXUXUXUXUXUXUXUXUXUXUXUXUXUXUXUXUXUXUXUXUXUXUXUXUXUXUXUXUXUXUXUXUXUXGXUXz qXc.  O O     ",
";   ;.UXLXn.L.xXPXUXUXUXUXN.I PXPXUXjXK.PXUXUXHXUXUXUXUXUXUXUXUXUXUXUXUXUXUXUXUXUXUXUXUXUXUXUXUXUXUXUXUXUXUXUXMXrX1.@   F hXUXUXMXMX^ , sXMXtXS . > @XDXyX(.$   : G vX9.  p OXDXUXMXrX0.- _.IXUXUXUXUXUXUXUXUXUXUXUXUXUXUXUXUXUXUXUXUXUXUXUXUXUXUXUXUXUXUXUXUXUXUXUXUXUXUXUXUXUXUXUXPXUX$XUXL.          ",
"  O M.LXUXUXLXUXUXUXUXUXUX/.4 kXUXUXkXI.UXPXUXZXUXUXUXUXUXUXUXUXUXUXUXUXUXUXUXUXUXUXUXUXUXUXUXUXUXUXUXUXUXUXUXKXrXw .   _.hXUXUXKXUXpX! FXKXyXq.. : oXDXMXyXS . : p wXB.  - ).DXLXKXyXB.- _.IXUXUXUXUXUXUXUXUXUXUXUXUXUXUXUXUXUXUXUXUXUXUXUXUXUXUXUXUXUXUXUXUXUXUXUXUXUXUXUXUXUXUXUXUXGXUXPX'     + O   ",
"  5   I jXUXUXUXUXPXPXUXUX%X6 UXUXPXK.z.KXUXUXUXUXUXUXUXUXUXUXUXUXUXUXUXUXUXUXUXUXUXUXUXUXUXUXUXUXUXUXUXUXUXUXKX!.# .   {.SXIXUXUXUXUXUXUXKXrXe.. > oXIXKXbXq . : BXMX0.  X h.SXUXKXyX[ > [.IXUXUXUXUXUXUXUXUXUXUXUXUXUXUXUXUXUXUXUXUXUXUXUXUXUXUXUXUXUXUXUXUXUXUXUXUXUXUXUXUXUXUXUXUXKXUXHX` O         ",
"    c }.xXUXUXPXUXUXUXUXUX%X4 PXUXHXJ.n.PXPXUXUXUXUXUXUXUXUXUXUXUXUXUXUXUXUXUXUXUXUXUXUXUXUXUXUXUXPXUXUXUXUXUXKXq.# . X t.SXDXUXUXUXUXUXUXKXrX8.=.W a.DX9X= - ..UXUXvXw.  X j.SXIXKXeX5.- _.IXUXUXUXUXUXUXUXUXUXUXUXUXUXUXUXUXUXUXUXUXUXUXUXUXUXUXUXUXUXUXUXUXUXUXUXUXUXUXUXUXUXGXnXqXm /  XI +   +     ",
"  X ;   UXUXUXUXUXUXUXUXUX1X4 UXPXUXN.M.UXPXUXUXUXUXUXUXUXUXUXUXUXUXUXUXUXUXUXUXUXUXUXUXUXUXUXUXUXUXUXUXUXUXUXUXC.#   X '.SXIXUXUXUXUXUXUXKXrX1.  X H -     f.DXIXKXrX8.  X g.SXIXbXrXB.- [.IXUXUXUXUXUXUXUXUXUXUXUXUXUXUXUXUXUXUXUXUXUXUXUXUXUXUXUXUXUXUXUXUXUXUXUXUXUXUXUXUXUXUXnXjX  7 5 O 4   O     ",
"  | O VX  UXGXUXUXUXUXUXUXjX4 UXPXUXK.N.UXUXUXUXUXUXUXUXUXUXUXUXUXUXUXUXUXUXUXUXUXUXUXUXUXUXUXUXUXKXUXUXUXKXUXUXQ.# . X _.SXIXUXUXUXPXUXUXKXeX<.  > *XIXUXUXIXIXUXbXrXe.  X h.SXIXMXrXC.- ].IXUXUXUXUXUXUXUXUXUXUXUXUXUXUXUXUXUXUXUXUXUXUXUXUXUXUXUXUXUXUXUXUXUXUXUXUXUXUXUXUXUXGXGXGX  ; 4   X   O     ",
"      + X UXUXUXUXUXUXPXUXPX4 UXUXnXL.J.PXGXUXHXUXUXUXUXUXUXUXUXUXUXUXUXUXUXUXUXUXUXUXUXUXUXUXUXUXUXUXUXKXUXUXKX5X9 . X k.SXIXUXUXUXKXUXUXKXtX6.  : XXd.dXIXUXUXUXKXrX2.. X p.DXDXKXrX3.- ].UXUXUXUXUXUXUXUXUXUXUXUXUXUXUXUXUXUXUXUXUXUXUXUXUXUXUXUXUXUXUXUXUXUXUXUXUXUXUXUXUXPXHXUX1X6   X     O       ",
"O ;     c K PXLXPXPXUXPXUXUXUXUXJXUXT.l.UXPXUXUXUXUXUXUXUXUXUXUXUXUXUXUXUXUXUXUXUXUXUXUXUXUXUXUXUXUXUXUXKXUXUXKXtX5.@ X h.SXUXUXUXUXHXE LXHXyX>.z 3 f.oXAXIXIXUXUXKXyXq.. - f.DXUXMXeXZ s #XDXUXUXUXUXUXUXUXUXUXUXUXUXUXUXUXUXUXUXUXUXUXUXUXUXUXUXUXUXUXUXUXUXUXUXUXUXUXUXUXPXUXUXK.) @.c 5 X X         ",
"      ; 4 O.zXHXUXUXUXUXUXPXxXUXUXGX Xu.HXUXUXUXUXUXUXUXUXUXUXUXUXUXUXUXUXUXUXUXUXUXUXUXUXUXUXUXUXUXUXUXUXUXUXUXbXtXt . p gXUXUXUXUXS.r.UXKXeXD   G t.}.DXIXIXUXUXUXvX4X0 < %.dXUXMX4X* p fXDXUXUXUXUXUXUXUXUXUXUXUXUXUXUXUXUXUXUXUXUXUXUXUXUXUXUXUXUXUXUXUXUXUXUXUXUXUXUXUXUX=X:XH.;XU N ; I ;     O   ",
"  X   4   GXLXGXJXUXUXUXUXIXUXHXUXUX=X9.UXPXUXUXUXUXUXUXUXUXUXUXUXUXUXUXUXUXUXUXUXUXUXUXUXUXUXUXUXUXUXUXUXUXUXUXMXMX7X% l &.ZXUXUXuX .IXIXKX~.8 ] X - } DXIXUXKXUXUXPXMX4.@ x f       X s.IXUXUXUXUXUXUXUXUXUXUXUXUXUXUXUXUXUXUXUXUXUXUXUXUXUXUXUXUXUXUXUXUXUXUXUXUXUXUXUXJXUXH.zX_ UX:.M.X 6 X +       ",
"          H.zX$XPXUXUXUXUXPXUXUXUXPXZ.J PXUXUXUXUXUXUXUXUXUXUXUXUXUXUXUXUXUXUXUXUXUXUXUXUXUXUXUXUXUXUXUXUXUXUXUXUXUXHXKX$X        b AXIXJXbXr @   u.3 X d.IXUXUXUXUXUXKXyXZ   X     X a.IXIXUXUXUXUXUXUXUXUXUXUXUXUXUXUXUXUXUXUXUXUXUXUXUXUXUXUXUXUXUXUXUXUXUXUXUXIXUXUXUXPXJX@.$XE R K.v.  +.6 O       ",
"O       O K.jXPX=XPXUXUXPXUXUXPXUXGXD.c UXGXPXUXUXUXUXUXUXUXUXUXUXUXUXUXUXUXUXUXUXUXUXUXUXUXUXUXUXUXIXIXUXPXnXUXUXHXUXUXKXUXUXUXUXJXUXIXIXUXHXKXUXUXUXUXIXUXIXUXUXUXUXKXMXKXUXUXUXUXIXIXUXUXUXUXUXUXUXUXUXUXUXUXUXUXUXUXUXUXUXUXUXUXUXUXUXUXUXUXUXUXUXUXUXUXUXUXUXUXUXUXUXPXUXM.UXo.2 L b 5   X     X   ",
"          c.$.UXPXUXUXUXUXUXzXHXUXGXIXaXHXUXPXPXUXUXUXUXUXUXUXUXUXUXUXUXUXPXLXHXUXPXUXUXUXUXUXUXHXUXUXIXUXHXnXKXHXUXGXPXUXJXUXUXUXKXIXUXUXUXUXUXUXUXUXUXUXLXUXUXUXKXUXKXJXJXUXUXUXUXIXUXUXUXUXUXUXUXUXUXUXUXUXUXUXUXUXUXUXUXUXUXUXUXUXUXUXUXUXUXUXUXUXUXUXUXUXUXUXUXUXUXUXUXUXU.%Xn M.K M X X   O       ",
"        B UXUXkXkXUXUXUXUXnX-XKXUXUXPXzXUXPXPXUXPXPXUXJXUXHXUXPXPXUXUXUXUXUXUXPXUXHXPXUXUXHXUXLXGXUXPXkXUXGXUX#.U.N.jXLXJXUXUXPXUXJXUXUXUXUXUXUXLXUXUXUXLXUXUXUXUXUXUXUXUXUXUXUXUXUXUXUXUXUXUXUXUXUXUXUXUXUXUXUXUXUXUXUXUXUXUXUXUXUXUXUXUXUXUXUXUXUXUXUXUXUXUXUXUXUXUXPXUXUXPXkX$X-.UXk g O O X         ",
"  O   4   ;Xn PXjXUXUXPXGXUXkXUXnXUXUXUXHXPXPXUXUXPXGXUXnXUXxXUXUXPXUXUXzXxXGXPXzXUXxXJXUXHXUXHXUXPXUXGXZXjXUX1XxX XnXLXUXPXGXUXPXPXIXPXPXUXUXxXUX1XIXUX%XUXHXUXUXUXUXUXUXUXPXUXUXPXUXUXUXUXUXUXUXUXUXUXUXPXUXUXUXUXUXUXUXUXPXUXUXUXUXUXUXUXUXUXPXUXUXUXUXUXPXUXUXPXPXUXUXPXVX=XaXn xXU j K f   X     O ",
"        j L./.PXW.xXUXPXPXUXkXUX1XxXHXPXJXJXHXUXGXUXxXGXPXUXzXUXUXJXjXHXGXGXHXGXUXUXUX:XPXGXPXUXGXJXVXUX&X@.LX,XZXn.UXjXJXGXGXJXPXJXHXPXGXZXxXUX,XH.;XLXx.xXUXUXPXUXUXUXUXUXUXUXUXUXUXPXUXUXUXUXUXUXUXUXUXPXUXUXUXUXUXUXUXUXUXUXUXUXUXUXUXUXUXUXUXUXUXUXUXUXUXUXUXUXUXUXUXGXHX1Xc.$.VXO.j n O O o       ",
"O         g c.GXUXUXUXPXPXPXUXU.  O   j I l.jX=Xl 6 7 O 4 6 k ' $X  6 + N -XUX,XGXHXL.<XJXU.) GXH.ZXL zX*.1XuXVXUXUXW.-.9XVXJX9XN.:XGXUXUXGXUX5 +   i.9.-XzXUXUXUXHXGXUXUXUXUXHXUXUXUXHXxXUXUXUXUXPXUXPXxXUXPXUXUXPXUXUXUXPXUXUXUXPXPXHXPXUXUXPXUXUXUXUXHXPXUXUXUXUXUXUXUXUX1XGXUXc.xXUX1XO   O         ",
"O     O 4 I v.kXGXzXLXUXUXVX^.M h 2 M I r.m.aX) P.R N K.Y & ' ) R + ; T m ;XZXE.UXZX%X-.P.<X X) $.LXz.zX+.r.VXZXZXxXx.D.x.4 zX@.1Xj UXPXzXVX;XVXO.2 N 7 jXVXUXUXUXHXPXUXnXKXUXUXVXUXjXjX1XPXUXUXUXUXUXUXUXjXUXPXUXnXUXUXUXPXUXUXUXUXUXPXUXUXUXUXUXUXPXUXUXUXPXUXUXIXUXPXUXDXc.qXUXN.xXUXHXO   O +       ",
"                  ` j   O O X j W 2 m 6 r.;.$.` K & W z R l v.) m U.:XE.+.#.-Xu.UX;.H.T N.+.M.,XUXIX' }./ M GXuX%Xr.UXK H.@.L.=.N.l.uXzXzX` $.' z ' W O.r.z.J.I.E.m.UX9XU.UXN.c.&.PX1X:Xc.D.9X-X1XN.PXPX1XjXUXVXU.L.>X=.xXKX#.UXUXHX-XUX$.m.VXUXPXPXUXPXzXm.UXxXUXUXUXUXIX~.UXM.l UXGXUXUXUXxX&XR + +   ",
"              O O 5 X + ; o   W 7 d c k J.l.K ) n   + U ) U I ) c uXzX| @.| $XjXVX) n.L D.&.+.uXUX-Xc W.` M UX-XjX*.VXd M.T H.%XW.c.I.UX;XW ' z U u.4 l.| m | UX%Xc.,X:XM.kX:.I :.UXnXGXI.E.zXE.PXx.zXqXUXxXPXPXn.| P.K.1XUXl nX1XGX,XnXx.M.KXjXGXGXUXUXnX#.jXUX X X-X&XzXH.c.U N UXUXUXLXUXGX:X=.I O   ",
"                O X X   X ; X g k ; U ; z | O +.Y O z I ' 7 W.l U E.v.z.L.m xXm P.M | =.c.7 <XL ;X/ b.o.,XZ.UXW P.h U.@.N.T ;XuX:Xm zXm. X$.@.l z.c 4 + 5 O   ZX1XjXn.1X%X-X=X9XU.HXUXPXPXzXuXDXW.%Xm.n.UXkXUXT.H.=.1X:X-XjX_ Y.T 1XkXH.U.qXHX1XPXPXGXUXUXUXGXn.X       ;   2 4 z UXUXPXUXPXGXGXGXnX    ",
"                O O X 6 ' k ; X   +   4         ; ; 5         @.      ; l         d X 6 6 U <X-XU R.&.M   l Y N n ) P.&.;XW }.-.*X#.O 6 d 5 X 2   E.2 +   d + UXnXM.V uXU.W.H.qX=XL.B jXKXPXkX~.W.=XUXjXUXUXGXnXz.jXUX,XnXKXm xXY.UXn.xXc.L.UX1X-XjXUXnXUXUXxXUXUXIXUXUXjXuX,X6X-XnXPXUXKXJXJXUXUXlXO   ",
"                X     7 I < X X   O X   ; 4 l W           +   O X X     X   X   z.J.| ; 2 ; VXLXLXI X v       O   O 4 4 7 l j 7 6 @.O O   4 X ; O 6   X X     ;.V j 4 l I ~ _ z n j E n z.:.n j V GXUXn.z U.E c.c.& ' n H.H.  U.I 1X:.=Xc.H.N.H.L.kXU.n.JX1Xv.GXGXUXUXGXUXuXkXkXGXUXUXPXUXUXkXUXKX1X    ",
"                    1 X + X   X O O     P.    ; X O         +         X X   O +   K.R.c k ' *X  ; c j k 6 d O O X X +   ; O O   + ; O ; +   X 2     +     ; ; O       +     O o   O   =     j +   O   O     4   O O 4 &   + j     7   O O .       O   O 4 +   *.$XJ.b.:.n   4 O M qXkXUXGXUXUXnXE +     ",
"                    +                   z.; X     X     X X     X           X   O v.}.L l d E.4 1   O   ;         O O   O O     O   ; O X X   5 O   +   X 2   ;     + & O         O O +   O +   O O         4     n . +   + + + O       O     O O   +   6     V ) L B N k O     z ) M.=XqXnXKXU.7       ",
"                        O           +         O                           O     ; + +         ; O   I   O O               +   O         O                                     O   4 k + +   R 6 + +       & +   + B 4 O   O   O                     O   O +     X   O X                         +   O   ",
"                                        O     4                 X           O 5 P.  O   + X d X O   X.                                                                      .     & 7 O   . O   +                 +                                               X             .         O     O       ",
"                                                                                +           4   1 O       O                 O                                                         O     +   O & .           .   +   O                   O                                         O               >X"
};
