/* XPM */
static char *CaptionPlayer_[] = {
/* columns rows colors chars-per-pixel */
"148 47 256 2",
"   c #020202",
".  c #0C0000",
"X  c #040509",
"o  c #08070B",
"O  c #06080A",
"+  c #0A0A0B",
"@  c #130000",
"#  c #180000",
"$  c #180C06",
"%  c #0E100F",
"&  c #17130A",
"*  c #000313",
"=  c #000B15",
"-  c #0E0E11",
";  c #00041B",
":  c #010A1C",
">  c #100F14",
",  c #0D1013",
"<  c #07111B",
"1  c #131314",
"2  c #161719",
"3  c #1A1B1C",
"4  c #1A1719",
"5  c #260A00",
"6  c #2B0B01",
"7  c #2A1605",
"8  c #341A03",
"9  c #34190A",
"0  c #391D07",
"q  c #2C1712",
"w  c #362414",
"e  c #000622",
"r  c #010B23",
"t  c #000B2B",
"y  c #0A0A26",
"u  c #011224",
"i  c #00112D",
"p  c #0A1229",
"a  c #1E1E20",
"s  c #141B21",
"d  c #011234",
"f  c #321B23",
"g  c #1F2326",
"h  c #1E283A",
"j  c #232325",
"k  c #262529",
"l  c #27282A",
"z  c #2B2B2C",
"x  c #2E2F31",
"c  c #382C36",
"v  c #2C353B",
"b  c #323334",
"n  c #353639",
"m  c #3B3B3D",
"M  c #37383B",
"N  c #3B2F2F",
"B  c #453938",
"V  c #513C2B",
"C  c #5C452D",
"Z  c #5B462E",
"A  c #5A4837",
"S  c #4C4638",
"D  c #66482B",
"F  c #644A33",
"G  c #624637",
"H  c #6F503B",
"J  c #1B344D",
"K  c #183854",
"L  c #182F4E",
"P  c #263444",
"I  c #3E3E40",
"U  c #363945",
"Y  c #223752",
"T  c #202C52",
"R  c #3F4042",
"E  c #3A4758",
"W  c #1F4167",
"Q  c #2D4767",
"!  c #37546B",
"~  c #355471",
"^  c #3B5A72",
"/  c #3B5A7B",
"(  c #365876",
")  c #2F5375",
"_  c #424344",
"`  c #464649",
"'  c #4B4B4D",
"]  c #48484C",
"[  c #5C4E44",
"{  c #4F4E52",
"}  c #434C51",
"|  c #504E54",
" . c #4E5154",
".. c #43535C",
"X. c #525354",
"o. c #565658",
"O. c #5A5B5C",
"+. c #5A5954",
"@. c #4E554D",
"#. c #68635A",
"$. c #776755",
"%. c #455568",
"&. c #5E5F61",
"*. c #51596E",
"=. c #485970",
"-. c #48546C",
";. c #605F64",
":. c #5F6062",
">. c #636465",
",. c #656669",
"<. c #676869",
"1. c #6B6B6C",
"2. c #6E6E71",
"3. c #737374",
"4. c #767678",
"5. c #7B7C7D",
"6. c #787776",
"7. c #736F6D",
"8. c #886B4B",
"9. c #846C53",
"0. c #876C58",
"q. c #847156",
"w. c #8A704D",
"e. c #846C60",
"r. c #927C68",
"t. c #81807E",
"y. c #998C7B",
"u. c #AB947E",
"i. c #AF997C",
"p. c #B3987C",
"a. c #A58F77",
"s. c #7E7E81",
"d. c #647C9B",
"f. c #817F80",
"g. c #788189",
"h. c #6D8292",
"j. c #6B839C",
"k. c #6D8899",
"l. c #75879C",
"z. c #6C84A2",
"x. c #698BA8",
"c. c #7997BB",
"v. c #828384",
"b. c #84858A",
"n. c #868889",
"m. c #8B8C8C",
"M. c #878786",
"N. c #8E8E91",
"B. c #8F9092",
"V. c #949495",
"C. c #9B9B9C",
"Z. c #969798",
"A. c #92938B",
"S. c #A99B85",
"D. c #B39882",
"F. c #A69D94",
"G. c #9BA19F",
"H. c #AAA89B",
"J. c #9E9EA1",
"K. c #9EA1A0",
"L. c #9AABBA",
"P. c #97A8B8",
"I. c #8CABBF",
"U. c #A3A4A4",
"Y. c #A6A6A9",
"T. c #ABABAC",
"R. c #A8A7AB",
"E. c #AEAEB2",
"W. c #A0A8B3",
"Q. c #AFB0B2",
"!. c #B3B3B4",
"~. c #B6B6B9",
"^. c #B6B8B9",
"/. c #BABBBC",
"(. c #B7B7B7",
"). c #D8BD9F",
"_. c #CEB7A7",
"`. c #DABBA3",
"'. c #D5BAA9",
"]. c #CCBFB5",
"[. c #D2BFB0",
"{. c #C8C5BB",
"}. c #D3C1B1",
"|. c #F7D6BA",
" X c #8BA9C7",
".X c #93ABC7",
"XX c #BEBEC1",
"oX c #A6B8CE",
"OX c #C0BFC4",
"+X c #BEC1C3",
"@X c #BAC4CA",
"#X c #B8CBD8",
"$X c #AFCDEA",
"%X c #B6CDE8",
"&X c #B7D2EA",
"*X c #B5CFF4",
"=X c #C3C3C4",
"-X c #C6C7C9",
";X c #CBCCCC",
":X c #C8C7CC",
">X c #CECFD1",
",X c #C2CBD0",
"<X c #CFD1D3",
"1X c #D3D3D4",
"2X c #D5D5D8",
"3X c #D7D8DC",
"4X c #DCDCDC",
"5X c #D9DAD6",
"6X c #DFDCCD",
"7X c #E8D8C4",
"8X c #E8DACD",
"9X c #F8D7C3",
"0X c #E4DBD1",
"qX c #DFE0D7",
"wX c #E0E0DE",
"eX c #F3E7D5",
"rX c #FFF4D4",
"tX c #FFFAD4",
"yX c #FFF3DB",
"uX c #FFF9DD",
"iX c #FAECCE",
"pX c #DEDEE0",
"aX c #CEDCE5",
"sX c #DEE1E1",
"dX c #DFE6EC",
"fX c #D4EEFF",
"gX c #DAEDFD",
"hX c #DEECF6",
"jX c #DBF3FD",
"kX c #DCFAFF",
"lX c #D6F2FE",
"zX c #E3E3E4",
"xX c #E9E8E6",
"cX c #E6E7E9",
"vX c #ECECED",
"bX c #E6E8E7",
"nX c #FFEFE3",
"mX c #FFF4E3",
"MX c #FFFCE4",
"NX c #F2F2EE",
"BX c #FFF6EB",
"VX c #FFFCEC",
"CX c #EEEFF1",
"ZX c #EFF1F1",
"AX c #EBF6FD",
"SX c #E4FCFF",
"DX c #ECFEFF",
"FX c #E0F2F5",
"GX c #F4F4F4",
"HX c #FAF6F5",
"JX c #F6F8F7",
"KX c #FEFCF4",
"LX c #F6F6F8",
"PX c #F9F6FA",
"IX c #F4FEFE",
"UX c #FDFDFD",
/* pixels */
"  +             O                         O   +     O +     +   O   O   O         +     -   1   >   o O + +     1 + o   -   - 1     X X     X X X +     O +     4   -   o >   - + - o       O                                                           X     X                                         ",
"          O                         O                   O     O   + 1     O   O + 1 %   +   o X X + >   >   +     >   1         X X X     X X + X X   , + - O     + o + X   3 - +   + +   &     1     O                                                                                                 ",
"  O   O                               O +   o *   X       X       %   O O       O   + O       O   O   X       - X   +   + X a   X   + +   O X X     3   - - O X j 4 2 j 3 3   + + m 3 _ ` ' <.' m 1 O     O                                   O                     o                                   ",
"  O 5.1   O               +   j 1 n x x m M m _ >.n x _ 2.X.A.g.G.V.V.3.K.(.Z.(.5.C.-X5.vXIX3.3X/.0X,X1X1X-X-XOXQ.CX1XLX=XU.C.E.K.v.UX<X4XXXU.E.T.m :./.~./.+XE.,X~.~.XX!.R.!.~.t.M.v.,.<.V.O.o.z O & 3 O   3 1 O j %       1 % + z + k j k x 4 j I b x 1 - - 1 1 3 1   O O   +                         ",
"X k 4Xm 1 +   O X       o   o k k | ] M _ o.c | 2.g ' g.>.5.Y.` &.C.b.g.1.^.sXGX+XcX4XG.CXKXO.Y.UXUXGXzXCXLXzX=X!.UXJXUX1XR.r.m.=X~.CXGXUXR R I z { j ' b _ `  .X.&.m o.' + 3 3 1 +     % r.> + +   + a 4 n _ v.a 5.a 1 % 4 z a l #.z { X.<.m.6.,.C.f.,.a 2 a x a k j z j X 1 O                         ",
"X S vXUXj + & O     o z I 2.I U.4.s.E.s.f.E.V.:XR.R.2X3X3.-Xg.UX<XXXsXs.sXZXK.UXxX4XCXsXE.3XJXGXUXUXvXGXHXPXGXPXUXUXUXPXCXdXAXUXUXvXGXpXPX3X1XOXGXpXUXGXUXPXGXLXcXvXLXGXGX4XUXUXGXvXCXvXUXFXUXUXHXUXJXUXNXPXUXJXIXLXUXUXUXNXvXGX1XUXGXUXJXUXzXUX/.Y.>X1XXXGX1XY.zXpXC.Q.N.3 . O O                       ",
"  n JXJX/.        +   ;.| 2.E.UXUXGXUXPXpX~.pXUX=XUX^.:XUXUXUXUXB.IXUXLXsXJXGXPXUXIXUXUXIXKXKXJXGXGXUXUXUXUXJXPXUXUXUXJXUXUXPXUXUXUXUXUXUXLXUXGXLXUXUXUXLXUXUXUXUXPXUXUXUXUXUXPXUXLXUXJXGXUXUXUXUXGXUXPXUXUXUXUXGX0XUXzXGXGXJXJXUXxXUXUXUXGXUXUXPXPXUXPXUXUXUXpXLXLX4X/.=X3.4.+ +   O                   ",
"O 3 PXUXGXO.X     > + 4 3 U 2.PXGXGXUXUXUXLXGXPXGXUXUXUXLXUXUXUXZXGXLXCXIXUXUXUXKXZXUX1.>.T.UXUXUXUXUXUXUXUXJXGXJXPXGXUXGXGXUXUXUXPXIXUXUXPXPXUXUXUXUXUXUXUXUXUXUXUXUXPXUXUXUXUXGXKXUXUXLXPXUXUXKXUXUXUXUXUXUXGXUXNXUXT.UXUXUXPXGXUXGXPXUXUXJXUXUXUXUXUXLXCXGXUXUXUX2XR./.CXPX] b O                     ",
"O @.5.HXLXb   1 -   ] a { R 2X&.m.4X4XNX;X5X4X5X;X-X;X-X;XJXJXGXGXGXGXJ.=XPX>XU.UXU.zXB 1.OXGXUXGXU.5.Q.T.!.t./.(.=X(.Q.!.=XUXUXUXPX2X;X4XUXUXUXUXPXUXUXUXUXUXUXUXUXUXUXUXUXUXUXUXUXUXUXUXUXUXUXUXLXUXUXUXUXUXUXUX=XZ.UXUXGXUXUXKXPXUXUXPXUXUXUXUXUXJXLXUXIXUXcXLXLXPX4X=X2XxXC.Y.+                     ",
"  n ' vXUX3   1   + _ { ;.' XXk m C.C.V.v.m.v.C.1.m.t.6.6.U.;X/.U.Z.U.o.s.E.T.V.vXM.3Xz f.~.0XxXvX6.+.V.v.Z.@.C.v.!.t.6.U.XXJXUXUXGX1X:X5XLXPXUXUXUXUXUXUXUXUXUXUXUXUXUXUXUXUXUXPXUXUXUXPXUXUXUXUXUXLXUXUXUXUXUXLXZ.C.NXPXUXLXUXPXGXGXvXzXpX4X5X;X;X:X!.].E.!.V.C.C.C.m.6.g.b.O.1.1                     ",
"X S m.JXLXx   1 >XUXGXx 1.:X,.UXUXJXKXUXHXJXUXUXUXUXGXUXUXUXKXbXUXvXUXPXUXUXPXUXUXUXUXUXUXPXUXUXPXUXUXUXUXPXPXUXUXHXUXUXUXUXUXUXUXUXUXUXUXUXUXUXUXUXUXUXUXUXUXUXUXUXUXUXUXUXUXUXGXPXUXLXGXKXUXPXUXLXGXPXPXGXLXUXUXUXzXUXUXUXUXPXUXUXUXUXUXUXUXUXUXUXUXUXLXzXvXPXUXPXPXLX=X=XzXUX4X'   X   X             ",
"  a Y.UXGXV.R.pXUXPXUXk a vXUXUXUXHXUXUXUXUXUXUXUXUXUXUXJXKXGXKXUXUXUXUXCXPXPXUXHXUXUXPXPXUXUXUXUXUXUXxXUXJXPXUXUXJXUXUXUXUXPXUXUXUXKXJXPXPXUXUXUXUXUXUXUXUXUXUXUXUXUXUXUXUXUXUXGXUXLXUXLXJXUXPXPXUXUXLXLXUXUXUXGXUXUXGXPXUXUXUXUXJXPXUXUXUXUXUXUXPXNXUXUXUXUXUXJXUXUXUXNXUXUXpX^.j 1.  1 + X           ",
"+ x f.LXPXo.X UXUXUXUXUXUXUXUXLXPXUXUXUXGXUXUXPXPXUXUXUXUXUXUXUXUXUXUXUXUXUXUXUXUXUXUXUXUXUXUXUXUXUXUXUXUXUXUXUXUXUXUXUXUXUXUXUXUXUXUXUXUXUXUXUXUXUXUXUXUXUXUXUXUXUXUXUXUXUXUXUXUXUXUXUXUXUXUXUXUXUXUXUXUXUXUXUXUXUXUXUXUXUXUXUXUXUXUXUXUXUXUXUXUXUXUXUXKXUXUXUXUXUXUXUXUXUXUXUXPX2XO.!.XXX X           ",
"  b O.UXUXx 3 UXUXUXUXUXUXUXPXUXUXUXGXLXUXUXUXUXUXUXUXUXUXUXUXUXUXUXUXUXUXUXUXUXUXUXUXUXUXUXUXUXUXUXUXUXUXUXUXUXUXUXUXUXUXUXUXUXUXUXUXUXUXUXUXUXUXUXUXUXUXUXUXUXUXUXUXUXUXUXUXUXUXUXLXUXUXUXUXUXUXUXUXUXUXUXUXUXUXUXUXUXUXUXUXUXUXUXUXUXUXUXUXUXUXUXUXUXUXUXUXUXUXUXUXUXUXUXUXUXvXQ.X.<XZ.X             ",
"X a + GXCXX   PXUXUXUXUXUXGXUXPXUXUXUXGXUXUXUXUXUXUXUXUXUXUXUXUXUXUXUXUXUXUXUXUXUXKXUXUXUXUXUXUXUXUXUXUXUXUXUXUXUXUXUXUXUXUXUXUXUXUXUXUXUXUXUXUXUXUXUXUXUXUXUXUXUXUXUXUXUXUXUXUXUXUXUXUXUXUXUXUXUXUXUXUXUXUXUXUXUXUXUXUXUXUXUXUXUXUXUXUXUXUXUXUXUXUXUXUXUXUXUXUXUXUXUXUXUXUXUXUXUXUXUX:XI s             ",
"+ X b 1XcX-   UXUXGXUXUXUXUXLXGXPXGXUXGXUXUXUXUXLXUXUXUXUXKXUXUXUXIXUXUXUXUXUXUXUXUXKXUXUXUXUXUXUXIXUXUXUXUXUXUXUXUXKXUXUXUXUXUXUXUXUXUXKXKXUXUXUXUXKXUXUXUXUXUXUXUXUXUXUXUXUXUXUXUXUXUXIXIXUXKXUXUXUXUXUXUXUXUXUXUXUXUXUXUXUXUXUXUXUXUXUXUXUXUXUXIXUXUXUXUXUXUXUXUXUXUXUXUXUXUXPXUXzXs.k 1             ",
"  o m.UX5XO   PXUXUXUXUXUXzXN.vXPXUXUX-XPXUXLXUXGXUXUXKXnX9 [.3 v jX}  .UXIXIXUXUX6X5 .         L.IXIXUXUXUXUXUXUXKXMX'.* =.IXUXUXUXUXKXD.@ O   e h.VX9.. X O X H.6X1   . .           * e k.KX}.@         X     v AXDXIXUXUXUXUXUXUXUXUXUXVXVX0X< ^ IXUXUXUXKXUXUXUXUXUXUXUXUXUXKXJXUXU.% + O +         ",
"1 > z LX>XX 1 PXUXUXUXUXUXUXCXIXGXUXUX:XUXUXPXUXUXKXUXHX9X5 @   X = X X     v AXIXKX9.@   X     h.DXIXIXUXUXUXUXUXBXtXF * i lXDXUXUXUXKX8.@ . X e ! mX0   X * ..KX{.  b B .   X       X e ! UXVXu..   * s.IX#.w n * d.DXUXUXUXUXUXUXUXUXUXVXD . * ! IXUXUXUXKXKXUXUXUXUXUXUXUXUXUXUXxX1 3 k j .         ",
"  j 3.LX2X    UXUXUXUXUXUXzX<XUXPXZXPX].LXUXUXUXUXUXUXKXBX9 @   ; j.UXBXG # . X l.IXmXq E =.AXUXIXIXUXUXIXUXUXUXUXKXiXD   ; ( SXIXUXUXVXrX8 @ X i fXvXeX[   g.IXUXUXBXA .   Y kXUXKXMXF.* r cXKXrX8 * t fXIXiXa.  X d fXIXUXUXUXUXUXKXKX$.. # . * K SXIXIXUXUXUXUXUXUXUXUXUXUXUXUXKXGXUXl zXm.  + O     ",
"-   4.UXLXV.R.vXUXUXUXUXUXC.S KXKXUXcXR.LXUXUXJXUXUXUXUXKXmXF   : &XIXKX|.6 . X L DXMXZ =.Q AXIXUXUXUXUXUXUXUXUXUXVX|.5 . * K kXIXUXUXVXMXyX9 . Y kXIXKX].| IXIXUXKXVXA V   ~ SXUXKXVXKXUXUXUXKXuX9.* T SXUXuX).  X W  XDXKXUXUXUXUXKXKXVXVXi.. * K SXIXIXIXUXUXUXUXUXUXUXUXUXUXUXUXUXUX=XUXT.          ",
"  X C.PXUXUXUXUXPXUXUXUXUX=X2 xXUXUXvXE.PXPXKXZXKXPXUXUXUXKXi.. t $XIXKXrXD . * i hXrXF *.Q SXIXUXUXUXUXIXIXUXKXKXBXe.# .   t $XIXUXUXKXBXMX`.. e &XKXVX .P.IXUXUXKXyXF Z   z.DXUXVXUXIXIXUXUXKXuX0.  p jXUXMX`.. X t x.IXUXUXUXUXKXKXUXUXVXyXA = ~ DXUXUXUXUXUXUXUXUXUXUXUXUXUXUXUXUXGXUXPXO.    O O   ",
"  2   I zXUXUXUXUXPXUXUXUX-X4 UXUXPXR.M.UXUXUXUXUXUXUXUXUXKXi.. ; %XUXKXrX7 X u fXUXrXD *.Q SXIXIXUXUXUXKXUXKXKXVX8X$ N y.  ; z.DXIXUXUXUXVXyXA * P NX{.= #XUXUXUXUXyXV 5   j.DXUXF.L.IXIXUXUXUXyXH B * #XIXMXD.  * K lXIXUXUXUXUXUXUXKXUXKXtXq.; / IXUXUXUXUXUXUXUXUXUXUXUXUXUXUXUXUXJXUXJXo.+   O     ",
"X   x XXvXUXUXPXUXUXUXUXUX-X1 PXUXLXY.V.PXPXUXUXIXIXUXUXUXVXi.r.| b.UX6X&   %.DXIXHXtXF h Q SXIXUXUXUXUXUXUXUXKXMX7.; g.7X6 X e gXIXUXUXUXKXVX7X$ . 6.3 ! DXUXUXUXKXmXF V . * *   . %XDXUXKXUXKXyX8.  * L.@X.   X ^ DXUXUXUXUXUXUXUXUXUXUXKXtXq.= ) IXUXUXUXUXUXUXUXUXUXUXUXUXUXLXGX4Xn X.XX_ + O +     ",
"    -   UXUXUXUXUXUXUXUXUX4X1 UXUXIXC.Z.UXPXUXKXUXIXKXUXKXVXw..   U     X g.DXIXUXKXrXC %.~ SXIXIXUXUXPXUXUXUXKX|.5 : gX{.#   * .XSXUXUXUXUXKXVX9.#   : $XSXIXUXUXKXmXC 5 . ..IXUX3.P.DXIXUXUXKXyXp.  < @XKX8X&  XSXIXUXUXUXUXUXUXUXUXUXUXKXtX9.; / IXKXUXUXUXUXUXUXUXUXUXUXUXUXUXNXzX  3 4 X 1   O     ",
"  &.X CX  UXLXUXUXUXUXUXUXzX1 UXIXUXR.J.UXUXKXUXUXUXUXKXUXVXw.@ r %XIXUXUXUXUXUXUXKXrXG ! c.DXIXUXUXUXUXUXKXKXVXw.# . X   .   X ^ SXIXUXUXUXKXKX`.# * J SXIXUXUXUXUXBX$.F @ L.DXUXUX4XUXUXUXUXKXmX0.  k A.&     ; j.IXUXUXUXUXUXUXUXUXIXUXKXtXq.; / IXUXUXUXUXUXUXUXUXUXUXUXUXUXGXLXGX  + 1   O         ",
"      + X UXUXUXUXUXUXPXUXPX1 UXPXZXE.Y.PXGXUXGXUXKXUXUXUXKX8.@ e *Xg.cXUXUXUXUXUXHXrXD -.d.SXIXKXKXBX[ ,XIXVXMXC .         .   r $XIXUXUXUXKXKX9X6 ; z.DXIXIXUXUXUXBX$.A . #XDXIXUXUXUXKXUXUXUXVXr.o.< zX0X&   * u jXIXUXUXUXUXUXUXUXJXUXVXtXq.; ~ UXUXKXUXUXUXUXUXUXUXUXUXUXUXLXUX4X2   X     o       ",
"X -     b m PXPXPXKXUXPXUXUXUXUXLXUX~.b.UXUXUXKXKXUXKXKXUXKXw.w u z.@XGXUXUXUXUXUXBXrXD X t lXDXIXKX'.. P.DXMXS.  : hXKXKXKXA . ; x.IXIXUXUXVXMX`.@ ; / IXIXUXUXUXKXnX$.+.cXoXIXUXUXKXVXMXS P.IXmXS.2 e hXUXi.#   X .XAXUXUXUXUXUXUXUXUXUXVXrXC ; ( UXUXUXUXUXUXUXUXUXUXUXUXPXUXUXR.X.,.b 1 X X         ",
"      - 1 ,.xXJXUXUXUXUXUXPXNXUXUXZX+Xs.GXUXUXUXUXUXHXUXUXVXC . U j.@XDXUXUXUXUXUXKXrX0 . ; #XDXUXKXG . L.SXMXA * z.DXIXKXVX9X5 * L kXIXUXUXMXyX8 @ ; T SXIXUXUXUXHXmX9   X ! DXUXUXVX8XV   h.IXVX0.c y fXIXmXD .   K SXIXIXUXUXUXUXUXKXKXVXuXA ; ~ DXIXUXUXUXUXUXUXUXUXUXUXUX:X1XU.1X_ I - _ -     o   ",
"  X   1   GXLXGXJXKXUXUXUXUXUXJXUXUX>Xt.UXHXUXKXUXUXUXUXMX}.. #.  X ( SXIXUXUXUXVX|.5 @ . X         X   G.@.    ; %XIXIXUXVXmXD.  = t  XIXHXrX8 .   * e %XDXIXKXKXKXmXG B   = #XUXUX$.. X P aXKXMX8Xf * j.SXKXuX0 . X P.IXIXIXUXUXUXUXKXyXD @   X = r $XUXUXUXUXUXUXUXUXUXJXUXY.xXo.UX5.C.  s X +       ",
"          U.xX=XPXUXUXUXUXPXUXUXIXIXK.S KXUXUXUXIXUXUXUXnX8 O   M., ; z.IXUXUXUXKXeX$..           X X X {.4   X * * ; %.DXBX9 #   X e j.UXKX9X5     X X * P.UXKXKXVXq # @ X X X     . . h E AX5X$ . @   ; h.UXKX_.# X * = #XIXUXUXUXUXKXrX8 .     X r ^ IXUXUXUXUXUXUXUXIXJXKX<.=X@.' R.N.  ,.2 X       ",
"X       + Y.zXPX;XPXUXUXJXUXUXPXUXvXY.x UXGXKXUXUXUXUXUXKXKXKXKXUXUXIXIXUXUXUXUXKXUXVXKXUXUXUXUXUXUXUXUXUXUXGXUXUXIXIXUXUXKXKXKXKXPXUXUXUXUXUXKXUXUXUXUXUXIXUXUXIXKXUXKXUXUXUXUXUXJXUXUXIXUXUXUXKXUXUXUXUXIXUXUXUXUXUXIXUXUXUXUXUXUXUXUXUXHXUXUXUXIXIXIXUXUXUXUXUXUXUXUXUXUXUXZ.UX>.1 R v 2   O     X   ",
"          m.2.UXPXUXUXUXUXUXvXHXKXGXIXcXGXUXIXJXUXKXUXPXUXUXKXKXUXUXUXUXUXUXGXUXIXKXKXUXUXUXUXUXJXUXUXUXPXHXvXUXJXJXGXUXIXIXKXUXKXUXUXUXUXUXUXIXUXUXUXPXUXIXUXUXUXUXUXKXUXUXUXUXUXUXUXUXUXUXUXUXUXPXUXUXUXUXUXUXUXUXUXUXUXUXUXUXUXUXUXUXUXUXUXUXUXUXUXUXUXUXUXUXUXUXUXUXUXKXUX!.=Xx C.I M X X   O       ",
"        n UXUXxXxXUXUXUXUXNX>XKXUXUXJXxXUXPXJXUXUXKXUXLXUXGXUXHXUXUXUXUXUXUXUXPXUXLXPXUXUXPXUXLXGXUXPXvXUXGXUX1.!.K.zXLXLXUXUXKXUXHXUXUXUXUXUXUXPXUXUXUXJXUXUXUXUXUXUXUXUXUXUXUXUXUXUXUXUXUXUXUXUXUXUXUXUXUXUXUXUXUXUXUXUXUXUXUXUXUXUXUXUXUXUXUXUXUXUXUXUXUXUXUXUXUXUXUXUXUXUXzX=X4.UXk a o X X         ",
"  X   1   1Xb JXzXUXUXUXGXUXxXUXCXUXUXUXGXPXJXUXUXGXGXUXGXUXvXUXUXJXUXUXxXNXGXPXvXUXvXHXUXJXUXJXUXPXUXGXCXzXUX4XvX+XvXLXUXIXGXUXKXPXUXPXPXUXUXZXUX4XUXUX-XKXPXUXUXUXUXUXUXUXUXUXUXKXUXUXUXUXUXUXUXUXUXUXUXPXUXUXUXUXUXUXUXUXUXUXUXUXUXUXUXUXUXUXPXUXUXUXUXUXPXUXUXUXKXKXUXJXNX:XpXb vX] k I 2 X       X ",
"    O   j T.].UX/.vXUXPXKXUXxXUX5XvXLXHXJXJXJXUXHXJXvXGXPXUXxXUXUXJXzXLXGXGXLXGXUXUXUX>XJXGXPXUXGXJXCXUX:X1.LX2XGXV.UXzXJXZXZXIXLXLXLXJXLXNXvXUX2XU.2XPXm.vXUXUXPXUXUXUXUXUXUXUXUXUXUXPXUXUXUXUXUXUXUXUXUXPXUXUXUXUXUXUXUXUXUXUXUXUXUXUXUXUXUXUXUXUXUXUXUXUXUXUXUXUXUXUXUXGXGX4Xm.2.vX>.k b + O -       ",
"+         g n.GXUXUXUXPXPXPXUX!.O O   j _ v.xX;Xl 4 3 + 1 2 l O.=X  4 + m ;XUX2XGXGXQ.5XHX!.X.LXK.ZXR cX3.4X4XCXUXIX/.4.sXZXKXqXC.1XGXUXUXGXUX1 +   A.v.>XcXUXUXUXLXLXUXUXUXUXLXUXUXUXLXvXUXUXUXUXPXUXPXvXUXPXUXUXPXUXUXUXUXUXUXUXPXPXLXPXUXUXPXUXUXUXUXLXPXUXUXUXUXUXUXUXUXsXGXUXN.vXUX4XX             ",
"O O     4 _ m.zXCXvXPXUXUXCXXXM g > M _ s.C.zXX.E.' m R.' - O.X.' + , ' n >XZX~.IXCX-X3.T.5XXXo.2.PXb.vX>.s.CXGXGXvXm.J.n.1 vX>.pXj UXJXcXCX>XCX>., m 3 zXCXUXUXUXLXUXUXNXKXUXUXGXUXbXzX5XUXUXUXUXUXUXUXUXpXUXPXUXGXUXUXUXKXUXUXUXUXUXPXUXUXUXUXUXUXPXUXUXUXPXUXUXIXUXPXUXUXA.wXUXC.vXUXLX+ X X O O     ",
"            O     o.j   O O   j { - n 3 s.4.1.o._ + X.z ' k B. .n !.1X/.>.1.>Xb.UX5.Y.' K.,.C.1XUXIXO.XX .M GXpX=Xs.UX_ U.<.T.4.C.g.4XxXvXX.2.O.z O. .>.5.b.Y.!./.V.UX4X!.UXC.m.1.PX4X1Xm.C.pX>X5XC.HXJXqXcXUXNX!.T.5X4.ZXPX1.UXUXLX;XUX1.Z.vXUXUXJXUXUXxXZ.UXvXUXUXUXUXUX/.UXZ.k UXGXUXUXUXCX:X' + +   ",
"                X 3   o + o X { 3 a b k Y.g.I X.b   + _ X._ _ X.x sXcXO.<.&.=XsXCXX.V.R J.3.>.pXUX;Xx /.X.U UX>XcX3.CX2 Z.` U.-X/.m.!.UX<X{ O.z _ g.1 v.&.M &.IX-XA.1X1XV.vX5._ 5.UXGXGX!./.xX/.UXm.xXzXUXvXLXPXV.#.T.Y.4XUXk NX4XNX2XNXm.C.UXcXNXNXUXUXNX1.zXUX=XXX>X:XxXU.m.` m UXUXUXLXKXGX1X6._ X   ",
"            X   o X X X + - X a z + ` + z &.O ,.] X z _ O.3 XXl _ /.N.b.T.M vXn E.M &.4.m.s 3XI 1X .B.>.3XC.UX{ E.g Q.1.C.] <XsX1XM cXZ.-X1.<.l v.b 1 + 2 X   GX4XzXZ.4X=X1X;XwX!.GXUXLXLXxX4XUX/.-XZ.V.UXvXUX!.U.6.4X2X;XzXo./.] wXvXU.!.0XLX4XPXUXLXPXUXUXLXV.X       -   % 1 x UXUXPXUXPXGXLXNXNX    ",
"                X +   2 &.k > X   +   1         , + 2         <.      - l         a O 2 2 ` 3X<X_ XX2.M   k ' m b X.E.3.1X{ XX6.,X1.O 2 a 1 = 1   ^., +   3 + UXvXZ.S pX~./.U.wX;XT.n zXKXIXzX{./.;XUXzXUXUXGXGXv.zXUX1XNXJXN xX/.UXA.vXm.T.JX4X;XzXUXCXUXUXvXUXUXIXUXUXzXpX2XwX>XGXPXUXKXJXHXUXUXxX  O ",
"                    X a R o X X   + X   - 1 l  .    X     +   X   O     O   X   v.Y.&.- , - CXLXPX_ X v       X   X 1 1 3 l j s 3 ,.O +   1   + O 2   X O     5.S j 1 k _  .o.l b j @.N M.5.b j m HXUXC.l !.@.m.m.1 O.b U.U.O !._ aXr.;XA.U.C.U.T.zX(.A.HX4Xm.LXZXUXUXLXUXpXxXxXGXUXUXKXUXUXxXUXUX4X    ",
"                    1   o X   X X X     E.X   - X           +   X     X X   X +   R.~.x l O.;X  - x j k 2 a X X O O +   + + X   + - + + +   + 1 X   +     + - X       +     O O   + O 1     j +   +   +     1   +   2 $   O j     3   O O   O     O   O 1 % O 7.=XY.B.5.b   1 O n wXvXJXGXUXUXvX@.+     ",
"                X   +     X             b.+       X     X X     X           X   + N.XXR l s ~.1 >   o   -         X X   + O     X   - + X X X 1 X   +   X ,   -     + 1 O           . +   + +   O       O   1     b   + O + + + +       O   O   + O O   4     _ X.R n I k +     z X.Z.;XwXGXKXQ.3       ",
"                      O o         O O         +                     X           > + +     X   1 +   _   X +               +   X                                               O   4 j + O   ] 4 + +       + +   + n 1 O O                           O O O O     O   O                 O     O   +   O   ",
"                                            O 1 +                           + 2 E.      +   a   X   &.                          O                                       O   O     % 4 O   O O   . O   O         O O O       O             O             O                     O O               O     O ",
"                      O     O           O                                       + O O       1   > +       O                 X         O     O                                             O +   O %   O   O     O   .   O                                                                             5X"
};
