/* XPM */
static char *Continue_[] = {
/* columns rows colors chars-per-pixel */
"133 42 184 2",
"   c #020101",
".  c #0C0101",
"X  c #0B0B05",
"o  c #02030A",
"O  c #0D040B",
"+  c #0C0A0C",
"@  c #130402",
"#  c #190606",
"$  c #150906",
"%  c #1C0C03",
"&  c #140409",
"*  c #19060C",
"=  c #140B0E",
"-  c #1C0B0E",
";  c #0C130F",
":  c #15150F",
">  c #060915",
",  c #0C0E14",
"<  c #150F13",
"1  c #1E0C13",
"2  c #0F1513",
"3  c #0F1319",
"4  c #131313",
"5  c #191315",
"6  c #131915",
"7  c #13151C",
"8  c #1C1519",
"9  c #1B1A1A",
"0  c #250C03",
"q  c #221309",
"w  c #27190F",
"e  c #31190F",
"r  c #220F15",
"t  c #241514",
"y  c #2C1D14",
"u  c #24151A",
"i  c #231B1D",
"p  c #2C1A1A",
"a  c #311913",
"s  c #311E1E",
"d  c #34251C",
"f  c #1C1C22",
"g  c #2E1C22",
"h  c #272727",
"j  c #2B2527",
"k  c #2E272B",
"l  c #362525",
"z  c #3A2727",
"x  c #372B27",
"c  c #3A2B22",
"v  c #312B2E",
"b  c #3F2D2D",
"n  c #3D312E",
"m  c #2B2B31",
"M  c #3A2E31",
"N  c #343434",
"B  c #3F3434",
"V  c #3D373A",
"C  c #3F3A3D",
"Z  c #46312B",
"A  c #453535",
"S  c #463A31",
"D  c #4B3F37",
"F  c #463D3F",
"G  c #4B3F3E",
"H  c #4B423F",
"J  c #52463F",
"K  c #493F42",
"L  c #444444",
"P  c #4E4444",
"I  c #514343",
"U  c #574B44",
"Y  c #504649",
"T  c #534B4B",
"R  c #5C4E4E",
"E  c #59504E",
"W  c #4E4E52",
"Q  c #555555",
"!  c #5D5250",
"~  c #614E49",
"^  c #63504B",
"/  c #68554E",
"(  c #645656",
")  c #6A5651",
"_  c #665950",
"`  c #6B5E57",
"'  c #635C5C",
"]  c #6B5D5C",
"[  c #725E57",
"{  c #725E59",
"}  c #6B615E",
"|  c #756159",
" . c #7A665E",
".. c #75685E",
"X. c #7A6859",
"o. c #6A6462",
"O. c #6D6B66",
"+. c #706161",
"@. c #736965",
"#. c #7F6B63",
"$. c #766C69",
"%. c #7A6B6B",
"&. c #75726D",
"*. c #7D716C",
"=. c #777275",
"-. c #7C7270",
";. c #7D7B76",
":. c #816D66",
">. c #816D68",
",. c #847263",
"<. c #86726B",
"1. c #89756D",
"2. c #8C7A6B",
"3. c #817775",
"4. c #8C7770",
"5. c #877A72",
"6. c #8B7D75",
"7. c #81777A",
"8. c #827E7A",
"9. c #8B7E7D",
"0. c #917D75",
"q. c #937F7A",
"w. c #84817C",
"e. c #8D817A",
"r. c #998175",
"t. c #95827B",
"y. c #9C817F",
"u. c #A58C7F",
"i. c #967F81",
"p. c #8D8282",
"a. c #938484",
"s. c #938987",
"d. c #928A8D",
"f. c #9C8C8C",
"g. c #998E91",
"h. c #9F9394",
"j. c #A38D85",
"k. c #A88C89",
"l. c #AE918C",
"z. c #B19181",
"x. c #A39292",
"c. c #A59996",
"v. c #A29C9F",
"b. c #AB9999",
"n. c #B99C96",
"m. c #B2A4A2",
"M. c #B3A8A5",
"N. c #B7ABA8",
"B. c #B9AEAB",
"V. c #BCB1AE",
"C. c #BFB3B1",
"Z. c #BCB9B3",
"A. c #C2ABA5",
"S. c #C7ABA8",
"D. c #C3B7B4",
"F. c #C4B9B7",
"G. c #D3B7B1",
"H. c #D8BCB9",
"J. c #E3BFAE",
"K. c #CDC2BF",
"L. c #DAC2B3",
"P. c #D4CBCE",
"I. c #DACACA",
"U. c #E0C4C2",
"Y. c #E0D2CA",
"T. c #E8D2CD",
"R. c #E5DAD8",
"E. c #F1DAD5",
"W. c #F4DDD8",
"Q. c #EEE0D5",
"!. c #FBE3D5",
"~. c #F4E4DA",
"^. c #FAE2DB",
"/. c #F6E8DD",
"(. c #F4E3E3",
"). c #FFEBE3",
"_. c #FDECEA",
"`. c #FFF3E4",
"'. c #FFF5E8",
"]. c #FFF9EB",
"[. c #FFF3F1",
"{. c #FFFBF4",
"}. c #FFF6F9",
"|. c #FFFFFF",
/* pixels */
"o o   o     o o   o   o   o o o   o o   o   o o   o                                                                                                                                                                                       o     o     o o   o   o   o o   ",
"3 3 o o o o o   o o o o + + + + , , ,     o         + + + +                     .   . . . . . . .     . . . . . . .   . .                                                                                                   X     X + + +   o o o > > > , , , , o o   o o ",
"  o o o o f 9 f g o o o o o   o       = & O + .   . 5 5 < < .   .     . . .   . . . . . . . . . . . . . . . . . . . . . . . . .         . . .           .   .       .   .         . . . .         .   .       .   . .         . .         o o o   o o o + > > , o o + o o ",
"o     o o                 . .   Y Y Y -.3.=.=.3.3.3.p.p.p.p.9.6.9.q.9.p.9.e.e.e.q.q.q.q.0.q.q.t.q.q.q.0.q.0.e.0.q.q.q.r.0.e.e.e.t.e.e.e.e.e.e.e.e.e.e.e.e.e.e.e.e.e.e.e.e.e.e.e.e.e.t.e.t.w.6.6.6.6.6.6.e.w.e.t.t.a.t.9.e.e.<.*.*.<.} o.o.m k m m o o o o o   o + > + = = ",
"o o       .   . . Y T Y g.g.g.g.R.R.R.[.[.[.[.(.(.(._._._._._._._.^.^.^.^.^.^.W.W.^.W.^.W.^.^.W.W.^.!.!.!.!.^.W.!.W.^.W.^.^.^.^.~.~.~.~.~.^.^.^.~.~.~.^.^.^.^.~.~.~.~.^.^.^.~.~./.~.W.~.W.Q.Q.Q.W.W.W.W.~.~.~.).).).).~././.E.E.E.E.Y.Y.Y.v.v.v.h.W W W o   o o       < < ",
". . . . . u u u u m.m.m.|.|.|.|.|.|.|.|.|.|.|.|.|.|.|.|.|.|.|.|.|.|.|.|.|.|.|.|.|.|.|.|.|.|.|.|.|.|.|.|.|.|.|.|.|.|.|.|.|.|.|.|.|.|.|.|.|.|.|.|.|.|.|.|.|.|.|.|.|.|.|.|.|.|.|.|.|.|.|.|.|.|.|.|.|.|.|.|.|.|.|.|.|.|.|.|.|.|.|.|.|.|.|.|.|.|.|.|.|.P.P.P.4 5 5 4       . . ",
".   @ . @ R R R R I.I.I.}.}.}.}.[.[.{.{.}.{.{.{.{.{.|.|.{.|.{.{.{.'.'.'.'.'._.'.'.'.'.'.`.`.`.`.`.`.`.`.`.`.`.`.`.`.`.`.`.'.'.'.'.'.'.'.'.'.'.'.'.'.'.'.'.'.'.'.'.'.'.'.'.'.'.'.'.'.'.'.'.].].].'.].].'.`.`.'.).).).`./.`.`.'._.'.).].{.{.|.|.|.|.|.|.|.' ' ' '         . ",
". . # @ @ i.i.i.i.T.T.T.U.U.U.U.S.S.S.H.H.H.H.H.H.H.H.H.H.H.H.H.H.H.H.H.H.H.H.J.H.H.H.H.H.H.H.H.H.H.H.H.H.H.H.H.H.H.H.G.G.G.G.G.G.G.G.G.G.G.G.G.G.G.G.G.G.G.G.G.G.G.G.G.G.G.G.G.G.G.G.G.G.G.G.G.G.G.G.G.G.G.G.G.G.G.G.G.G.G.G.J.J.J.L.L.L.D.D.F.D.P.P.P.h.h.f.h.@ . @ . . ",
". . # # $ 1.<.3.<.A.A.A.l.k.k.k.i.q.q.n.n.n.n.n.n.n.n.n.n.n.n.n.n.n.n.n.n.n.n.n.n.n.n.n.n.n.n.n.n.n.n.n.n.n.n.n.n.n.n.l.l.l.l.l.l.l.l.l.l.l.l.l.l.l.l.l.l.l.l.l.l.l.l.l.l.l.l.l.l.l.l.l.l.l.l.l.l.l.j.u.u.u.u.u.u.u.u.u.u.u.u.z.z.z.u.u.u.x.x.x.x.x.h.h.F.F.F.F..   . @ . ",
"    . . . 5.5.5.5.k.j.k.0.0.0.0.q.0.q.0.q.q.q.q.r.q.r.q.r.t.y.q.q.q.q.q.q.q.q.q.q.q.q.0.q.q.q.q.t.t.r.t.r.q.y.t.q.t.r.4.4.4.4.4.4.1.0.1.4.4.4.2.1.5.1.5.4.4.4.4.4.4.4.4.4.4.4.1.4.4.4.4.4.4.4.2.4.4.q.t.t.r.r.t.t.q.t.r.q.q.r.r.r.r.t.t.r.e.e.e.t.a.a.a.b.b.b.b.@ @ @ . . ",
"o o .   . <.*.<.<.j.j.j.4.4.0.4.0.4.4.0.0.0.0.0.6.0.0.0.0.0.0.0.0.0.0.0.q.0.0.0.0.0.0.0.0.0.0.0.0.0.0.0.q.0.0.0.0.0.0.4.1.1.1.1.1.1.<.<.1.1.<.<.1.1.1.1.<.<.1.1.<.1.1.1.2.<.<.<.1.1.<.1.1.1.<.1.1.<.0.0.0.0.0.q.0.0.0.0.0.0.0.2.2.2.2.5.2.e.e.e.e.i.i.e.x.x.x.x.@ @ @ . . ",
"o o .   o %.%.%.$.q.t.t.<.<.,.<.:.,.:.<.1.1.<.<.<.<.<.<.<.<.<.<.<.<.<.<.1.1.<.<.1.2.<.<.1.1.<.<.<.<.<.<.<.<.>.<.>.<.<.#.#.#.#.#.:.:.#.:.:.:.:.:.#.#.#.#.:.:.:.:. .:.:.:.:.:.:.:.:.:.#.#.:.:.#.:.:.:.<.<.<.<.<.<.<.<.<.<.<.<.<.,.,.,.<.,.<.*.<.*.*.;.=.;.f.f.f.g.@ . . . . ",
"  o   .   +.+.+.o.4.4.<.{ { { { :.[ [ :.@.{ :. . .@. . . . . . .@.{ :. . . .:.{ :.:.[ :.@. . . . . .#.| #. .#.| #. . .[ [ [ [ [ [ [ [ [ { [ [ | [ { [ [ [ | [ [ { { [ | [ | { { [ [ [ [ [ [ | { [ [  . . . . . . . . . . . . .X.X.X. .......@...#.$.$.&.a.a.a.a.. . . . . ",
"  o       ] ] ] ] >.>.:.) ) [ ) ~ / / ) { [ [ { { [ [ [ { { { { { [ [ [ { { { [ [ [ [ [ [ ` [ { { { { [ [ [ { { [ [ [ ) ) ) ) ) / ) ) ) ) ) ) ) ) ) ) ) ) ) ) ) ) ) ) ) ) ) ) ) / ) ) ) ) ) ) ) ) / ) [ [ [ ) [ [ [ ) [ [ [ [ ) ) / _ _ _ } | } } } } } p.9.9.9.  . . @ @ ",
"o         ( ( ( ( #.#.@./ / ~ ^ ~ ~ ~ / / / / ) / ) / ) ) ) ) / / / / / / / / / / / ^ / / ) ) ) ) / ) / ) ) ) ~ ) ) ) |.|.~ ~ / / ~ / ~ ^ |.|.^ ^ ^ ^ ^ ^ ^ ^ ^ ^ ~ ^ ^ ^ ^ ^ ~ ^ ^ / ~ ^ ^ ^ ~ ^ ^ / / / / / / / / / / / / / ~ ^ ^ ^ _ ^ ! E E |.|.! ! -.-.*.-.  . . @ @ ",
"  o       R ! E R ] ] ] K I K I G K }.}.|.|.|.|.U U U U U U U U |.|.|.|.|.|.|.U U ~ G ~ |.|.|.|.|.|.U U |.|.|.|.|.|.U |.|.|.|.|.|.|.|.|.|.|.|.J |.|.|.|.|.|.J |.|.|.|.|.|.J J |.|.|.|.|.|.J I |.|.|.|.|.|.U |.|.|.|.|.|.U U |.|.|.|.|.|.|.|.|.|.|.|.Y Y @.@.O.@.. .   @ @ ",
"o         P P P P ( ! R A A A A Z |.|.|.|.|.|.|.|.D D D D D D |.|.|.|.|.|.|.|.|.D D D D D |.|.|.|.|.D D D |.|.|.|.D D |.|.|.|.|.|.|.|.|.|.|.|.S S |.|.|.|.S S S |.|.|.|.|.S S S |.|.|.|.S S S S |.|.|.|.D H D |.|.|.|.D D H D |.|.|.|.|.|.|.|.|.|.|.L H } o.o.o..   . . . ",
"o   o   o K K K K A A A b b b b |.|.|.|.|.z z |.|.|.|.z z z |.|.|.|.z z z |.|.|.|.z z z z |.|.|.|.|.|.z z |.|.|.|.z z |.|.b b |.|.|.|.b b |.|.b b |.|.|.|.b b A |.|.|.|.|.|.b b |.|.|.|.b b b A |.|.|.|.Z b b |.|.|.|.Z Z b b |.|.|.|.c l n n n |.|.C C R T T R < - - . . ",
"o   + + + B B V A z z b s s p |.|.|.|.|.p p p p |.|.p p p |.|.|.|.p p p p p |.|.|.|.p p p |.|.|.|.|.|.p p |.|.|.|.p p p p p p |.|.|.|.p p p p p p |.|.|.|.p p p |.|.|.|.|.|.p p |.|.|.|.p p p p |.|.|.|.p p p |.|.|.|.p p p p |.|.|.|.y y l |.|.l v v v K K K K . & O . . ",
"    + . + j l l k g g g u u u |.|.|.|.* * 1 * - * 1 * - * |.|.|.|.* * 1 - * |.|.|.|.1 * - |.|.|.|.|.|.|.* |.|.|.|.* 1 1 1 r 1 |.|.|.|.1 r 1 1 r 1 |.|.|.|.1 r 1 |.|.|.|.|.|.|.1 |.|.|.|.1 1 r 1 |.|.|.|.- - - |.|.|.|.- - - - |.|.|.|.|.|.|.|.|.8 i i i N M N M       . . ",
"    X o o i i i u r r r * * * |.|.|.|.& & & & & & @ & & & |.|.|.|.& & & & & |.|.|.|.& & & |.|.|.|.|.|.|.|.|.|.|.|.& & & & & & |.|.|.|.& & & & & & |.|.|.|.& & & |.|.|.|.|.|.|.|.|.|.|.|.& & & & |.|.|.|.@ @ @ |.|.|.|.@ @ @ @ |.|.|.|.|.|.|.|.|.< = = < j j j j       @ & ",
"          < $ < < $ & & . . O |.|.|.|.. . & O . O & O . & |.|.|.|.. . & & . |.|.|.|.. & . |.|.|.|.|.|.|.|.|.|.|.|.. . & O . & |.|.|.|.O & . & O . |.|.|.|.. O & |.|.|.|.. |.|.|.|.|.|.|.& O & . |.|.|.|.= & & |.|.|.|.& & & & |.|.|.|.. . O |.|.O O   . f u 9 9       = + ",
"            O o O O . . . .   |.|.|.|.|..   . . |.|.  . . |.|.|.|..   .   . |.|.|.|..   . |.|.|.|.  . |.|.|.|.|.|.  . . O . . |.|.|.|.. . O . . . |.|.|.|.. . . |.|.|.|.. . |.|.|.|.|.|.. . . O |.|.|.|.. & . |.|.|.|.. & . . |.|.|.|.. .               8 1 8 <       + + ",
"        o O O O O O O O   O . . |.|.|.|.|.. . |.|.|.|.. . . |.|.|.|.. . . |.|.|.|.. . . . |.|.|.|.. . . |.|.|.|.|.. O . . . . |.|.|.|.. . . . . . |.|.|.|.. O . |.|.|.|.. . . |.|.|.|.|.. . . . |.|.|.|.|.. |.|.|.|.|.. O . . |.|.|.|.. .       |.|.    8 8 8 9       . O ",
"          = = = = = $ $ O O O O . |.|.|.|.|.|.|.|.. O & . . & |.|.|.|.|.|.|.|.|.& . O . . |.|.|.|.. . O |.|.|.|.|.. @ O @ O . |.|.|.|.. . . = @ . |.|.|.|.. @ . |.|.|.|.. @ O |.|.|.|.|.@ . O . . |.|.|.|.|.|.|.|.|.. . O & . |.|.|.|.|.|.|.|.|.|.|.    i i i i       + + ",
"X X       j j j j % - - . . . . @ . |.|.|.|.|.|.$ $ $ $ $ $ $ $ |.|.|.|.|.|.|.$ $ $ $ $ |.|.|.|.|.|.$ $ |.|.|.|.|.|.$ . @ . |.|.|.|.|.|.@ . . . |.|.|.|.|.|.. |.|.|.|.|.|.. . |.|.|.|.|.|.. @ . . @ |.|.|.|.|.|.|.  . . .   |.|.|.|.|.|.|.|.|.|.|.|.; ; h h h h           ",
"X o       x x x x : - 5   . .   . @ . $ $ $ $ $ $ $ $ $ $ $ $ $ $ $ $ $ $ $ $ $ $ $ $ $ $ $ $ $ $ $ $ $ $ $ $ $ $ $ $ . . . @ . . . . @ . @ . . . . . @ @ . . . . . . @ . @ . @ . . . @ @ . . . . @ . .   .   . . .   . . .   . . .             |.|.6 6 N N N N         X ",
"  o       n B B n t t t . . . . . . . $ @ @ @ @ @ @ @ $ @ @ $ @ @ @ @ @ @ . $ @ $ @ $ @ $ @ @ @ @ @ $ @ @ $ @ @ @ $ @ . . . . . . . . . . . . . . . . . . . . . . . . . . . . . . . . . . . . . . .   . . .   .   . . .   . . . . . X .   o O o o 9 9 9 L L L L       + + ",
".         H H H G p p p . . . . . . . @ @ @ @ @ @ @ @ @ $ @ @ @ @ @ @ @ @ @ @ @ @ @ . @ @ @ @ @ @ @ @ @ @ @ @ @ @ @ @ . . . . . . . . . . . . . . . . . . . . . . . . . . . . . . . . . . . . . . .   . .   .     . .     . . . . . . . . O . .   9 9 8 Q Q Q Q       + O ",
"      o   T T U Y l z l @ @ @ @ . . . @ @ @ @ @ @ @ @ @ . @ @ @ @ @ @ @ @ @ @ @ @ @ @ @ @ @ @ @ @ @ @ @ @ @ @ @ @ @ @ . @ . . @ @ . . @ . . @ . . @ . @ @ . @ . @ . @ . . . . . . @ . @ @ . @ . . @ . . . . . . . . . . . . . . . @ . . .     o   8 8 8 O.o.o.o.      .   ",
"    . . . ( ( ( ( b b Z @ @ @ @ . . . . @ . . . . . @ . . @ . . . @ @ . . @ . . . . . @ @ . . @ . . . @ @ . . . @ . . @ . . . . . . @ . @ . @ . . @ . . . . @ . . . @ . @ . . @ . @ . . . . @ . . @ . . . . . . . . . . . . . . . @ . . . . . O . 8 3 < =.=.=.=.      .   ",
"  . . . . ] ] ] ] A A A @ @ @ @ . . . . . . @ @ . @ . @ . . . @ @ . . . @ . @ . @ @ . . . @ . . . @ . @ . . @ . . @ . . . . . . . . . . . . . . . . . . . . . . . . . . . . . . . . . . . . . . . . . . . . . . . . . . . . . @ . . @ . . . . . . u f f p.p.p.w..   . O . ",
". . . O . +.+.o.+.A A A * # # # . . . . . . . . . . . . . . . . . . . . . . . . . . . . . . . . . . . . . . . . . . . . . . . . . . . . . . . . . . . . . . . . . . . . . . . . . . . . . . . . . . . . . . . . . . . . . . . . @ @ . . . & . & . u 9 u d.d.d.d.. .   . . ",
"    & $ & ( ( ( ( { } ' . . . . . . . p p p p p p p p p p p p p p p p i p p p p p i p p p p p p p p p p p i p p p p p . . . . . . . . . . . . . . . . . . . . . . . . . . . . . . . . . . . . . . . . . . . . . . . . . . . . . . . . @ . . .   . Y Y Y 7.7.7.7.  . . = = ",
"          G D H K e.i.i.K J I P t t w l l l l l l l l l z l l l l l l l l z l l l l l l l l l l l z l l l l l l l l l l z z z z l z z z z z l z l z z z l z z z l z z z z z z z l z z z z z z z l z I P I I P I I I I I I I I b z b z x x N n N M h.h.h.F F K K . . . . . ",
"    .     @ . X . s.s.s.c.c.c.c.9.9.w.$.@.$.$.( ' ( $.$.$.$.' } ] -.*.*.-.-.-.*.*.*.-.-.*.-.-.*.-.-.*.*.*.*.-.-.-.-.-.*.-.-.*.*.-.-.-.-.-.*.-.*.-.-.*.-.-.-.-.*.-.-.-.-.-.*.-.*.*.$.$.@.$.$.$.$.@.@.@.@.@.@.@.$.$.$.$.$.$.@.$.%.$.$.*.*.*.d.d.d.s.v.v.v.        . o . + + ",
"+ + ; X X         P P P 6.8.8.9.V.Z.C.K.K.K.K.M.M.M.N.N.V.N.D.D.D.N.B.B.B.M.N.N.N.N.N.B.N.N.N.N.B.N.N.N.N.N.N.B.N.N.B.B.N.M.N.M.M.M.M.M.M.M.M.M.M.M.M.M.M.M.M.M.M.M.M.M.M.M.M.M.M.B.B.B.V.V.V.V.C.V.C.C.D.D.Z.D.D.D.Z.D.F.F.F.F.F.F.Z.Z.Z.d.d.d.d.V V V               + + ",
"o                       . . X . T T T 8.w.;.w.;.3.;.;.;.;.;.;.w.;.w.w.w.w.w.w.w.w.w.w.w.w.w.w.w.w.w.w.w.w.w.w.w.w.w.w.w.w.w.w.w.w.w.w.w.w.w.w.w.w.w.w.w.w.w.w.w.w.w.w.w.w.w.w.w.w.;.;.;.;.;.;.;.w.w.w.3.;.w.8.;.;.;.;.&.&.&.O.O.O.O.} o.} m k k k       9 9 6 9           ",
"          X X X X                                                             .                                                                                                               . X     X X X X   X   .                                   + ; = 2           ",
"    ; ; ;               : : : : X X X                       X X X                                   .                       X   X   X   X   X   X   X   X X   . X   X     X   X                                       X                   X X o o 2 2 2                 o ",
"          4 4 4 4                       .     X X .                           .                                                                                                   X X . X                                   .       . X .                       9 9 9 o   ",
"    7 7 7 + . O O . .   .   . . t t w @ @ @ @ % % % Z Z Z Z 0 q 0 a a a a e e e a a a a a a a a a a a a a a y a y y y y y w w w w w w w w w w w w w w w w w w w w w w w w w w w w d d d d y d y w w w w y y y y y a y y y y q q q q @ @ @ . . . . . . @ & & & &         o "
};
