/* XPM */
static char *DifficultyHard[] = {
/* columns rows colors chars-per-pixel */
"148 47 256 2",
"   c #020202",
".  c #0B0100",
"X  c #050906",
"o  c #040509",
"O  c #09070B",
"+  c #06090A",
"@  c #0A0A0B",
"#  c #080A05",
"$  c #130000",
"%  c #1E0C01",
"&  c #140A09",
"*  c #0E100F",
"=  c #10120F",
"-  c #000313",
";  c #000B16",
":  c #0E0E11",
">  c #00041B",
",  c #000A1B",
"<  c #110F13",
"1  c #0F1012",
"2  c #131314",
"3  c #151619",
"4  c #17181B",
"5  c #1A1B1C",
"6  c #161817",
"7  c #230B00",
"8  c #280B00",
"9  c #2C1D0A",
"0  c #321A0D",
"q  c #331805",
"w  c #261F15",
"e  c #2A1B18",
"r  c #301C13",
"t  c #372616",
"y  c #000B23",
"u  c #000D29",
"i  c #00102B",
"p  c #001224",
"a  c #1D1D20",
"s  c #000F31",
"d  c #1F2024",
"f  c #1E2C34",
"g  c #232324",
"h  c #262629",
"j  c #27282A",
"k  c #2B2B2C",
"l  c #3A312A",
"z  c #2E2E30",
"x  c #2F3035",
"c  c #323334",
"v  c #363639",
"b  c #3B3B3C",
"n  c #37383A",
"m  c #442F14",
"M  c #462B20",
"N  c #433421",
"B  c #5B452D",
"V  c #55493A",
"C  c #5E4C3C",
"Z  c #534635",
"A  c #684424",
"S  c #67492B",
"D  c #644A3D",
"F  c #1E2C47",
"G  c #1E364E",
"H  c #1E3849",
"J  c #1A3857",
"K  c #23374B",
"L  c #3D3E40",
"P  c #313A4B",
"I  c #223850",
"U  c #3F4042",
"Y  c #3D576C",
"T  c #3A576B",
"R  c #365975",
"E  c #364667",
"W  c #424344",
"Q  c #454549",
"!  c #4B4B4D",
"~  c #4A4A49",
"^  c #4E4E51",
"/  c #504F54",
"(  c #4F5052",
")  c #46535C",
"_  c #535354",
"`  c #555558",
"'  c #5B5B5C",
"]  c #575858",
"[  c #534844",
"{  c #705743",
"}  c #70635B",
"|  c #445567",
" . c #5E5F61",
".. c #605F64",
"X. c #5F6062",
"o. c #636466",
"O. c #656569",
"+. c #676969",
"@. c #6B6B6C",
"#. c #73746F",
"$. c #6E6E71",
"%. c #737374",
"&. c #767678",
"*. c #7B7C7D",
"=. c #777978",
"-. c #8B6E4A",
";. c #916D4B",
":. c #83715A",
">. c #867153",
",. c #977558",
"<. c #896B53",
"1. c #817C78",
"2. c #8E8673",
"3. c #A28A70",
"4. c #AE9677",
"5. c #B49575",
"6. c #B89779",
"7. c #B79877",
"8. c #476B83",
"9. c #7E7E81",
"0. c #717C87",
"q. c #5F859A",
"w. c #7F8182",
"e. c #72838D",
"r. c #6B839B",
"t. c #6D879A",
"y. c #708199",
"u. c #6384A2",
"i. c #6B80A1",
"p. c #7F95A3",
"a. c #838384",
"s. c #868689",
"d. c #858989",
"f. c #8B8B8C",
"g. c #8B8786",
"h. c #9E988A",
"j. c #8E8F90",
"k. c #8F9092",
"l. c #949494",
"z. c #939599",
"x. c #97999B",
"c. c #9B9B9C",
"v. c #9C9895",
"b. c #AA9A87",
"n. c #B29983",
"m. c #A09E9F",
"M. c #9E9EA0",
"N. c #9EA1A1",
"B. c #8FACBF",
"V. c #8BA6B9",
"C. c #95A9BC",
"Z. c #9BA9BB",
"A. c #97ABB2",
"S. c #A3A3A4",
"D. c #A6A7A9",
"F. c #ABABAC",
"G. c #A9A5A2",
"H. c #B0ABA8",
"J. c #B3B1AC",
"K. c #AEAEB1",
"L. c #A1A7B3",
"P. c #AEB2B4",
"I. c #B3B3B4",
"U. c #B6B8B7",
"Y. c #B6B6B9",
"T. c #B6B9BA",
"R. c #BBBBBC",
"E. c #C7BEAF",
"W. c #DBBDA2",
"Q. c #D7BFA3",
"!. c #CEC3AF",
"~. c #DBC2A5",
"^. c #CAC2B9",
"/. c #D1C0B0",
"(. c #ECCCB7",
"). c #F4D5BC",
"_. c #F3D9B7",
"`. c #8CABCB",
"'. c #8FAAC5",
"]. c #92ABC3",
"[. c #93A9C8",
"{. c #94B2CA",
"}. c #BEBEC1",
"|. c #C0BFC2",
" X c #BEC1C3",
".X c #BFC8C3",
"XX c #B9CAD8",
"oX c #AECEE7",
"OX c #B4CDED",
"+X c #B7CDE6",
"@X c #B6D0EB",
"#X c #B6D1E6",
"$X c #AFC8F0",
"%X c #B1C8F1",
"&X c #BCD8F8",
"*X c #C3C3C4",
"=X c #C6C7CA",
"-X c #C7C8C9",
";X c #CBCCCC",
":X c #C7C6C9",
">X c #CECFD1",
",X c #C1C9D6",
"<X c #D3CFD0",
"1X c #CFD1D2",
"2X c #D3D3D4",
"3X c #D5D5D8",
"4X c #D7D8DB",
"5X c #DCDCDD",
"6X c #EAD7C5",
"7X c #F5D6C3",
"8X c #FAD6C0",
"9X c #EADAD2",
"0X c #DEE0DF",
"qX c #FFF1CF",
"wX c #E5E1D7",
"eX c #FCEEDC",
"rX c #F9E8D4",
"tX c #FFF5D4",
"yX c #FFFADC",
"uX c #FFF7D7",
"iX c #DEDEE0",
"pX c #E1DFE2",
"aX c #DEE1E2",
"sX c #CFECFF",
"dX c #D3EDFD",
"fX c #D5F2FF",
"gX c #DAF5FF",
"hX c #DBFDFF",
"jX c #E3E3E4",
"kX c #E8E8E6",
"lX c #E6E6E9",
"zX c #E6EAEC",
"xX c #ECECEC",
"cX c #E8E4E5",
"vX c #F2EEEE",
"bX c #FEF5E4",
"nX c #FFFEE5",
"mX c #F4F2ED",
"MX c #FDF5ED",
"NX c #FFFCEC",
"BX c #EEEEF1",
"VX c #E4EDFC",
"CX c #F1EFF0",
"ZX c #EFF1F3",
"AX c #E5F4FF",
"SX c #E3FEFF",
"DX c #ECFFFF",
"FX c #EFF5FF",
"GX c #F4F4F4",
"HX c #FAF5F5",
"JX c #F6F8F6",
"KX c #FEFCF4",
"LX c #F5F6F9",
"PX c #F9F7FA",
"IX c #F5FEFE",
"UX c #FDFEFD",
/* pixels */
"  @                                           @     + @     X   X                 O   . @   <   <       @ &   o < O O   2   : 2 o     X   o o o   @   o o @     6   @   O :   : @ @ #       #     o                                                     o                                               ",
"          #                               o             +   X X X * 6   X     # # 2 &   O o @ o O O 2   2   + o   <   1           o X X   o o ; o o   : + @ X     @ @ : o o a : O   # #   =     < o       o                                       o           o                                         ",
"                                    #   O   o O           +       =   + @           @ +       +       o     o ; o o @   @ O d       o @   O O o X   a   1 @ X X g 5 4 g 5 5   O * n a ~ W [ O.^ b 2                                                                 @                                   ",
"  # a.2 #   #     X       @   g 3 v c c b v L Q o.v c W $.( f.w.N.l.l.#.N.U.x.U.*.c.*X*.xXIX%.4X}.iX;X2X2X-X:X XK.GX2XGXE.N.M.K.N.d.IX1X5X XN.K.K.n  .T.U.R.*XF.;XY.Y.R.Y.D.I.Y.2.g.a.o.+.l. .] k # 2 5 #   6 5 # a @ #     2 2 & k # h g j c 6 g b v z 3 2 O 2 2 5 2   #     @                         ",
"# j 5Xb < @   # o       O   : h h ^ Q L W ` v / $.a ! w.o.9.D.U  .x.d.d.$.T.aXZX*XzX5Xx.ZXIX' D.UXUXmXcXvXHXjX XT.UXGXUX<XF.w.d.*XU.ZXGXUXU W b k ! g ! x Q Q ( ' ' b ] ~ @ 5 5 1 + o   : *.2 # @   @ a 5 b W a.g *.5 2 = 6 j a k X.k ( _ +.f.=.O.c.9.O.4 4 a z a h g k g   2 O                         ",
"# b xXUXg @ 2 #     O k L @.L S.&.9.K.9.9.P.z.:XF.L.3X4X%.=Xw.UX1XR.0X*.aXZXN.UXzX4XZXaXP.4XIXZXIXUXxXmXHXPXZXUXPXUXUXPXvXjXGXUXPXxXGX5XUX4X2X.XGXjXIXZXUXLXFXLXlXxXGXGXGX5XUXUXFXBXBXBXUXxXUXUXHXUXPXUXvXPXUXHXPXGXPXUXUXGXkXGX1XUXZXUXHXUXjXUXR.F.;X2X*XGX2XS.jXiXc.I.j.4 @ o                         ",
"  v GXPXR.#       O o ../ $.P.PXUXZXUXPXpXY.pXUX*XUXT.;XPXIXUXUXk.IXUXGXaXFXZXUXUXIXUXUXJXUXIXJXGXZXUXUXUXUXJXJXUXUXUXHXUXUXIXPXUXUXUXUXPXLXUXGXGXUXUXUXLXUXUXUXUXPXUXPXUXUXPXPXUXPXPXPXLXUXUXUXUXmXUXKXUXUXPXUXGXjXUXjXGXGXPXHXUXxXUXUXUXGXPXUXPXPXUXPXUXUXPXjXPXPX5XR.*X$.&.@ @   #                   ",
"# 5 PXUXGX' o     < O < a L $.PXZXGXUXUXPXLXGXPXBXUXUXUXLXUXUXUXGXGXLXxXIXUXPXUXUXZXUX@.o.F.UXUXIXUXUXKXUXUXJXGXPXPXvXUXvXHXUXUXUXPXPXUXUXPXJXPXUXJXUXUXUXUXUXPXUXUXUXPXHXKXUXUXGXPXUXUXLXPXPXPXKXUXKXUXUXUXUXGXPXmXUXF.UXUXUXPXGXPXGXHXUXUXPXUXUXUXUXUXLXBXGXUXUXPX3XF.R.CXLX! n #                     ",
"  _ *.HXPXc   2 : o Q a ! W 3X .f.5XwXmX>X4X5X3X;X:X;X-X;XGXHXGXGXGXCXc.*XPX>XD.UXS.kXb @. XmXPXLXS.&.J.H.I.2.T.Y.|.Y.J.J.:XUXUXUXPX2X-X9XUXUXIXIXUXUXUXUXUXUXUXUXUXUXUXUXUXUXUXUXPXUXUXUXUXUXUXUXPXUXUXUXUXUXUXPX*Xv.UXUXGXPXUXPXHXUXUXIXPXUXPXUXUXHXJXUXUXIXlXGXGXUXiX}.3XlXc.G.@                     ",
"  b ~ xXUX4   2   @ Q /  .! }.h b M.x.l.w.f.2.c.@.f.*.=.=.G.-XR.m.c.G.` 9.F.K.z.zXj.3Xz a.U.9XxXBX*.' l.1.v.) x.s.I.g.%.G.*XLXUXUXGX3X;X4XGXGXUXUXJXUXUXUXUXPXUXUXUXUXUXUXUXJXUXUXUXUXUXUXHXUXUXUXJXPXUXPXUXPXUXGXc.x.CXPXUXJXUXPXGXGXxXjXwX5X5X;X;X-XI.^.K.I.l.c.c.c.f.&.9.a. .$.2                     ",
"@ W j.HXPXz   2 >XUXZXz +.;XO.UXPXHXUXUXJXHXUXUXUXUXGXUXKXUXUXkXUXxXUXHXUXUXPXUXUXPXPXUXPXHXUXUXJXUXUXKXUXKXGXUXUXPXUXPXJXPXUXUXUXUXUXJXUXUXUXUXIXUXPXUXUXUXUXUXUXUXUXUXUXIXUXUXCXUXUXmXxXUXPXPXUXIXGXUXPXLXGXUXUXUXjXPXUXUXUXHXUXPXUXUXUXUXUXUXUXUXUXUXGXpXxXLXUXPXPXGX*X*XjXUX4X!   @   o             ",
"  5 G.UXGXl.D.jXUXUXUXg g xXUXUXUXJXUXPXUXPXUXUXUXUXUXUXPXUXGXKXUXUXPXUXGXUXLXPXPXPXUXHXKXUXKXUXUXUXUXzXUXHXPXUXUXJXUXUXUXUXIXUXUXPXLXJXJXGXUXUXUXUXUXUXUXUXUXUXUXUXUXUXUXUXPXUXGXPXHXUXHXKXUXPXLXUXPXLXJXIXUXUXGXUXUXGXGXUXUXUXUXPXPXUXUXUXUXUXUXPXxXUXUXUXUXUXHXUXUXUXGXUXUXiXY.h +.  < @   o         ",
"@ z w.LXPX`   UXUXUXUXUXUXUXPXLXPXUXUXUXGXUXUXHXHXUXHXUXUXUXUXUXUXUXUXUXUXUXUXUXUXUXUXUXUXKXUXUXUXUXUXUXIXUXUXUXUXUXUXUXIXIXUXUXUXUXUXUXUXUXUXUXUXUXUXUXUXKXUXUXUXUXUXUXUXIXUXUXUXUXKXUXKXUXPXUXUXUXUXUXUXUXUXUXUXPXUXUXUXUXUXUXUXUXUXUXUXUXUXUXPXUXUXUXUXUXUXUXUXUXUXUXUXUXUXUXLX3X' I.}.o             ",
"  c ' UXUXz 5 UXUXPXUXUXUXPXPXUXUXPXmXmXUXUXUXKXUXUXUXUXUXKXHXUXUXUXUXUXUXUXUXUXUXUXPXUXKXUXKXPXUXHXUXIXIXUXKXKXUXUXUXLXIXIXPXUXUXUXKXKXUXIXPXUXUXUXUXUXKXKXKXUXUXUXPXUXUXUXIXUXKXKXmXKXKXUXUXUXIXUXUXIXUXIXUXUXPXUXPXUXUXUXUXUXUXUXUXUXUXUXUXUXUXUXUXUXUXUXUXUXUXUXUXUXUXUXUXUXxXI._ >XM.  o           ",
"@ a : BXBXo   PXUXUXUXUXUXGXUXUXUXUXUXGXUXPXUXUXKXPXUXUXUXUXUXUXUXPXUXUXUXUXPXUXUXPXUXUXUXKXUXKXUXUXKXUXIXIXMXnXUXUXUXUXIXIXLXUXUXUXKXKXUXIXUXKXUXUXIXIXKXnXKXUXUXUXUXUXIXUXUXUXUXKXNXKXHXUXUXIXUXIXIXUXUXUXUXUXUXUXPXUXUXUXUXUXUXUXUXUXUXUXUXUXUXUXUXUXUXUXUXUXUXUXUXUXPXUXUXPXUXPXPX=XL a o           ",
"@   c 2XzX@   UXUXGXUXUXUXUXGXGXGXZXUXGXUXUXUXUXPXUXUXUXUXUXUXUXUXKXUXUXUXUXUXUXUXUXUXUXUXKXMXw .     o , ,XKXV         | IXUXUXUXUXnXE.o | IXUXUXUXUXUX!.. .     o       x FXUXUXKXh.. .   o o   o     c FXIXIXUXUXUXUXUXUXHXUXUXUXUXUXUXUXUXUXUXUXUXUXUXUXUXUXUXUXUXUXUXUXUXUXUXUXlX9.h <             ",
"  O f.UX5X@   PXUXUXUXUXUXjXj.CXUXUXUX*XPXUXJXUXGXUXUXUXUXUXUXUXUXUXUXUXUXUXUXUXUXUXUXPXKXKXwXeXV . o - , XXUXbXq . o - C.IXUXKXUXNXyXB o y gXDXUXUXUXKXnXb.$   > t.FX} t l - 0.IXPXb.. .   o -       .   o ].SXUXUXUXUXKXUXUXUXUXUXUXUXUXUXUXUXUXUXUXUXUXUXUXUXUXUXUXUXUXUXUXUXHXJXUXS.= @   @         ",
"2 2 k LX1X  2 PXUXUXUXPXUXPXvXUXGXUXUX-XUXUXPXUXPXUXUXUXUXUXUXUXUXUXUXUXUXUXUXUXUXUXUXUXKXKXnX!.. . - +XIXUXPXNX7X7 - t.IXIXUXUXUXNXtXS   - T DXIXUXUXUXnXtX0   u fXUXrX3.. > s dXIXKXnXn.. ; | IXUXKXb.$   J hXIXUXUXUXUXPXUXUXUXUXUXUXUXUXUXUXUXUXUXUXUXUXUXUXUXUXUXUXUXUXUXUXKXUXkX2 5 h g @         ",
"  g $.LX2X    UXUXUXUXUXUXjX2XUXPXGXPXR.JXUXUXPXUXUXUXUXUXUXUXUXUXUXUXUXUXUXUXUXUXUXUXUXKXUXKXNXW.$ I gXIXUXUXKXeX0 y sXDXUXHXUXUXKX_.7 . o J gXUXUXUXUXKXnX-.. I gXUXKXQ.$   P '.DXIXNX7.$ - V.UXUXUXNX<.. > u.DXIXUXUXUXUXUXUXUXUXUXUXUXUXUXUXUXUXUXUXUXUXUXUXUXUXUXUXUXUXUXUXUXUXGXUXk jXf.  #       ",
":   =.UXLXl.F.xXUXUXUXUXHXc.W PXPXUXcXF.PXPXUXGXUXUXUXUXUXUXUXUXUXUXUXUXUXUXUXUXUXUXUXUXUXUXHXNX7.$ p fXUXUXUXKX(.0 G &XDXUXUXUXKXNX:..     s %XUXUXUXUXKXNX-.$ y fXUXNX~..   - t.DXIXKX6.$ - {.IXUXUXKX_.8 o y #XDXPXUXUXUXUXUXUXUXUXUXUXUXUXUXUXUXUXUXUXUXUXUXUXUXUXUXUXUXUXUXUXUXPXUX*XUXF.          ",
"  o c.LXUXUXPXUXPXUXUXUXUX*X6 kXUXUXxXK.PXPXPXGXUXUXUXUXUXUXUXUXUXUXUXUXUXUXUXUXUXUXUXUXPXUXUXKX~.$ o ].IXUXUXKX7X7 u OXIXUXIXKXnX6X: c b.  > 0.DXIXIXUXUXNXA m , OXUXnXb.  - G AXIXUXKX6.$ , u.IXHXUXKXtXA   o q.SXIXUXUXUXUXUXUXUXUXUXUXUXUXUXUXUXUXUXUXUXUXUXUXUXUXUXUXUXUXUXUXUXUXGXUXPX'     @     ",
"  3   U jXUXUXUXUXPXPXUXHX:X5 UXUXUXG.g.PXUXUXUXUXUXUXUXUXUXUXUXUXUXUXUXUXUXUXUXPXKXIXPXUXUXUXPXW.$ - > o     $ $ $ y OXIXUXUXKXyX:.- 0.6X% > s dXDXIXJXUXNX;.$ o ].^.$ .   Y DXUXPXUXKX6.. , u.UXUXUXNXqXA . X R hXUXUXKXUXUXUXUXUXUXUXUXUXUXUXUXUXUXUXUXUXUXUXUXUXUXUXUXUXUXUXUXUXUXPXUXPX] o   @     ",
"    z *XxXPXUXPXUXPXUXUXUX-X2 HXUXJXG.k.PXKXUXUXUXUXUXUXUXUXUXUXUXUXUXUXUXUXUXUXUXUXPXUXIXUXUXKXQ.$ ; +XIXUXKXNX).7 y OXUXUXUXKX).7 ; VX^..   o B.SXDXUXPXNX5.$ ; XXUX9X< L.DXDXUXUXUXKX5.$ > R UXUXUXKXuX,.. f 8.hXIXUXUXUXUXUXUXUXUXUXUXUXUXUXUXUXUXUXUXUXUXUXUXUXUXUXUXUXUXUXGXGX5Xc ( *XW @   @     ",
"  o :   UXUXUXUXUXUXUXUXUX5X2 UXPXPXN.x.UXPXUXUXUXUXUXUXUXUXUXUXUXUXUXUXUXUXUXUXUXPXUXUXUXUXUXUXW.$ , oXUXUXUXnXtX9 > `.UXUXKXKX<.$ o o   .   o R SXIXIXUXKX;.$ f p.& $   - t.DXUXUXUXKX5.. > `.IXUXUXNXuXS   - C.DXUXUXUXUXUXUXUXUXUXUXUXUXUXUXUXUXUXUXUXUXUXUXUXUXUXUXUXUXUXUXUXmXjX  4 5 o 2   @     ",
"  o.o GX  UXGXUXUXUXUXUXUXjX2 UXPXUXD.c.UXUXUXUXUXUXUXUXUXUXUXUXUXUXUXUXUXUXUXUXUXUXUXUXUXUXUXNX6.$ H hXIXPXUXUXrX0 y dXUXUXNXnXD . o o     .   y %XIXUXUXKX,.{ p dX9X8 . - u dXIXUXPXKX5.. ; u.IXUXUXKX).7 - t.IXUXUXUXUXUXUXUXUXUXUXUXUXUXUXUXUXUXUXUXUXUXUXUXUXUXUXUXUXUXUXUXGXPXGX  O 2   O   o o   ",
"      O   UXUXUXUXUXUXGXUXPX2 UXPXGXF.D.PXGXUXGXUXUXUXUXUXUXUXUXUXUXUXUXUXUXUXUXUXUXUXUXKXKXKXnX6.N G hXIXUXUXKX8X7 y @XIXKXnXn.. : zXIXKXKXC . > 0.IXIXIXKX4.7 i gXMXn..   y [.IXUXUXNX7.. - Y IXUXUXHXC . H hXIXUXUXUXUXUXUXUXUXUXUXUXUXUXUXUXUXUXUXUXUXUXUXUXUXUXUXUXUXUXUXUXPXUX4X4   o   o         ",
"o @     c b PXPXPXPXUXPXUXUXUXUXJXPXI.a.UXPXUXUXUXUXUXUXUXUXUXUXUXUXUXUXUXUXUXUXUXUXUXUXUXKXNXNXn.  y %XIXUXUXNX7X7 - ].IXNXbX[ - y.UXUXUXKX6X7 - K hXIXPXKX,.m u dXUXNXS $ o G AXIXUXNX4.$ o Y IXUXHXe     C.IXUXUXUXUXUXUXUXUXUXUXUXUXUXUXUXUXUXUXUXUXUXUXUXUXUXUXUXUXUXPXPXUXUXF.` O.c 3 o       X   ",
"    o : 2 O.kXJXUXUXUXUXUXPXCXUXUXJX^.a.GXUXUXUXUXUXUXUXUXUXUXUXUXUXUXUXKXUXUXUXUXUXUXUXUXNXNXV .   F E AXUXNX2.q $ - , .X~ .   y @XIXUXUXKXMXn.  - - A.UXMX6Xr > 0.IXKXeXq   - [.DXUXKX>.  X - X   & g.P.DXIXUXUXUXUXUXUXKXUXUXUXUXUXUXUXUXUXUXUXUXUXUXUXUXUXUXUXUXUXUXUXUXUX*X2Xm.>XQ L : Q -   O     ",
"  o   :   GXGXGXJXPXUXUXUXPXUXPXUXPX1X2.UXPXUXPXUXUXUXUXUXUXUXUXUXUXUXUXUXUXUXUXUXUXUXPXKXKXbXw     o - Z.IXbX9 .           .   o o - ) UXMXr . O o - 0.9X7 .   - - e.IXNX/.. o - > f.  .         O  Xz.T.UXUXIXIXUXUXUXKXUXUXUXUXUXUXUXUXUXUXUXUXUXUXUXUXUXUXUXUXUXUXIXUXJXUXS.zX] UX*.M.  a o O o     ",
"      o   S.zX:XPXUXUXUXUXPXUXPXUXUXN.U UXUXUXUXUXUXUXUXUXUXUXUXUXUXUXUXUXUXUXUXUXUXUXUXUXUXKXUXUXUXPXIXIXUXKXNXUXUXUXUXUXUXKXUXUXIXIXIXUXUXUXPXPXUXIXUXKXNXKXUXPXUXIXDXKXNXUXUXUXUXUXKXUXUXUXUXUXUXUXUXIXUXUXUXUXUXUXUXUXUXUXUXUXUXUXUXUXUXUXUXUXUXUXUXUXUXUXUXUXUXUXUXPXJXPX+.*X( ~ D.k.  X.a o       ",
"o       o G.jXPX;XHXUXUXHXUXUXPXUXZXD.z UXGXPXUXUXUXUXUXUXUXUXUXUXUXUXUXUXUXUXUXUXUXUXUXUXKXKXUXKXUXUXIXUXHXMXKXUXPXUXUXUXUXUXUXPXUXUXUXPXKXUXUXUXUXPXUXUXUXUXUXUXUXUXUXUXUXKXUXUXPXUXUXUXUXUXPXPXUXUXUXUXUXUXUXUXUXUXUXUXUXUXKXUXUXUXUXUXUXUXUXUXUXUXUXUXUXUXUXUXUXUXUXUXPXUXx.PXo.2 U c a o o         ",
"          l.@.UXPXUXUXUXUXUXxXJXUXGXPXlXGXUXPXPXUXUXUXUXUXUXUXUXUXUXUXUXUXUXJXJXUXKXUXUXUXUXUXUXUXHXUXUXUXmXmXUXPXHXPXPXPXUXKXUXUXUXUXPXUXPXUXKXUXUXUXUXUXUXPXPXUXUXUXUXUXUXUXUXUXUXKXUXUXUXUXUXUXUXUXUXUXUXKXUXUXUXUXUXUXUXUXUXUXUXUXUXUXUXUXUXUXUXUXUXUXUXUXUXUXUXUXUXUXUXPXU.-Xc x.b n   o   o       ",
"o       v UXUXkXzXUXUXUXUXGX;XKXUXUXJXzXUXPXPXUXPXPXUXHXUXGXUXPXUXUXUXUXUXUXUXPXUXGXPXUXUXHXUXPXGXUXJXxXUXGXUX@.Y.m.pXGXJXUXUXUXUXJXUXUXUXUXUXUXPXUXUXUXPXUXUXUXUXUXUXUXUXUXUXUXUXUXUXPXUXUXUXUXUXUXUXUXUXUXUXUXUXUXUXUXUXUXUXUXUXUXUXUXPXUXUXUXUXUXUXUXUXUXUXUXPXPXUXPXUXUXUXjX*X&.UXh d O o o         ",
"      2   >Xc HXcXUXUXIXGXUXkXUXBXUXUXUXGXPXGXUXUXPXGXUXGXPXxXUXUXHXUXUXzXCXmXPXzXUXxXGXUXGXUXGXUXPXUXGXBXaXUX5XxX|.vXPXUXPXGXUXPXPXUXPXPXUXUXxXUX5XUXUX-XUXGXUXUXUXUXUXUXUXPXUXUXPXUXUXUXUXUXUXUXUXUXUXUXGXUXUXUXUXUXUXUXUXPXUXUXUXUXPXUXUXUXUXPXUXUXUXUXUXPXUXUXIXKXPXUXPXZX=XaXc BXQ h b 4   o     o ",
"#       g F.^.PXR.xXUXKXPXUXzXUXwXxXGXGXHXHXJXUXJXPXCXGXHXUXzXUXUXHXjXGXGXGXGXGXUXUXUX2XHXGXPXUXGXJXZXPX;X+.LX4XGXz.UXjXJXZXGXJXPXJXHXJXGXmXBXUX2XS.4XPXf.xXUXUXPXUXUXUXUXUXUXUXUXUXUXPXUXUXUXUXPXUXUXUXUXJXUXUXUXUXUXUXUXUXUXUXPXUXUXUXUXUXUXUXUXUXUXUXUXUXUXUXUXUXUXUXUXGXGXwXf.$.BXo.h v @ o O       ",
"@       X d f.GXUXUXPXHXPXPXUXJ.  @   g W a.kX;Xk 6 5 X 6 6 h ' *X  5 @ b 1XUX3XGXGXJ.4XJXI.` GXN.GXU zX%.4X4XBXUXIXR.&.0XvXIX0Xc.2XGXUXUXZXUX2 @ X k.2.;XzXUXUXUXGXGXUXUXUXUXGXUXUXUXGXxXUXUXUXUXPXUXPXxXUXPXUXUXPXUXUXPXUXUXUXUXPXPXGXPXUXUXPXUXUXUXUXGXPXUXUXUXUXUXUXUXUX5XGXUXf.xXUX5Xo   O     o   ",
"#       6 Q j.cXGXlXLXUXPXxX}.v d 1 b W *.z.aX` K.! b F.~ : ' _ ^ @ 1 ~ v >XZXY.IXZX=X%.P.5X}._ $.IXa.xXo.9.BXGXZXxXf.M.d.2 zX+.jXg UXLXlXzX1XBXo.1 b 5 aXBXUXUXUXHXUXUXGXPXUXUXvXUXkXjX4XKXUXUXUXUXUXPXUX9XUXIXUXmXUXUXUXPXUXUXUXUXUXHXUXUXUXUXUXUXPXUXUXUXPXUXUXUXUXJXUXUXf.wXUXc.xXUXLXO     @       ",
"                  ] g   @ @ X g ! 1 v 5 9.*.+.] W @ ( k ^ h j.( c I.2XY.o.$.>Xa.PX*.S.! c.o.x.3XUXUX`  X^ n GXaX*X9.UXL S.+.F.&.c.w.5XlXBX` $.' k ` ( o.*.f.D.P.T.l.UX5XJ.UXc.j.$.PX5X2Xf.N.jX;X5XN.PXHX5XjXUXBXI.F.5X%.mXKX@.UXUXGX;XUX%.l.xXUXPXPXUXUXzXl.UXxXUXPXUXUXUX}.UXl.j UXGXUXPXUXGX-X^ @ @   ",
"              o o 4   O O O   ^ a a x g D.a.b ` c   @ W ( U U ` z aXlX .O. . XaXZX` l.U M.%.o.iXUX=Xx }.` n UX>XlX%.BXa x.Q D.=XR.f.P.UX1X( ' k Q w.3 a.X.n X.PX-Xf.2X2Xv.xX*.W *.UXmXGXI.T.xXT.HXf.xX0XUXkXLXPXl. .F.F.5XUXj vX5XGX2XGXg.c.PXkXmXGXUXUXmX@.jXUX*X}.>X-XlXS.f.Q b UXUXUXPXUXGX2X=.W @   ",
"                O O @   - : o g j @ Q : z  .O o.~ o z W ' a }.j Q T.j.d.K.v BXv K.v X.&.f.4 4XU 1X( k.X.4XM.UX^ K.g I.O.x.~ >XiX3Xn lXz. X$.+.j a.x 2 O 3 O   GX5XjXv.5X*X1X;XjXY.GXUXGXJXlX5XUXU.-Xl.l.UXxXUXY.S.=.5X2X;XjX] U.~ 5XxXS.I.5XJX5XPXPXGXPXUXUXGXl.o       :   = 2 z UXUXPXUXPXGXJXmXvX    ",
"                  @ o 4 ' d < o   :   1         1 O 3   o     +.      : k         d o 4 4 Q 5X1XW }.$.L   h ! b x _ F.%.3X! }.&.;X+.+ 3 4 3 @ 1   Y.: O   4 O UXGXl.L wXY.R.S.jX1XG.n cXPXHXcX^.R.;XUXjXUXUXGXmXa.cXUX2XCXPXv zXY.UXl.xXf.F.PX5X;XkXUXmXPXUXGXPXUXUXPXUXaXiX2XjX;XGXJXUXKXHXHXUXPXkX#   ",
"                  o   a U : o o   @   o : 3 j ^     X     O   +   O     o   o X a.D.' : 1 @ ZXZXPXW   x   o   o   o 3 2 5 h g 5 4 o.+ @ o 1 X 1 O 3   o O X   *.Z h 2 h W _ _ k c g ! n f.*.c g Z FXUXl.k I.( f.f.2 ' c G.S.  I.W iX2.;Xk.G.c.S.K.jXI.x.JX5Xk.GXZXUXUXLXUXiXkXkXGXUXUXJXUXUXkXPXPX0X    ",
"                    2   O O     @       K.    2 O o         O   o     o X   o O   K.I.z j ] 1X  : j g g 4 a o o + @ @   @ O o   O @ : 1 O   o 1 X   @     : : o       @     # @   @   2     g @   X   @     2   # X 2 *   # h     4               #   X 1 @   %..XS.j.*.c   2 @ b wXxXHXGXUXUXmX( @     ",
"                    :         o o       d.O o       o     o     o           o   O j.}.U j a Y.2 : o @ O :         X o   O @     O X : O X o X 3 X   1     3   1     @ 2           #   &   # @   # @     #   2     z . @   # @ @ +       #   # # @   @   6 o   Z ] U v b g @     j _ v.-X0XGXUXJ.5       ",
"                      # O           @         @                           O     2 @ o o o     : o @ b   o @     X       o @   o         X                                     @   6 h @ @   ~ 5 @ @       2 @   @ v 2 #                                 o @     X   + X                         *   #   ",
"                                        #     2 @               o           o 3 K.      @ X a o @   '                           #                                                 = 6 #     #   @                 @       #                   #                                 o         #           # ",
"                  #                           #                   o           o @ o O     o 2   2 o       @                 o o             #                                               @   # @ O             # @   @     #             @         @       # #                                     4X"
};
