/* XPM */
static char *DifficultyMedium[] = {
/* columns rows colors chars-per-pixel */
"148 47 256 2",
"   c #020202",
".  c #0C0000",
"X  c #040509",
"o  c #08070B",
"O  c #06080A",
"+  c #0A0A0B",
"@  c #0A0C07",
"#  c #130000",
"$  c #1A0000",
"%  c #180909",
"&  c #000414",
"*  c #010913",
"=  c #0E0E11",
"-  c #00041B",
";  c #000A1C",
":  c #0F1012",
">  c #131314",
",  c #161619",
"<  c #1A1B1C",
"1  c #17181B",
"2  c #0F100F",
"3  c #230C01",
"4  c #280904",
"5  c #251502",
"6  c #2D1B03",
"7  c #2D1507",
"8  c #300E18",
"9  c #28200D",
"0  c #000522",
"q  c #000925",
"w  c #070C27",
"e  c #150C20",
"r  c #01112A",
"t  c #1D1D20",
"y  c #1E2F3A",
"u  c #1F2024",
"i  c #232324",
"p  c #262629",
"a  c #27292A",
"s  c #2B2B2C",
"d  c #272C26",
"f  c #372D27",
"g  c #2E2E30",
"h  c #282D3A",
"j  c #342E33",
"k  c #333334",
"l  c #363639",
"z  c #3B3B3D",
"x  c #383738",
"c  c #35302D",
"v  c #4E3716",
"b  c #50320E",
"n  c #4B3736",
"m  c #613C36",
"M  c #3F453B",
"N  c #5C4B2E",
"B  c #594937",
"V  c #5F5033",
"C  c #6A462A",
"Z  c #654637",
"A  c #121B42",
"S  c #1E384E",
"D  c #1A2D4B",
"F  c #253446",
"G  c #3D3E40",
"H  c #4F3A42",
"J  c #3F4042",
"K  c #3E535D",
"L  c #38455B",
"P  c #39576A",
"I  c #395973",
"U  c #365673",
"Y  c #424344",
"T  c #454549",
"R  c #4B4B4D",
"E  c #48484C",
"W  c #584948",
"Q  c #4D4E51",
"!  c #404E59",
"~  c #504F54",
"^  c #5F4A53",
"/  c #4E5052",
"(  c #44515C",
")  c #525354",
"_  c #555558",
"`  c #5A5B5C",
"'  c #575858",
"]  c #595248",
"[  c #644652",
"{  c #787058",
"}  c #435666",
"|  c #5D5F61",
" . c #555C6B",
".. c #465570",
"X. c #605F64",
"o. c #54626F",
"O. c #646466",
"+. c #656569",
"@. c #676969",
"#. c #6B6B6C",
"$. c #6E6E71",
"%. c #737374",
"&. c #767678",
"*. c #7B7C7D",
"=. c #777878",
"-. c #856D4E",
";. c #896D48",
":. c #89704E",
">. c #876B55",
",. c #897259",
"<. c #855E63",
"1. c #887C6C",
"2. c #877D72",
"3. c #947560",
"4. c #908268",
"5. c #AC957B",
"6. c #AE9578",
"7. c #B49674",
"8. c #B39975",
"9. c #B99A73",
"0. c #B49A7A",
"q. c #B69879",
"w. c #B4996C",
"e. c #677385",
"r. c #7E7E81",
"t. c #606C82",
"y. c #6B7FA4",
"u. c #817F80",
"i. c #5F8497",
"p. c #7F8083",
"a. c #6B839C",
"s. c #66869A",
"d. c #738496",
"f. c #6B83A2",
"g. c #6786A4",
"h. c #7482A5",
"j. c #828384",
"k. c #858989",
"l. c #8B8B8C",
"z. c #858688",
"x. c #9B9C8D",
"c. c #8E8F90",
"v. c #8F9093",
"b. c #839299",
"n. c #949494",
"m. c #9B9B9C",
"M. c #969799",
"N. c #AA9A88",
"B. c #A79A99",
"V. c #B09685",
"C. c #B8A080",
"Z. c #9E9EA0",
"A. c #8296AB",
"S. c #9EA1A0",
"D. c #8CA9BD",
"F. c #89A7BC",
"G. c #9BA3B1",
"H. c #97A8BB",
"J. c #A3A4A4",
"K. c #A6A7A9",
"L. c #ABACAC",
"P. c #A3A9A7",
"I. c #AEAEB1",
"U. c #A0ABBF",
"Y. c #AAB1B7",
"T. c #B3B3B4",
"R. c #B6B6B8",
"E. c #B6B8BA",
"W. c #BBBBBC",
"Q. c #B7B7B7",
"!. c #CDB29D",
"~. c #D7BEA8",
"^. c #CDBFBF",
"/. c #CDBEAE",
"(. c #DCC29F",
"). c #CCC1A8",
"_. c #D7C2A8",
"`. c #C9C4BB",
"'. c #F4DAB5",
"]. c #F9D6BA",
"[. c #F2D5B3",
"{. c #E2DBBE",
"}. c #8AA9C1",
"|. c #8AADC9",
" X c #88A9C6",
".X c #95ABC1",
"XX c #94ABC6",
"oX c #8FB0CC",
"OX c #BEBEC1",
"+X c #A9BCCD",
"@X c #C6BDC4",
"#X c #BFC0C2",
"$X c #B4C2CC",
"%X c #B9C8D3",
"&X c #ABC6D3",
"*X c #B7CBE7",
"=X c #B6D3E9",
"-X c #B7D1F6",
";X c #C2C3C4",
":X c #CDC2C2",
">X c #C6C7C9",
",X c #CBCCCC",
"<X c #C8C7C8",
"1X c #C2CAD6",
"2X c #CECFD1",
"3X c #C1CFD8",
"4X c #CFD1D3",
"5X c #D3D3D4",
"6X c #D5D5D8",
"7X c #D7D8DB",
"8X c #DCDCDD",
"9X c #D7D7D7",
"0X c #EBDBC9",
"qX c #E3DBD8",
"wX c #DEE0DF",
"eX c #E6E1CB",
"rX c #F3EBCF",
"tX c #FFF2CF",
"yX c #E4E7DB",
"uX c #FFF4D4",
"iX c #FFF5DB",
"pX c #FFFBDC",
"aX c #FFF8D6",
"sX c #F0E2D5",
"dX c #DEDEE0",
"fX c #C6D4F1",
"gX c #DEE1E1",
"hX c #D5E1ED",
"jX c #DAE9F9",
"kX c #CBF1FF",
"lX c #DAF5FE",
"zX c #E3E3E4",
"xX c #E9E8E7",
"cX c #E6E7E9",
"vX c #ECECEC",
"bX c #E7E8EA",
"nX c #FFF6E2",
"mX c #FFFDE4",
"MX c #FFFDEC",
"NX c #F8F6E9",
"BX c #EEEFF1",
"VX c #E5EEF7",
"CX c #EEF1F2",
"ZX c #E6F4FF",
"AX c #E5FEFF",
"SX c #EBFFFF",
"DX c #EDFAF7",
"FX c #F4F4F4",
"GX c #FCF6F3",
"HX c #F6F9F5",
"JX c #FEFDF4",
"KX c #F6F6F9",
"LX c #F5FEFF",
"PX c #FDFDFD",
"IX c #FAF6F8",
"UX c #E8F3ED",
/* pixels */
"  +                                           +     @ +     O   O   O       @     O     =   >   :   X   + =   X > X +   =   = ,       O       O X =     O +     1   = X X =   = + = +             @                                                                                                     ",
"                                                        O         = ,     O   O O > +   X   + . X + >   >   +     =   >         X X   X   X X + X X   : + = o     : o = X   1 = +   X @   %     2                                                 X     X     X                                         ",
"      X                             @   o   X o   X       @       =   O @       X   + +   X   + X X   X       = X X +   + X u       + =   + X X     <   : = o X u 1 , i < <   o @ x t T T R @.R z >                                           X                     +                                   ",
"  @ 2.,     @     X       +   i > l k k z l G T O.l k Y $./ c.p.S.n.n.%.S.Q.M.Q.*.m.>X*.vXIX%.7XW.8X,X5X5X>X>X@XI.FX4XHX;XJ.Z.L.S.z.PX2X7XOXJ.I.L.z | E.R.OX#XL.2XE.T.W.R.K.T.R.4.l.j.O.@.n.| ' s @ > < @   < < + i +       > > 2 s + i i d k 1 i z l g , > + > > < >   @     +                         ",
"X u 7Xz > +   @   X     +   = i i Q T G H ( l ~ $.u E p.O.r.G.Y | m.k.p.#.E.wXDX#XvX8Xm.BXHX` P.PXPXFXzXFXKXzX;XR.JXKXPX,XL.j.l.>XT.BXFXPXY Y G s R i R g T T / ' ` z ` Q + < < > *     = *.> + +   + i < x T j.t *.< > > > d t s | g Q ) @.l.&.+.m.p.+.1 1 t j t p i a i   > X                         ",
"X B vXPXi + , X X   X s G #.G J.r.r.I.r.u.T.M.>XK.L.6X7X%.>Xp.PX4XOXgXr.gXvXS.PXbX7XBXzXL.wXKXHXIXPXvXHXFXKXFXPXPXPXPXIXCXzXFXPXKXBXFXdXPX7X5X;XFXzXLXFXPXFXFXKXcXBXIXFXFX8XPXPXFXBXBXvXPXvXPXPXHXPXHXPXvXJXPXHXIXHXJXPXPXFXbXFX5XPXBXPXIXPXzXPXW.L.,X5XOXFX5XJ.zXdXZ.I.v.1 +                           ",
"  l HXIXW.@       +   X.~ $.T.PXIXCXPXIXdXR.dXPX%XPXE.,XKXPXPXPXv.LXPXKXgXLXFXPXPXHXPXPXHXPXHXHXFXFXPXPXPXPXFXHXJXPXPXIXPXPXIXIXPXPXPXPXKXKXPXFXKXPXPXPXKXPXPXPXPXKXPXPXPXPXPXIXPXKXPXKXFXPXPXPXPXBXPXIXPXPXJXPXFXzXPXzXFXFXIXKXPXvXPXPXPXCXPXPXKXIXPXIXPXPXKXzXIXKX8XW.;X%.&.= +   @                   ",
"O t IXPXFX`       : o , 1 G $.KXFXFXPXPXPXKXFXIXBXPXPXPXKXPXPXPXFXFXFXBXKXPXIXPXPXBXPX#.@.L.PXPXPXPXPXIXPXPXIXFXHXPXCXPXCXFXPXPXKXPXKXPXPXKXKXPXPXIXPXPXPXPXPXPXPXPXPXKXKXPXPXPXFXJXPXPXHXJXPXIXPXPXPXPXPXPXPXFXJXCXPXL.PXPXPXIXCXJXFXHXPXPXHXJXPXPXPXPXKXBXFXPXPXIX6XL.W.BXIXE x +                     ",
"  ) *.HXKXk   > =   T t Q H 4X .l.8XyXCX2X7X8X9X,X<X2X>X,XHXHXFXFXFXFXZ.@XKX2XK.PXJ.zXY #.@XFXPXFXJ.*.T.P.T.4.W.R.;XR.I.T.;XPXPXPXIX5X,X8XPXPXPXPXKXPXPXPXPXPXPXPXPXPXPXPXPXPXPXPXPXPXPXPXPXPXPXJXPXPXPXPXPXPXPXIX;XM.PXPXFXIXPXPXIXPXPXIXPXPXJXPXPXHXHXPXKXLXcXFXFXKX7X;X6XcXm.J.+                     ",
"  x R vXPX1   >   = T Q X.E #Xp z B.M.n.j.b.4.m.$.l.2.=.=.J.<XW.Z.m.K._ r.L.L.n.vXz.9Xs 2.R.qXxXvX=.' n.j.M.( m.z.T.4.&.J.;XHXPXPXHX5X<X7XHXIXPXPXPXPXPXPXPXPXPXPXPXPXPXPXPXPXPXIXPXPXPXIXPXPXPXPXKXPXKXJXPXPXPXHXm.m.vXIXPXKXPXHXFXFXvXzXdX8X7X,X,X,XT.^.I.T.n.Z.m.m.c.&.j.j.| %.>                     ",
"O B l.HXKXj   > 2XPXCXg @.,X+.PXKXIXPXPXHXIXPXPXPXPXFXPXJXPXIXxXPXvXPXIXPXPXIXPXPXJXKXPXPXFXPXPXJXPXPXJXPXIXIXPXPXHXPXLXIXPXPXPXPXPXPXPXPXPXPXPXPXPXPXPXPXPXPXPXPXPXPXPXPXPXPXPXFXHXPXHXFXIXPXKXPXHXHXIXIXFXHXPXPXPXcXHXPXPXPXIXPXIXPXPXPXPXPXPXPXPXPXPXHXzXvXIXPXIXIXHX;X;XzXPX7XR   X   X             ",
"  < K.PXFXn.K.zXPXPXPXi i BXPXPXPXHXPXIXPXIXPXPXPXJXPXPXHXPXFXPXPXPXJXPXBXPXIXIXIXPXPXIXKXPXPXPXPXPXPXbXPXKXIXPXPXKXPXPXPXPXHXPXPXPXPXKXIXIXPXPXPXPXPXPXPXPXPXPXPXPXPXPXPXPXPXPXFXPXHXPXFXPXPXIXIXPXPXKXHXPXPXPXFXPXPXFXHXPXPXPXPXPXIXPXPXPXPXPXPXIXvXPXPXPXPXPXPXPXKXPXFXPXPXdXR.i @.  > + X X         ",
"O g r.KXKX_   PXPXPXPXPXPXPXKXKXIXPXPXPXFXPXPXHXGXPXHXPXPXPXPXPXPXPXPXPXPXPXPXPXPXPXPXPXPXPXIXPXPXPXPXPXPXPXPXPXKXPXPXPXPXPXPXPXPXPXPXPXPXPXPXPXPXPXPXPXPXPXPXPXPXPXPXPXPXPXPXPXPXPXPXPXPXPXPXPXPXPXPXPXPXPXPXPXPXIXPXPXPXPXPXPXPXPXPXPXPXPXPXPXPXPXPXPXPXPXPXPXPXPXPXPXPXPXPXPXKX6X` T.OX&             ",
"X k ` PXKXg 1 PXPXPXPXPXPXKXIXPXPXPXvXFXPXPXPXJXPXPXPXPXPXPXJXPXPXPXPXPXPXPXPXPXPXPXPXPXJXPXPXPXPXPXPXPXPXPXPXPXPXPXPXPXPXPXIXPXPXPXPXPXPXPXPXPXPXPXPXPXPXPXPXPXPXPXPXPXPXPXPXPXPXPXHXPXPXKXPXPXPXPXPXPXPXPXPXPXIXPXKXPXPXPXPXPXPXPXPXPXPXPXPXPXPXPXPXPXPXPXPXPXPXPXPXPXPXPXPXPXvXT.) 4XM.X             ",
"X t + FXFXX   PXIXPXPXPXPXHXPXIXPXPXPXCXPXIXPXPXPXHXPXPXPXPXPXPXPXPXPXPXPXPXLXPXPXPXPXPXPXPXPXIXPXPXIXPXPXPXPXPXPXPXPXPXPXPXPXPXPXPXPXIXPXPXPXPXPXPXPXPXPXPXPXPXPXPXPXPXPXPXPXPXPXPXKXPXPXPXPXPXPXPXPXPXPXPXPXPXPXPXJXPXPXPXPXPXPXPXPXPXPXPXPXPXPXPXPXPXPXPXPXPXPXJXPXPXPXPXPXPXPXKXIX>XG t             ",
"+ X k 5XbX+   PXPXKXPXPXPXPXHXFXIXFXPXNXPXPXPXPXIXPXPXPXPXJXPXPXJXMXPXLXPXPXPXPXPXPXJXJXPXPXPXPXPXLXPXJXPXPXPXJXPXHXPXPXPXPXPXLXJXJXPXPXPXPXPXPXPXPXPXPXPXPXPXPXPXPXPXPXPXPXPXJXPXPXPXPXPXPXPXMXPXPXPXPXPXJXPXPXPXLXPXPXPXPXGXJXPXPXPXPXPXPXPXPXPXPXPXPXPXPXPXPXPXPXPXPXPXPXPXPXPXPXcXr.p >             ",
"  o l.PX7XO   PXPXPXPXPXPXzXl.CXIXPXPX;XIXPXHXPXHXKXPXPXPXPXPXJX_.#     O K LXPXPXPXiXN     X & 0 1X0X5               X   X s.SXN.# .             X F ZXSXLXJXnX9 # l O - : qXZ     X & 0 3X/..     - U.`.# .   O K SXPXPXJXiXZ . X X & ; %XPXPXPXPXPXPXPXPXPXPXPXPXPXPXPXPXPXPXJXFXPXS.> +   +         ",
"> > s KX5X  2 IXPXPXPXIXPXPXFXIXFXPXPX,XPXPXIXPXPXPXPXPXPXPXPXJXaX,..   * & H.LXPXJX'.4     * - *XLX_.# f J X       X   .   P AXB.$ . . X X X       X & F.SXPXsX!.# : dXA ..nX6 .   & 0 h.jXmX:..   0 *XGX,.#   X * .XSXPXGX'.4     & - *XLXPXPXPXPXPXPXPXPXPXPXPXPXPXPXPXPXPXPXPXPXxX, < p i +         ",
"  i $.KX6X    PXPXPXPXPXPXzX3XPXPXFXIXW.HXPXPXIXPXPXPXPXPXPXPXPXJXMX5..   & U AXKXMX9.$ .   & .XLXPXmXpXN   - S DXPXPXPXB.  r jXPXMX0.. & ..LXPXMXN..   S lXPXJXmX6.  X y.SXPXmX5.# q *XPXPXPXmX:.. .XAXPXJXV.#   * U AXPXJX8.#     & .XSXLXLXPXPXPXPXPXPXPXPXPXPXPXPXPXPXPXPXPXPXPXFXPXs dXl.  @       ",
"=   =.PXKXn.L.vXPXPXPXPXHXm.B PXHXPXzXL.KXPXPXHXPXPXPXPXPXPXPXPXPXPX_.. # X r kXPXGX;.3 .   - F.e.PXMXaXZ n 0 I LXLXPXJXGXJXPXPXPXJX9.. ;  XLXJXMXMX:.# * y.SXPXpX0.n   f.SXLXMXq.# 0 -XLXPXPXJX0.# .XAXLXJX~.$ .   r kXLXJX;.# .   * D.e.LXLXPXPXPXPXPXPXPXPXPXPXPXPXPXPXPXPXPXPXPXHXPX;XPXI.          ",
"  X m.KXPXKXPXPXIXPXPXPXPX;X, xXPXPXvXI.JXIXIXFXPXPXPXPXPXPXPXPXPXPX`.1.>.. ; |.LXJX(.b   O - D.LXPXmXaXm H 0 g.LXPXPXHXJXPXPXPXPXJX8.# & |.LXPXPXMX].4   ; =XSXpX0.  X y.SXLXJX7.# - |.LXKXPXGX0.. D.AXLXPX:X1.-.  -  XLXJX(.b . O & }.LXPXPXPXPXPXPXJXPXPXPXPXPXPXPXPXPXPXPXPXPXPXPXCXPXJX`     @     ",
"  , X H cXPXPXPXPXIXIXPXIX<X< PXPXJXK.z.IXPXPXPXPXPXPXPXPXPXPXPXPXPX#X2.[.5 * I LXPXpX-.. X - }.e.LXmXiXm 8 0 h.LXPXS.P.PXPXPXPXPXGX8.# ; g.LXPXPXJXuXC . * i.AXpXq.  & h.AXLXJX8.# * g.LXPXPXMX;.. H.SXPXPX>X2.'.5 * I SXPXaX:..   - }.t.PXPXPXPXPXPXPXPXPXPXPXPXPXPXPXPXPXPXPXPXPXPXHXPXIX' X   +     ",
"X   s #XvXKXPXIXPXIXPXPXPX<X> HXPXHXJ.n.IXHXPXPXPXPXPXPXPXPXPXPXPXJX<X] aXZ X 0 *XSXeXv 3   - }.PXPXmXaXm H - - X X O %XPXPXPXPXPXMXC.. - f.PXPXPXMXtXC   & U AXmX6.  & f.SXLXJX8.. ; i.LXPXPXMX;.# H.AXLXPX^.] uXN   & =XLX{.v % X - }.LXPXPXPXPXPXHXPXPXPXPXPXPXPXPXPXPXPXPXPXFXFXqXk Q ;XY +   +     ",
"  X =   PXPXPXPXPXPXPXPXPX8X> PXIXPXZ.M.PXPXPXPXPXPXPXPXPXPXPXPXJXPX^.@ rX).  X & } x.4.3   - oXLXMXmXpXm 4 & } LXPXe.K.PXPXJXPXPXMX6.. & I LXPXPXMXaX,.  y o.LXmXq.  F =XSXLXJX8.. & g.LXPXPXMX9.$ H.SXPXJX;X% rX).  X * } x.4.3 X 0 oXLXPXPXPXPXPXPXPXPXPXPXPXPXPXPXPXPXPXPXPXPXCXcX  1 1 + >   +     ",
"  O.X BX  PXHXPXPXPXPXPXPXzX> PXJXPXK.m.PXPXPXPXPXPXPXPXPXPXPXPXPXPX^.% yXmX6 # * $Xg `.4 . 0 |.LXJXmXaX>.H 0 XXPXPXPX9XPXPXPXPXPXJX9.. * |.LXLXPXMXuXC X - .XPXnXV.  * &XSXPXJX8.. - g.LXPXPXMX9.# H.SXLXJX:X% yXmX6 . * $Xa <X4   - }.PXPXHXPXPXPXPXPXPXLXPXPXPXPXPXPXPXPXPXPXFXKXFX  o >   O   X     ",
"      + X PXPXPXPXPXPXHXPXIX> PXIXFXL.J.IXHXPXHXPXPXPXPXPXPXPXPXPXJX@Xc DXMX5.# / $Xp.qX4 X 0 oXLXJXmXpX{ [ 0 -XLXPXHXJXPXPXPXLXPXGX8.# * g.LXPXJXmX].3 O a.LXIXnX3.c * =XAXLXMX:.# - f.LXPXJXMX>.# H.AXLXPX^.f DXJXV.# / %Xp.8X% X 0 oXLXPXPXPXPXPXPXPXPXPXPXPXPXPXPXPXPXPXPXPXKXPXdX1   X X X         ",
"  =     k z IXIXIXIXPXIXPXPXPXPXHXIXT.z.PXIXPXPXPXPXPXPXPXPXPXPXJXPXB.l UXMX~.$ y ! :X0X% o 0  XLXPXmXpX<.[ jX+XLXPXPXPXMXJX( G.PXJX8.. ; U LXJXMXnXZ . F lXLXJXiX7.X 0 *XAXPXMXw.# & y.LXLXJXnX[ # %XAXLXJXB.k DXJX_.# h L :X0X% & ; D.LXKXPXPXPXPXPXPXPXPXPXPXPXPXPXPXPXIXIXPXPXK.) O.j , O X         ",
"      = > +.bXHXPXPXPXPXPXIXCXPXPXHX;Xr.HXPXPXPXPXPXPXPXPXPXPXPXGXGXE j AXLXuX7 & ( MX_.. X 0 XXPXHXmXpX8 o - P PXJXJXJXeXM * d.PXJXC.. & ..KXJXmX6   X H.LXLXJXpXV.X q *XSXLXMX[.5 + t.VXLXJXqXe e lXSXMXJXW j ZXPXiX6 & } MX).. X - .XLXPXHXPXPXPXPXPXPXPXPXPXPXPXPXPXPXPXPX<X5XJ.2XT G = H =   X +   ",
"      >   HXKXFXHXPXPXPXPXPXPXHXPXIX4X4.PXPXPXKXPXPXPXPXPXPXPXPX0X4 . X F.AXGXW - G.mX:.. X & a.LXPXmXuXW H X & 1XPXMX{   X D fXPXMX-.. X & X X O d.Y.ZXLXPXJXmXmX,.  & y.LXLXPXmX-.  d @     X - f.SXPX0X% . X XXLXmXB & G.mX:..   & y.LXLXPXPXPXPXPXPXPXPXPXPXPXPXPXPXPXFXPXP.bX' PX*.Z.  1 X +       ",
"  X       Z.bX;XIXPXPXPXPXIXPXPXPXPXG.J KXJXPXPXPXPXPXPXPXPXPXJXV.$ . X ; d.GXGX .VX{ .   X X X X ,XnX6 $ . X O X X .     y L DX:X.   .     X o %XA.+XLXPXJXJX)..     X - w jXPXMXnXB         * a.SXLXPXN.# .   - d.MXnX .BX,.#     X   * %XPXPXPXPXPXPXPXPXPXPXPXPXPXPXPXHXPX@.;XQ E L.c.  +.1 X       ",
"X       X K.zXJX,XHXPXPXHXPXPXIXPXFXK.k PXFXPXPXPXPXPXPXPXPXPXPXJXJXPXPXLXPXJXPXPXPXMXMXPXPXPXPXPXPXJXJXPXFXFXPXPXKXJXJXPXPXPXPXJXJXPXPXPXPXPXPXPXPXPXPXPXJXJXPXPXPXJXPXPXLXPXPXJXJXPXPXJXPXPXPXPXLXPXPXJXPXJXPXLXLXPXJXKXPXJXMXPXPXPXLXLXLXPXPXPXPXPXPXPXPXPXPXPXPXPXPXPXLXPXM.PX| : M h 1 X O         ",
"  X       v.$.PXIXPXPXPXPXPXbXKXPXFXKXzXHXPXKXIXPXPXPXPXPXPXPXPXPXPXPXPXPXIXJXFXPXJXHXJXPXPXPXPXLXKXPXPXKXFXFXLXIXKXKXLXPXPXPXPXPXPXPXPXPXJXPXPXPXPXPXPXPXHXPXPXPXPXPXJXHXPXPXPXPXPXPXPXPXPXPXPXPXJXPXPXPXPXPXPXPXPXPXPXPXPXJXPXPXPXPXPXLXPXPXPXPXPXPXPXPXPXPXPXLXPXPXPXPXIXPXT.<Xk m.G G   X   X     X ",
"        x PXPXcXbXPXPXPXPXFX,XJXPXPXIXbXPXIXKXPXIXPXPXHXPXHXPXHXPXPXPXPXPXPXPXIXPXFXIXPXPXHXPXHXFXPXKXBXPXBXPX#.R.Z.zXFXHXPXPXPXPXKXPXPXPXPXPXPXIXPXPXPXIXPXPXPXPXPXPXPXPXPXPXPXPXPXPXJXPXPXPXPXPXPXPXPXPXPXPXPXPXPXPXPXPXPXPXPXPXPXPXPXKXPXPXPXPXPXPXPXPXPXPXPXPXHXPXPXPXPXJXcX@X&.PXi i o o X X       ",
"  X   >   5Xk HXzXPXPXJXHXPXxXPXCXPXPXPXFXPXKXPXPXKXFXPXFXIXvXPXPXIXPXPXxXBXCXJXbXPXvXHXPXHXPXIXPXKXPXFXBXzXPX7XvX;XBXHXPXPXFXJXPXIXPXIXIXPXPXvXPX8XPXPX,XPXHXPXPXPXPXPXPXPXIXPXPXKXPXPXPXPXPXPXPXPXPXPXPXIXPXPXPXPXPXPXPXPXIXPXPXPXPXIXPXPXPXPXIXPXPXPXPXPXIXPXPXPXHXPXPXHXBX>XdXk BXE i G e         X ",
"@       i L.`.IXW.vXPXIXPXKXbXPX8XvXHXKXHXDXKXPXIXHXvXFXIXPXbXPXPXIXcXFXFXFXFXFXPXPXJX5XHXFXIXPXFXHXCXPX2X+.KX7XCXM.PXzXHXFXDXHXHXHXHXHXFXBXBXPX6XJ.9XJXz.vXPXPXIXPXPXPXPXPXPXPXPXPXPXIXPXPXPXPXHXPXPXPXPXHXPXPXPXPXPXPXPXPXPXPXIXPXPXPXPXPXPXPXPXPXPXPXPXPXPXPXPXPXPXPXPXFXFXyXl.$.BXO.p k +   +       ",
"X         i k.FXPXPXPXHXIXJXPXI.  +   i B r.zX2Xd < < X > < d ` ;X  1 + z 4XPX6XFXHXI.7XFXT.) HXJ.FXG bX%.7X7XCXPXIXW.&.wXBXIXwXB.2XFXPXPXFXPX> +   v.j.,XbXPXPXPXHXHXPXPXPXPXHXPXPXPXHXvXPXPXPXPXIXPXIXvXPXIXPXPXHXPXPXPXIXPXPXPXIXIXHXIXPXPXIXPXPXPXPXHXIXPXPXPXPXPXPXPXPX8XFXPXc.BXKX8XX   +   X     ",
"X .   O > Y l.cXBXbXIXPXKXBXOXl t : z Y *.M.gX) I.R z L.E = ` ) R + : R l 2XCXR.PXBX>X%.I.7X@X) $.KXk.bX+.r.BXFXCXBXk.S.k.> bX@.gXi PXKXcXBX2XBXO.> z 1 zXBXPXPXPXHXJXPXFXJXPXPXFXPXzXcX7XPXPXPXPXPXPXIXPX8XPXJXPXFXPXPXPXJXPXPXPXPXPXHXPXPXPXPXPXPXIXPXPXPXHXPXPXPXPXKXPXPXl.yXPXm.BXPXHXo   X +       ",
"                  ` t   + +   i R = l 1 r.*.#._ H + / s R a v./ l T.5XE.+.#.2Xp.PX*.G.R Z.O.M.6XKXLX` #XQ l FXgX;Xr.PXJ J.@.L.&.m.r.dXbXvX_ $.` s ' Q +.*.k.K.T.R.M.PXdXI.PXm.c.#.IX8X5Xl.S.yX2X8Xm.IXHX8XcXPXBXT.L.9X&.BXHX$.PXPXHX,XPX$.M.vXPXIXIXPXPXbXM.PXvXPXKXPXPXPXW.PXM.s PXFXPXKXPXBX,XQ + +   ",
"              + X <   + o o X Q t t g i K.j.z _ k   + T / Y J ) s gXcX| @.| ;XcXvX) n.J Z.%.+.dXPX2Xk E._ z PX2XcX%.BXt M.T K.>XOXl.Y.PX4X/ ` s Y p.> z.| z | LX<Xc.5X5XM.xX*.Y *.PXCXFXT.Q.vXQ.IXl.bXyXPXbXKXIXn.| I.J.qXPXp vX8XCX6XFXk.m.PXxXFXCXPXPXFX#.zXPX;XOX2X>XbXJ.l.E z PXPXPXIXPXFX5X=.Y +   ",
"                + X +   & = X i a = T = g | o O.E O g J ` < #Xs E E.l.k.I.l bXl I.l X.=.k.1 7XJ 4X/ v.X.6XZ.PXQ I.u T.@.m.R 2XdX4Xl cXn.#X$.@.a j.k > + , X   FX8XzXM.8X;X5X,XzXT.HXPXGXKXbX8XPXQ.,XM.n.PXvXPXR.J.=.8X5X,XcX' R.E qXvXJ.T.qXFX8XIXPXKXKXJXPXFXn.X       =   + 1 s PXPXIXPXIXFXHXNXvX    ",
"                X + X < ` i = X X =   :     X   = + ,         #.      = a         u O < < T 8X2XJ OX$.G   p R z k _ I.$.5XR OX&.2X@.+ 1 1 , O : X T.: @   1 + PXvXM.Y yXT.W.J.zX2XL.k xXJXIXzX`.W.,XPXcXPXPXFXFXj.xXPX5XCXJXk vXQ.PXn.vXl.L.IX8X,XzXPXCXJXPXFXIXPXKXPXPXdXdX9XqX2XFXHXPXPXHXHXJXPXbX@   ",
"                      t H * X X   +   X = > a )     X     +   X   O     X   X X p.L.` + : O BXDXLXH   h       O   O > > < a i < 1 +.O O X > X = + >   X +     *.B i > i Y ~ ) s k i R x z.*.k i M KXPXM.s T.Q l.l.2 ` k J.J.  T.Y 8X2.,Xv.J.m.J.I.zXQ.M.HX8Xl.HXDXPXPXKXPXdXxXxXFXPXPXIXPXPXxXPXIX8X    ",
"                    >   + o   X +       I.    = O X         +   X     X X   + + X L.T.g p ` 2X  = s i i 1 t X X X + +   = O X   O = + = +   O > X   +     = = X       +     @ X   @   >     i +   X   +     >   @ O > 2   @ i   X <   X @         @     2 =   %.#XP.v.*.k   > + x yXvXHXFXPXPXCXQ +     ",
"                X   +                   k.=       X     X X     X               O l.#XY p t R.> = X + X =           X   + +     O   = + X X X > X   :   X >   :     + > X         O . +   @ +   X @     @   >     g . @   + + + O       X   @   +   +   <     Y _ J l M i +     p ~ M.,X8XNXJXT.<       ",
"                      @ X         X @         +                           X     > + X X X     > X + z   X +           X X +   X                                               +   , i @ +   R 1 + +       > +   + l , . O                               . +     O   O                           %   @   ",
"                                        @     > X     @         X       X   X , L.      +   t X +   `                           @                                       .         2 < @     @   @                 @                           @         O                       X               O     O ",
"                                                                    X           = X +     X >   > X       +                 X X             @                                         X     +   @ = X .           @ X   +     @             +         +       @         @             .               9X"
};
