/* XPM */
static char *DifficultyEasy[] = {
/* columns rows colors chars-per-pixel */
"148 47 256 2",
"   c #020202",
".  c #0B0101",
"X  c #060806",
"o  c #090B07",
"O  c #050509",
"+  c #09060B",
"@  c #06090A",
"#  c #0A0A0B",
"$  c #130100",
"%  c #1D0D02",
"&  c #120F0C",
"*  c #170209",
"=  c #0D100F",
"-  c #12110E",
";  c #191100",
":  c #000313",
">  c #090411",
",  c #0E0E11",
"<  c #00031B",
"1  c #010A1B",
"2  c #040C1A",
"3  c #100F15",
"4  c #180D11",
"5  c #0F1012",
"6  c #131314",
"7  c #151619",
"8  c #16181C",
"9  c #1A1A1C",
"0  c #230B01",
"q  c #22080C",
"w  c #331502",
"e  c #321A00",
"r  c #361904",
"t  c #2A1616",
"y  c #381418",
"u  c #342818",
"i  c #000522",
"p  c #000C24",
"a  c #000E2A",
"s  c #001324",
"d  c #00122D",
"f  c #1D1D21",
"g  c #1D1B28",
"h  c #000F34",
"j  c #150D24",
"k  c #211D2B",
"l  c #1E2123",
"z  c #1D302E",
"x  c #1A353C",
"c  c #232324",
"v  c #262629",
"b  c #27282A",
"n  c #2B2B2C",
"m  c #2D2E30",
"M  c #2C3338",
"N  c #333334",
"B  c #363639",
"V  c #373A3D",
"C  c #3B3B3D",
"Z  c #383A37",
"A  c #34312A",
"S  c #4C3C3C",
"D  c #5A3C38",
"F  c #613F3E",
"G  c #434135",
"H  c #5C4738",
"J  c #5B5136",
"K  c #694634",
"L  c #644538",
"P  c #634C38",
"I  c #644136",
"U  c #684527",
"Y  c #1C3853",
"T  c #1E3557",
"R  c #1C374C",
"E  c #2B3346",
"W  c #3D3E40",
"Q  c #213752",
"!  c #4E3644",
"~  c #3F4042",
"^  c #31494D",
"/  c #3C4F60",
"(  c #3B546B",
")  c #3A5569",
"_  c #375674",
"`  c #424344",
"'  c #454549",
"]  c #4B4B4D",
"[  c #48484C",
"{  c #594847",
"}  c #5F504D",
"|  c #4D4E51",
" . c #474D59",
".. c #504F54",
"X. c #5C4853",
"o. c #4E5052",
"O. c #525354",
"+. c #565857",
"@. c #555559",
"#. c #5B5B5C",
"$. c #595859",
"%. c #684D5E",
"&. c #7F6E52",
"*. c #4E4F6E",
"=. c #41576E",
"-. c #5D5F61",
";. c #435676",
":. c #605F64",
">. c #5B6467",
",. c #646466",
"<. c #656569",
"1. c #676969",
"2. c #6B6B6C",
"3. c #746D65",
"4. c #7F7365",
"5. c #6E6E71",
"6. c #646D76",
"7. c #737374",
"8. c #747875",
"9. c #767678",
"0. c #777A7B",
"q. c #7B7C7D",
"w. c #7D7173",
"e. c #825E5E",
"r. c #876C4D",
"t. c #84635A",
"y. c #876C54",
"u. c #827259",
"i. c #836D60",
"p. c #807C7B",
"a. c #808372",
"s. c #B49374",
"d. c #7E7E81",
"f. c #817F80",
"g. c #6F818F",
"h. c #7E8182",
"j. c #67879B",
"k. c #6A839C",
"l. c #778394",
"z. c #6586A2",
"x. c #838384",
"c. c #858688",
"v. c #858989",
"b. c #8B8B8C",
"n. c #8E8F90",
"m. c #8E9093",
"M. c #949494",
"N. c #959598",
"B. c #979899",
"V. c #9B9B9C",
"C. c #9B9891",
"Z. c #A99C8A",
"A. c #A19984",
"S. c #A99C94",
"D. c #9CA09F",
"F. c #A1A19F",
"G. c #928DA4",
"H. c #9D9EA1",
"J. c #9EA1A0",
"K. c #9AA7B7",
"L. c #A4A4A4",
"P. c #A5A6A9",
"I. c #ABACAC",
"U. c #A8A8A8",
"Y. c #AEB0AD",
"T. c #B0B0AE",
"R. c #ADAEB1",
"E. c #A1A7B3",
"W. c #AFB0B2",
"Q. c #B3B3B4",
"!. c #B6B6B9",
"~. c #B6B8BA",
"^. c #BBBBBC",
"/. c #B7B7B7",
"(. c #DBBCA5",
"). c #D6BCAB",
"_. c #C6B9B0",
"`. c #BEC5B3",
"'. c #C0C0BF",
"]. c #C9C4B7",
"[. c #D3C5AB",
"{. c #F5D7BF",
"}. c #97ACC6",
"|. c #8FB1CC",
" X c #BEBEC1",
".X c #C0BFC4",
"XX c #9FC3D3",
"oX c #BEC0C3",
"OX c #B9CBCF",
"+X c #BBCADD",
"@X c #AACEE4",
"#X c #B4CDE3",
"$X c #B6CEEA",
"%X c #AFD3EB",
"&X c #C3C3C4",
"*X c #C6C6C9",
"=X c #C7C8CA",
"-X c #CCCCCC",
";X c #C7C7CA",
":X c #D2CECD",
">X c #D8D3CB",
",X c #CECFD1",
"<X c #C3CDD7",
"1X c #CFD1D3",
"2X c #C1D2D9",
"3X c #D3D3D4",
"4X c #D5D5D8",
"5X c #D7D8DB",
"6X c #DCDCDD",
"7X c #D9D7D7",
"8X c #E9DAC7",
"9X c #F5D6C2",
"0X c #EBD6D1",
"qX c #DDE1DA",
"wX c #F0E2C8",
"eX c #E4E4D7",
"rX c #FFF9D5",
"tX c #FFF5DC",
"yX c #FFFCDE",
"uX c #FFF4D4",
"iX c #DDDEE1",
"pX c #D4DDE2",
"aX c #DEE1E2",
"sX c #D5EEFD",
"dX c #D5E8FF",
"fX c #CDF1FF",
"gX c #D2F1FF",
"hX c #DDF9FF",
"jX c #D8F6FF",
"kX c #E3E3E3",
"lX c #E8E8E7",
"zX c #E6E7E9",
"xX c #E6E9EA",
"cX c #ECECEC",
"vX c #F1EFED",
"bX c #FAEEE0",
"nX c #FFF4E4",
"mX c #FFFDE4",
"MX c #F4F2EE",
"NX c #FDF5ED",
"BX c #FFFCED",
"VX c #EEEFF0",
"CX c #EEF1F3",
"ZX c #E3F5FC",
"AX c #EDF4FA",
"SX c #E6FDFF",
"DX c #ECFFFF",
"FX c #E7F2F4",
"GX c #F4F4F4",
"HX c #FBF6F4",
"JX c #F6F8F7",
"KX c #FDFCF5",
"LX c #F5F6F9",
"PX c #F9F6F9",
"IX c #F5FDFE",
"UX c #FDFEFE",
/* pixels */
"  o                                           o     o #     o   X   X             o     ,   3 O 3   X   # 5     6 > > O ,   5 6     @ @       @ X ,     @ ,   O 8   ,   @ 5   o = = @     X O           .                     .                         O                                               ",
"X         o       X                                     @     X   = 7   X     X @ 6 ,   X O + O X + -   5   o     # O 5         @   O O   O   # X     2 # #       , + > X   9 # o   o @   - O   , X                                               X           O                                         ",
"                                    o   +   O #   O       o       5   o o     X O   # O   X   # O O   o       # + O #   o   c       @ # O @ @ O O   f   3 # o X c 9 8 c 8 9   # o Z l ` ` ] 1.] W 6             X         X                                         X                                   ",
"O   p.6 X   o             o   c 7 B N N W B W ` ,.B N ~ 5.o.b.h.J.M.M.5.J.^.M./.0.V.*Xd.cXPX7.5X^.iX;X:X3X=X;X&XT.CX3XGXoXF.V.I.L.x.UX1XaXoXJ.W.E.V -. X/.^.&XR.-X/.Q.^.Q.U.Q.!.x.v.v.,.1.C.#.+.m O 5 l . X 9 9 @ 9 & o     6 5 # n o b c n N 9 c W N N 7 6 # 6 6 8 6 O o     #                         ",
"X b 7XC 6 o   X X O     #   > v v | [ W ! @.B ..5.l [ h.<.d.K.` -.H.v.v.2./.aXCX&XcX6XV.cXJX#.U.UXUXvXzXCXIXkX.X/.KXPXUX:XU.f.b.&XQ.CXAXUX~ ! V n  .v ] A ` ' o.+.$.C $.] + f f 6 o     # p.- o o   @ l 9 Z ' x.l d.9 - , 8 n f n -.n ] O.1.b.8.<.V.d.<.9 8 f N f v c n c O 7                           ",
"X G cXUXc o 6 +     X m ~ 1.! L.9.d.R.d.d.R.N.=XI.E.4X5X7.=Xd.UX1X^.aX0.aXFXJ.UXxX5XVXkXT.qXJXGXPXUXcXGXLXPXMXUXKXUXUXPXvXkXLXUXPXxXLXpXPX5X>X&XAXaXIXCXUXLXAXLXlXcXLXGXGX6XUXUXLXcXMXcXUXcXUXUXJXUXIXUXGXLXUXIXPXLXPXUXUXAXxXGX3XUXGXUXPXUXkXUX^.U.-X3X XCX3XL.kXiXH.W.n.8 o +                         ",
"  B JXPX^.X   O   #   ,.o.5.W.UXUXCXUXPXiX!.iXUX&XUX~.-XUXPXUXUXn.IXUXLXaXLXGXUXUXJXUXUXIXJXUXJXGXMXUXUXPXUXPXPXJXUXUXGXUXUXPXPXUXUXUXIXPXNXUXvXHXPXUXIXPXUXUXIXUXLXUXUXUXUXPXUXUXPXPXKXHXUXUXKXUXvXUXUXUXIXIXUXLXkXKXlXLXAXPXIXUXcXUXUXUXGXPXUXPXPXUXPXUXUXUXiXLXPX6X^.&X5.9.# #   X                   ",
"  f PXUXGX#.      3 @ 6 f V 5.PXCXGXUXUXUXLXCXPXCXUXUXUXLXUXUXUXGXJXLXcXIXUXPXUXJXGXUX2.,.I.UXUXJXUXUXUXUXUXPXLXHXKXMXUXMXGXUXUXUXPXIXUXUXKXHXKXUXPXUXUXUXPXUXUXUXIXUXPXHXUXUXUXLXPXUXPXPXPXPXUXKXUXPXUXUXUXUXAXPXMXKXU.UXUXUXPXGXPXMXPXUXUXPXJXUXUXUXUXLXcXLXUXUXPX7XI.^.vXIX' Z o                     ",
"  O.q.PXLXm + 6 #   [ f ] ` 4X-.b.6XqXMX-X7X6X7X-X*X-X-X-XHXJXGXLXLXMXH..XPX:XL.UXL.aXS 2..XMXUXJXD.h.W.U.Q.f.^.Q.]./.T.Q.&XUXUXUXPX4X-XeXUXUXPXUXPXUXUXUXKXUXUXUXUXUXUXUXUXUXUXUXUXUXUXUXPXUXUXUXPXPXUXUXUXUXUXIX&XC.KXUXLXPXUXPXJXUXUXPXPXUXPXUXUXJXJXUXUXPXcXJXCXPX6X.X4XzXV.P.o                     ",
"  C ] cXUX8   6   # ' ..:.[  Xv C V.V.M.x.b.x.V.2.b.p.8.8.L.;X^.H.V.P.@.q.I.I.N.cXc.5Xn p./.6XlXCX0.+.B.x.M...V.c.Q.a.7.P.oXLXUXUXKX:X*XiXLXJXUXUXUXUXUXKXUXUXUXUXUXUXUXUXUXUXPXPXUXIXUXUXUXUXUXUXJXUXUXUXJXUXUXJXV.M.MXPXUXPXUXJXGXGXcXkXkX6X7X-X-X-XQ.^.T.Q.M.J.V.V.n.9.d.x.-.5.6                     ",
"# G n.HXLXN   6 ,XUXGXm <.-X<.UXPXPXUXUXHXJXKXUXUXUXMXUXUXUXKXlXUXzXUXHXUXUXPXUXUXPXPXUXUXHXUXUXLXUXIXUXUXHXKXUXUXLXUXIXIXUXUXKXHXKXUXUXIXIXUXUXUXLXUXKXKXUXUXUXUXUXUXUXIXUXUXUXMXIXUXJXVXPXPXUXPXHXGXPXLXGXGXUXUXUXlXPXUXUXKXPXUXUXUXUXUXUXUXUXUXUXUXUXJXkXxXPXUXPXPXJX*X_.xXUX6X[   X   X             ",
"  9 U.UXGXM.P.kXUXUXUXc c VXUXUXUXPXUXJXUXKXUXUXUXUXUXUXPXUXGXPXUXUXUXUXMXUXPXPXHXUXUXPXPXUXUXUXUXUXUXcXKXHXHXUXUXLXUXUXUXPXJXUXUXKXPXLXLXIXDXIXUXUXUXKXUXUXUXPXUXUXUXKXUXUXUXIXGXJXLXUXLXUXUXHXUXUXUXJXHXUXUXKXVXUXIXLXHXUXUXUXUXPXPXUXUXUXUXUXUXPXcXUXUXUXUXUXJXUXPXUXGXUXUXiX/.c 1.O , # O           ",
"# N f.LXPX@.  UXUXUXUXUXUXUXPXLXPXUXUXUXJXUXUXHXPXKXPXUXKXUXUXUXUXUXUXUXUXUXUXUXUXUXUXUXUXUXUXUXUXUXPXKXKXKXKXUXUXUXPXUXUXUXUXUXUXUXUXIXUXUXUXUXUXKXUXUXUXUXUXUXUXKXUXUXUXUXIXUXUXJXUXUXPXUXKXUXJXUXUXPXUXPXUXUXUXUXIXUXIXJXUXKXUXUXUXUXUXUXUXUXPXUXUXUXPXUXUXUXUXUXUXUXUXUXUXUXPX4X-.W. X+             ",
"  N $.UXPXN 9 UXUXPXUXUXUXPXPXUXUXKXvXGXJXUXUXUXUXUXUXUXUXUXHXUXUXUXUXUXUXUXUXUXUXUXUXUXPXUXUXUXLXUXUXUXKXmXKXKXUXUXUXIXUXUXJXUXIXIXPXUXUXKXUXUXKXUXUXIXUXPXUXUXKXKXKXBXUXUXIXIXUXUXZXUXKXBXKXUXIXIXKXBXUXUXIXIXIXIXIXIXUXUXUXUXUXUXUXUXUXUXUXUXUXUXUXUXUXUXUXUXUXUXUXUXUXUXUXUXVXW.O.1XV.  O           ",
"O f , CXCXO   PXUXPXUXUXUXJXUXPXUXUXUXMXUXPXUXUXKXJXUXUXUXUXUXUXUXUXJXUXUXUXUXUXUXLXUXUXUXUXUXUXUXLXUXKX8X; .                   j.SXUXKXKXUXUXPX).$ ) SXUXUXUXUXUXKXmXZ.  O O m nX3.}.IXZ.$   : < g.BXy..   : : K.UXUXUXUXUXUXUXUXUXUXUXUXUXUXUXUXUXUXUXUXUXUXUXUXKXUXUXPXUXUXPXUXPXPX=XW g O           ",
"# X m 4XxX,   UXUXLXUXUXUXUXJXGXPXCXUXGXUXUXUXUXPXUXUXUXUXPXUXUXUXJXUXUXUXUXUXUXUXUXUXUXUXUXUXUXUXUXUXKX].. u S O O   O         ) SXUXUXKXKXUXBXK . d fXUXUXUXUXKXBX4.    O O   $ . k.DXu.$ . O p ( nXr $   1 ) IXUXUXUXIXUXIXUXUXUXUXUXUXUXUXUXUXUXUXUXUXUXUXUXUXUXUXUXUXUXUXUXUXUXzXd.v 3             ",
"  + b.UX6Xo   JXUXUXUXUXUXkXm.cXPXUXUX&XPXUXJXUXJXPXUXUXUXUXUXUXUXUXUXUXUXUXUXUXUXUXUXUXUXUXUXUXUXUXUXKXKXBXH $ < Q ZXUXUXKXA.X s sXUXUXPXKXBXmXK . i _ UXUXUXKXmXnXg E ZXIXUXnXr $ }.DXnXe $   h gXlXnX{   g.IXUXUXUXUXUXUXUXUXUXUXUXUXUXUXUXUXUXUXUXUXUXUXUXUXUXUXUXUXUXUXUXKXKXPXUXL.3 o   +         ",
"3 6 n LX3X  6 PXUXUXUXPXUXUXcXUXGXUXUX-XUXUXPXUXJXUXUXUXUXUXUXUXUXUXUXUXUXUXUXUXUXUXUXUXUXUXUXUXUXUXUXUXmXtXI S < _ IXIXUXUXmXBXIXDXUXUXUXKXmX8X0 . < Y SXIXUXBXmXZ.O E ZXIXIXKX9X0 K.IXKXtXw . T jXIXKX_.#.IXIXUXUXUXUXUXUXUXUXUXUXUXUXUXUXUXUXUXUXUXUXUXUXUXUXUXUXUXUXUXUXUXUXJXUXlX6 9 b c o         ",
"  c 5.LX4XO   UXUXUXUXUXUXkX4XUXUXMXPX^.JXUXUXJXUXUXUXUXUXUXUXUXUXUXUXUXUXUXUXUXUXUXUXUXUXUXUXUXUXUXUXKXmXtXK S < k.IXUXUXUXUXUXUXUXUXUXUXBXtXr.. O O 1 #XDXIXUXmX[.    M IXIXUXHX} +XDXUXBX(.$ p $XUXBX| E.UXIXUXUXUXUXUXUXUXUXUXUXUXUXUXUXUXUXUXUXUXUXUXUXUXUXUXUXUXUXUXUXUXUXUXUXGXUXn kXv.  o       ",
",   9.UXJXn.I.cXUXUXUXUXPXV.G UXLXUXlXU.PXUXUXGXUXUXUXUXUXUXUXUXUXUXUXUXUXUXUXUXUXUXUXUXUXUXUXUXUXUXUXKXyXrXD 4 : j.IXIXH.P.UXUXUXUXUXJXKXmX{.0 m m.  : z.SXIXUXKXyXJ u 4 O : l.UXUXIXIXUXKXtXH O E MX].: +XIXUXUXUXUXUXUXUXUXUXUXUXUXUXUXUXUXUXUXUXUXUXUXUXUXUXUXUXUXUXUXUXUXUXUXUXPXUX&XUXW.          ",
"  O V.LXUXUXPXUXPXUXUXUXUX&X6 lXUXUXcXT.PXJXPXGXUXUXUXUXUXUXUXUXUXUXUXUXUXUXUXUXUXUXUXUXUXUXUXUXUXUXUXKXmXrXI D : 1 O O 1 <XUXUXUXUXUXKXKXBXu.. a.qX& O a gXIXUXUXKXwX&.$ . O O O i jXDXUXUXBX8X% . w.g ( DXDXUXUXUXUXUXUXUXUXUXUXUXUXUXUXUXUXUXUXUXUXUXUXUXUXUXUXUXUXUXUXUXUXUXUXUXJXGXUXPX#.    o O   ",
"  8   ! kXUXUXUXUXPXPXUXPX;X9 UXUXPXU.c.UXUXUXUXUXUXUXUXUXUXUXUXUXUXUXUXUXUXUXUXUXUXUXUXUXUXUXUXUXUXUXKXmXrXI q : / IXPX6.P.UXUXUXUXUXKXmX8X% $ eX`..   i |.IXUXUXKXnX_.nXH .   + : a gXIXUXKXBXy..   < #XSXIXUXUXUXUXUXUXUXUXUXUXUXUXUXUXUXUXUXUXUXUXUXUXUXUXUXUXUXUXUXUXUXUXUXUXUXUXPXUXPX$.    o     ",
"    m oXcXPXUXPXUXPXUXUXUX;X- PXUXPXU.M.PXPXUXUXUXUXUXUXUXUXUXUXUXUXUXUXUXUXUXUXUXUXUXUXUXUXUXUXUXUXPXKXmXtXt.{ i |.IXUXUX6XUXPXUXUXUXUXyXr..         O < ( DXIXBXBXk E.UXKX8X0 $ $ 1 @XIXUXUXHX(.$ 1 Y ZXIXIXUXUXUXUXUXUXUXUXUXUXUXUXUXUXUXUXUXUXUXUXUXUXUXUXUXUXUXUXUXUXUXUXUXGXGX6XN o.&X` +   o     ",
"  X =   UXUXUXUXUXUXUXUXUX6X6 UXPXJXD.B.UXPXUXUXUXUXUXUXUXUXUXUXUXUXUXUXUXUXUXUXUXUXUXUXUXUXUXUXUXUXUXKXmXtXe.X.p %XIXKXKXUXKXUXUXUXUXKXuXU   O         : a #XIXmX>Xj *.IXIXBXtXK . 2 %XIXUXUXKX{.0 < z.IXIXUXJXUXUXUXUXUXUXUXUXUXUXUXUXUXUXUXUXUXUXUXUXUXUXUXUXUXUXUXUXUXUXUXUXUXMXlX  9 8 X 8   o     ",
"  ,.O VXO UXJXUXUXUXUXUXUXkX6 UXPXUXU.F.UXPXUXUXUXUXUXUXUXUXUXUXUXUXUXUXUXUXUXUXUXUXUXUXUXUXUXUXUXUXUXKXyXyXe.%.dXXXIXUXUXKXKXBX .K.UXBXs.$ 2 dXUXKXtXP . : z.DXKX8Xk G.sXSXIXKX9X0 d gXIXUXKXBX(.. 1 _ IXUXUXUXUXUXUXUXUXUXUXUXUXUXUXUXUXUXUXUXUXUXUXUXUXUXUXUXUXUXUXUXUXUXUXUXGXLXLX  + 6   X O X O   ",
"      #   UXUXUXUXUXUXJXUXHX6 UXPXGXI.L.PXLXUXJXUXUXUXUXUXUXUXUXUXUXUXUXUXUXUXUXUXUXUXUXUXUXUXUXUXUXUXBXmXtXy * : ) IXIXUXUXwXG O l.KXmXP . l.IXUXKXmX{.%   R hXKX8X* + >.ZXUXUX0X4 Y hXIXKXmXnXr . : Q ZXIXUXUXUXUXUXUXUXUXUXUXUXUXUXUXUXUXUXUXUXUXUXUXUXUXUXUXUXUXUXUXUXUXUXPXPXUX6X8   O O O O       ",
"X ,     m W PXPXPXPXUXPXUXUXUXUXPXKXQ.c.UXPXUXUXUXUXUXUXUXUXUXUXUXUXUXUXUXUXUXUXUXUXUXUXUXUXUXUXUXUXUXBXmXnXD ! : 1 OXIXKX3.    x 2XH $   : +XDXDXUXNXNXZ..     P.V.<.2.  . x.H.< a sXIXJXKXuXr $     < #XDXIXUXKXUXUXUXUXUXUXUXUXUXUXUXUXUXUXUXUXUXUXUXUXUXUXUXUXUXUXUXUXPXPXUXUXU...,.m 8 O       O   ",
"      , 6 ,.lXJXUXUXUXUXUXPXCXUXUXGX&Xq.JXUXUXUXUXUXUXUXUXUXUXUXUXUXUXUXUXUXUXUXUXUXUXUXUXUXUXUXUXUXIXKXnXw $ + O : O     .   z ^ FXt $   O : : / UXHXt . .     d.pXW T.S..   O ;.DXDXUXUXKX9X0 .     O : K.UXUXUXUXUXUXUXUXUXUXUXUXUXUXUXUXUXUXUXUXUXUXUXUXUXUXUXUXUXIXUXUXUX*X3XL.3X' W , ' >   X     ",
"      3   GXLXGXJXJXUXUXUXUXUXPXUXUX1Xa.UXJXUXUXUXUXUXUXUXUXUXUXUXUXUXUXUXUXUXUXUXUXUXUXUXUXUXUXUXUXUXKXBXBXPXUXUXUXIXUXUXLXUXUXUXIXUXUXUXUXUXUXUXPXUXKXUXKXUXUXIXUXUXUXUXUXUXUXUXIXUXUXUXKXKXUXUXUXUXUXUXIXUXUXUXUXUXUXUXUXUXUXUXUXUXUXUXUXUXUXUXUXUXUXUXUXUXUXUXUXUXUXUXJXUXP.cX+.UXq.V.  f O # O     ",
"      O   L.cX*XPXUXUXUXUXPXUXJXUXJXP.` PXUXUXUXUXUXUXUXUXUXUXUXUXUXUXUXUXUXUXUXUXUXUXUXUXUXUXUXUXUXUXUXKXUXHXUXUXUXUXJXUXUXUXUXUXUXUXUXUXUXUXUXUXUXKXUXUXUXUXUXUXUXPXUXUXUXUXUXUXUXUXUXJXUXUXUXIXUXUXUXUXJXUXUXUXUXUXUXUXUXUXUXUXUXUXUXUXUXUXUXUXUXUXUXUXUXUXUXUXUXUXUXJXJXIX1.&X] ] U.m.  <.7 X       ",
"X O     X L.6XPX-XJXUXUXJXUXUXPXUXvXL.m UXGXJXUXUXUXUXUXUXUXUXUXUXUXUXUXUXUXUXUXUXUXUXUXUXUXUXUXKXUXJXUXIXJXLXUXUXUXUXKXJXUXUXUXUXUXUXUXUXUXUXUXUXKXUXUXUXUXUXPXUXUXUXUXPXUXUXUXUXUXUXUXUXUXUXUXUXUXUXUXUXIXUXUXUXUXUXUXUXUXUXUXUXUXUXUXUXUXUXUXUXUXUXUXUXUXUXUXUXUXUXUXUXJXUXM.UX,.5 W N j O O         ",
"          M.5.UXPXUXUXUXUXUXcXLXUXLXPXzXJXUXPXPXUXUXUXUXUXUXUXUXUXUXUXUXUXPXHXJXUXPXUXUXUXUXUXUXKXUXUXUXIXAXCXUXPXPXMXUXKXUXUXUXUXPXUXUXUXUXUXJXUXUXUXKXUXPXUXUXUXIXUXUXUXUXUXKXUXUXPXUXUXUXUXUXKXUXUXIXUXIXUXUXUXUXKXUXUXUXUXUXUXUXUXUXUXUXUXUXUXUXUXUXUXUXUXUXUXUXUXUXUXUXUXQ.;Xm V.W B O O   O       ",
"X   O   Z UXUXlXcXPXUXUXUXGX-XKXUXUXHXcXPXPXPXUXPXJXUXPXUXJXUXPXKXUXUXUXPXUXUXUXUXGXPXUXUXJXUXJXGXUXPXcXUXCXUX2.!.H.kXGXPXUXUXUXUXJXUXUXUXUXUXJXPXUXUXUXPXUXUXUXUXUXUXUXUXUXUXUXUXUXUXPXUXUXUXUXUXUXUXUXUXUXUXUXUXUXUXUXUXUXUXUXUXUXUXUXPXUXUXUXUXUXUXUXUXUXUXUXUXJXUXUXUXUXPXlX&X9.UXb k X O O O       ",
"  X   6   :XN PXkXUXUXUXHXUXlXUXGXUXUXUXJXJXJXUXUXJXGXUXGXPXcXUXUXPXUXUXcXMXCXPXcXUXcXJXUXJXUXHXUXLXUXGXCXaXUX6XxXoXVXHXUXJXGXUXPXPXUXLXPXUXUXVXUX6XUXUX-XPXJXUXUXUXUXUXUXUXPXUXUXPXUXUXUXUXUXUXUXUXUXUXUXJXUXUXUXUXPXUXUXUXPXUXUXUXUXPXUXUXUXUXPXUXUXUXUXUXPXUXUXJXJXUXUXPXMX-XiXN VX' v W 8         X ",
"        c I.'.PX^.cXUXJXJXUXlXUX6XxXJXHXPXJXJXUXJXPXcXGXPXUXcXUXUXJXlXGXGXGXJXGXUXUXPX3XHXGXLXUXGXLXVXUX-X<.GX4XGXN.UXkXJXGXGXJXPXJXJXHXJXcXcXUX7XD.5XPXv.cXUXUXPXUXUXUXUXUXUXUXJXUXUXHXUXUXUXUXPXUXUXUXUXJXUXUXUXUXUXUXUXUXUXUXPXUXUXUXUXUXUXUXUXUXUXUXUXUXUXUXUXUXUXUXUXJXGX6Xv.5.VX,.v N X O +       ",
"o         c b.GXUXUXJXPXPXPXUXT.  o   c ` x.lX-Xb 8 9 o 7 7 c #.&X  8 o C -XUX4XGXGXT.7XJXQ.O.JXL.GXW xX7.6XiXVXUXIX^.9.qXvXIXaXD.3XGXUXUXGXUX6 #   M.a.-XcXUXUXUXJXGXUXUXUXUXJXUXUXUXJXcXUXUXUXUXPXUXPXcXUXPXUXUXPXUXUXPXUXUXUXUXPXJXJXPXUXUXPXUXUXUXUXJXPXUXUXUXUXUXUXJXUX6XGXUXn.cXPXiXO   #   O     ",
"o     X 7 ` n.lXcXcXLXUXUXcX XB c 5 C ` d.N.kXO.T.] C I.[ , #.O.] # , ] B ,XCX!.PXVX*X7.R.4XoX@.5.LXc.xX<.d.VXGXCXxXv.L.c.6 cX,.qXb PXIXzXVX1XVX,.6 V 9 kXVXPXUXUXJXPXUXMXPXUXUXGXUXlXkX6XPXUXUXUXUXUXPXUX6XUXPXUXMXUXUXUXUXUXUXUXUXUXLXUXUXUXUXUXUXPXUXUXPXPXUXUXPXUXLXUXUXn.eXUXV.cXUXJX#   X #       ",
"                  +.k   # @   c ] = B 8 d.0.2.@.` # o.n ] b m.o.B Q.3X!.<.2.,Xh.UX0.L.] H.,.B.3XUXIX@.&X| V GXaX&Xx.UX~ L.1.I.8.V.d.6XxXcXO.5.#.n $.o.,.d.b.P.!.Q.B.UX6XQ.UXV.n.2.PX6X3Xb.V.eX,X6XV.PXJX6XlXUXCXQ.I.7X8.VXPX2.UXUXJX-XUX5.N.cXUXUXJXJXUXcXM.UXcXUXIXUXUXUX^.UXC.n UXGXUXPXUXcX-X..# #   ",
"            O   o 9   # > + O | f l N c P.x.W O.N   , ' O.` ~ O.m 6XxX-.1.-.&XzXCX@.M.` H.7.<.iXUX-XN ~.@.B UX,XxX7.VX9 B.' L.*X Xv.W.UX,X| #.n ` d.8 x.-.B >.PX;Xn.4X7XB.lXq.` q.PXGXGXQ./.cX^.PXb.cXeXUXcXJXPXM.-.I.U.6XUXc VX6XvX4XMXv.B.PXxXGXvXUXUXGX2.kXUX&X X,X*XxXL.b.' C UXUXUXPXUXGX3X9.` o   ",
"                O X #   O , O c b # ' > m -.X <.]   n ` #.9  Xn ' ^.n.c.R.B xXB R.B -.0.v.9 5X~ 3X| m.,.5XH.PX| R.c Q.<.V.[ 1XiX3XB xXN.*X2.2.b x.N 6 @ 8 X   GX6XkXN.7X;X:X-XkXQ.JXUXGXJXlX6XUX/.-XB.n.UXcXUXQ.L.8.6X3X:XkX+.^.] 6XcXL.Q.eXHX6XUXJXGXPXUXUXGXM.O       ,   & 7 m UXUXPXUXPXGXJXGXMX    ",
"                X >   9 #.k 3     #   5         5 # 8   O     2.      , b O       l O 8 9 ' 6X,X' ~.5.W   b | C N O.R.5.3X|  X9.,X2.@ 8 9 7 @ 5   !.5 #   9 @ UXvXB.G aXQ.^.L.eX-XI.N kXKXHXkX'.^.-XUXlXUXUXGXMXx.kXUX7XGXHXN cX^.UXM.cXb.I.PX6X-XlXUXGXPXUXGXPXUXUXIXUXiXiX4X6X-XGXPXUXKXPXGXUXPXcX    ",
"                X     l ` , O O   + X O , 6 b O.          @   X O @     X   O   x.P.#., 5 @ CXGXPX` O M       O   X 7 6 9 b l f 8 ,.# #   7   , O 8   O @     d.G c 6 b ' O.@.n Z c o.Z c.q.B c W PXUXM.n Q.o.b.b.6 $.N L.L.  Q.` iXa.-Xn.U.V.L.I.kXQ.B.JX6Xb.JXCXUXUXLXUXiXcXlXGXUXUXJXUXUXlXUXPXqX    ",
"                    ,   # +   O   O O   R.O   3 O X         #   O     O O   X >   R.Q.m v #.,X  > n k c 8 f X X O # #   # # O   + > , # #   @ 6 X   #     , , X       #     X +   #   7     c o   o   #     6   o   6 #   + c     8     X         o     6 &   7.oXP.n.q.N   6 o C eXcXLXGXUXKXMXO.o     ",
"                O   >           O       v.#       X O     O     O             O # n. X~ b f !.6 , O o X ,         O O   # #     X   5 # O O   7     6   O 6   ,     # 6             . #   o #     o     o   6     A o #   o o o X       X   o   o   #   7     ` +.~ Z W c #     b O.N.-XeXMXUXT.9       ",
"                      o X         X o         o O                   X     O O   , # X         5 X + W   X o             X +   O             X                                 #   6 b o o   ] 9 # #       6 #   # B 7 . X     o             .           o o     X   #                           #   o   ",
"                                        o     6 X                           X 6 R.  O O # O f X o   -.                          o                                                 - 8 o   . X   #     O         O o                   X       X                                 X             X X     X ",
"                                              X                   O           O , X #     X 6   # + O O   #                 X O             X                                               o   o & X             X +   =                   #         o       o X                                     7X"
};
