/* XPM */
static char *Fire[] = {
/* columns rows colors chars-per-pixel */
"99 39 236 2",
"   c #010001",
".  c #0C0000",
"X  c #020209",
"o  c #130000",
"O  c #1C0000",
"+  c #230000",
"@  c #2C0000",
"#  c #330000",
"$  c #3A0000",
"%  c #3E0C05",
"&  c #32050C",
"*  c #3B0E11",
"=  c #2F1016",
"-  c #440000",
";  c #4C0001",
":  c #480B06",
">  c #450D0E",
",  c #480A0D",
"<  c #530000",
"1  c #5B0201",
"2  c #54030B",
"3  c #53090A",
"4  c #430F13",
"5  c #5D1518",
"6  c #5D191A",
"7  c #620000",
"8  c #6C0000",
"9  c #760001",
"0  c #7D0101",
"q  c #7B0A04",
"w  c #7A0B0E",
"e  c #600E14",
"r  c #6D0E15",
"t  c #660F18",
"y  c #6C0C18",
"u  c #7B0211",
"i  c #740B14",
"p  c #780D15",
"a  c #621012",
"s  c #6E1011",
"d  c #65131A",
"f  c #6B1219",
"g  c #741010",
"h  c #7D1C16",
"j  c #71111D",
"k  c #7E1718",
"l  c #7C1C1D",
"z  c #731D23",
"x  c #7F1B25",
"c  c #5C292E",
"v  c #652522",
"b  c #622826",
"n  c #6C2428",
"m  c #712322",
"M  c #79292A",
"N  c #7D2D30",
"B  c #7F3333",
"V  c #753239",
"C  c #78353C",
"Z  c #7E3A45",
"A  c #414141",
"S  c #7F7F7F",
"D  c #830102",
"F  c #8B0201",
"G  c #800807",
"H  c #85030D",
"J  c #8D0209",
"K  c #84090C",
"L  c #8A080A",
"P  c #950000",
"I  c #9B0000",
"U  c #91000D",
"Y  c #9C050E",
"T  c #970908",
"R  c #94100E",
"E  c #830514",
"W  c #880F14",
"Q  c #860519",
"!  c #960D1D",
"~  c #811814",
"^  c #8B1B17",
"/  c #851718",
"(  c #8A151D",
")  c #831B1B",
"_  c #881A19",
"`  c #911516",
"'  c #981117",
"]  c #91151F",
"[  c #9C1118",
"{  c #9C191E",
"}  c #AF030F",
"|  c #A60A0D",
" . c #AB080D",
".. c #B40004",
"X. c #BD000A",
"o. c #A30C13",
"O. c #AF0B12",
"+. c #A60C18",
"@. c #B70E15",
"#. c #BE0D15",
"$. c #A71516",
"%. c #A71915",
"&. c #AD1C1A",
"*. c #B41617",
"=. c #B6121B",
"-. c #B6191B",
";. c #BC1B1C",
":. c #8E1325",
">. c #821A23",
",. c #8C1821",
"<. c #971C21",
"1. c #AE1623",
"2. c #A31C22",
"3. c #AB1B26",
"4. c #BA1F23",
"5. c #B61B29",
"6. c #872323",
"7. c #84242F",
"8. c #852C28",
"9. c #8A2B2F",
"0. c #9C2124",
"q. c #93242C",
"w. c #992629",
"e. c #9C2A29",
"r. c #9D302E",
"t. c #882836",
"y. c #952A30",
"u. c #9D3337",
"i. c #9A3930",
"p. c #92343C",
"a. c #9D343C",
"s. c #993B3C",
"d. c #AD2A2F",
"f. c #B32225",
"g. c #BB2526",
"h. c #B5242B",
"j. c #BC252A",
"k. c #B52D29",
"l. c #BC2B2E",
"z. c #A32530",
"x. c #A42D34",
"c. c #AB2B34",
"v. c #AA293B",
"b. c #B32D34",
"n. c #BD2B34",
"m. c #B22C3A",
"M. c #BF2E3A",
"N. c #A53233",
"B. c #AC3531",
"V. c #A43438",
"C. c #AA373B",
"Z. c #A53B3D",
"A. c #AC3B3B",
"S. c #B33234",
"D. c #BD3235",
"F. c #B4353B",
"G. c #BB333B",
"H. c #C20102",
"J. c #C6020C",
"K. c #CE0A0E",
"L. c #C40D14",
"P. c #CB0E14",
"I. c #C81518",
"U. c #CF1B1E",
"Y. c #DA1316",
"T. c #D4151C",
"R. c #D31F1E",
"E. c #DE1A1C",
"W. c #E6171F",
"Q. c #E61B1E",
"!. c #EB1B1E",
"~. c #C31821",
"^. c #CF1A23",
"/. c #CC1C29",
"(. c #DD1522",
"). c #D41E25",
"_. c #DE1D24",
"`. c #D51E2A",
"'. c #DB1E2A",
"]. c #D61F31",
"[. c #E71724",
"{. c #EC1724",
"}. c #E31D24",
"|. c #EB1C24",
" X c #E61E29",
".X c #EB1C2A",
"XX c #F01627",
"oX c #F11B24",
"OX c #F11C29",
"+X c #C32426",
"@X c #CB2126",
"#X c #C2252A",
"$X c #CC252B",
"%X c #C42C2E",
"&X c #CC2A2C",
"*X c #D42426",
"=X c #DC2225",
"-X c #D4252C",
";X c #DB242B",
":X c #D3292C",
">X c #DA292C",
",X c #C42732",
"<X c #CD2434",
"1X c #C32D34",
"2X c #CB2A34",
"3X c #C32C3A",
"4X c #D42534",
"5X c #DC2331",
"6X c #D32A32",
"7X c #DA2932",
"8X c #DC2239",
"9X c #DA2B38",
"0X c #C33233",
"qX c #CA3038",
"wX c #C1393B",
"eX c #E42124",
"rX c #EA2124",
"tX c #E3212B",
"yX c #EB212A",
"uX c #E7282E",
"iX c #F52120",
"pX c #F1212C",
"aX c #E22533",
"sX c #9D3341",
"dX c #983B43",
"fX c #AC3642",
"gX c #A73C41",
"hX c #AA3C43",
"jX c #B43642",
"kX c #B53A40",
"lX c #BE3B41",
"zX c #8F494B",
"xX c #9B4141",
"cX c #93424B",
"vX c #828282",
"bX c #FFFFFF",
/* pixels */
"bXbXbXbXbXbXbXbXbXbXbXbXbXbXbXbXbXbXbXbXbXbXbXbXbXbXbXbXbXbXbXbXbXbXbXbXbXbXbXbXbXbXbXbXbXbXbXbXbXbXbXbXbXbXbXbXbXbXbXbXbXbXbXbXbXbXbXbXbXbXbXbXbXbXbXbXbXbXbXbXbXbXbXbXbXbXbXbXbXbXbXbXbXbXbXbXbX    ",
"bXbXbXbXbXbXbXbXbXbXbXbXbXbXbXbXbXbXbXbXbXbXbXbXbXbXbXbXbXbXbXbXbXbXbXbXbXbXbXbXbXbXbXbXbXbXbXbXbXbXbXbXbXbXbXbXbXbXbXbXbXbXbXbXbXbXbXbXbXbXbXbXbXbXbXbXbXbXbXbXbXbXbXbXbXbXbXbXbXbXbXbXbXbXbXbXbX    ",
"bXbXbXbXbXbXbXbXbXbXbXbXbXbXbXbXbXbXbXbXbXbXbXbXbXbXbXbXbXbXbXbXbXbXbXbXbXbXbXbXbXbXbXbXbXbXbXbXbXbXbXbXbXbXbXbXbXbXbXbXbXbXbXbXbXbXbXbXbXbXbXbXbXbXbXbXbXbXbXbXbXbXbXbXbXbXbXbXbXbXbXbXbXbXbXbXbXvXA ",
"bXbX                                                                  X                                                                                                                       bXbXS S ",
"bXbX                                                            .                                                               X                                                 X       X   bXbXvXS ",
"bXbX      X                                                     . .         X       .                                           X               .         .                                   bXbXS vX",
"bXbX                            X X   .           . X                 X               .                                 X             X   X   X X                                   X         bXbXS S ",
"bXbX                            X                           X           X     X           . X                         X X               X X X X                                               bXbXS S ",
"bXbX                                      X       X     X X X     X   X X X X     X         X                   X     X                       X X                                             bXbXS S ",
"bXbX                                          . . . o o o o o o . o o o O O + + + O + O . . . . . o o o o o o o o o     X   . o o O O o o .     o . o . . . X X                               bXbXS S ",
"bXbX                            . .     X o O @ + + # # $ # $ $ $ # # $ s C.D.%X0X%X%XN.O . + # $ $ $ # # $ $ $ $ @ o .   . o + # # # # @ + o o + # # # O o .                                 bXbXS S ",
"bXbX                            X   .     = B k 7 Z.F.S.F.G.D.S.S.A.hXp 8 wX*XQ.Q.|.|.| + + p.jXF.G.D.F.A.F.G.b.F.V.- O . . # zXfXC.V.u.A.6.@ > hXF.F.Z.B + o                                 bXbXS S ",
"bXbX                                  . X @ c.2X6X-X>X;X`.aX;X*X>XO.D.8 - u.*X XoXOX|.+X@ @ D.-X5X5X=X-X*X;X=X^.^.f.d.r + O $ fX1X4.8 S.$X$X8 fX<X5XtX2Xe.@ .                                 bXbXS S ",
"bXbX                                X X   + 2. X X|.W.|.tX X|.!.eX=X$X9 $ s &X XXX{.rX%X# @ 1X X.X.X|.!.|.|.|.[.}.P.} F.> + - jX-XP.I :XeXtX3.D tX.X.X=X{ $ o                                 bXbXS S ",
"bXbX                                    X * G.;X.X[.yXyX-X`.yX|.W.uX$X9 $ p.$X|.pX_.:Xq O @ D._..X|.|.!.|.|.|.oXrX XaXM.v O $ fX-XeX=XaX_.I.h.M.tX|.eX&Xr.@ . X                               bXbXS S ",
"bXbX                                    X O H *X XOX|.;Xo.F )..XrX}.>XJ # 2 -.}.}.;X+X; O O ] >X.X|.iX|.=X=XeXtXeX;X<XE @ O @ >.-X}.(.=X:X&.; q.3X&X-.F 8.+ .                                 bXbXS S ",
"bXbX                                      O W 4X X|.XX;X` 1 &X;X|.}.>XG + + J =XeX=X:X8 O o i =.tX[.oXeXj.7 O.-X:X%.; # + + O f :X X X$XS.1 + + C $ ) xX: . .                                 bXbXS S ",
"bXbX                                    X O :.4XeX|.oX;XT 1  .#.9X2XS.1 o O v.5XeX_.@X9 O O p ,X;X[.oXyXh.1 3.1X&.7 ; zXc O O m 6X[.=XP 8 - @ + @ @ @ + o .                                   bXbXS S ",
"bXbX                                  . X O z.4X}.|.|.eX-X*XeX@X1 @ + o   + v.4XeXeX-XK O o p <XtXOX{.}.;.k.D.2.8 n.0XC.4 o + d 2X`.P.@XT D h.D.N.# O o .   X                                 bXbXS vX",
"bXbX                                      O W :X}.|.|.|.rXyX|.2X3 .       O Q 8X.XtX:XG O o j <X'. X|.tXR.0 D 7 n.&X*XD @ o O e +.'. X=X%X$.:X%XB.- o X X     X                               bXbXS S ",
"bXbX                                .   . O _ &X=X|.|.rX|.|.XX<X- .       O K 5X.X[.:Xq O o i ,XL.}.aX X}.=X0 ! <X>X}.*.# o + f $X XrXR.8 G.S.hXm + .                                         bXbXS S ",
"bXbX                                      O g 1XtX|.[.}.tX`.9Xm.# . X   X + c.7X.X X*X8 o o z M.*XT.X.;X*X@XU G./.J.|.:X5 O + z 6X|.rX=X1X7 - # # @ @ + o .                                   bXbXS S ",
"bXbX                            X X     X O - D._.OXOXtX[ - # + . . . X   + h.tX XyX*X8 O o ; H /.K.}.-XL < ' 2X;X X|.6Xl + + d $XoXW.eX:XG # # 8 n.1XG.t.+ . X                               bXbXS S ",
"bXbX                              X X X   o r h.tXOX|.*X( @ o             > f.eX!.rX*X9 O o t G.>X}.rX:Xq.- J :XeX|. X-Xw # + f *X|..XtX*X0 # n D.7X.X;X0.# .                                 bXbXS S ",
"bXbX                              X X   X O u 4X.X!.|.-X] # o     X   . o 3 &XrX!.eXeXF + O p &XeXQ...qXu.< 5.4X!.!. X*X` $ # x -XoX|. X'.P - y 2XtX.X*X^ @ o                                 bXbXS vX",
"bXbX                                  X   + m.5X}.|.|.*Xb.; o         . + t.6XQ.rXE.eXg.+ O 0.>XrXQ.`.Y q.; 1.;X!.iX[.=XD.1 $ a.).oXpX}.tX&Xq.; ~.[..X-X~ + o                                 bXbXS S ",
"bXbX                                    X + 3.;XuXH.E.*X0X1 O         . + sX:XY.}.rX!.%X$ @ 0X}.W.rXyXj.$ # { *XeX!.oXtX#X1 - V.7X|. XyX}.*XA.<.*X|.|.;X^ @ o                                 bXbXS S ",
"bXbX                                      @ F.:X:X$X:X&Xk.; O         . @ p.1X6X@.-X).f.@ @ S.-X>X;X=X3X6 @ _ 1X:X>X5X-Xn.8 $ 7.%X;X-X>X:Xg.; 8 &XtX;X1Xh + .                                 bXbXS S ",
"bXbX                                X X   + s.F.S.G.F.A.i.$ o     X     O Z hXjX,.q.kXs.& @ dXF.F.A.G.Z.b + m hXF.G.C.kXZ.1 @ V hXS.F.N.6.1 6 M r.A.F.Z.v O . X                               bXbXS S ",
"bXbX                                  X X . + % - $ $ # @ O     .     . . + @ # # @ # @ o o + # # # $ @ O O + @ # $ # # # + O O # $ # # + O O + @ # # @ O . .                                 bXbXS S ",
"bXbX                              X     X X . . o O O o o . X     X .   . . o o o . . .   . o o o O O o . . . O o o o . o . . . o o o . o . o o . o . . o .                                   bXbXS vX",
"bXbX                            X       X X X X X           X X X                         X         .             X                 X X X X .                                                 bXbXS S ",
"bXbX                                                                                                                                      X                                                   bXbXS S ",
"bXbX                                                                                                                                                                                          bXbXvXS ",
"bXbXbXbXbXbXbXbXbXbXbXbXbXbXbXbXbXbXbXbXbXbXbXbXbXbXbXbXbXbXbXbXbXbXbXbXbXbXbXbXbXbXbXbXbXbXbXbXbXbXbXbXbXbXbXbXbXbXbXbXbXbXbXbXbXbXbXbXbXbXbXbXbXbXbXbXbXbXbXbXbXbXbXbXbXbXbXbXbXbXbXbXbXbXbXbXbXS S ",
"bXbXbXbXbXbXbXbXbXbXbXbXbXbXbXbXbXbXbXbXbXbXbXbXbXbXbXbXbXbXbXbXbXbXbXbXbXbXbXbXbXbXbXbXbXbXbXbXbXbXbXbXbXbXbXbXbXbXbXbXbXbXbXbXbXbXbXbXbXbXbXbXbXbXbXbXbXbXbXbXbXbXbXbXbXbXbXbXbXbXbXbXbXbXbXbXbXS vX",
"bXbXbXbXbXbXbXbXbXbXbXbXbXbXbXbXbXbXbXbXbXbXbXbXbXbXbXbXbXbXbXbXbXbXbXbXbXbXbXbXbXbXbXbXbXbXbXbXbXbXbXbXbXbXbXbXbXbXbXbXbXbXbXbXbXbXbXbXbXbXbXbXbXbXbXbXbXbXbXbXbXbXbXbXbXbXbXbXbXbXbXbXbXbXbXbXbXS S ",
"X   S S S S S S S S S S S S S S S S S S S S S S S S S S S S S S S S S S S S S S S S S S S S S S S S S S S S S S S S S S S S S S S S S S S S S S S S S S S S S S S S S S S S S S S S S S S S S S S S vX",
"      vXvXvXS S S S vXS S S S S S S vXS S S S S S S vXS S S S S S vXS S S S vXS S S S S S vXS S vXS S S vXS S S S vXS S S S vXS S S S S S S S S vXS S S vXS S S S vXS S S S vXS S S S vXS S S S S S S "
};
