/* XPM */
static char *Help[] = {
/* columns rows colors chars-per-pixel */
"233 63 49 1",
"  c #000000",
". c #3A0000",
"X c #3A3A00",
"o c #00003A",
"O c #3A3A3A",
"+ c #660000",
"@ c #000066",
"# c #003A66",
"$ c #660066",
"% c #903A00",
"& c #906600",
"* c #B66600",
"= c #B66666",
"- c #DB903A",
"; c #909066",
": c #DB9066",
"> c #DBB666",
", c #FFB666",
"< c #003A90",
"1 c #3A3A90",
"2 c #663A90",
"3 c #006690",
"4 c #0066B6",
"5 c #3A66B6",
"6 c #906690",
"7 c #669090",
"8 c #6690B6",
"9 c #3A90DB",
"0 c #66B6FF",
"q c #B69090",
"w c #90B6B6",
"e c #B6B6B6",
"r c #B6DBB6",
"t c #FFDB90",
"y c #DBDBB6",
"u c #FFDBB6",
"i c #FFFFB6",
"p c #9090DB",
"a c #90B6FF",
"s c #B6B6FF",
"d c #90DBFF",
"f c #B6DBFF",
"g c #B6FFFF",
"h c #DBDBDB",
"j c #FFDBDB",
"k c #FFFFDB",
"l c #DBDBFF",
"z c #DBFFFF",
"x c #FFFFFF",
/* pixels */
"                                                                                                                                                                                                                                         ",
"                                                                                                                                                                                                                                         ",
"                                                                                                                                                                                                                                         ",
"                                                                                                                                                                                                                                         ",
"                                                                                                                                                                                                                                         ",
"                                                                                                                                                                                                                                         ",
"                                                                                                                                                                                                                                         ",
"                                                                                                                                                                                                                                         ",
"                                                                                                                                                                                                                                         ",
"                                                                                                                                                                                                                                         ",
"                                                        xxxxxxxxxxxxxxxxxxxxxxxxxxxxxxxxxxxxxxxxxxxxxxxxxxxxxxxxxxxxxxxxxxxxxxxxxxxxxxxxxxxxxxxxxxxxxxxxxxxxxxxxxxxxxxxxxxxx                                                             ",
"                                                        xxxxxxxxxxxxxxxxxxxxxxxxxxxxxxxxxxxxxxxxxxxxxxxxxxxxxxxxxxxxxxxxxxxxxxxxxxxxxxxxxxxxxxxxxxxxxxxxxxxxxxxxxxxxxxxxxxxx                                                             ",
"                                                        xxxxxxxxxxxxxxxxxxxxxxxxxxxxxxxxxxxxxxxxxxxxxxxxxxxxxxxxxxxxxxxxxxxxxxxxxxxxxxxxxxxxxxxxxxxxxxxxxxxxxxxxxxxxxxxxxxxx                                                             ",
"                                                        xxxxxxxxxxxxxxxxxxxxxxxxxxxxxxxxxxxxxxxxxxxxxxxxxxxxxxxxxxxxxxxxxxxxxxxxxxxxxxxxxxxxxxxxxxxxxxxxxxxxxxxxxxxxxxxxxxxx                                                             ",
"                                                        xxxxxxxxxxxxxxxxxxxxxxxxxxxxxxxxxxxxxxxxxxxxxxxxxxxxxxxxxxxxxxxxxxxxxxxxxxxxxxxxxxxxxxxxxxxxxxxxxxxxxxxxxxxxxxxxxxxx                                                             ",
"                                                        xxxxx                                                                                                          xxxxx                                                             ",
"                                                        xxxxx                                                                                                          xxxxx                                                             ",
"                                                        xxxxx                                                                                                          xxxxx                                                             ",
"                                                        xxxxx                                                                                                          xxxxx                                                             ",
"                                                        xxxxx                                                                                                          xxxxx                                                             ",
"                                                        xxxxx                                                                                                          xxxxx                                                             ",
"                                                        xxxxx                        0xxxxxx:dxxx=gx*                                                                  xxxxx                                                             ",
"                                                        xxxxx                        0xxxxxx:dxx-0xx*4xxxklx* 9xxxx-4xxxxxx-       4xxxxxxxxxxx-                       xxxxx                                                             ",
"                                                        xxxxx                        0xxxxxx:dxtaxxk%4xx-4xxt5xxxxx-5zxxxxx,       9xxxxxxxxxxxxt.                     xxxxx                                                             ",
"                                                        xxxxx                        0xxxklx:dx=gxxx*4xx-0xxx-9xxxx-9xxxxxx,       <zxxxxxxxxxxxx*                     xxxxx                                                             ",
"                                                        xxxxx                        <zxxxxx*9:dxxxt.4xxxxxxylxxxxx-9xxxxxx,       4xxxxxxxxxxxxxt.                    xxxxx                                                             ",
"                                                        xxxxx                        @gxxxxi+ 9xxxx, odxklxx-@gxx-0-@gxxxxk%       odipxxx*4xxxxxt.                    xxxxx                                                             ",
"                                                        xxxxx                        @gxxxxk%9xxxxx,  0xxxxi+ <>odi+odxxxxt.       odxxxxx*@gxxxxi+                    xxxxx                                                             ",
"                                                        xxxxx                        @gxxxx-9jzxxxx, odxxi+O        @gxxxxi+       odxxxxk%<zxxxxi+                    xxxxx                                                             ",
"                                                        xxxxx                        @gxxxi$gxxxxxx,  0xuftw2zx,     0xxxxi+       odxxxxx*@gxxxxt.                    xxxxx                                                             ",
"                                                        xxxxx                        @gxxxk6zxxxxxx,  7axxxisxxt.    0xxxxi+        0xxxxx-0xxxxxi+                    xxxxx                                                             ",
"                                                        xxxxx                        @gxxxx:dxxxxxx*  0xxx,4xxx*    odxxxxi+<zxxxi+ 0xxxxxxxxxxxxt.                    xxxxx                                                             ",
"                                                        xxxxx                        @gxxxx, 9xxxxx, odxxxxt.       odxxxxk%<zxxxt. 0xxxxxxxxxxxx-                     xxxxx                                                             ",
"                                                        xxxxx                        @gxxxx* 9xxxxx,  0xxxxk%  9xxx-  0xxxi+4xxxxt. 0xxxxxxxxxxxt.                     xxxxx                                                             ",
"                                                        xxxxx                        @gxxx,3%9xxxxx-  0xxxxi+odxxxx-    <zi+<zxxxt. 0xxx-9xxhxx-                       xxxxx                                                             ",
"                                                        xxxxx                        @gxxx,4*9xxxxx, odxxxxk%#8xxxx* 4xxxxt.9xxxxi+ 0xxxxx*                            xxxxx                                                             ",
"                                                        xxxxx                        9xxxxt1&0xxxxxx*<zxxxxxx-@gxxx* 0xxxxxxxxxxxi+9xxxxxxi+                           xxxxx                                                             ",
"                                                        xxxxx                        0xxxk%oX0xxxxxx*<zxxxxxxxexxxx*4xxxxxxxxxxxxt.9xxxxxxi+                           xxxxx                                                             ",
"                                                        xxxxx                        9xxx*  odxxxxxx*@gxxxxx, 9xxxx*4xxxxxxxxxxxxi+9xxxxxxi+                           xxxxx                                                             ",
"                                                        xxxxx                        0xxi+o; 0xxxxxx*@gxxxur+0qzxxx*9xxxxxxxxxxxxt.9xxxxxxi+                           xxxxx                                                             ",
"                                                        xxxxx                                                                                                          xxxxx                                                             ",
"                                                        xxxxx                                                                                                          xxxxx                                                             ",
"                                                        xxxxx                                                                                                          xxxxx                                                             ",
"                                                        xxxxx                                                                                                          xxxxx                                                             ",
"                                                        xxxxx                                                                                                          xxxxx                                                             ",
"                                                        xxxxx                                                                                                          xxxxx                                                             ",
"                                                        xxxxx                                                                                                          xxxxx                                                             ",
"                                                        xxxxxxxxxxxxxxxxxxxxxxxxxxxxxxxxxxxxxxxxxxxxxxxxxxxxxxxxxxxxxxxxxxxxxxxxxxxxxxxxxxxxxxxxxxxxxxxxxxxxxxxxxxxxxxxxxxxx                                                             ",
"                                                        xxxxxxxxxxxxxxxxxxxxxxxxxxxxxxxxxxxxxxxxxxxxxxxxxxxxxxxxxxxxxxxxxxxxxxxxxxxxxxxxxxxxxxxxxxxxxxxxxxxxxxxxxxxxxxxxxxxx                                                             ",
"                                                        xxxxxxxxxxxxxxxxxxxxxxxxxxxxxxxxxxxxxxxxxxxxxxxxxxxxxxxxxxxxxxxxxxxxxxxxxxxxxxxxxxxxxxxxxxxxxxxxxxxxxxxxxxxxxxxxxxxx                                                             ",
"                                                        xxxxxxxxxxxxxxxxxxxxxxxxxxxxxxxxxxxxxxxxxxxxxxxxxxxxxxxxxxxxxxxxxxxxxxxxxxxxxxxxxxxxxxxxxxxxxxxxxxxxxxxxxxxxxxxxxxxx                                                             ",
"                                                        xxxxxxxxxxxxxxxxxxxxxxxxxxxxxxxxxxxxxxxxxxxxxxxxxxxxxxxxxxxxxxxxxxxxxxxxxxxxxxxxxxxxxxxxxxxxxxxxxxxxxxxxxxxxxxxxxxxx                                                             ",
"                                                                                                                                                                                                                                         ",
"                                                                                                                                                                                                                                         ",
"                                                                                                                                                                                                                                         ",
"                                                                                                                                                                                                                                         ",
"                                                                                                                                                                                                                                         ",
"                                                                                                                                                                                                                                         ",
"                                                                                                                                                                                                                                         ",
"                                                                                                                                                                                                                                         ",
"                                                                                                                                                                                                                                         ",
"                                                                                                                                                                                                                                         ",
"                                                                                                                                                                                                                                         "
};
