/* XPM */
static char *no[] = {
/* columns rows colors chars-per-pixel */
"66 25 114 2",
"   c #2C2C2C",
".  c #3D3D3C",
"X  c #403E3F",
"o  c #3E403F",
"O  c #42413E",
"+  c #3E3E41",
"@  c #3E4241",
"#  c #424242",
"$  c #6D6E6C",
"%  c #716F6C",
"&  c #74736D",
"*  c #79746C",
"=  c #7C786F",
"-  c #6F6F71",
";  c #6D7474",
":  c #6E7579",
">  c #6F787E",
",  c #767675",
"<  c #797673",
"1  c #757976",
"2  c #7B7974",
"3  c #747679",
"4  c #797779",
"5  c #75797B",
"6  c #7A7A7A",
"7  c #807C78",
"8  c #7A807E",
"9  c #838077",
"0  c #82817D",
"q  c #747C82",
"w  c #7C8082",
"e  c #848381",
"r  c #8A8682",
"t  c #8A8A84",
"y  c #87888A",
"u  c #8D8C8D",
"i  c #928E8B",
"p  c #9C988F",
"a  c #858D90",
"s  c #8C8D91",
"d  c #949494",
"f  c #9D9A93",
"g  c #959698",
"h  c #999798",
"j  c #919A9F",
"k  c #9A9B9B",
"l  c #A29C92",
"z  c #A29D9A",
"x  c #A7A29E",
"c  c #B0A79E",
"v  c #9A9FA2",
"b  c #9AA1A7",
"n  c #97A2A8",
"m  c #AFADAA",
"M  c #B3ADA1",
"N  c #B1ADA9",
"B  c #B4B2AC",
"V  c #AEB2B5",
"C  c #A7B3BA",
"Z  c #AAB6BD",
"A  c #B5B5B5",
"S  c #BBB6B3",
"D  c #B3B9B9",
"F  c #BBBBBB",
"G  c #C3BCB2",
"H  c #C2BFBA",
"J  c #C4C3BB",
"K  c #C9C5BC",
"L  c #D1C8BF",
"P  c #B2BDC3",
"I  c #BEC5CB",
"U  c #C3C5C4",
"Y  c #CCC7C4",
"T  c #CDCBC4",
"R  c #C4C9C9",
"E  c #C9C9CA",
"W  c #D2CBC1",
"Q  c #DBD4CA",
"!  c #DFD9CD",
"~  c #C3CAD0",
"^  c #C8CDD0",
"/  c #CFD0D2",
"(  c #D2D3D5",
")  c #DAD5D2",
"_  c #DCDBD2",
"`  c #DDDCDA",
"'  c #E3DCD3",
"]  c #E3DEDA",
"[  c #E8E1D7",
"{  c #E3E0DE",
"}  c #D5DCE1",
"|  c #DDE1E5",
" . c #E1E2E2",
".. c #EEEAE3",
"X. c #E5EAED",
"o. c #ECECEA",
"O. c #F3EEE3",
"+. c #F3EFEC",
"@. c #F7F4ED",
"#. c #FBF4EE",
"$. c #F7F9EE",
"%. c #FEF9EE",
"&. c #E9EEF1",
"*. c #EBF2F4",
"=. c #EDF4F9",
"-. c #EFFAFF",
";. c #F3F4F4",
":. c #FCF6F2",
">. c #F6F8F7",
",. c #FDFCF4",
"<. c #F7F7F9",
"1. c #F9F7F8",
"2. c #F5FCFE",
"3. c #FDFEFD",
/* pixels */
", A , 6 $ 6 , , , , , , , 4 , 3 4 , , 4 , & 4 3 3 5 4 , < , , , * < 3 3 3 4 , & < < 3 , , - 8 & & , , , , , , , 1 , , , , 4 , , # 6 ",
", F , , , , 4 4 , , , , , , , , , , 1 < , 4 ; , 5 5 - 4 , & 4 < * < q - 5 3 2 & 4 - 5 , 4 7 $ 2 < 1 3 , , 4 4 , , , , , , , 1 , # , ",
"4 F , , 6 , , , , , , , , , , , , 4 $ & 2 , 1 4 3 3 3 4 , 4 % < < 4 3 q 1 ; & & < , 5 , , 4 , , , , < 3 , , 4 , , , , 4 4 , , 4 # 6 ",
", A , , , 6 - 4 , , , , , , , , 6 1 6 , , , , 6 4 5 - , 4 2 , 7 < < 3 : ; < 6 2 < 4 - , 7 & , & , , , 1 , , , , , 4 , , , , , , # , ",
"6 F 4 , ; 4 , , , , , 1 , , , 4 , , ; 6 1 , , % 4 5 3 , 4 , < * , , : > 5 1 & < 4 4 , 4 2 & = & , , , 1 , , , , 1 , , , , , 4 , # , ",
", A , , , , 6 , 4 , , 4 , 4 , 4 , 1 1 4 ; , 6 , - , 4 6 , < & * < 6 q ; v 3.,.3.3.3.3.3.t & = * < , , , 4 , , 4 , , , , , , , , # , ",
", F 4 , 6 , , & 1 4 , 4 , , , , 1 , 4 R 3.3.3.3.3.h s 1.1.3.,.3.N 4 5 ~ 2.3.,.3. .1.3.3.T x * = < 1 1 , , , , 1 4 , 3 1 , , , 1 # 6 ",
", A , , 1 4 , 6 , , 1 , 3 , , , 3 4 3 D 2.3.3.3.1.E y 1.3.3.,.:.N - n 2.3.3.,.,.3.1.3.3.B @.p % < 3 1 , , , , , , , 4 4 , , 4 , # 6 ",
"4 F , , , , 1 4 , , , , , , , 4 , , 3 C w w *.3.3.X.g 3.3.3.%.,.m 6 I 3.3.2.3.3.3.3.3.1.p ..K 7 , , , 4 , 4 , , , , 1 , , 4 , , # , ",
", F , 4 , , , , , , , 4 , 4 , , 4 6 : =.2.3.U ` ,.3.k 2.>.3.,.%.e 6 } 2.3.3.:.+.0 { 3.o.7 B ' * < , , , , , , , , 4 4 , , , , , # , ",
", F , 4 , , , , , , , , , , , , 3 : ; j 2.3.3.3.3.1.V E 3.,.%.O., w | 2.3.3.3.] , ` 3.3.p %.Q 7 < 3 , , 1 , , 4 , , 4 , , , , 4 # 6 ",
", D , , , , , , , , , , , , 1 3 : : > P 2.2.3.3.' ;.;. .3.3.%.O.0 3 } 2.3.3.3.' e ;. .r @.%.L * , 1 , 4 , , , , , , 4 1 4 , , , # , ",
", A , , , , , , , 4 1 , , , , , 4 : w C -.3.3.3.3.3.3.3.2.,.,.! & 5 =.2.3.2.z z , d <.3.,.,.G * = 1 , 1 , 4 1 4 , , 4 , , , , 4 # , ",
", F , 6 , 1 , , , , , , , 4 1 4 , ; q P -.3.>.,.3.3.<.3.3.3.,.' 2 8 =.I A 3.3.] , h 3.3.,.%.L 7 , , , , 4 , , , , , 1 , , 1 , , # 6 ",
", F , , , 3 , , 4 , 4 , , 4 , , 4 5 q Z 2.2.3.3.3.3.3.X.3.,.,.M & , =.I 2.3.3.Y u J } 3.,.%.c * < , , , , , 1 , , 4 1 , , , , , # , ",
", F 6 , 4 , 4 , 4 1 , , , , , , 3 : > Z -.2.3.3.H 3.3.3.3.3.%.[ 2 w y =.3.3.3.N u 1.F 3.3.%.l = < 4 1 4 1 4 , 4 , , 3 4 , , 4 , # , ",
", A , , , , , , 3 1 , , , , & < 1 : 8 j -.2.3.,.,.,.3.3.3.3.,...6 4 ^ 3.2.3.3.z z 3.S +.,.%.x & , , , , , , , , , , , , , , 4 , # , ",
"< F , 6 , , 3 , , , , , 1 & , 1 1 : : C -.-.3.$.K ,.+.( <.3.3.) 1 s =.2.3.3.1.q A 2.+.S ,.%.p & < 1 1 1 , , , , , , , , , , , , # , ",
"4 H - 4 , , , 3 , , 4 1 , , , 3 1 ; ; I 2.2.,._ t $.3.3.3.3.,...7 q *.2.3.2.3.3.3.3.3.N :.,.9 2 , , , , , , , , , , , , 1 , , 4 # , ",
", F , , , 6 ; 4 , , , , , & & < 1 8 ; *.2.2.3.,.J T 3.E u >.,.] 4 6 R 3.3.3.3.3.2.3.1.z ] ' * 6 & , , , , , , , , 4 , , 4 , , 4 # , ",
"4 F 1 , , 4 , , 4 , , , 3 < < , 1 , q *.3.2.3.,.T = & h ^ 4 H * % 4 q *.3.3.3.3.3.3.] i #.r & & , , , 1 4 , , , 4 4 , , 1 , , , + , ",
", F , , , , , , 6 6 , , < < < , 1 1 5 &.3.3.3.,.K 2 6 2.3.3.3.] 6 6 $ 8 } <.3.2.3.3.o.i 2 * 7 & , 4 4 1 , , , , 3 4 , , , , , , # 4 ",
", F , , , , , , , , 1 , 1 1 , , 1 , 3 3 , $ 1 2 < % 3 , , 6 , % , 6 6 ; , , , , 6 $ , < 2 2 % 1 , , , , , 1 4 4 , , , , , 4 4 , # 6 ",
"1 A 6 ; 4 4 , , , , , 1 1 & , , , , 4 3 5 1 2 * < 6 4 3 5 4 , 6 1 & 4 1 4 4 3 4 , 1 2 < & , 2 2 4 , , 4 4 , , , < 3 4 , , , , , # 6 ",
"4 . # # # # # X # # # O @ # X # # O # + # # O O O X # # + # # . # O O # # X # X # o O . O O O # o @ # o # @ # @ o o # o # # . #   6 "
};
