/* XPM */
static char *Power[] = {
/* columns rows colors chars-per-pixel */
"110 37 63 1",
"  c #000000",
". c #000008",
"X c #000608",
"o c #00000E",
"O c #00060E",
"+ c #000B0E",
"@ c #000614",
"# c #000B19",
"$ c #350000",
"% c #350008",
"& c #350608",
"* c #35000E",
"= c #35060E",
"- c #350B0E",
"; c #35101F",
": c #5F0000",
"> c #5F0600",
", c #5F0008",
"< c #5F000E",
"1 c #5F0B08",
"2 c #5F1414",
"3 c #5F1019",
"4 c #5F1419",
"5 c #5F101F",
"6 c #5F141F",
"7 c #5F1424",
"8 c #850600",
"9 c #850608",
"0 c #85060E",
"q c #850B08",
"w c #85100E",
"e c #851014",
"r c #851819",
"t c #85181F",
"y c #A90B00",
"u c #A91008",
"i c #A9100E",
"p c #A91014",
"a c #A91414",
"s c #A91419",
"d c #A9141F",
"f c #A91819",
"g c #A91C19",
"h c #A9181F",
"j c #A91C1F",
"k c #851824",
"l c #A91424",
"z c #A91824",
"x c #A91C24",
"c c #CC1008",
"v c #CC100E",
"b c #CC1814",
"n c #CC181F",
"m c #CC1C1F",
"M c #ED140E",
"N c #ED1814",
"B c #ED1819",
"V c #ED1C19",
"C c #ED181F",
"Z c #ED1C1F",
"A c #CC1824",
"S c #CC1C24",
"D c #ED1C24",
/* pixels */
"                                                                                                              ",
"                                                                                                              ",
"                                                                                                              ",
"                                                                                                              ",
"                                                                                                              ",
"                                                                                                              ",
"                                                                                                              ",
"                                                                                                              ",
"                                                                                                              ",
"                                                                                                              ",
"                                                                                                              ",
"                   oj0xN%kM         @SDDZ8    @SDDc 7DDDDy.kDDDc@SDDDDDDDDDDc #DDDDDDDDN$                     ",
"                   @SDDDDDDDDN$   oxDc  .kV:  ;DDDc oxDDDc;DDDDM#DBzDDDDDDDDM  ;DDDcosjADc                    ",
"                   oxDDDc .kDDDc .kDM    ;DV:  oxDN$ oxDM  @SV:  .kDDN$   ;DV: oxDV: X5DDV:                   ",
"                    .kDZ8  @SDDN$;DZ8    oxDM  oxDM  +lDM  @Sc   ofzDM          7DN$  #DDny                   ",
"                     ;DZ8  .kDDV<xDV:    .kDZ8  7DN$ otvw  @m8   ofzDc          7DV:  #DDDc                   ",
"                     ;DZ8  oxDV:;DDM     .kDDc  #DZ8 oxZs8 ;N$   ohSDc  ;y     .tAZ8  ;DDN$                   ",
"                     ;vkc @SDM  7DDM     .kDDM  oxDy #nDiq 7c    ofzDDDDZ8      7DDy#DDDM                     ",
"                     7DDnDDDc   ;DDM      7DDM   7DN*g<xDco28    ohSDM  7y      ;DV9 @Sy                      ",
"                     7DV9       7DDM      7DDc   ;DDDN$;DDDN$    oakDy   &      7DCeSDDDc                     ",
"                     7DZ84:     @SDV:    .kDDy   @SDDc @SDDc     oakZ8          4lV:@SDDV:                    ",
"                     7CSc-$     .kDZ8    .kDM    .knZ8 .kDZ8     oar,1     .ky .3SV: ;DDDy                    ",
"                    .kDnc-$      .kDc    oxDu$    7DN$  ;DN$     oxDDM    OzDc  6AV: .kDDN$                   ",
"                    #ZdDDM        .&t8   7Dc      @Sc   #Dc      ofzDZ8  7DDB> .=xDc  oxDDy                   ",
"                   oxDDpSDc       .r<xDDDV:        68   oj8     oxDDDDDDDDDCb$@SDDDDc  #DDDZ8                 ",
"                                                                                                              ",
"                                                                                                              ",
"                                                                                                              ",
"                                                                                                              ",
"                                                                                                              ",
"                                                                                                              ",
"                                                                                                              ",
"                                                                                                              ",
"                                                                                                              ",
"                                                                                                              ",
"                                                                                                              ",
"                                                                                                              "
};
