/* XPM */
static char *Selected[] = {
/* columns rows colors chars-per-pixel */
"51 51 106 2",
"   c #010101",
".  c #0A0500",
"X  c #040900",
"o  c #0B0900",
"O  c #020209",
"+  c #080609",
"@  c #040A0A",
"#  c #100500",
"$  c #110900",
"%  c #0F1000",
"&  c #7CAA14",
"*  c #8FA700",
"=  c #8DAC04",
"-  c #8CA70A",
";  c #85AB0D",
":  c #8CAC0C",
">  c #92A601",
",  c #93AB01",
"<  c #9AAB00",
"1  c #92AB0A",
"2  c #93B005",
"3  c #86A713",
"4  c #8AA711",
"5  c #85AD14",
"6  c #8AAC14",
"7  c #86AD19",
"8  c #8AAC19",
"9  c #92AC13",
"0  c #90AE18",
"q  c #84B015",
"w  c #8BB013",
"e  c #83B218",
"r  c #8CB01A",
"t  c #91B014",
"y  c #B4AD0C",
"u  c #B6B500",
"i  c #BDB500",
"p  c #BEB901",
"a  c #B7B40C",
"s  c #BBB40B",
"d  c #B6AF16",
"f  c #BBAF15",
"g  c #B6B315",
"h  c #BCB314",
"j  c #B9B816",
"k  c #B4B31D",
"l  c #BBB41C",
"z  c #B4AD24",
"x  c #BEAF22",
"c  c #B6AE2C",
"v  c #B6B224",
"b  c #B9B223",
"n  c #B5B32C",
"m  c #BAB22A",
"M  c #AEAC37",
"N  c #B5AD35",
"B  c #B8AE33",
"V  c #B4AE3C",
"C  c #B4B235",
"Z  c #B3B13C",
"A  c #C0AF07",
"S  c #C2B501",
"D  c #C2B900",
"F  c #C2B409",
"G  c #C0B80D",
"H  c #C1B314",
"J  c #C0B118",
"K  c #DDDC04",
"L  c #D7DB0B",
"P  c #DDDD0C",
"I  c #CEDF1D",
"U  c #DCDD14",
"Y  c #D4DE1A",
"T  c #DBDE1A",
"R  c #E1DF06",
"E  c #E2D60E",
"W  c #E2DE0B",
"Q  c #E0D716",
"!  c #E3DD13",
"~  c #E4DB19",
"^  c #DCE106",
"/  c #DDE10D",
"(  c #D6E214",
")  c #DBE114",
"_  c #D4E21C",
"`  c #DAE21A",
"'  c #E0E006",
"]  c #E4E00F",
"[  c #E3E213",
"{  c #E8E212",
"}  c #E2E319",
"|  c #C8DE26",
" . c #D3DE23",
".. c #D4E122",
"X. c #DBE725",
"o. c #DAE823",
"O. c #AEAD43",
"+. c #ADAC4B",
"@. c #B4AD43",
"#. c #B1AB4B",
"$. c #AEB14A",
"%. c #B5B142",
"&. c #BAB244",
"*. c #B6B24F",
"=. c #AAAD56",
"-. c #B3AC52",
/* pixels */
"                            O O                         .                                             ",
"                                                  X     .                                             ",
"                                                      .     O     O O                     O           ",
"                                      O             O   +   O O   O                   O O             ",
"                              O     O             O O       X                 O                       ",
"O         O           O   .     O             X     . .                     O                         ",
"                                  O             o #.O.# X                 O O                         ",
"                                              . V b l n -.o X             +   O                       ",
"            X                             . . #.x F S s l C . .         O   O               O         ",
"O +                 O             O . .   . . V H S Q p i j V . o     X O   O @               O       ",
"                                    .     X X %.H S ! ! } i h v Z o     O                   O         ",
"                                            X Z J i E K ^ P D s g V # .                               ",
"      O       +   O       O                 o %.g D { ^ ^ ' ! S s l B . .               O O           ",
"        X X X X . . . . . . . X X X . X . . o n s i ^ / ( ` P ~ i u h n . . .                         ",
"X . . . O.C v v z z b m B B c v m z z m z x l s S S P ` > > ..P } ! S G z &.$ .                       ",
"  . . -.b i p p S D S i i S i p i S S S S S S S S i ] Y 1 9 , ..U [ E i S d #.o X           .         ",
"  . # V h ~ W W W W ^ K ! P ] W W W W W K ' W W R R ^ _ , 4 w , ..L [ ! i D f N o X                   ",
"    # V F ! W R W / / / / / / / / / / / / / U ) K K ( _ , 8 8 w * o.T U ! ! i G z *.X X .             ",
"    . V s ! ' [ `  . ....._ ..Y ..Y ............o._ _ | 1 6 5 ; = 2 < | ) K ] S A l N #               ",
"    X V s ! K / < , < > < < < , < , , , , , = = , * 2 2 1 4 0 6 8 ; - < ..` L [ S S J B . X X         ",
"    o Z s ] ' ` < 4 6 6 6 : : : : : 4 : 6 : 6 : : : : : 8 8 8 3 7 8 8 : , | X.U U S i h N $ X         ",
"    . Z s ! ' ` 1 7 8 6 8 e q 5 7 8 8 8 7 8 8 8 5 5 5 6 8 8 8 8 7 8 8 5 w = , ..T U ! i h c +.o . .   ",
"    o N s W R ) = 5 q 5 5 5 q 5 5 7 7 7 8 8 6 8 5 8 5 e 5 6 3 6 8 8 4 r ; w 1 2 Y ` W U i s l C o X   ",
"    o N s ! R ` = q 5 6 6 6 5 w 5 7 7 6 8 6 6 6 8 5 5 5 5 5 6 6 6 6 r q ; ; 5 1 < Y U ] U p i l +.o   ",
"    o N s ! R ! = 7 6 6 8 0 6 6 q q 5 5 6 : 6 6 q r 5 7 5 5 5 8 0 4 6 q ; w 6 - < < ` W ! ~ i l $.X . ",
"    . N s W W T , 8 6 8 8 4 6 6 6 ; ; 5 : 6 q 6 5 5 7 7 q 8 8 ; 6 6 6 q q ; 6 1 <  .L [ Q i S k =.    ",
"    o Z s ! R ) = 5 7 6 6 6 ; ; w : 6 : 5 6 8 3 8 r 3 8 8 8 4 t 5 4 7 r q ; : , Y U [ U i s h V X     ",
"    o Z a ) ^ ` , 5 6 5 4 5 q 6 6 5 8 8 6 5 7 8 3 3 r 3 8 8 8 6 5 5 8 3 : = , _ ` K P i h b Z o     O ",
"    . Z a ) ) ` , 4 6 8 8 8 8 8 8 8 8 8 6 5 7 5 w ; ; 6 3 7 7 7 q q 5 t <  .` P ! i D h @.. .         ",
"  X . V s ) ) ` > < , , , 1 - 1 1 1 1 1 = , : 1 = 2 2 ; 7 r & & q 5 : * I } R ! D s h N .   X         ",
"    $ N s ! W ^ ) ) ` ( ` Y ` Y Y ` Y U ( ( _ _ ( ` Y < 9 3 r e 7 - < _ U E ! i u g O.o .           X ",
"    . V s ~ ! W ] ! K W ! W W ! W [ K K ^ W ! W ] L } ..> 8 5 5 1 < _ ) P ~ i j v %.o     O           ",
"+ . . &.h i i D i i S p S S i S D u i D S S S S S S U ..: w ; 2 _ U U ~ D i h N .         O           ",
"O   . +.v d h s h h g g h h H g g j s y J f s S S i ) _ = = , I / W U i S h N o .                     ",
"      . -.&.&.V @.@.V V V Z V V V @.&.&.@.V b s i i [ ) < < ( / K ! D s a Z . .                       ",
"  X     . . . # . o o o . . . . . . # . . . $ k s i W / ` ` P R p i g z %.$   O                       ",
"        O . .   X         O X     . . .   X X C l S W K [ ! E S D g @.# .                             ",
"X         + .                       O     X X Z f S E W W ! S F h B . .     @                         ",
"  X   O   . +                     X       X o V l S ! W Q p h c -.# . .   X                           ",
"      O O               O         X           @.f S Q D i g V o . .         X   O                     ",
"  O   O O                 O               . . -.l i D u j M o O                   O                   ",
"O   O                       O       .       . # N k j v M o .                                         ",
"                                    O O O   . . . -.@.+.o                         O       O           ",
"                                X     O O       . . . . . .                 .           O             ",
"          O                       X   O   O X       .   .     O               O                       ",
"        O O                             +       O     . X                                             ",
"                    O O             O               O .                                               ",
"                    O                   .         O                                                   ",
"                                                                                                      ",
"                                                                                                      ",
"                                                                                                      "
};
