/* XPM */
static char *Sound[] = {
/* columns rows colors chars-per-pixel */
"233 63 66 1",
"  c #000000",
". c #3A0000",
"X c #00003A",
"o c #3A003A",
"O c #3A3A3A",
"+ c #660000",
"@ c #66003A",
"# c #666600",
"$ c #000066",
"% c #3A0066",
"& c #003A66",
"* c #660066",
"= c #663A66",
"- c #903A00",
"; c #903A3A",
": c #B66600",
"> c #B6663A",
", c #903A66",
"< c #906666",
"1 c #B66666",
"2 c #90903A",
"3 c #DB903A",
"4 c #909066",
"5 c #B69066",
"6 c #DB9066",
"7 c #DBB666",
"8 c #FFB666",
"9 c #003A90",
"0 c #3A3A90",
"q c #663A90",
"w c #006690",
"e c #0066B6",
"r c #3A66B6",
"t c #666690",
"y c #6666B6",
"u c #906690",
"i c #3A90B6",
"p c #669090",
"a c #3A90DB",
"s c #6690DB",
"d c #66B6DB",
"f c #66B6FF",
"g c #B69090",
"h c #B6B690",
"j c #B6B6B6",
"k c #DB9090",
"l c #FFB690",
"z c #FFDB90",
"x c #DBFFB6",
"c c #FFFFB6",
"v c #9090DB",
"b c #B6B6DB",
"n c #90B6FF",
"m c #B6B6FF",
"M c #90DBDB",
"N c #B6DBDB",
"B c #B6FFDB",
"V c #90DBFF",
"C c #B6DBFF",
"Z c #B6FFFF",
"A c #DBDBDB",
"S c #FFDBDB",
"D c #FFFFDB",
"F c #DBDBFF",
"G c #DBFFFF",
"H c #FFFFFF",
/* pixels */
"                                                                                                                                                                                                                                         ",
"                                                                                                                                                                                                                                         ",
"                                                                                                                                                                                                                                         ",
"                                                                                                                                                                                                                                         ",
"                                                                                                                                                                                                                                         ",
"                                                                                                                                                                                                                                         ",
"                                                                                                                                                                                                                                         ",
"                                                                                                                                                                                                                                         ",
"                                                                                                                                                                                                                                         ",
"                                                                                                                                                                                                                                         ",
"                                                                   HHHHHHHHHHHHHHHHHHHHHHHHHHHHHHHHHHHHHHHHHHHHHHHHHHHHHHHHHHHHHHHHHHHHHHHHHHHHHHHHHHHHHHHHHHHHHHHHHHHHHHH                                                               ",
"                                                                   HHHHHHHHHHHHHHHHHHHHHHHHHHHHHHHHHHHHHHHHHHHHHHHHHHHHHHHHHHHHHHHHHHHHHHHHHHHHHHHHHHHHHHHHHHHHHHHHHHHHHHH                                                               ",
"                                                                   HHHHHHHHHHHHHHHHHHHHHHHHHHHHHHHHHHHHHHHHHHHHHHHHHHHHHHHHHHHHHHHHHHHHHHHHHHHHHHHHHHHHHHHHHHHHHHHHHHHHHHH                                                               ",
"                                                                   HHHHHHHHHHHHHHHHHHHHHHHHHHHHHHHHHHHHHHHHHHHHHHHHHHHHHHHHHHHHHHHHHHHHHHHHHHHHHHHHHHHHHHHHHHHHHHHHHHHHHHH                                                               ",
"                                                                   HHHHHHHHHHHHHHHHHHHHHHHHHHHHHHHHHHHHHHHHHHHHHHHHHHHHHHHHHHHHHHHHHHHHHHHHHHHHHHHHHHHHHHHHHHHHHHHHHHHHHHH                                                               ",
"                                                                   HHHHH                                                                                             HHHHH                                                               ",
"                                                                   HHHHH                                                                                             HHHHH                                                               ",
"                                                                   HHHHH                                                                                             HHHHH                                                               ",
"                                                                   HHHHH                                                                                             HHHHH                                                               ",
"                                                                   HHHHH                                                                                             HHHHH                                                               ",
"                                                                   HHHHH                                                                                             HHHHH                                                               ",
"                                                                   HHHHH                                                                                             HHHHH                                                               ",
"                                                                   HHHHH           $ZHHHHH:       9GHHHHHH8                                                          HHHHH                                                               ",
"                                                                   HHHHH         $ZHHHHHHHHHc+   aHHHHkZHHH3d-aHHHHHH3 fHHHHHzodHHHHHz.eHHHHHzuVHHHHHHHD,Zz.         HHHHH                                                               ",
"                                                                   HHHHH        $ZHHHHHHHHHHHc+ 9GHHHHHHHHHgGzsHHHHHD-XdHHHHHzOsHHHHHD-eHHHHHcqGHHHHHHHHzrHc+        HHHHH                                                               ",
"                                                                   HHHHH        aHHHHHHHHHHHHc+ fHHHHHHHHHD-acmHHHHHH3$29GHHHz%B- fHHH3eHHHHHcvHHHHHHHHHH>VH8        HHHHH                                                               ",
"                                                                   HHHHH        fHHHHHHHHHHHHD-XVHHHHHzrHHc+eDFHHHHHH8 i<CHHH8$ZHHcyHHzrHHHHHznHHHHHHHHHD-fHz.       HHHHH                                                               ",
"                                                                   HHHHH        fHHHHHzoVHHHHc+XVHHHHH:9GHc@Vc*ZHHHHH: X49GHH7.aHHHHHHD;VHHHH:$ZHHHHH:eH8 fHc+       HHHHH                                                               ",
"                                                                   HHHHH        fHHHHHz.fHHHHz.$ZHHHHH:9GH8fHc*ZHHHHH: eDhmHD- eHHHHHHH3fHHHH:$ZHHHHH:$Zc*ZHz.       HHHHH                                                               ",
"                                                                   HHHHH        eHHHHHHHHH3    $ZHHHHD-&=ZHHHc+eHHHHz. eHHHHD- aHHHHHHHHHHHHH:$ZHHHHD-9G8 aHc+       HHHHH                                                               ",
"                                                                   HHHHH        eHHHHHHHHHHH8  9GHHHHD- aHHHHzoVHDFHH: aHHHHD- aHHHHHHHHHHHHD-XVHHHHz.$Zz.aH3        HHHHH                                                               ",
"                                                                   HHHHH        XVHHHHHHHHHHH8 9G6VHHc+ 9GHHHzoVHH3XM-  aHHHD- eHHHHHHHHHHHHD-XVHHHHD-9GD;VHc+       HHHHH                                                               ",
"                                                                   HHHHH          fjHHHHHHHHHD-9GAHHHz.a:fHHH8XV8 w-   9GHHHH: aHHHHHHHAHHHHc+XVHHHHz.$ZH1ZHc+       HHHHH                                                               ",
"                                                                   HHHHH            XVHHHHHHHH39NHHHHz.az0GHH8$ZD-XM-  aHHHHD- aHHH3fHHHHHHHD-XVHHHHD-$ZH:fHc+       HHHHH                                                               ",
"                                                                   HHHHH        eH8aHH89GHHHHH8XVHHHH8 aD,ZHH8$ZHz.    aHHHHz. eHHHHHHHHHHHHH:XVHHHHH:9GH8aHc+       HHHHH                                                               ",
"                                                                   HHHHH        &CHHHHz.aHHHHH3eHHHHH3XVH3eHH3$ZHHz.   w,ZHHD- aHHHHSGHHHHHHD-$ZHHHHc+$ZHH1Zc+       HHHHH                                                               ",
"                                                                   HHHHH        eHHHHHz.aHHHHc+9GHHHHHHHHc*ZH:$ZHHHHH: aHHHHD- eHHHH3fHHHHHHH:XVHHHHH:eHHHcqx+       HHHHH                                                               ",
"                                                                   HHHHH        eHH6VHHHHHHHHz.$ZHHHHHHHHH>VD- aHHHH8a>tZHHHc+XMFHHH3eHHHlVHD-eHHHHHHHHHHHH3         HHHHH                                                               ",
"                                                                   HHHHH        eHHHHHHHHHHHHk# aHHHHHHHHzoV3  $ZHHDbHD;tZHH3 9GHHHHD;VDF:9G: fHHHHHHHHHHHH8         HHHHH                                                               ",
"                                                                   HHHHH        eHHHHHHHHHHHc+  XVHHHHHHH8e3   eHHH6V:  $ZHc+ 9GHHHHD-   p.w5.aHHHHHHHHHHH3          HHHHH                                                               ",
"                                                                   HHHHH          $ZHHHHHHHD-     aHHHHHHz.      fHH3  f3ec+  $ZHHHHD- yZHHHD-0ZHHHHHHHHHH:          HHHHH                                                               ",
"                                                                   HHHHH                                                                                             HHHHH                                                               ",
"                                                                   HHHHH                                                                                             HHHHH                                                               ",
"                                                                   HHHHH                                                                                             HHHHH                                                               ",
"                                                                   HHHHH                                                                                             HHHHH                                                               ",
"                                                                   HHHHH                                                                                             HHHHH                                                               ",
"                                                                   HHHHH                                                                                             HHHHH                                                               ",
"                                                                   HHHHH                                                                                             HHHHH                                                               ",
"                                                                   HHHHHHHHHHHHHHHHHHHHHHHHHHHHHHHHHHHHHHHHHHHHHHHHHHHHHHHHHHHHHHHHHHHHHHHHHHHHHHHHHHHHHHHHHHHHHHHHHHHHHHH                                                               ",
"                                                                   HHHHHHHHHHHHHHHHHHHHHHHHHHHHHHHHHHHHHHHHHHHHHHHHHHHHHHHHHHHHHHHHHHHHHHHHHHHHHHHHHHHHHHHHHHHHHHHHHHHHHHH                                                               ",
"                                                                   HHHHHHHHHHHHHHHHHHHHHHHHHHHHHHHHHHHHHHHHHHHHHHHHHHHHHHHHHHHHHHHHHHHHHHHHHHHHHHHHHHHHHHHHHHHHHHHHHHHHHHH                                                               ",
"                                                                   HHHHHHHHHHHHHHHHHHHHHHHHHHHHHHHHHHHHHHHHHHHHHHHHHHHHHHHHHHHHHHHHHHHHHHHHHHHHHHHHHHHHHHHHHHHHHHHHHHHHHHH                                                               ",
"                                                                   HHHHHHHHHHHHHHHHHHHHHHHHHHHHHHHHHHHHHHHHHHHHHHHHHHHHHHHHHHHHHHHHHHHHHHHHHHHHHHHHHHHHHHHHHHHHHHHHHHHHHHH                                                               ",
"                                                                                                                                                                                                                                         ",
"                                                                                                                                                                                                                                         ",
"                                                                                                                                                                                                                                         ",
"                                                                                                                                                                                                                                         ",
"                                                                                                                                                                                                                                         ",
"                                                                                                                                                                                                                                         ",
"                                                                                                                                                                                                                                         ",
"                                                                                                                                                                                                                                         ",
"                                                                                                                                                                                                                                         ",
"                                                                                                                                                                                                                                         "
};
