/* XPM */
static char *Tank_[] = {
/* columns rows colors chars-per-pixel */
"39 15 178 2",
"   c #000000",
".  c #1C072E",
"X  c #1D0733",
"o  c #1C0A33",
"O  c #1D0B3D",
"+  c #1C0E3C",
"@  c #1C0F3F",
"#  c #1D0D40",
"$  c #1E0D43",
"%  c #1F0D43",
"&  c #1F0D44",
"*  c #1F1250",
"=  c #1F1252",
"-  c #1F1356",
";  c #1F1454",
":  c #1F1558",
">  c #1F1658",
",  c #20124E",
"<  c #201353",
"1  c #20165D",
"2  c #1F1961",
"3  c #221760",
"4  c #201861",
"5  c #2A1F61",
"6  c #211968",
"7  c #211969",
"8  c #21196B",
"9  c #221B6D",
"0  c #211B6F",
"q  c #221A6E",
"w  c #231B6F",
"e  c #211F71",
"r  c #221E74",
"t  c #241E77",
"y  c #2B2772",
"u  c #22217C",
"i  c #23207D",
"p  c #23237E",
"a  c #24207E",
"s  c #333375",
"d  c #232382",
"f  c #232283",
"g  c #252180",
"h  c #252182",
"j  c #252282",
"k  c #242387",
"l  c #252387",
"z  c #2B2683",
"x  c #25258E",
"c  c #2E2E8F",
"v  c #373083",
"b  c #252592",
"n  c #262692",
"m  c #262693",
"M  c #262695",
"N  c #272795",
"B  c #272696",
"V  c #262697",
"C  c #292990",
"Z  c #262598",
"A  c #262499",
"S  c #262698",
"D  c #272798",
"F  c #272799",
"G  c #26269A",
"H  c #27279B",
"J  c #27279C",
"K  c #27279D",
"L  c #27279E",
"P  c #282898",
"I  c #292998",
"U  c #28289B",
"Y  c #2A2A9A",
"T  c #2A2A9E",
"R  c #2F2F9F",
"E  c #2727A0",
"W  c #2727A1",
"Q  c #2727A2",
"!  c #2827A0",
"~  c #2828A1",
"^  c #2828A2",
"/  c #2828A3",
"(  c #2929A4",
")  c #2828A5",
"_  c #2929A5",
"`  c #2828A6",
"'  c #2828A7",
"]  c #2A2AA7",
"[  c #2828A8",
"{  c #2929A8",
"}  c #2929A9",
"|  c #2828AA",
" . c #2929AB",
".. c #2A2AAA",
"X. c #2C2CA9",
"o. c #2F2FAA",
"O. c #2929AD",
"+. c #2929AE",
"@. c #2929AF",
"#. c #3D3DA5",
"$. c #3636AF",
"%. c #3D3DAA",
"&. c #3F3FAB",
"*. c #2929B0",
"=. c #2929B1",
"-. c #2A2AB4",
";. c #2B2BB4",
":. c #2A2AB5",
">. c #2A2AB7",
",. c #2B2BB8",
"<. c #2B2BBB",
"1. c #2D2DB8",
"2. c #3030B2",
"3. c #3030B7",
"4. c #3C3CB5",
"5. c #3030BB",
"6. c #3232BB",
"7. c #55559A",
"8. c #504AAA",
"9. c #4545B9",
"0. c #4747BE",
"q. c #5953B1",
"w. c #3232C0",
"e. c #3232C7",
"r. c #3434C4",
"t. c #3A3AC3",
"y. c #3838C5",
"u. c #3B3BC6",
"i. c #3737C8",
"p. c #3D3DCD",
"a. c #4242C5",
"s. c #4848C3",
"d. c #5454C1",
"f. c #5252C6",
"g. c #5252C7",
"h. c #5454CB",
"j. c #4141D1",
"k. c #4444D2",
"l. c #4848DD",
"z. c #5757D2",
"x. c #5E5ED8",
"c. c #736BC6",
"v. c #6060D9",
"b. c #6262DE",
"n. c #6464DE",
"m. c #4343E0",
"M. c #4C4CEA",
"N. c #5E5EE0",
"B. c #5454F9",
"V. c #5B5BFF",
"C. c #5C5CFF",
"Z. c #6464E4",
"A. c #6565E5",
"S. c #6868E6",
"D. c #6B6BEE",
"F. c #7270E2",
"G. c #7373ED",
"H. c #6F6FF5",
"J. c #7373F3",
"K. c #7777FE",
"L. c #7B7BFF",
"P. c #7C7CFF",
"I. c #7D7DFF",
"U. c #7E7EFF",
"Y. c #7F7FFF",
"T. c #8080FF",
"R. c #8181FF",
"E. c #8383FF",
"W. c #8989FF",
"Q. c #8C8CFF",
"!. c #8D8DFF",
"~. c #8E8EFF",
"^. c #918EFF",
"/. c #9292FF",
"(. c #9393FF",
"). c #9797FF",
"_. c #9999FF",
"`. c #A9A9FF",
/* pixels */
"                        : 8 8 8 8 y y 7.s s 2 3 2 : +                         ",
"                    9 e O.*.6.6.u.k.k.t.2.2.) L K A d + @                     ",
"                    0 0 O.*.6.6.u.k.k.t.2.2.) L K A f + @                     ",
"                  ; =.=.:.r.V.C.W._._.L.l.l.3.} { E A u u o                   ",
"              # # { ,.>.<.e.m.m.B.V.V.M.i.i.1.O.=.{ ^ B B 2 o .               ",
"              # # { >.>.<.e.m.m.B.V.V.M.i.i.1.*.@.{ ^ B B u . .               ",
"O < < e q q q A A *.-.-.<.6.p.p.j.r.u.5.:.:.*.O.@.{ ` ` ` A u u 8 6 6 6 = = X ",
"^ A A X.} } } } } ` { { { ` ` ` E ] ) E E E J U K K H K K A L T B H I A l l j ",
"! A A ] ] ] ..} } ] ` ] { ^ ` ` ^ ` ` ^ E E K H G K H K K H K K A I H K k k j ",
"5 P.L.c P H Q.S.S.H ^ ^ `.x.K K ^ I.I.x.B B ^ /./.b.x ^ ^ f.Z.Z.d B P q.c C # ",
"< T.T.G.H H K.T T b N.N.E.4.E L H T.T.Z.A A X.(./.9.G Y Y Q.h.h.B o.o.x H.D.; ",
", T.T.G.A A K.T T b N.N.T.4.E ^ H I.I.Z.H H X.(./.9.G H Y ~.h.h.B o.o.x D.D.; ",
"  1 1 9 B B a.T.T.n.B V ^ ).z.z.m K K /.0.0.n A J H.J.I I m $.$.T.s.s.z t t   ",
"      & j j R ~.~.#.v v g %.F.F.# u a &.c.c., l l f.8.e u u f.f.^.q.q.4       ",
"      & j j R ~.~.#.v v g %.F.F.& a a &.c.c.< f l f.8.e u p f.f.^.q.q.4       "
};
