/* XPM */
static char *Tank_[] = {
/* columns rows colors chars-per-pixel */
"39 15 164 2",
"   c #000000",
".  c #010101",
"X  c #140106",
"o  c #390111",
"O  c #6D0107",
"+  c #780101",
"@  c #7C0101",
"#  c #780104",
"$  c #7E0104",
"%  c #72010F",
"&  c #7C010F",
"*  c #620115",
"=  c #6E0117",
"-  c #66011F",
";  c #6F011F",
":  c #7F0210",
">  c #72011B",
",  c #70011F",
"<  c #720E1E",
"1  c #711B1C",
"2  c #5D0123",
"3  c #5B0129",
"4  c #5F012F",
"5  c #460134",
"6  c #490134",
"7  c #4D013C",
"8  c #4F013E",
"9  c #560130",
"0  c #580130",
"q  c #50013E",
"w  c #630125",
"e  c #6D0120",
"r  c #600128",
"t  c #720120",
"y  c #730221",
"u  c #670B34",
"i  c #420144",
"p  c #40014F",
"a  c #820104",
"s  c #880101",
"d  c #8D0101",
"f  c #8E0101",
"g  c #8D0202",
"h  c #8B0505",
"j  c #80020C",
"k  c #900101",
"l  c #920101",
"z  c #930101",
"x  c #900202",
"c  c #930202",
"v  c #930303",
"b  c #950101",
"n  c #960101",
"m  c #970101",
"M  c #940202",
"N  c #960303",
"B  c #920306",
"V  c #940104",
"C  c #960107",
"Z  c #930404",
"A  c #950505",
"S  c #980101",
"D  c #990101",
"F  c #9A0101",
"G  c #9B0101",
"H  c #9C0101",
"J  c #9D0101",
"K  c #9E0101",
"L  c #9F0101",
"P  c #9C0202",
"I  c #9E0202",
"U  c #9C0205",
"Y  c #990404",
"T  c #9A0A0A",
"R  c #A00101",
"E  c #A20101",
"W  c #A30101",
"Q  c #A00202",
"!  c #A30303",
"~  c #A40101",
"^  c #A60101",
"/  c #A70101",
"(  c #A40202",
")  c #A50202",
"_  c #A60303",
"`  c #A40505",
"'  c #A90101",
"]  c #AA0101",
"[  c #AB0101",
"{  c #AD0101",
"}  c #A60909",
"|  c #AE0808",
" . c #B10101",
".. c #B30101",
"X. c #B00202",
"o. c #B40202",
"O. c #B40404",
"+. c #B70707",
"@. c #B80101",
"#. c #B30808",
"$. c #B70909",
"%. c #BD0909",
"&. c #AA1010",
"*. c #A01919",
"=. c #A51818",
"-. c #A61B1B",
";. c #B01616",
":. c #BF1212",
">. c #851631",
",. c #953D3D",
"<. c #B42020",
"1. c #BA2121",
"2. c #BF2121",
"3. c #BB2F2F",
"4. c #C00B0B",
"5. c #C40808",
"6. c #C20F0F",
"7. c #C50D0D",
"8. c #C21212",
"9. c #C91414",
"0. c #C11A1A",
"q. c #CD1818",
"w. c #CF1B1B",
"e. c #DD1818",
"r. c #DA1E1E",
"t. c #C22C2C",
"y. c #C22D2D",
"u. c #C62E2E",
"i. c #CE3131",
"p. c #DC3636",
"a. c #D33838",
"s. c #D43A3A",
"d. c #D93B3B",
"f. c #DA3E3E",
"g. c #E72020",
"h. c #F72727",
"j. c #FF2E2E",
"k. c #E03D3D",
"l. c #E13E3E",
"z. c #FF3030",
"x. c #AB2E44",
"c. c #E24141",
"v. c #E84D4D",
"b. c #EF4C4C",
"n. c #F14747",
"m. c #FA4F4F",
"M. c #FF4C4C",
"N. c #E04D54",
"B. c #FD5555",
"V. c #FF5454",
"C. c #FF5555",
"Z. c #FF5656",
"A. c #FF5858",
"S. c #FF5A5A",
"D. c #C9516C",
"F. c #FF6363",
"G. c #FF6464",
"H. c #FF6767",
"J. c #FF6868",
"K. c #FF6969",
"L. c #FF6A6A",
"P. c #FF6D6D",
"I. c #FF6B75",
"U. c #FF8080",
/* pixels */
"                        r ; ; , ; ; < ,.,.1 * * - 2 2 6                       ",
"                    > > ' { { $.8.8.w.:.:.| K ! F c c $ 5 5                   ",
"                    > > ' { { $.8.8.w.:.:.| K ! F c c $ 5 5                   ",
"                  3 { {  .4.4.z.C.S.J.M.M.r.#.#.! F F c # # i                 ",
"              7 7 ) o.o.o.5.5.e.h.h.j.g.g.7.+. .' ' ) F c c O p p             ",
"              7 7 )  .o.@.5.5.e.h.h.j.g.g.7. .+.{ ) ) K c c O p p             ",
"  r 0 y t t t C C {  . .o.%.%.9.w.q.6.+.+.{ { { ' ' ) ! K K b & & e e e o     ",
"U C V _ _ _ ) ) ! ! ! ) ! ! K ! K K K K F K F b b b F b F F b b F c v b c o o ",
"U C V ! _ _ _ ) ) ! ! ! ) K ! ! K K K K F F b b b F F b F F c b F c b b V o o ",
"u C.C.h v v G.c.c.c K K U.a.a.b ! K C.a.s.c K K J.d.f.s F K t.l.l.+ c d 3.e e ",
"0 S.S.v.b b m.Y Y d p.p.S.;.=.K Z b C.l.l.b ` ` J.<.<.b A A F.u.u.c } } e e e ",
"0 S.S.v.b b m.Y Y d p.p.S.;.;.F Y Z V.k.l.b } _ J.<.<.b A A F.u.u.c } } e e e ",
"  w w = V B 0.C.C.f.c c F P.P.i.d d F J.J.1.g g b n.n.b.B Z c &.&.S.2.2.e X X ",
"      q j & T J.J.*.>.>.& =.=.N.q q : =.-.D.9 9 a t.t.x.% % + t.t.I.e e X . . ",
"      q j j T J.J.*.>.>.j =.=.N.7 7 & -.-.D.9 9 a t.t.x.% % + t.t.I.e e X .   "
};
