/* XPM */
static char *Terrain[] = {
/* columns rows colors chars-per-pixel */
"8 442 81 1",
"  c #263500",
". c #2D3A03",
"X c #2E3E0B",
"o c #313C04",
"O c #333E09",
"+ c #2F400C",
"@ c #314005",
"# c #35430D",
"$ c #3A450E",
"% c #364B0E",
"& c #39490F",
"* c #354512",
"= c #394611",
"- c #364A13",
"; c #3C4B14",
": c #374E19",
"> c #3D4D19",
", c #375014",
"< c #3C5215",
"1 c #3F5816",
"2 c #3D541A",
"3 c #3E591C",
"4 c #3F5320",
"5 c #424D16",
"6 c #424E19",
"7 c #494F19",
"8 c #435216",
"9 c #485416",
"0 c #425816",
"q c #44531B",
"w c #4A551D",
"e c #445A1D",
"r c #4B5A1D",
"t c #505B1F",
"y c #455522",
"u c #4A5621",
"i c #465B22",
"p c #4C5B23",
"a c #4C5C29",
"s c #505721",
"d c #525C24",
"f c #585D27",
"g c #535E29",
"h c #585F2A",
"j c #466124",
"k c #4C6124",
"l c #4E622B",
"z c #4D692C",
"x c #546125",
"c c #586327",
"v c #54622A",
"b c #5A642C",
"n c #54692E",
"m c #5A692D",
"M c #4F6330",
"N c #536431",
"B c #5C6631",
"V c #536C32",
"C c #5D6A33",
"Z c #5B6C39",
"A c #5F7137",
"S c #60642F",
"D c #626C35",
"F c #686D37",
"G c #636E39",
"H c #667235",
"J c #687436",
"K c #63733B",
"L c #6A723C",
"P c #71743F",
"I c #637641",
"U c #6C7540",
"Y c #647843",
"T c #6D7B44",
"R c #6B7D49",
"E c #717C45",
"W c #727E48",
"Q c #748247",
"! c #75814D",
"~ c #7B8F5A",
"^ c #7E925D",
/* pixels */
"peeeeexr",
"peeqr9pr",
"e0q800t9",
"008000r0",
"08<<0%09",
"01110090",
"00110000",
"01110%00",
"3111800e",
"jeee10<<",
"e1eee228",
"3jijiiak",
"jiijiill",
"3iijiivN",
"qiilianV",
"iiyiqqgl",
"yiiiqqal",
"iiiq2>2i",
"ppeqq2qq",
"akpq282<",
"xkr0888&",
"kkrrrre9",
"xkt99r98",
"ttkrrxrr",
"tkrrwttr",
"0r0090t9",
"880858rw",
"w08857tt",
"rq8888td",
"eeq9q9td",
"rr0989dt",
"rr0e9wxx",
"er8;88xd",
"pe8559dr",
"rr8888tw",
"kpq88qw8",
"kke8qqrq",
"xk089r89",
"kkq<8q89",
"kr28;98w",
"nnkeee8w",
"mxrere89",
"0eeewepm",
",,0e8<qm",
"%%<e0qrn",
"<<%<<%<8",
"%%%0<<8<",
"01%%<<8#",
"8<%%<q<%",
"e0<,<rr8",
"j0<%<ee0",
"kre0ekpr",
"ee010kre",
"zzkkpkre",
"kzeeeke<",
"e01%1jrk",
"e2,,2iik",
"2222<0pp",
"2<222ejk",
"<<3330ip",
",,3333ii",
"3,3,13ie",
"3,,,23ie",
"3,,,<eee",
"j3,,,433",
"33,,,3<<",
"jjj333<,",
"3jj322,,",
"zzzzj33j",
"zVVz4331",
"jjzzj,13",
"zzzzj332",
"3jj32,43",
"jjj33233",
"ii1213e2",
"ke313ie3",
"kieejp13",
"ieepki22",
"eeuiki<2",
"reppki<q",
"rppxke<2",
"pppkvk2<",
"pggxlp<2",
"gddpkiq8",
"dgurppqq",
"79uddpeq",
"77wduspe",
"S777rgce",
"Ss777ssd",
"PSs77sws",
"Lfssspwd",
"FStsdsws",
"Fhsfcsup",
"h77dbcgf",
"dwubDbdc",
"ssscDngg",
"ddfbbdfp",
"sfhbbdxp",
"u757pdpp",
"u975wdpp",
"uwq59u55",
"dwq5wuq5",
"wwq755rp",
"rwqw55wu",
"qqpr5#qq",
"qepe8#7q",
"qepp5&5q",
"8qeeq;55",
"2eeieqqr",
"qqqeuuwu",
"eqqqrpeu",
"q0<2edqq",
"332qepeq",
"2q0<qqpp",
"e22qeqke",
"qeklkeCB",
"eepkceCB",
"enKKvqbB",
"2nKAvpnc",
";nKneupd",
"8CAneppg",
"epe;=pwq",
"qpe5;pqw",
"ee;=qu5r",
"p<&=qw;q",
"2qipp;5q",
"<qrpw&55",
"5rpxr&r7",
"pvfwqpey",
"uBcq6guq",
"eqqpgaiB",
"r7qpvgpB",
"uppdgaup",
"uwrghaeg",
"sppdguep",
"pdpppuqp",
"uwew66ug",
"gsruq6ua",
"wq75q5uv",
"w9856yua",
"7wqqyu6a",
"7w95eu6p",
"pgguuu6p",
"pgcuuu5a",
"bSDxq78p",
"ccxrgxcB",
"cxttrdxB",
"xxdtdgkm",
"xttttxxc",
"xt9ttxxm",
"t9ttxxcm",
"9999tt99",
"9899ttrw",
"99999w98",
"998889rq",
"Sxt99wtw",
"ctt97ws8",
"JJSt9qq$",
"HJct977&",
"mJct9q9;",
"HHmt9998",
"9ttt99tt",
"ttcc9779",
"ttctt97t",
"rxxttdsf",
"rttttcdd",
"9r99xSDc",
"rr9rtmFb",
"t998tmbf",
"r998wfbc",
"tt999ttd",
"rrt99wdd",
"9tk9rrdc",
"9rr99rsc",
"899rrdcS",
"899trscb",
"# pa6dgh",
"+ ug6ash",
"8#q6;uuu",
"q;76aSu7",
";q;6fDu7",
"5u6pLWu6",
"6u6sUWd7",
"sSdBTWfw",
"ghaSWWhy",
"hGDUUFSs",
"hDDUUDIs",
"ushGUhBh",
"sshGGhDh",
"=O7fsyh7",
"==5hh6ha",
"77OhU767",
"76OhU767",
"77Osh=7s",
"s7=sg67u",
"6=OO67uu",
"OO66=s67",
"OO6=Os6s",
"OsIhOO>6",
"=sZh6O6O",
">uKv*O;6",
"5uGv=O;5",
"u6gp*#>q",
"qypp=&;p",
"CBpu6>Oq",
"BCau6>Ou",
"5yqquu6y",
"q5p7uyyu",
"6666p676",
">6uyuyqq",
"q;66665>",
"y;66q6qq",
"6==;6>55",
"6O=;y765",
"u=##y5>5",
"Gu6=y6;;",
"Gu6*q6==",
"!Za;666;",
"!Gu;6;;;",
"WGu6yu66",
"RGg66666",
"Na;66**6",
"hu;quO#u",
"6u**>;qN",
"7u;=6;yg",
"O===;=ya",
"=;=*56ui",
"O==;y6up",
"=O=6u6ua",
"6=*ya6>y",
"6==ua;**",
"6==ya>*X",
"6>;6y>>*",
"66*5y*>=",
">q**y66*",
"5u7=*>>*",
";56=;>*y",
";6u=*;>y",
"7wg=O=O>",
"57a>=OO=",
";5uwqq*O",
"57uwu5;X",
"55uwpq;X",
"56w9a55@",
"577$5o#@",
"q75$8$#&",
"$#o$dp&#",
"#o.5EEq#",
"#o.5PQ0#",
"$5$tQHw.",
"$5$pQHr@",
"5rwr<1#8",
"57tw5e$9",
"79r78558",
"yu97q58;",
"ffwr9qwq",
"fdrwqu5r",
"GBgdpu5e",
"Dcdgguqp",
"Dhddpqqq",
"Dbfdpwqq",
"pur9q5q9",
"pppqqqp2",
"5rq;--q=",
"6uy;-;--",
"uue;-;-;",
"aqqai:*3",
"ay3ii:,:",
"li4ii4::",
"Mi4ai4:4",
"MMy:::4:",
"MMi4:::4",
"4a4:4MM4",
"4ay:3MMi",
"::*yI^Rl",
":>:yI~Il",
">4yaZ!YZ",
">44aZRRV",
"4aayy>la",
"44ay4>Nl",
":>>yy>*>",
"yMMZM*X>",
"aMMZM4X*",
"4y>4y*X*",
"4y>4a*X*",
"y4*****>",
"yy4X****",
"yM4****>",
"aMy*X*>6",
"4ay>****",
"yaa>****",
"**4**6>*",
"**6>>6=*",
"*X=>6ay4",
"*O*6yaa4",
"y*6shBSh",
"7=6shSZh",
"S7O=>6hy",
"g6=7sys7",
"h7=6u7ys",
"su7shss6",
"ssw7sys6",
"fdffsss7",
"dddhs7ss",
"tfdtt797",
"tdffw9q7",
"tt777575",
"st7wq557",
"dwww775q",
"dssr7558",
"sdfs7757",
"sfbp7766",
"sshd77au",
"dthhsusu",
"77bB7OOO",
"56dhu666",
"O7fg76O6",
"s7767Bhs",
"77u66ghs",
"suu7uhGu",
"say6uBBu",
"6sShuyq>",
"7sSh7u76",
"6sDs56>=",
"7sSg7656",
"uusOOuu7",
"usu6Ous6",
"766u65>6",
"s6577;;5",
"765775q5",
"765655qq",
"s756q7e8",
"du7w5qr5",
"surwqqe;",
"dfdwqwu;",
"gvduq9e;",
"rdgwquq;",
"wgdwqyq>",
"69q8quq5",
"59qq5yq;",
"$;555qq>",
"$=;55qq5",
"w55qu>;6",
"r=;wu;5q",
"w<5epq6u",
"w5quu5>q",
"e8qupq6q",
"08epiuqq",
"qqeeueuu",
"<qeeqruu",
"<qrqeuuu",
"%qq25euu",
"&0e8qeuu",
"%qq;=que",
"&qq&;quq",
"<9q<;quq",
";q5;>6wu",
"qq;=;6uu",
"q8;=>67u",
"5,==;65=",
";===>>66",
"qq;q666=",
"55q57765",
"66eu7uu7",
"qyuuuuuy",
"66y67666",
"qqyw7656",
"566y6>5q",
"qqquy6qs",
"qyqu66qa",
"26quy6aN",
"qqqyy6yB",
"2yquu6aN",
"6qquuasB",
"qq32yyyu",
"2y26yyu6",
"y>;>ig2>",
"qq>>plqq",
"y2>2uaiq",
"222qiiiy",
"223yyuii",
">2qiy2yi",
";2yq42-q",
";2iq2<+>",
">2432>#>",
"<<22q2#2",
"2>>22,;,",
"2--;-#;&",
"<-&%%+;#",
"q,;;,%8&",
"<<-<,;,<",
"q,%<<;;;",
"q;<&<<;,",
"<8%;;;%;",
"8;;&%;&;",
"8q5&<;;<",
"55;;;;;5",
"qrwqqqwq",
"5wqq9wqe",
"7wurpuue",
"=9sdppew",
"57susdrr",
"sdhgddw5",
"sdfdddqq",
"sddtur55",
"fhdwww55",
"puwq7rq7",
"dduq7q55",
"wwr77wq7",
"uw9qwww7",
"q555qq9q",
"qqq76wwq",
";;%;5875",
"8;;<589q",
";%&;;;85",
";;&=5585",
";===66qu",
"q6;55qwy",
"q7>55yuu",
"uuy655q6",
"uqq>56qw",
"puu65;;*",
"uuq65;;;",
"uqq>===*",
"uq6;;==$",
"y56;;==O",
"q665;=*O",
"q5;>;;==",
"665;;>=O",
"665>;O==",
">66>*=O=",
">>55;OO=",
"=66>OO==",
"6yu6>OO=",
">>666666",
">66>=>6=",
"6666yaaa",
"6y76yssa",
"6>6>6sas",
">>=>6asy",
"yy6>7ayu",
"yy6>7a7s"
};
