/* XPM */
static char *Terrain[] = {
/* columns rows colors chars-per-pixel */
"5 331 89 1",
"  c #0D2E00",
". c #152F04",
"X c #0F3300",
"o c #163204",
"O c #193505",
"+ c #163A02",
"@ c #1A3906",
"# c #193408",
"$ c #1D3B09",
"% c #203E0C",
"& c #144100",
"* c #1D4502",
"= c #154E00",
"- c #1E4A02",
"; c #1E4408",
": c #1B5400",
"> c #204706",
", c #224C05",
"< c #22470B",
"1 c #244D0A",
"2 c #284C0E",
"3 c #245304",
"4 c #285706",
"5 c #255A01",
"6 c #2A5A06",
"7 c #26520A",
"8 c #29540C",
"9 c #275809",
"0 c #2B5B0C",
"q c #274D11",
"w c #284C12",
"e c #2B5411",
"r c #2E5B11",
"t c #325D14",
"y c #276100",
"u c #2A6304",
"i c #276802",
"p c #2D6B03",
"a c #2D640A",
"s c #306E04",
"d c #31630D",
"f c #326B0C",
"g c #2B7700",
"h c #2E7900",
"j c #317306",
"k c #377E04",
"l c #35720B",
"z c #39740D",
"x c #377B0A",
"c c #387D09",
"v c #2F6011",
"b c #346413",
"n c #336812",
"m c #386F14",
"M c #39641D",
"N c #396919",
"B c #377213",
"V c #397412",
"C c #377812",
"Z c #3C7B13",
"A c #3E7A18",
"S c #417C15",
"D c #40751B",
"F c #427D1A",
"G c #368304",
"H c #388305",
"J c #3C810D",
"K c #3E890A",
"L c #3B9302",
"P c #3F8311",
"I c #408B0E",
"U c #408613",
"Y c #458B14",
"T c #44821A",
"R c #448919",
"E c #488E1A",
"W c #479116",
"Q c #489013",
"! c #4B9816",
"~ c #4B931C",
"^ c #46A10A",
"/ c #49A60D",
"( c #4DA414",
") c #4DA811",
"_ c #50AA15",
"` c #53AC1A",
"' c #56B11A",
"] c #4A8921",
"[ c #68C22F",
/* pixels */
"`[L`L",
"^)_'`",
"/^')_",
"(`(((",
"gGghh",
"RPRUR",
"PJRJP",
"xRJUc",
"JRUUx",
"EUUJU",
"YkIKQ",
"QHKKY",
"IHHH!",
"~YRK~",
"FPAT]",
"u5=5:",
"SFSzu",
"SllTf",
"psjZz",
"gljpZ",
"ZpCif",
"ZpZZf",
"zlpfl",
"ylszV",
"BVama",
"aanua",
"mAuBa",
"jCBBf",
"issla",
"BzuSf",
"mfDdb",
"535,&",
"d6bn3",
"340b3",
"36vv0",
"009v3",
"037v9",
"33=0r",
"aN-03",
"-v-3N",
"078-4",
"83*r3",
"eb+t8",
"8M+:7",
"8888,",
"6,r87",
"dd548",
"4b3d3",
",ab39",
"d,0bN",
"5665n",
":6006",
"&+*7&",
"we1;1",
"e81ee",
"7e17*",
",,,33",
"808,7",
"7788r",
"473,1",
",,71-",
"37r37",
"83781",
"17881",
",3e88",
",81-;",
"18877",
"-1873",
"87311",
"38333",
"133rr",
"38770",
"t8r98",
"38r--",
"-7r;7",
"ert--",
"-ee78",
"7---7",
"--e88",
"e7r-*",
"81831",
"8311-",
"881*8",
",>**1",
">1e1*",
"1>11;",
"e2,;;",
"281;1",
"81,1>",
"11,>*",
"e,,-8",
"1>*,,",
",,118",
"21,83",
",7882",
"137,3",
">88,8",
"38878",
"33,1,",
",,,-,",
"1,,72",
"82788",
"87887",
",111>",
"22,>>",
"8,,,,",
",,,,>",
">>128",
",,117",
",,187",
"88881",
",,,,,",
"881,,",
"71>,,",
",>>,,",
"e,211",
"1<1<1",
"<21<1",
"o><>>",
"Xqw22",
"+X<2w",
"<+Xw2",
"+$o22",
"$@+ <",
"$+@.w",
"O@+@+",
"@%o@ ",
"@O@%O",
"@+$+@",
"@$;$@",
"@@+$+",
"$+$+$",
"++$+;",
"@+@$$",
"$+$+$",
"$;$$+",
";$$$+",
"@+++$",
"$+$$;",
"+$+$$",
"$++@+",
"+$$@$",
"+$+O+",
"+@@+@",
"<@$O@",
"#@$OO",
"$O@o@",
"O+@O@",
"@O@O+",
"O+@O%",
"$@%OO",
"$O@O@",
"@OO@O",
"%@@OO",
"@O@O@",
"O@O%O",
"@%OOO",
"OOOOo",
"OOO%%",
"OOOo@",
"oO@O@",
"%@O@@",
"oOOO@",
"%O@%%",
"+OO%O",
"O@%@@",
"o@OoO",
"%@+O%",
"@O@O%",
"O@@%@",
"@@@@O",
"@O@o@",
"%o@O@",
"O@@@O",
"OO@%@",
"@O@O@",
"@%%@@",
"O@O%%",
"%@O@@",
"%@%@@",
"OO@O@",
"@%%@@",
"@@OOO",
"@@@Oo",
"%OoOO",
"oO%@%",
"O@O@.",
"@O@O@",
"%@o@O",
"oo+O%",
"O@O@O",
"+O+OO",
"OO@OO",
"O@@@@",
"O@O@@",
"@@O@O",
"OO@@O",
"O+O@@",
"OO@O@",
"@@@@@",
"@%@@@",
"@@O@%",
"OOO@O",
"@@O@O",
"@@@OO",
"OOO@@",
"OOO@@",
"@@OOO",
"@@%oo",
"OOooo",
"##Oo.",
"oOoO%",
"#....",
"#.%%%",
"###..",
"##.##",
"%#o.#",
".##oo",
"#o###",
"#.%o#",
"oo#o#",
"#ooo#",
"ooo##",
"#ooo.",
"oo%oo",
"%o.o%",
".o..o",
".%%o%",
"..oOo",
"o%O%#",
".%oo.",
"%ooO%",
"...##",
"oo#%#",
"%##o.",
".o.o%",
"#oo##",
"o#oo.",
".oo#o",
"##oo#",
"%#%o#",
".ooo.",
"o.%o%",
"%%###",
"oo###",
"o%###",
"o##o#",
"###o.",
"#####",
".##o#",
"#%oo.",
"#.o.%",
"o#.%.",
"o.o.%",
"%oo%o",
".oo.#",
".ooOO",
"OooOO",
"OOOOo",
"OOOOO",
"+ooOO",
"ooOoO",
"ooo+O",
"OOOOO",
"@OOOO",
"Oo+OO",
"o+oOO",
"oOoOO",
"OOoO+",
"OOo+o",
"o.ooo",
"o+ooO",
"###o#",
"#o#..",
"#.o..",
"...oo",
"#.#.o",
"...##",
"###..",
"##.#O",
"#...#",
"##...",
"..###",
"###.#",
".#.#.",
".....",
"#..##",
".....",
".#..#",
"#..#.",
"#..##",
"...##",
"####.",
"..#..",
"....#",
"##.##",
"#..##",
"..###",
"#.## ",
"#.# #",
"...##",
"####.",
" ..#.",
"#.#..",
"#.###",
"#....",
"##.##",
"#.#.#",
"###. ",
" #...",
"###.#",
"#.#. ",
"...##",
".#.##",
". .. ",
"#.##.",
"# . .",
".# ##",
".. .#",
"#.###",
".oooo",
"ooooo",
".oO.o",
"o..#.",
"...o.",
"..#oo",
".#.oo",
"#.o..",
"#.#.o",
"#.o.#",
"..#.#"
};
