/* XPM */
static char *W[] = {
/* columns rows colors chars-per-pixel */
"10 10 88 1",
"  c #010000",
". c #030000",
"X c #020100",
"o c #000300",
"O c #060000",
"+ c #090000",
"@ c #0A0000",
"# c #0B0000",
"$ c #0C0000",
"% c #160000",
"& c #180000",
"* c #1C0000",
"= c #1D0000",
"- c #1F0000",
"; c #9D3F3D",
": c #9C3C3E",
"> c #BD2C3B",
", c #AB3239",
"< c #AF3439",
"1 c #AE353A",
"2 c #A33A3F",
"3 c #AC3839",
"4 c #B93437",
"5 c #B0343C",
"6 c #B0373C",
"7 c #B0373E",
"8 c #BA3139",
"9 c #E8161F",
"0 c #EA191F",
"q c #ED181E",
"w c #EA1E1F",
"e c #E81B20",
"r c #EA1B21",
"t c #EE1820",
"y c #E91C21",
"u c #EF1D20",
"i c #EF1C25",
"p c #F01A22",
"a c #F01A26",
"s c #F01C2A",
"d c #D32228",
"f c #D1202A",
"g c #D2272D",
"h c #D4242F",
"j c #DB2228",
"k c #DC232B",
"l c #D92429",
"z c #DE232C",
"x c #D9262C",
"c c #DB262D",
"v c #D8272F",
"b c #D1282D",
"n c #D52331",
"m c #D62630",
"M c #D72732",
"N c #DA2534",
"B c #C1343C",
"V c #EC2023",
"C c #EE2024",
"Z c #9F3C41",
"A c #A03843",
"S c #A33943",
"D c #A53E41",
"F c #A83F43",
"G c #B53C45",
"H c #AA6464",
"J c #AD676F",
"K c #AE6A6B",
"L c #AE6D69",
"P c #AB6A6E",
"I c #AD6B6C",
"U c #BC6166",
"Y c #BF6567",
"T c #BD6068",
"R c #BE616B",
"E c #BD6768",
"W c #BC6669",
"Q c #B26869",
"! c #B16B6D",
"~ c #B5696D",
"^ c #B06C6D",
"/ c #A97069",
"( c #AA706F",
") c #AC6972",
"_ c #B66971",
"` c #B66A74",
"' c #C0656C",
"] c #C1686E",
/* pixels */
"oO=KUW(%@o",
"O%QF<1ZI&$",
"=HBfzkM8~=",
"IDmittsm2^",
"T,frVC9c<'",
"TGcrVy0c3W",
")Amaqwyb;/",
"=`>Njlb4L&",
"@&`S55D^%$",
"o$=J']P&$o"
};
