/* XPM */
static char *WeaponIcon_[] = {
/* columns rows colors chars-per-pixel */
"48 48 256 2",
"   c #010101",
".  c #0A0006",
"X  c #0C020A",
"o  c #0C0C0C",
"O  c #070606",
"+  c #13010D",
"@  c #16050E",
"#  c #061909",
"$  c #060518",
"%  c #190714",
"&  c #091A14",
"*  c #141414",
"=  c #1C1B1C",
"-  c #191617",
";  c #13160A",
":  c #27051A",
">  c #25181A",
",  c #3A1713",
"<  c #351A0B",
"1  c #172417",
"2  c #0A260C",
"3  c #282708",
"4  c #392104",
"5  c #2A2619",
"6  c #2F330F",
"7  c #1B1A27",
"8  c #0F162B",
"9  c #280C21",
"0  c #2B1C25",
"q  c #271825",
"w  c #321B2B",
"e  c #35172B",
"r  c #2B1C36",
"t  c #391B36",
"y  c #31043B",
"u  c #192A2A",
"i  c #232223",
"p  c #2A2329",
"a  c #2C2B2C",
"s  c #272825",
"d  c #31262C",
"f  c #382934",
"g  c #333333",
"h  c #3C3A3B",
"j  c #393638",
"k  c #2D322E",
"l  c #55190C",
"z  c #4D1612",
"x  c #781811",
"c  c #71160D",
"v  c #4D2411",
"b  c #68260D",
"n  c #471B38",
"m  c #59163D",
"M  c #45253A",
"N  c #433239",
"B  c #3A433A",
"V  c #2E4411",
"C  c #58530F",
"Z  c #527000",
"A  c #6E7809",
"S  c #54572F",
"D  c #370E44",
"F  c #372343",
"G  c #3E3F41",
"H  c #471A4B",
"J  c #551A4B",
"K  c #561954",
"L  c #4E0955",
"P  c #651A4A",
"I  c #6A1C55",
"U  c #761859",
"Y  c #69065E",
"T  c #492844",
"R  c #572A4A",
"E  c #443C42",
"W  c #4B3646",
"Q  c #55364B",
"!  c #592757",
"~  c #473952",
"^  c #682856",
"/  c #75295C",
"(  c #683958",
")  c #6A3552",
"_  c #72136C",
"`  c #782863",
"'  c #783765",
"]  c #6C2B68",
"[  c #5A1D63",
"{  c #3F4140",
"}  c #444444",
"|  c #4B4B4B",
" . c #494549",
".. c #52474C",
"X. c #574A54",
"o. c #5C545A",
"O. c #5C5B5B",
"+. c #565555",
"@. c #4F4C58",
"#. c #65475A",
"$. c #62535D",
"%. c #65575C",
"&. c #63645C",
"*. c #784968",
"=. c #6B5464",
"-. c #6A5A65",
";. c #675A65",
":. c #76546B",
">. c #7B4D72",
",. c #7B5971",
"<. c #6D4763",
"1. c #666265",
"2. c #74636C",
"3. c #7A6B77",
"4. c #7D7379",
"5. c #5D675F",
"6. c #8F1813",
"7. c #A91717",
"8. c #B8171A",
"9. c #B20D11",
"0. c #A6241C",
"q. c #C3151B",
"w. c #CA1719",
"e. c #D7181D",
"r. c #E6171E",
"t. c #F7191D",
"y. c #C81621",
"u. c #D91922",
"i. c #E81824",
"p. c #FC1B25",
"a. c #FE1B2B",
"s. c #F71727",
"d. c #FB1D34",
"f. c #D8292B",
"g. c #F92228",
"h. c #EE2C34",
"j. c #851875",
"k. c #8C1270",
"l. c #882768",
"z. c #893A6B",
"x. c #8A2C73",
"c. c #982974",
"v. c #993779",
"b. c #8D316F",
"n. c #A7287B",
"m. c #A4357B",
"M. c #921664",
"N. c #F63B42",
"B. c #85486D",
"V. c #874974",
"C. c #964479",
"Z. c #865A77",
"A. c #85697C",
"S. c #C85150",
"D. c #FF5760",
"F. c #F16064",
"G. c #698900",
"H. c #9BAE08",
"J. c #ACBE06",
"K. c #9F950F",
"L. c #B7C700",
"P. c #CED403",
"I. c #E7DA04",
"U. c #F3DD00",
"Y. c #D4E701",
"T. c #EDE302",
"R. c #EBEB00",
"E. c #F3E402",
"W. c #FAEA01",
"Q. c #FEFD02",
"!. c #FEF604",
"~. c #FDFD13",
"^. c #F0EB14",
"/. c #7A6A84",
"(. c #B70499",
"). c #B51289",
"_. c #9A3383",
"`. c #B82687",
"'. c #A83786",
"]. c #B6398B",
"[. c #BB3995",
"{. c #B1298B",
"}. c #9C0A86",
"|. c #C5178D",
" X c #D71993",
".X c #CC1394",
"XX c #E3189D",
"oX c #C72995",
"OX c #C72C94",
"+X c #D311A4",
"@X c #F10BAE",
"#X c #D92CA2",
"$X c #EF2EAF",
"%X c #E32B9B",
"&X c #984E85",
"*X c #A94988",
"=X c #A5568A",
"-X c #B84794",
";X c #B15595",
":X c #966685",
">X c #8C7985",
",X c #917287",
"<X c #A9789A",
"1X c #AB6395",
"2X c #B97CA7",
"3X c #B056A0",
"4X c #C74F9A",
"5X c #D648A7",
"6X c #C959A5",
"7X c #D255AC",
"8X c #EC48B6",
"9X c #EE4EB6",
"0X c #C66AA9",
"qX c #C476AC",
"wX c #C976B4",
"eX c #D771B7",
"rX c #D366A6",
"tX c #FE0BC3",
"yX c #FD28CB",
"uX c #D878C0",
"iX c #F771C9",
"pX c #968B93",
"aX c #A78C9E",
"sX c #BE9AB6",
"dX c #B48EA9",
"fX c #B7A8B2",
"gX c #BDB2B9",
"hX c #ADA3AA",
"jX c #9D9CAA",
"kX c #C797B6",
"lX c #CB87B4",
"zX c #C7A6BC",
"xX c #C0B7BD",
"cX c #C38185",
"vX c #DD91C6",
"bX c #E691C9",
"nX c #D2AAC6",
"mX c #C9B9C4",
"MX c #D5B3C8",
"NX c #DABAD1",
"BX c #CBABC1",
"VX c #EDABD5",
"CX c #FF96E1",
"ZX c #BAC4CE",
"AX c #CAC3C8",
"SX c #D1C4CE",
"DX c #D7CBD4",
"FX c #DBD4D9",
"GX c #CFCDD2",
"HX c #E2C6D8",
"JX c #E2D7DD",
"KX c #E3DBE1",
"LX c #FCD4EE",
"PX c #FDFFFF",
"IX c #F0E3EC",
"UX c #E0E0DE",
/* pixels */
"                                                                                                ",
"                                    O o o * * * * * - % % o X + X X . O                         ",
"                              O o * - = > 7 p 0 0 i p 0 0 q q - % @ + X X .                     ",
"                        O o * - = 7 1 i p d d f f M M M M f n e w > : % @ + + .                 ",
"                    O O ; - - = i s a f f f N M T R R R R R T R M M w 0 : % + + . O             ",
"                  O o - = 7 s a a f f M T R R ^ ^ ^ / ` l.c.l./ / ! T n w 9 : % + X .           ",
"                O o = q i a a g j N N W R Q ^ / l.l.l.] ! [ ^ ` c.c.l.P T n e : % @ + .         ",
"              o * = i s a a j N M W W ^ R / c./ M q w z z l l z > d ! c.l.J n e 9 @ @ X O .     ",
"            o * i s k g j h E T W R ^ ^ ` x.r * c 8.r.t.p.p.p.a.g.7.l - ! c.K M n : : % X .     ",
"          O - i s k g G N E W ~ Q ) ) x._ & c e.i.y.w.r.g.h.N.N.N.N.d.u.< 7 M.I e e : @ +       ",
"        O - i a j h G E W  .W ) ) / c.K # 9.i.8.q.i.g.u.0.S.S.F.F.D.h.g.a.x & l.^ n 9 : % + .   ",
"        * i a j N }  .~ Q ..( ( / c.` # w.u.8.i.i.6., f @./.jXUXAXcXD.h.u.p.6.& M.P t 9 : + . . ",
"      o i k j } | ....X.( ( ' ` b.l.# 8.e.8.i.0.1 H [.8XiXCXLXPXPXZX%.S.p.y.s.x 8 U n e : : + . ",
"    O = k h } ..X.X.#.#.' ' ' x.`.r 6.r.8.s.6.& ).@X$X5XeXVXIXPXPXLXuXu 0.s.9.i.< t P t 9 : @ . ",
"    * a j  .X.$.=.=.<.' z.b.'.|.T < a.8.r.7.8  X#XoX5X7XeXbXVXIXLXVXiX8X8 q.i.8.q.o U n 0 9 @ + ",
"  O i j | o.;.-.<.B.B.V.'.x._ k.M.> 9.i.e.& |. XoXoXOX4X7XeXVXVXVXlX0X8X`.2 i.q.w.l n I t : : @ ",
"  o g | ;.-.2.Z.Z.V.&X].D 3 A 6 L (.1 p.l I @XoX#X$X$X8X9XeXwXeXlXeX6X[.$XT c e.q.6.7 U n > : @ ",
"  i  .O.-.3.,XZ.&X_.4XL Z Q.!.Q.G.Y U 6.z .X XXX.XY y D K -XeX0X6X3X4X].OX}.> y.8.q.: I m e : @ ",
"  j +.2.A.,X:X1X=X4XOX- Q.R.I.E.Q.6 ).3 L @XXX).% G.L.L.H.2 _ 7X;X;X*X'.].`.q 7.8.q.< H P t : @ ",
"O | 1.>X,XaX<X=X6X-X= 5 Q.W.R.T.Q.b ).# U @X.X# Y.!.Q.!.Q.Q.V }.5X'.*X'.v.oXt 6.w.w.z H P n q @ ",
"= O.4.pXaXaX<XqX;X1 s 8 ^.Q.^.Q.Y.y n.# M.tXy J.!.T.E.E.T.!.R.* OX*X'.m.v.|.D x w.y.l K I n 0 : ",
"a 3.pXaXdXdXlX0Xa k j = 1 L.R.L.6 (.t b k.@X5 Q.W.E.E.E.R.U.Q.C _ ]._._.m.`.t x q.y.l J U M 0 % ",
"g pXaXfXkXsXvX;.g N s X.{.L M L (.F 6.e.L tX6 Q.U.T.R.E.R.I.Q.A _ [.v.n.c.).q 7.q.y.z J ^ n w * ",
"} pXfXzXzXnXdX| } ..1X9X9X8X$Xn.s 6.g.f.e @X5 Q.E.W.T.T.T.I.Q.C k.].n.c.{.`.- e.8.q.: I ^ n w : ",
"X.hXgXmXMXNX,X} 3.vXeX0X7X7X8Xc.v d.i.p.4 (.Y H.Q.I.U.U.I.W.T.% |.`.{.n.|.K z e.8.9.- l.^ M w % ",
"+.fXmXNXSXNX&.3.bXlXqXwXqX6X6X8Xu f.g.t.w.8 @Xo Y.Q.W.^.~.!.2 j. X`.n.).|.; q.8.y.c r l.R M d - ",
"+.gXSXDXHXNX5.nXnXkXlXdXqXqX6X9X] b g.f.g.x K +X$ A L.P.K.# Y @X|.`.). X8 x r.8.u.% / / R M w % ",
"+.gXSXFXKXxXpXHXnXBXBXkXdXqXqX6X8Xu h.g.u.a.4 k.J $ $ $ $ * @X X|.XX.Xr l i.7.i.c r x.^ ^ M p o ",
" .xXGXKXIXmXfXHXMXmXzXfXvX2X2X6X9X&X5 d.r.a.0._ P 2 5 > = 0 @X@X+Xk.& c s.8.e.8.# l.l.^ T f 0 o ",
"s gXDXFXKXSXAXFXSXmXzXzXsXdXwX6X6XyX! v a.p.l ).J 2 7 w # M.k.H 7 4 q.i.9.w.u.o / x.) ) W f q o ",
"O hXFXFXIXFXFXFXSXAXxXzXsXdX2XeXiX8X$XF v s.v (.n - 0 1 , Y < 7.w.s.e.8.i.e.; ! v.` ( Q T d = O ",
"  4.FXFXUXKXJXFXDXmXBXBXlXwXuX6X_ j.+XyXH 4 < +X> = > & J t w.r.u.y.u.r.7.# ^ {.' <.) W N a -   ",
"  } AXGXKXUXUXJXDXNXBXkXlXlX3XN H.J.V }.yX_ I XX& 7 > > H c s.u.s.i.9., 7 x.m.' ' <.#.W f s o   ",
"    jXGXFXKXKXFXDXMXnXnXlXuX~ ^.~.~.~.5 @X$X@Xl.# 0 & n 5 8.8.6.l , p ^ ].v.z.*.<.( ..E g > O   ",
"    +.AXDXFXKXFXNXNXBXkXuXuXS ~.^.^.~.A (.#X%Xw - q 5 l.t r r H ] x.'.'.z.' *.<.<.#.W j a ;     ",
"  O ; pXmXDXSXSXDXnXBXuXbX>.G ~.~.~.Q.6 +X#Xc.& 7 ; c.oXOXOX].].].C.b.>.B.>.*.=.o.X. .g i O     ",
"      ..fXgXSXDXHXMXVXlX>.g F S Y.P.Z Y #X#Xd & # b.[.v.v.v.C.B.B.B.>.>.:.<.=.#.o.| j a -       ",
"        4.pXpXaXdXaXA.| g G u u K K _ 5X5XR # > b.-XC.C.C.B.B.B.>.>.>.:.-.;.;.O.X.} j 0         ",
"        - >XaX4.&.| W } ....V.6X7X5X4X5X) O f C.*XV.V.V.:.>.>.:.-.-.:.-.-.;.O.+.| j s o         ",
"O     X   d ,XdXkXkXdX2XqXwXqX;X*X;X*XM * #.=XC.B.>.,.:.:.-.-.-.-.;.1.1.1.;.+.| G k *           ",
"      . .   j ,.A.<X<X<X2X1X1X=X=X' p Q =X&XV.>.:.:.:.=.-.1.1.;.1.1.&.O.+.+. .} k -             ",
"        X   . f $.2.A.,X:X:X:X:X:X:.Z.:X:.:.*.:.-.-.%.;.;.1.%.5.1.O.O.O.+. .{ g - O             ",
"    O     X . . w ..$.:.,.Z.,.,.,.Z.,.:.:.%.=.%.;.o.o.O.O.O.O.O.O.O.+.| } B k -                 ",
"    .       . .   - f ..X.X.;.=.%.o.;.%.$.$.$.$.o.o.O.+.+.+.+.+.+.|  .B g a *                   ",
"              . .   X i g h E  .......X.| X.+.| X.| X.| | | |  .G h g k = X                     ",
"                  O     o = s f g h N B E G }  .} } } { G G h g k a i o                         ",
"                            o - 7 u s a g a k g g k k g k a a i - o                             ",
"                                O o * - = = q i 1 q i 1 - * o O                                 "
};
