/* XPM */
static char *WeaponIcon_[] = {
/* columns rows colors chars-per-pixel */
"48 48 256 2",
"   c #010101",
".  c #0C0001",
"X  c #0B0B0B",
"o  c #06060A",
"O  c #120002",
"+  c #1A0200",
"@  c #1C0A02",
"#  c #190A0B",
"$  c #1A120B",
"%  c #080716",
"&  c #091116",
"*  c #131314",
"=  c #1A1915",
"-  c #1B1B1B",
";  c #181618",
":  c #110D11",
">  c #220A06",
",  c #271409",
"<  c #241918",
"1  c #270913",
"2  c #1E231D",
"3  c #0B2B00",
"4  c #25231C",
"5  c #34221B",
"6  c #2E330E",
"7  c #1D1E21",
"8  c #171828",
"9  c #0E0C25",
"0  c #261E22",
"q  c #241B32",
"w  c #1C2223",
"e  c #1A2528",
"r  c #1D2B39",
"t  c #1B323B",
"y  c #232324",
"u  c #25262A",
"i  c #25292A",
"p  c #2B2B2C",
"a  c #292729",
"s  c #362D2A",
"d  c #242D32",
"f  c #2C2D31",
"g  c #252536",
"h  c #2D3134",
"j  c #28363A",
"k  c #343434",
"l  c #343A3C",
"z  c #3C3C3C",
"x  c #343638",
"c  c #32322D",
"v  c #473B2F",
"b  c #3A4D13",
"n  c #3C4824",
"m  c #49501A",
"M  c #456818",
"N  c #506C15",
"B  c #45473A",
"V  c #495425",
"C  c #56702F",
"Z  c #627134",
"A  c #666427",
"S  c #121A45",
"D  c #183249",
"F  c #283945",
"G  c #383C43",
"H  c #263E56",
"J  c #1E3F6A",
"K  c #47394F",
"L  c #1B435B",
"P  c #3C4244",
"I  c #3B464C",
"U  c #284657",
"Y  c #384854",
"T  c #3C535A",
"R  c #1B5774",
"E  c #1B4A6A",
"W  c #295468",
"Q  c #395868",
"!  c #245774",
"~  c #395B75",
"^  c #2E4C66",
"/  c #3A667C",
"(  c #316375",
")  c #434444",
"_  c #444A4D",
"`  c #4B4B4B",
"'  c #454749",
"]  c #56544A",
"[  c #4C4D53",
"{  c #434C53",
"}  c #4B5254",
"|  c #44545B",
" . c #4B575C",
".. c #535454",
"X. c #52555C",
"o. c #5B5B5C",
"O. c #565759",
"+. c #534C4F",
"@. c #675D5A",
"#. c #516151",
"$. c #736F5C",
"%. c #485A66",
"&. c #575D62",
"*. c #51506A",
"=. c #4D626C",
"-. c #44616F",
";. c #5D6265",
":. c #5A646A",
">. c #56676D",
",. c #486878",
"<. c #536673",
"1. c #556975",
"2. c #58727E",
"3. c #49717B",
"4. c #616263",
"5. c #67696B",
"6. c #686E72",
"7. c #667579",
"8. c #747677",
"9. c #6F5F7A",
"0. c #629016",
"q. c #5D8332",
"w. c #68962A",
"e. c #6B9633",
"r. c #719531",
"t. c #75A429",
"y. c #78A936",
"u. c #7EB235",
"i. c #5A8A1A",
"p. c #79A64E",
"a. c #82B839",
"s. c #87AF31",
"d. c #92CD33",
"f. c #9CE636",
"g. c #A4E638",
"h. c #828B59",
"j. c #92B849",
"k. c #93AA74",
"l. c #93CB42",
"z. c #9AD947",
"x. c #8DC547",
"c. c #A3D54B",
"v. c #9DE543",
"b. c #A8E94A",
"n. c #ADE758",
"m. c #B0F34F",
"M. c #AEED61",
"N. c #A6CF67",
"B. c #14558C",
"V. c #275986",
"C. c #1E6993",
"Z. c #2A6686",
"A. c #3A6983",
"S. c #3B7489",
"D. c #267598",
"F. c #397897",
"G. c #2D6C93",
"H. c #1378AB",
"J. c #387DA5",
"K. c #286FA6",
"L. c #486C83",
"P. c #477388",
"I. c #58778A",
"U. c #467A97",
"Y. c #547895",
"T. c #4E6A8F",
"R. c #667A85",
"E. c #767984",
"W. c #657E9D",
"Q. c #9372A7",
"!. c #3884A9",
"~. c #298ABB",
"^. c #368AB6",
"/. c #2F8CB5",
"(. c #1189BD",
"). c #538199",
"_. c #458398",
"`. c #798689",
"'. c #63879B",
"]. c #708994",
"[. c #4989A7",
"{. c #4E8DB0",
"}. c #658DA4",
"|. c #7995A5",
" X c #6995B2",
".X c #72A2B4",
"XX c #198CCE",
"oX c #189DDA",
"OX c #1C8FD2",
"+X c #3793C6",
"@X c #2A98D7",
"#X c #2D91CF",
"$X c #3BA2D5",
"%X c #30A4D5",
"&X c #1299E6",
"*X c #18A3E7",
"=X c #09A9FC",
"-X c #15ADF4",
";X c #25ABF3",
":X c #28B6F7",
">X c #2DACEB",
",X c #219DE5",
"<X c #4F99C9",
"1X c #48A7D5",
"2X c #56A6D5",
"3X c #50A3C7",
"4X c #6EAECF",
"5X c #48AEE7",
"6X c #45B5EC",
"7X c #57B6EC",
"8X c #6DBBE6",
"9X c #26C7FF",
"0X c #58C4F2",
"qX c #71CEF7",
"wX c #858889",
"eX c #959798",
"rX c #888F99",
"tX c #9597A5",
"yX c #8A9CAD",
"uX c #89A2AE",
"iX c #85A7BA",
"pX c #97A8B0",
"aX c #A8A9A8",
"sX c #A8A9B4",
"dX c #A9B7BB",
"fX c #B7B7BA",
"gX c #A6A19E",
"hX c #98B9CC",
"jX c #8CB1CD",
"kX c #BABBC5",
"lX c #A6B9C6",
"zX c #A497C2",
"xX c #8FC1D7",
"cX c #AAC9D7",
"vX c #BBD3DB",
"bX c #B2C6CC",
"nX c #88C8EA",
"mX c #9CD5EB",
"MX c #B6D6E5",
"NX c #ABD3E9",
"BX c #BDF2FF",
"VX c #C5C8CA",
"CX c #C8D4D9",
"ZX c #D3D4D6",
"AX c #C7CBD2",
"SX c #C8D8E3",
"DX c #D4DDE4",
"FX c #D6D9E4",
"GX c #DBCFF0",
"HX c #D9E2E5",
"JX c #C8E8F2",
"KX c #E4E7E8",
"LX c #FCFEFD",
"PX c #F5FBF8",
"IX c #ECF0F8",
"UX c #E1C4FA",
/* pixels */
"                                  o % o & & & & & % X o o o                                     ",
"                              o X & & 8 * 2 e e e e w w w ; * X o                               ",
"                          o X & & w e e r t F D t e d d d i i y < ; X o                         ",
"                      o X : ; - e e t D L D $ L U U U l l x h c p a 4 = :                       ",
"                    o X ; - w e t j F U W *   e ! W T Y Y I ' P z k c a 2 * .                   ",
"                  o * = 2 y d d F U L R t : C . W ! W ^ | |  .} } ' ) x h i - X                 ",
"                X * - y i f j F U U R R o b d.6 9 D.Z./ =.=.:.:.4.o...` G x i - X               ",
"              X = w y p h j P U U U C.e $ y.e.e.O L F.S.P.I.7.E.E.8.6.4...) x f y X             ",
"            X - - p p x x G Y U W R ! . Z t.w.a.V % /.J.Y.'.|.yXtXrX`.8.1.O._ k f w X           ",
"          X ; y p x z G I I T ^ R K.9 6 u.w.r.t.a.O E $X{..XpXdXbXdXpX`.`.;.X.) x i ; X         ",
"        o ; y p x z P I I T W ( D.R   e.y.y.a.y.d.M % $X3X4XNXDXIXSXlXuX].7.=.{ P h u * .       ",
"        * y k z ) ' ` _ | Q Q R D.& m a.e.w.i.e.j.x.O G.0XjXJXLXPXPXCXhX.XI.1.%.I G f 2 *       ",
"      X y f z ' } } X.| %.~ ~ D.! O e.j.b u [ 9 t.v.V 8 qXxXJXLXLXPXJXjXG }.3.-.| G j u - o     ",
"      - c G _ } O. .%.=.-./ ( /.8 b x.d.M sXLXB a.c.l.# {.qXNXIXLXIXhX] 6 L.).Q %.{ l p 2 *     ",
"    X p z {  .;.>.=.=.<.3.A.J.G.o e.t.t.6 wXPXi 0.t.f.n ~ qXnXmXJXjX+.M.s.J _.L.%.I P h 4 - o   ",
"    7 l [ &.1.1.1.I.L.3.P.F.#XJ 5 M q ' c aXLX@.k K i Z q 6X7XqX X+.M.n.r.D {./ Q T I l a - :   ",
"  o h _ &.1.I.R.I.L.).U.F.J.#XS N M AXLXLXLXKXLXLXLX+.t.1 @X0X#Xv n.d.z.l.q !.A.Q | P l p y *   ",
"  * )  .R.R.}. X3.# ~ 3X^.!.%XD m N [ Q.E.VXLXgXrXeX< y.# -XoX< m.d.[ C d.a K.A./ T I P h y = o ",
"  y *.6.R.|. X XE d.m B.5X^.,XC.> y.N w.3 eXLX4 M N u.m e -XF N Z 6 IXC f.n V.A.-.Q { G k p - X ",
"  x 6.].rX|..X<Xv z.n.b K.>X@X;X9 N m.n.N fXLX] a.b.l.+ H.=Xm ] UXGXIXB 0.m R F.Q T { P x c < & ",
"o } 8.rXuXiXiX<X] M.x.b.s #X%X;XK.. y.b.n *.eXw u.v.$ t =X&X6 y.n bXKXGX8.6 B.A.Q T { P x c y ; ",
"o 4.wXpXpXjXnXY.r.j.9.y.f.i ;X@X:XD # b.u.N N C b.V   &X*X=XS f.M GX] M Z 6 Z./ ~ { { P l k y ; ",
"o 8.pXdXlXhXnXT.c.w.GX$.wXA K.>X,X:X: 6 m.z.z.m.C . H.=XXX*XB.C e.K q.g.6 E !.Q Q { I P z h p - ",
"X wXdXdXbXlXnXR.h.aXPXIXzXA =.>X@X;X@XO n v.v.C % > (.&XXX*X(., v.d.w.* E !.A.%.%.{ ' ) v x u - ",
"X eXdXbXvXcXmXR.h.aXaXVXw.s.K.5X$X@X:XD.. Z q.% 4 $ (.oXXX-XU . Z V . C.^.A./ Q %.[ _ P B k a - ",
"X eXfXCXCXCXMXnX@.n.h.Q.j.@.1X5X$X$X;XK., 9 9 y 0 0 *XOX&XV.@ 0 9   L ^.Z.,.,.| | [ _ ) G k a - ",
"& eXVXZXSXSXcXmX4X@.N.N.j.T.7X1X1X<X:XG., 4 4 0 > E *XoX! + 7 - , F !.G.S.-.%.X.X._ ` ' ) x a - ",
"o eXVXZXDXDXSXcXmXnX+.N.A T.7X2X1X$X:XF < y 0 0 $ oXoX#X1 ; 2 @ ! ^.F.S.,.-.=. .} } ` _ v k i = ",
"o h.ZXZXHXHXSXMXcXmX4XK B }.8X2X1X6X^.< p < 0 @ V.-X@XD., y # W /.F.P.,.,.=. .&.} [ ` ' z x a * ",
"o 4.VXZXHXJXHXvXcXNXiX] +.{.8X4X1X6XY , p w < - oXXX#XD.# 4 ; J.!.T.S.,.%.&. .X.....` ' z k y : ",
"  f VXZXHXHXHXSXMXNXyX] +.'.qX3X1X5XF 5 u w @ U ;XXX+X/.= ; 0 J.U.P.,.,.>.&.o.X...] ] ' z h y o ",
"  o aXZXDXHXHXDXCXMXhX+.] +. XqX2X5Xx y f y > R >X~.~.#X~ > ; F.F.3.1.>.=.&.o.O.O...` ' z p 2 o ",
"    5.ZXZXHXZXHXCXvXvXyX+.z 5 X.2X6XY < a 0 ; U >X~.~.J.+X^ + Y U.<.1.<.:.&.O.o.O.O.[ ' x a =   ",
"    - fXZXZXHXZXCXCXcXcXhX|.).v z 0XS., a < < < @X+X/.J.!.[.$ d Y.1.<.>.;.;.o.O.O...[ ' x y o   ",
"      8.VXZXZXZXCXCXbXlXlXxXjX4Xs [.5Xu < e w > W >XJ.J.F.[.= g ).1.<.>.;.&.o.4.o...` v c -     ",
"      4 aXfXAXAXCXbXbXdXlXiXpX4X=.L.7X/.= @ 0 0 # ( #XF.U.[.@ T I.>.>.>.;.4.o.o.O.] ) x y X     ",
"        ..sXfXVXVXbXbXdXdXpXuXyX'.'. X3X^.F $ $ y @ Z.!._.Y i I.<.>.:.:.5.;.o.o...` x c -       ",
"        . 8.aXsXfXfXfXdXpXpXtX|. X}.}.[.{.<XJ.U # - , F.F.Y P.I.1.1.:.;.;.4.4.o...' x y o       ",
"          = 8.eXaXaXsXaXaXuXuX].].].].).U.U.!.{.U $ $ U Y.P.P.,.<.5.:.;.4.4.o.O.` z p X         ",
"            y 8.wXeXgXeXeXtXwXwX`.`.R.I.I.Y.P.P.{.r # d U.L.1.<.>.:.:.4.4.O.] ` z s ;           ",
"              y 4.8.p.Q.wXwXwXE.8.E.7.7.2.I.P.P.U./ @ g P.,.<.<.:.;.4.4.O...' B p =             ",
"          .     2 ` @.5.6.8.8.8.6.6.7.1.1.<.,.,.,.P.$ u P.,.1.<.:.;.O.O.+.' z p =               ",
"                  ; x ' O.&.o.&.4.4.5.&.:.=.=.,.-.3.* F 3.%.%.&.%...` ' B x y *                 ",
"                    o a z v ' +.[ ..[ ..} O.%. .%.%.* | =. .} } { ' ) x f y X                   ",
"                        : i c k z v P ' ' _ I I | Y d | Y I I G P k p y *                       ",
"                            * - y p f h x x P P G G I P G l x f i 2 * o                         ",
"                                X * - - w y i i i d r w i e w ; X .                             ",
"                                      o X * = & ; ; & ; o o o                                   "
};
