/* XPM */
static char *WeaponIcon_[] = {
/* columns rows colors chars-per-pixel */
"48 48 256 2",
"   c #010101",
".  c #0C0102",
"X  c #020B02",
"o  c #020409",
"O  c #0B0C0B",
"+  c #070809",
"@  c #180602",
"#  c #001302",
"$  c #041C0A",
"%  c #071609",
"&  c #12140D",
"*  c #0E0C15",
"=  c #170B15",
"-  c #041713",
";  c #141414",
":  c #1B1B1B",
">  c #191A19",
",  c #291600",
"<  c #20131A",
"1  c #11220B",
"2  c #062815",
"3  c #162518",
"4  c #053119",
"5  c #17351B",
"6  c #072209",
"7  c #2A2100",
"8  c #32280E",
"9  c #241A24",
"0  c #1C2822",
"q  c #063D23",
"w  c #1C3922",
"e  c #002C21",
"r  c #232323",
"t  c #2C2C2C",
"y  c #272927",
"u  c #223124",
"i  c #2D342D",
"p  c #243A28",
"a  c #36312C",
"s  c #2E2E31",
"d  c #322D35",
"f  c #2C3733",
"g  c #333333",
"h  c #353A35",
"j  c #3B3C3B",
"k  c #383A38",
"l  c #302F2B",
"z  c #442600",
"x  c #463605",
"c  c #0F521A",
"v  c #04611E",
"b  c #086D1F",
"n  c #064C25",
"m  c #184924",
"M  c #125228",
"N  c #26462A",
"B  c #294734",
"V  c #3D423D",
"C  c #364839",
"Z  c #275532",
"A  c #355739",
"S  c #2D4F2E",
"D  c #1C682A",
"F  c #1A7828",
"G  c #156130",
"H  c #00772A",
"J  c #24632D",
"K  c #35683B",
"L  c #297438",
"P  c #2E7337",
"I  c #595001",
"U  c #655602",
"Y  c #614805",
"T  c #7D7602",
"R  c #40403E",
"E  c #3F4B41",
"W  c #3D4440",
"Q  c #3D5943",
"!  c #3D6C46",
"~  c #3B6646",
"^  c #397644",
"/  c #2C6940",
"(  c #444443",
")  c #434B44",
"_  c #4B4C4B",
"`  c #484946",
"'  c #425345",
"]  c #405C45",
"[  c #4B534C",
"{  c #485A4C",
"}  c #51544E",
"|  c #4C5A51",
" . c #545454",
".. c #555B55",
"X. c #5B5C5B",
"o. c #585A57",
"O. c #45674B",
"+. c #44744C",
"@. c #427147",
"#. c #4A6955",
"$. c #5C645D",
"%. c #566759",
"&. c #4C7A55",
"*. c #5A735D",
"=. c #537A5A",
"-. c #61615F",
";. c #5E6861",
":. c #5C7862",
">. c #636363",
",. c #646B65",
"<. c #6B6B6B",
"1. c #686B68",
"2. c #6C746D",
"3. c #657768",
"4. c #6D7C72",
"5. c #737473",
"6. c #747B75",
"7. c #7A7A79",
"8. c #767C78",
"9. c #997E00",
"0. c #129032",
"q. c #298B3D",
"w. c #209537",
"e. c #398B3F",
"r. c #1AAB37",
"t. c #1EB13F",
"y. c #24A43A",
"u. c #16C337",
"i. c #26C83C",
"p. c #2B8841",
"a. c #3A8948",
"s. c #369849",
"d. c #3E9752",
"f. c #3F8056",
"g. c #32B14C",
"h. c #45894F",
"j. c #42964D",
"k. c #4B8758",
"l. c #53885D",
"z. c #429D51",
"x. c #4B9B5A",
"c. c #469654",
"v. c #50965E",
"b. c #49A959",
"n. c #47B459",
"m. c #598763",
"M. c #579A63",
"N. c #4A9460",
"B. c #66866A",
"V. c #6D8875",
"C. c #758376",
"Z. c #75827C",
"A. c #7A847C",
"S. c #7A8B7D",
"D. c #778677",
"F. c #6A9A75",
"G. c #79937E",
"H. c #749C7C",
"J. c #739678",
"K. c #649468",
"L. c #56A466",
"P. c #57B16D",
"I. c #68A975",
"U. c #73A47E",
"Y. c #1DD940",
"T. c #26CA45",
"R. c #29D549",
"E. c #30D251",
"W. c #19E140",
"Q. c #31E750",
"!. c #54C767",
"~. c #63CE75",
"^. c #9B9501",
"/. c #B4AD00",
"(. c #B8B506",
"). c #C0B607",
"_. c #DBDA02",
"`. c #CBCA00",
"'. c #E1D90A",
"]. c #DDE300",
"[. c #EAE803",
"{. c #F3F401",
"}. c #F9F602",
"|. c #FEFE02",
" X c #FDFD0C",
".X c #F4F904",
"XX c #FEFE15",
"oX c #FEFE1C",
"OX c #F0EC0F",
"+X c #FEFE24",
"@X c #FCFD2C",
"#X c #F6F92E",
"$X c #FCFE34",
"%X c #FBFD3A",
"&X c #81807C",
"*X c #FCFD4A",
"=X c #FDFD5C",
"-X c #FAFD54",
";X c #FDFD6C",
":X c #FEFC7A",
">X c #7C8D81",
",X c #7F9684",
"<X c #7D9F84",
"1X c #77A681",
"2X c #7AB587",
"3X c #77C986",
"4X c #73CC87",
"5X c #8C8C8C",
"6X c #848684",
"7X c #86988A",
"8X c #939393",
"9X c #9C9E9C",
"0X c #939F95",
"qX c #8F9F92",
"wX c #84A786",
"eX c #8BA590",
"rX c #97AA9A",
"tX c #8CBA95",
"yX c #96B69C",
"uX c #8CB18F",
"iX c #9CB4A2",
"pX c #A6A8A6",
"aX c #A7B8AB",
"sX c #BCBDBC",
"dX c #B3B6B3",
"fX c #B0B2AF",
"gX c #93C99E",
"hX c #86CB94",
"jX c #9ADCAA",
"kX c #A5C8A8",
"lX c #ACC9B5",
"zX c #B6C9B9",
"xX c #AFD1BB",
"cX c #BCD9BF",
"vX c #A4D9AD",
"bX c #A2E2B3",
"nX c #FCFE9A",
"mX c #FEFF87",
"MX c #FDFFA4",
"NX c #FFFBB8",
"BX c #BDD4C1",
"VX c #BDCAC0",
"CX c #C3C3C2",
"ZX c #C9CBC9",
"AX c #C9D6CB",
"SX c #D3D4D3",
"DX c #DBDBDB",
"FX c #D4DAD5",
"GX c #CFD6D0",
"HX c #D9E3DB",
"JX c #FDFFD6",
"KX c #E0E2DF",
"LX c #DFE1E0",
"PX c #E1E2E2",
"IX c #FEFEFD",
"UX c #FCFCE2",
/* pixels */
"                                    o O * ; ; ; > > > > ; ; O +     X   X                       ",
"                              + O ; ; > : : r r r r y r r r r : 3 & & X X X o X   X             ",
"                          O O ; > : r r r t t t i l i f f f i f i u 3 3 % # # X X X             ",
"                        O ; > : r r r y t i g h h h V C C C C S B N m 5 5 3 6 # X X X           ",
"                    + ; > 9 0 r y l s g g g j j V W W A A ~ A ~ A K Z B m w 3 1 $ # X X         ",
"                  O ; > r r t d g g h k j W W V E ) Q ~ ! ! ^ c.b.p.p.a.^ Z p 0 2 $ # X X       ",
"                O > : y y t d k j j k j W W W ) Q ~ ~ ! ^ d.s.n - % X - 4 L J m 5 6 $ # X       ",
"            o O > 9 t g g g k j j R R ( ) E Q ] O.~ +.a.n.G   U /._._.(.I   m F m 5 2 $ # X     ",
"            O > r t g k j j R R ( R ( ) ) ' Q O.~ @.a.n.n O '.$X%X@X@X|.|._.. 5 L N 5 6 # X X   ",
"          O > r t k j R R R ( ( ) ` [ ' ] ~ ! ! a.s.L 0.. OX%X-X:X;X*X@X}.|.[.. M J 5 3 $ # o   ",
"        . ; r d j R ( ( _ _ _ _ [ ' Q { { O.K h.s.& F - ).$X=XnXJXJXmX*XXX{.|./.o P N u 1 # o   ",
"        ; y d j ( _ _ _ [ _ _ [ [ { | ~ @.^ h.p.# . 0.7 XX$X;XJXIXIXNX=X+X X[.{., M J p 3 - X   ",
"      + r g j ( _  . . . . .} | ..| +.+.! j.L + . c H Y +X#X;XNXIXIXMX-XoX|.[.|.I e P N u 3 O   ",
"      ; t R _  .X.X.X.X.o...%.%.#.O.+.@.d.K       v v 9.oX#X=X:XMXnX;X%X+X|.[..XT 4 P B p 3 &   ",
"    o y k _ o.-.>.>.>.>.$.$.%.%.&.&.+.z.P   . #   c H U XX+X$X*X=X=X%X+X X{.].|.U 4 ^ Z p 0 &   ",
"    ; k } X.<.<.<.<.<.<.,.3.:.=.&.f.z.^           w.0.z  X X+X@X$X@X+XoX|..X].|.8 M P S B t 3 + ",
"    9 ( >.<.7.5.7.8.5.4.4.3.3.l.&.x.^         2 r.R.u.  ]. X XoX XXX|.|.}.[.{.`.  ^ L Z f u 3 & ",
"  o ( X.<.7.6X6X6X&XZ.C.4.B.m.l.x.z.        c R.t.r.W.b ,  X|.}. X|.|.}.[.[.|., q a./ C C i r ; ",
"  O _ <.6X5X8X8X5X5X5XS.V.J.K.x.P.6   o   F R.t.r.u.i.W.4 z |.|.|.|.{..X|.|.x X s.K A Q C i r : ",
"  : >.6X8X9X9X9X8X7X5X,XF.F.v.P.m       q.E.r.T.i.F # # i.n @ ^.}.}.{.[.^.& $ s.^ K A C V h y : ",
"  g 7.5XpXpXpXpX9XrXqX7XH.K.P.c.  X   F R.u.T.D o o   + # y.0.4 X # & o - G d.^ K Q Q ) V h t 3 ",
"  j 6XpXdXdXdXfXpXpXrXwXwXI.~.1 o . m E.T.w.-       o       2 q.g.q.q.s.z.j.K ~ ~ Q E E V k s : ",
"o ` 9XfXVXCXsXdXfXaXrXuX1X4Xh.. *   E.Q.c     o       2 D a.b.a.a.d.h.h.+.@.^ #.[ ] ) E W j g r ",
"   .pXsXZXZXCXVXdXaXyXtX2X4Xw ;   w.Q.$ o .   o X J j.n.b.x.h.h.k.h.&.+.@.%.{ O.| [ ) ` j g g r ",
"  o.fXCXSXSXZXCXsXdXiXtXhXL.= = w Q.;   o   o L n.L.x.N.h.k.k.=.=.*.&.#.#.%...{ _  .` ( ( k t r ",
"  o.sXCXDXDXSXZXzXlXkXgXhX@.= = g.w . o   m n.n.c.v.l.m.:.:.:.*.*.*.$.%.%.....| } _ ` _ R j i r ",
"  _ sXSXDXDXDXSXZXxXkXhXhXC 9 S ^ . &   q.!.L.x.v.m.m.m.:.:.:.;.;.;.;.X....... . ._ _ ( R j g r ",
"  R sXSXDXLXLXFXZXcXkXgXhXu 9 Q : = O b.!.x.v.m.K.B.3.:.3.3.,.3.,.>.>.X.X.X.o. . .} _ ` ( j t 9 ",
"  9 fXSXPXPXPXFXAXBXvXjXU.9 g r < ; b.!.b.M.K.V.B.4.4.2.1.,.,.1.<.>.>.>.X.X.o. . . ._ ` ( j y : ",
"    8XSXLXPXLXHXAXBXkXbXB.t g t * v.~.M.F.F.V.B.B.4.2.2.2.<.<.1.>.>.>.X.X.X.X.o. . ._ _ ( h t > ",
"    <.SXFXPXLXLXGXBXkXbX*.t k < ! ~.L.I.F.J.C.C.4.2.2.2.<.<.1.1.>.>.>.X.X.X.o.o. . . ._ ( g y ; ",
"    s sXDXLXHXHXAXcXxXvX} a t u 4XI.I.F.F.D.Z.C.6.5.5.<.<.<.<.>.<.>.>.>.X.X.X.o.o. . ._ R g 9 O ",
"      5XZXDXDXHXAXcXzXjXR k 9 K.4XI.U.U.J.D.8.7.5.5.5.<.<.<.>.<.>.>.>.>.X.X.X.X.X. ._ _ R d < . ",
"      ( sXZXFXFXAXAXlXvXR g C 4XU.U.F.G.S.A.7.7.5.5.5.<.<.<.<.>.>.>.>.X.>.X.>.X. .X. .( d t ;   ",
"        5XsXGXAXAXBXxXkXj r V.hXU.U.H.G.A.A.7.5.5.5.<.<.<.>.<.>.>.>.>.>.>.X.>.-.X. ._ ( i 9     ",
"    +   t pXdXzXcXxXlXkXl C hX&X<XH.G.S.8.8.5.5.<.<.<.1.<.<.>.>.>.>.>.>.>.>.X.X.X. ._ j y ;     ",
"          o.pXaXdXkXlXlXr %.gXH.wX,XS.D.7.7.5.5.<.<.<.<.>.>.>.>.<.>.>.>.>.>.>.X.o._ ( g :       ",
"          o 2.0XyXaXaXkX> G.uX7X,XS.Z.6.5.5.<.<.<.<.1.<.<.>.-.>.>.>.X.>.>.>.>.X. .( j r O       ",
"    o       > 2.7XqXrXiXt uXwX7X>XZ.8.5.5.5.<.<.1.>.>.>.>.>.>.>.X.>.>.>.>.X.X. ._ j y O         ",
"          +   3 $.6.>X,X{ qXG.S.S.6.6.5.<.1.1.>.>.>.>.>.-.X.>.-.>.>.>.X.X.X. .( R t ;           ",
"            o   : { ,.3.C.V.4.8.5.2.2.<.<.>.>.>.X.X.-.X.X.X.-.-.-.>.-.o. .} ` k l ;             ",
"                  ; k ..%.$.,.,.1.1.1.>.>.-.-.X.X.X.X.X.X.o.X.o.X. .o. ._ ( k y ;               ",
"                    O u V ) _ .. .o.o. . . .o. . .X.o. . . . . ._ _ ` ( j d r O                 ",
"                        > y i j ( ( ` _ _ _ _ _ _ _ _ _ _ _ _ ` ( ( k d t ;                     ",
"                    o     O ; r y s h h j j j R ( ( R j R k k g d y r > o                       ",
"                              o & : r 9 r t t t d t t d t t t r r ; +                           ",
"                                    . * ; ; : : : r 9 > > ; O o                                 ",
"                                o           +     o                                             "
};
