/* XPM */
static char *WeaponIcon_[] = {
/* columns rows colors chars-per-pixel */
"48 48 256 2",
"   c #010101",
".  c #0A0103",
"X  c #03050A",
"o  c #060A0B",
"O  c #0A0B0C",
"+  c #060905",
"@  c #13120E",
"#  c #0C0E13",
"$  c #050B15",
"%  c #0C1213",
"&  c #081319",
"*  c #131314",
"=  c #141618",
"-  c #151A1C",
";  c #191A1B",
":  c #181516",
">  c #0D100C",
",  c #0E211E",
"<  c #21231E",
"1  c #0A1B28",
"2  c #141D24",
"3  c #1C1E21",
"4  c #171721",
"5  c #061F35",
"6  c #211E22",
"7  c #1D2123",
"8  c #1B252A",
"9  c #162628",
"0  c #182A33",
"q  c #193239",
"w  c #072D31",
"e  c #232324",
"r  c #232629",
"t  c #242A2C",
"y  c #2A2B2C",
"u  c #212821",
"i  c #252E32",
"p  c #2C2E32",
"a  c #202E3B",
"s  c #253234",
"d  c #2C3234",
"f  c #24323B",
"g  c #2A353A",
"h  c #2C393A",
"j  c #313334",
"k  c #333639",
"l  c #333A3C",
"z  c #3B3C3D",
"x  c #3B353F",
"c  c #26302F",
"v  c #443635",
"b  c #00413D",
"n  c #38413F",
"m  c #0E374E",
"M  c #2A3B45",
"N  c #343E43",
"B  c #3B3E41",
"V  c #055255",
"C  c #2D4145",
"Z  c #354244",
"A  c #3C4244",
"S  c #33434B",
"D  c #3B454B",
"F  c #3D4A4D",
"G  c #334947",
"H  c #2C4755",
"J  c #3D4B53",
"K  c #374D57",
"L  c #3A535C",
"P  c #3A5358",
"I  c #006A5F",
"U  c #1B4E69",
"Y  c #265768",
"T  c #3B5A68",
"R  c #2C526A",
"E  c #017569",
"W  c #017773",
"Q  c #00696E",
"!  c #39626C",
"~  c #3C657A",
"^  c #3A6678",
"/  c #276579",
"(  c #43464A",
")  c #454A4D",
"_  c #494B4D",
"`  c #414444",
"'  c #424D53",
"]  c #4B4E52",
"[  c #414B58",
"{  c #455155",
"}  c #4D5356",
"|  c #43545C",
" . c #4A555B",
".. c #4A5A5E",
"X. c #545B5D",
"o. c #545658",
"O. c #435B64",
"+. c #4C5B63",
"@. c #445D69",
"#. c #465965",
"$. c #535D62",
"%. c #585D60",
"&. c #45626C",
"*. c #4C636D",
"=. c #4C6067",
"-. c #536165",
";. c #596265",
":. c #54636A",
">. c #5B6569",
",. c #5D6A6D",
"<. c #4D6A75",
"1. c #43697A",
"2. c #4B6B7B",
"3. c #476475",
"4. c #526573",
"5. c #536C72",
"6. c #5C6C73",
"7. c #586B79",
"8. c #4C727D",
"9. c #4B7178",
"0. c #57727C",
"q. c #65686A",
"w. c #626E74",
"e. c #69767B",
"r. c #747779",
"t. c #1C668E",
"y. c #1F789A",
"u. c #396C86",
"i. c #387384",
"p. c #377997",
"a. c #287491",
"s. c #1C7DAB",
"d. c #2A7BA4",
"f. c #496E86",
"g. c #447484",
"h. c #4C7384",
"j. c #47778D",
"k. c #537384",
"l. c #597987",
"z. c #437B91",
"x. c #487B95",
"c. c #597C92",
"v. c #546F84",
"b. c #677A85",
"n. c #717C84",
"m. c #019294",
"M. c #3B829C",
"N. c #02A49B",
"B. c #1E85AF",
"V. c #3887A8",
"C. c #378BB5",
"Z. c #318EB6",
"A. c #02B2B2",
"S. c #48839B",
"D. c #55849B",
"F. c #568598",
"G. c #58929D",
"H. c #66828B",
"J. c #688695",
"K. c #778C95",
"L. c #779299",
"P. c #72888D",
"I. c #458BA9",
"U. c #538CA3",
"Y. c #5989A6",
"T. c #5994AA",
"R. c #4D93B5",
"E. c #4696B7",
"W. c #5799B6",
"Q. c #4B91AA",
"!. c #6795A7",
"~. c #7799A7",
"^. c #669DB6",
"/. c #6F96B1",
"(. c #5CA2BA",
"). c #6BA6BB",
"_. c #7CA6B6",
"`. c #75A1AB",
"'. c #3699CB",
"]. c #2F9ACC",
"[. c #29A3D7",
"{. c #38A4D9",
"}. c #35A3C6",
"|. c #39AAE5",
" X c #2AB6EC",
".X c #2CB4F1",
"XX c #539EC9",
"oX c #4DA3C9",
"OX c #49A9D4",
"+X c #5BAFDE",
"@X c #78B7D7",
"#X c #72ACC7",
"$X c #47B8E9",
"%X c #74ACD1",
"&X c #00CCCC",
"*X c #02CBC6",
"=X c #01D2CD",
"-X c #01D3D4",
";X c #02D8D7",
":X c #00CCD3",
">X c #01E7E7",
",X c #02FBFD",
"<X c #04F5F7",
"1X c #01EDF1",
"2X c #4AC2FB",
"3X c #71C3E3",
"4X c #878A8B",
"5X c #879498",
"6X c #989B9D",
"7X c #90938C",
"8X c #889CA6",
"9X c #949FA7",
"0X c #98A2A6",
"qX c #88A8B7",
"wX c #96ABB6",
"eX c #9AB4BD",
"rX c #93B4BC",
"tX c #88A6B2",
"yX c #A7A9AA",
"uX c #A7B4BA",
"iX c #BCBCBD",
"pX c #B4B6B7",
"aX c #A3ADB4",
"sX c #C4CDBC",
"dX c #87B6C8",
"fX c #91B3C7",
"gX c #A6BBC5",
"hX c #B1BEC5",
"jX c #B9B8C4",
"kX c #A2BDD0",
"lX c #87C1D8",
"zX c #94C4DA",
"xX c #AAC5CC",
"cX c #BCCBCE",
"vX c #B8C3C8",
"bX c #A6C2D4",
"nX c #B4C8D2",
"mX c #B4D0DB",
"MX c #91CCE3",
"NX c #B0CEE6",
"BX c #ABD7EC",
"VX c #C3CACC",
"CX c #CBCCCD",
"ZX c #C1C2C6",
"AX c #C5CDD2",
"SX c #CDD2D4",
"DX c #C8D5D9",
"FX c #DADDDD",
"GX c #D4D6D8",
"HX c #D9DDE1",
"JX c #CAD8E1",
"KX c #DDE2E5",
"LX c #D1E7EE",
"PX c #E4E5E7",
"IX c #FDFDFC",
"UX c #E6EFF9",
/* pixels */
"                                  + O > @ * * : ; ; : : : + + .                                 ",
"                            O O @ : ; ; 6 6 r < < e e e < 6 6 ; @ +                             ",
"                      . + # : = 3 e e r y y y p j j j j j d y y u e : O     .                   ",
"                    o # = ; 6 7 t t s y j j l l z z z z z z B l k y y ; * +                     ",
"                  O * ; 7 u i i s g h N N N B A A ` ( _ _ ] ] ) ) B k p r ; O                   ",
"              + O = 2 7 t 0 f g N M S N N D D ( ) _ _ } o.%.%.X.] X.' A x y 6 #                 ",
"              # = 6 r p d 2 S Z S S S K L J J ' { } o.X.>.,.r.>.F w.-. .( l d 7 O               ",
"          . O ; e i p N g i J S H K &.f M T L #. .$.>.w.e.r.9X$.e.L.e.6.+.J N s 7 % o           ",
"          O ; e y k k D i 7 L T T ! q X X 3.@.#.+.5.w.n.P.5XgX .wXwXL.b.7.$.' N s 7 $   X       ",
"        O ; r d j n ( J C     ; L &   0   f v.&.:.w.b.K.9XaXJX4X7XmXwX!.b.4.| F M t 7 o X X     ",
"X     o = e k Z A ( ' J { T S 1   X T z.&   g.g.7.b.P.5XaXcXUXIXsXjXxX`.F.b.v.L D s r - X       ",
"      * r j N ( ] ' ' #.| T 3.j.! u.u.i.^ X 0 F.k.l.K.~.uXAXIXIXIXLXmXtX#Xp q h.J M c 2 & X X   ",
"    O 7 p ( ( { ....+.#.+.#.! T u.u.u.i.V.9   D.c.J.K.8XeXDXUXIXPXUXBXlXq     8 <.D h q 4 o X   ",
"    - p A A >.*.$.;.-.=.3.4.2.1.u.u.p.p.V.  1 R.x.D.!.tXwXxXLXUX7X9XBX-   1.8.. - G g < 3 % X   ",
"  o t N  .g i n.5.5.4.5.2.9.1.x.S.z.a.C.U   U E.x.U.T.!.tXfXxXNXkXv 7 0 W.Y.v.! X $ 2 8 e - o   ",
"  = N { :.H.2 2 H.k.k.l.h.8.S.j.Y p.'.{.&   V.Z.V.I.U.^./._.dXqXMX4.. @XD.8.f.3.+.[ J N t 2 O   ",
"  r ' %.w.H.n.  b.F.l.l.l.S.Y.      o w     [..X{.{.oXW.W.^.).!.#Xj.+ D.S.h.1.#.L P S k p 7 #   ",
"o B $.e.n.~.v.X !.J.G.F.D.^.$ O Y 1         1 m 2 m t.{.oXR.W.W.W.R.  T Y.1.2.O.| { D l d 7 = . ",
"O ] q.K.L.tXb.& dX#X^.Y.).0   R.OX}.'.s.#   b W m.I 1 # ].{.C.E.I.R.+ H D.1.&.@.#.F F Z d t - . ",
"3 %.P.5X9XfXb.  6 | Y.@XM   I.oXI.C..Xs.  A.<X<X>X<X,XW   ].}.V.V.XX, q x.3.&.|  .K D Z k t 3 O ",
"p r.5X0XwXeX8X*.Z @ X -   g.#XI.C.{.[.  A.,X*X:X=X:X*X,XQ o  XZ.'.p.& $ x.3.&.T L J D S h p e O ",
"x 4XyXuXuXeXuXbXzXdXlXC h @XT.XXR..XU b ,X*X-X-X;X:X;X&X1X+ s. XU     q z.1.T O.L |  .Z N p r # ",
"_ 6XaXvXvXhXgXfXqXrXBXC O.@X/.W.W.|.1 N.<X;X-X-X-X-X:X&X>XI 5 m   . U I.u.~ 1.T +. .8 ' N s r > ",
"o.yXjXVXVXvXxXgXkXrX( . L._./.W.XX$X1 N.<X-X;X;X;X:X*X*X>Xm.X   + B.V.u.g.~ ^ f.H X + 7 K d r # ",
"o.pXiXSXSXcXnXnXgXy ` ~.rX_./.).XX$X1 N.,X;X;X=X-X-X=X&X>XQ   . . B.V.p.u.u.&.2   q @.f 3 l t # ",
"o.iXCXGXGXGXnXDXuX:.LXfXqX_._.^.W.$XH V ,X;X;X-X=X-X-X*X1X$ t.V   1 V.u./ j.0   1.&.K P s r r # ",
"` iXGXFXGXHXHXcXw.e.nXfXwXtX_.#X).oX|.. A.,X=X=X:X&X&X,XQ $  X'.1   / C.j.I.0 o h.L O.J A p t # ",
"v iXCXFXPXFXhX5XyXAXhXeXfXwXdX/.(.XX2XB.+ A.,X,X1X1X<XW   B.Z.C.p.X + H Y z.0 $ 2.P J J N d 7 O ",
": pXGXFXKXHXZXKXJXcXhXgXrXrXqX#X3XoXZ.y.&   w W m.E o $ B.'.d.p.C.T X .   .   % 1.T [ J N p 3 . ",
". 6XSXFXKXPXPXGXAXcXhXhXfXfXfXc.=   X       o m 1 m t.[.C.p.M.x.i.S.j.! ^ C 9 8 4.#.| D N y 2   ",
"  q.GXGXPXKXHXHXDXcXvXgXeXfXdX@ $ L R / t.  1 .X X{.'.C.M.x.x.z.f.f.g.v.g.f.8.2.&.| } A d y *   ",
". y iXGXFXKXPXFXGXAXvXxXrXbXF . W.3X+XOX2X5 X V.C.V.V.M.V.z.g.h.f.f.2.4.3.4.*.+.+..._ A B e O   ",
"    4XCXGXFXFXFXGXCXvXeXnXL.. &.@XR.W.R.OXU   a.OXE.M.z.x.z.g.f.8.h.<.<.*.*.*.-.$. ._ A p ; +   ",
"    ` iXCXFXFXFXGXZXhXxXrX@ e lX@X^.W.Q.XXp.. & ~ z.W.Q.U.U.F.l.g.<.<.:.5.:.-.-.X.} _ l t @     ",
"    . 4XiXCXGXSXCXcXhXhXwX=.= . @.(.T.W.U.T.Y 8       q R 2   2 c.J.4.l.*.:.-.>.} ] A j 6 +     ",
"  .   y yXiXZXZXCXVXiXeXeXbX_.{   L ).U.F.F.T.T.U.^ M %   M ~ $ X S o l e.>.>.X.o._ z u *       ",
"        X.yXpXiXvXvXuXuXwXtX/.MXK 8 ^.H.F.c.c.l.x.F.T.T.o j.D.D.C c 0.N s q.;.o.} ` j 6         ",
"  .     . q.6XyXpXuXpXwX0X8XL._.| % ~.H.c.H.8.k.h.8.g.S.O f D.1.l.c.7.e.+.D ;.} _ k e O         ",
"        . : q.4X6X6X6X0X8X5XL.`.b.X J.b.e.0.l.0.k.v.f.F.9 & F.2.<.4.5.:.,.%.} _ v j O           ",
"            < q.r.4X5X5X5X5X~.K.Z o b.n.0.6.5.5.<.0.f.U.M   h.8.<.7.:.<.o.} ] ` y @             ",
"              ; ] q.r.r.P.e.| n  .n.l.5.6.4.:.4.3.0.*., X & *.9.4.:.-.o.} ( B y @               ",
"                * v } o.q.$.,.e.e.w.>.w.>.;.:.$.5.M X 2 T 0.5.*.+.$. ._ ` z y *                 ",
"                  O r A ) } o.X.X. .$.X.X.X.$.#.6.$ Z e.$.@.#. . .{ ` z j e O                   ",
"                      ; t j n A ( ) _ _ _ ] ' { $.8 +.P J ' ' D A z j r -                       ",
"                        o : e y p k l z ` B A ( N g ) Z S A N g p e ; O                         ",
"                            + % ; 3 r r y s p p p g i p d 8 7 7 = +                             ",
"                                  o O * = - ; 3 3 - 7 - = = #                                   ",
"                                        o   o   o O o X                                         "
};
