/* XPM */
static char *WeaponIcon_[] = {
/* columns rows colors chars-per-pixel */
"48 48 256 2",
"   c #010101",
".  c #020A02",
"X  c #040109",
"o  c #0B0B0B",
"O  c #090609",
"+  c #031302",
"@  c #031E01",
"#  c #0A140B",
"$  c #071809",
"%  c #161507",
"&  c #130814",
"*  c #061911",
"=  c #141413",
"-  c #1B1B1B",
";  c #191919",
":  c #0E0E0E",
">  c #082606",
",  c #09360B",
"<  c #123907",
"1  c #072613",
"2  c #1A2616",
"3  c #073413",
"4  c #1A3613",
"5  c #182B0C",
"6  c #293702",
"7  c #393803",
"8  c #21231F",
"9  c #23381C",
"0  c #262A05",
"q  c #241B24",
"w  c #192522",
"e  c #0E3925",
"r  c #242423",
"t  c #2C2C2C",
"y  c #282927",
"u  c #2C322C",
"i  c #283A24",
"p  c #31312F",
"a  c #383A2C",
"s  c #2F2E30",
"d  c #333433",
"f  c #363A35",
"g  c #383B36",
"h  c #3B3C3A",
"j  c #3A363C",
"k  c #32312F",
"l  c #543F00",
"z  c #403E3F",
"x  c #164307",
"c  c #085807",
"v  c #17580C",
"b  c #154515",
"n  c #195417",
"m  c #0A490E",
"M  c #26591A",
"N  c #2B4813",
"B  c #116E10",
"V  c #246218",
"C  c #2C6C0C",
"Z  c #144E24",
"A  c #265826",
"S  c #3C433B",
"D  c #394837",
"F  c #3C5B35",
"G  c #3C543B",
"H  c #385233",
"J  c #2F4D2A",
"K  c #1C7029",
"L  c #366A2C",
"P  c #2E7E21",
"I  c #337825",
"U  c #3C6135",
"Y  c #386C37",
"T  c #357835",
"R  c #28672A",
"E  c #564D00",
"W  c #655B01",
"Q  c #776501",
"!  c #716B03",
"~  c #41493E",
"^  c #42553E",
"/  c #42643D",
"(  c #426A39",
")  c #447839",
"_  c #403C40",
"`  c #3F4440",
"'  c #337247",
"]  c #434442",
"[  c #444C43",
"{  c #4A4C45",
"}  c #4B4C4A",
"|  c #484649",
" . c #4C524B",
".. c #495847",
"X. c #51544F",
"o. c #515D4D",
"O. c #505C46",
"+. c #545554",
"@. c #535A53",
"#. c #5B5B5B",
"$. c #595D57",
"%. c #514B51",
"&. c #4A6746",
"*. c #54684C",
"=. c #4C7746",
"-. c #52754C",
";. c #547948",
":. c #556254",
">. c #5B635A",
",. c #586956",
"<. c #567353",
"1. c #5B7756",
"2. c #60695E",
"3. c #61755C",
"4. c #646464",
"5. c #6B6C6A",
"6. c #666C65",
"7. c #697667",
"8. c #767A75",
"9. c #707370",
"0. c #5A6463",
"q. c #847503",
"w. c #07880E",
"e. c #2D9118",
"r. c #34B91A",
"t. c #2AAC17",
"y. c #399929",
"u. c #3D8635",
"i. c #3C9435",
"p. c #318827",
"a. c #3BA62A",
"s. c #38B623",
"d. c #35B62D",
"f. c #7A8100",
"g. c #40982C",
"h. c #458838",
"j. c #49983C",
"k. c #41812D",
"l. c #42AA2A",
"z. c #44B82B",
"x. c #47A937",
"c. c #48B635",
"v. c #54BA3D",
"b. c #37D71A",
"n. c #2FC410",
"m. c #39E11E",
"M. c #3CCA28",
"N. c #3CE122",
"B. c #47DA2C",
"V. c #4BCD36",
"C. c #52CA38",
"Z. c #53DA3B",
"A. c #46D332",
"S. c #48E230",
"D. c #368242",
"F. c #4B8843",
"G. c #548748",
"H. c #4B9643",
"J. c #579849",
"K. c #5B8555",
"L. c #5C9C55",
"P. c #628A5A",
"I. c #63955A",
"U. c #57A747",
"Y. c #57B747",
"T. c #56B250",
"R. c #65B959",
"E. c #66AD58",
"W. c #6B8767",
"Q. c #6C9C65",
"!. c #75976C",
"~. c #798676",
"^. c #7A9877",
"/. c #73A469",
"(. c #75BB66",
"). c #7BA976",
"_. c #78BC6D",
"`. c #58C646",
"'. c #53D044",
"]. c #68C259",
"[. c #6AD456",
"{. c #60D04B",
"}. c #78C86B",
"|. c #6FD861",
" X c #78D668",
".X c #72C968",
"XX c #6DE357",
"oX c #918D02",
"OX c #B9A800",
"+X c #BCB701",
"@X c #ABA302",
"#X c #C7BD01",
"$X c #CDCC00",
"%X c #C5C602",
"&X c #DAD602",
"*X c #D7D901",
"=X c #D1CB02",
"-X c #E4DB00",
";X c #DDE301",
":X c #E2E500",
">X c #ECED02",
",X c #E2EA02",
"<X c #F5EA03",
"1X c #FEFE02",
"2X c #F8F702",
"3X c #EAF306",
"4X c #80937C",
"5X c #81A57B",
"6X c #83BA79",
"7X c #85C879",
"8X c #8DDB78",
"9X c #82FA74",
"0X c #878C85",
"qX c #899787",
"wX c #999F99",
"eX c #92948F",
"rX c #88A883",
"tX c #92AA8C",
"yX c #8BB982",
"uX c #94BA8C",
"iX c #9AA799",
"pX c #99B896",
"aX c #A3BD9D",
"sX c #A2AF9E",
"dX c #A7ABA6",
"fX c #A8B6A7",
"gX c #B9BEB9",
"hX c #95C78B",
"jX c #9BC895",
"kX c #93D68A",
"lX c #A2C49C",
"zX c #A4D797",
"xX c #A4E797",
"cX c #ABC8A6",
"vX c #B3C6AE",
"bX c #AAD3A4",
"nX c #BAC9B7",
"mX c #BAD6B7",
"MX c #B7D2AF",
"NX c #B8E6B0",
"BX c #8EF484",
"VX c #C1D5BD",
"CX c #C3E4BA",
"ZX c #B7CDC0",
"AX c #C6CDC5",
"SX c #C5D3C3",
"DX c #CAD9C7",
"FX c #D1DDCE",
"GX c #D5DBD3",
"HX c #C9E3C6",
"JX c #D8E6D7",
"KX c #D2EFCF",
"LX c #E1ECDC",
"PX c #FFFDFD",
"IX c #F7FCF7",
"UX c #E7F7E8",
/* pixels */
"                              .     o = = = ; ; ; ; ; = = o O                                   ",
"                              o = = ; - - q r r 8 8 r r 8 8 - ; =                               ",
"                        O o = ; - q r r y s t t t t p d p t p y y ; ; :                         ",
"                    . o = ; - r r y t t s d g j h h h h h h h j p t y - = O                     ",
"                X   = ; - 8 r y s t d f f f D S S ] ] { } } } | _ z j t y ; o                   ",
"                o = - r r t d d d f g h D D ~ S [ {  .X.+.#.#.#.#.+.} z d y 8 #     .           ",
"              o ; - r t s d f f g S S D D [ ^ ....O.*.@.2.6.9.5.5.4.2.X.] d y 8 # . . . .       ",
"            o - r y p d g g S D D G G H F F / / &.&.,.3.7.~.0X0X0X~.7.2.:.~ D u 8 $ . . . .     ",
"          o - r t p g g S S G S D F U U L Y F.=.) =.K.W.^.qXsXfXdXiX^.W.1.:.^ J i 2 * $ . . .   ",
"        o - r t d S ] G G G G F U / L T i.T A R D.U.K.!.rXfXZXGXFXnXpX^.P.=.( ^ J 9 2 $ @ . . . ",
"        = r p g ~ [ [ G ..G / Y L p.g.I n 0 ! q.6 R E./.uXmXUXPXPXJXbX).L.E.H.I L A 4 2 > + . . ",
"      = r d S ] { ..^ ../ ( L k.g.P > , 7 >X1X1X1XE ' yXpXSXIXPXIXUXbX}.Y.n * * 3 A M 5 > > + . ",
"    O 8 u S [  .o.O.&.) T I j.e.4   1 v =X3X-X-X2X2XN 7XjXmXIXIXPXLXzX.X* q.=X#XoX. b N 2 > @ . ",
"    = p ] } o.:.*.-.) ) h.x.V X . X c C <X&X:X>X>X1XN T.7XbXHXLXKXNXBX2 OX1X,X*X&X+X+ n 9 > > . ",
"  X y h } :.,.1.-.F.=.j.x.>   X .   c C -X<X:X:X<X1XN ]._.hXkXzXxX8X' ! 1X;X*X$X+X&X! 1 b - > $ ",
"  = g  .>.3.1.K.G.F.T.i.o . . X .   > w.Q 1X1X1X1Xq.Z [.R.(.}.8X.Xi Z oX1X*X&X$X%X%X@X* M 5 > + ",
"  r [ :.7.W.W.I.J.Y.h.      X         v B W @XOXW m '.v.v.Y.[.{.# % B oX2X*X&X$X%X$X@X$ A 4 = + ",
"  h $.W.W.!.Q.I.R.j.. X .   . . X   .   x K n m p.V.z.c.d.Z.V.>     w.7 1X;X$X%X+X>X7 m M y 5 + ",
": +.6.~.^.)./.].Y.    X   X O   . n C a.a.s.V.V.z.a.c.c.S.t.  . O   x w.l 2X>X:X:XQ * I Z 9 ; + ",
"- >.!.qXtX6X_..X& & : o   . m y.B.M.Z.c.z.c.x.d.d.l.M.B.V       X .   v B < f.oX6 1 I A J i 2 + ",
"p 9.5XtXuXyXkXd : q & X V C.Z.A.z.x.l.c.x.x.x.l.z.B.r.>     .           < B 3 $ V i.L J J 9 r % ",
"S 0XtXcXjXzXK.q p & 9 `.XX`.Y.Y.Y.v.v.x.x.x.c.C.s.M X     X             X . < I p.L / H J t w # ",
"` tXfXcXbXjXs f q K.9X XR.].E.T.v.Y.T.Y.'.C.l.v X     X     X       X   1 p.y.T L U F H ~ s r o ",
"X.pXvXbXCX5._ j ).8XK.(.7X}.[..X].R.Y.i.M *       . .     X   X     , e.g.g.) Y / ^ H ~ a t y & ",
"@.aXnXCXcX%.| yXxXkXP.i ; 8 u J 2 $       X   . . X   X   . . @ V e.c.g.) ) Y &.^ ....S S u r o ",
"@.vXnXKXqX%.pXNXlXjXzXkXI.f & X .     .       .   X . @ < B t.M.z.a.u.h.T =.&.&.O.[ [ S h u r : ",
" .vXDXHX6.eXKXcXbXlXaXjXjXkX7XE.G.) V M n M v B e.t.t.b.b.M.s.g.y.y.F.) ) ( *.o...{ [ ] h t r o ",
"S fXHXnX9.JXCXDXMXbXcXlXuX6X6X}.}.[.{.Z.B.B.m.b.m.b.b.n.r.r.y.a.i.i.h.h.;.*.&. .o.{ { ] h t 8 O ",
"2 fXJXwXdXUXHXDXmXnXcXlXhX7X6X(.R.Y.Y.C.A.S.B.b.n.t.t.r.r.n.s.s.c.x.h.;.=.&...*.+. .| ] h t - X ",
". qXGXdXGXJXJXDXSXnXvXlXaXyX_..X.XXX'.s.e.m < > @   .   . X < c R K i.h.=.=.*.o... .} ] d t ;   ",
"  9.AXAXJXLXGXDXDXnXMXlXuXhX7X7XU.J * .               X . > m 6 ! E * T u.&./ $.o. .} ] d t =   ",
"  d gXGXGXJXLXHXDXVXvXlXzXhXP.y & O O O O O   .     X   . c W 1X1X1XOX# H.=.*.*.+.+.} z d r O   ",
"    0XAXGXGXGXFXFXnXMXNX^.t & & o X X X           X .   x , &X2X*X$X1XW J F.&.*.*.X.} h u - X   ",
"  . z AXAXGXGXGXDXSXVX@.= ; s S F T T I V M 4 %   X     n x <X-X;X*X2Xq.e J.*.*.@. .} d r =     ",
"      0XgXAXFXAXFXnXh t 3.5X7X7X X_.].R.].`.`.c.a.V 5   + , +X1X*X;X1X7 ' G.=.<.o. .h d r       ",
"  X   d dXgXgXDXSX%.9.bXbXuX5X)./.Q.I.L.J.H.j.H.U.Y.c.y.b n % +X<X<XE 3 J.=.:.o.o.{ g t =       ",
"        #.dXfXAX~.iXDXpXtXtXrX).^.Q.Q.I.I.P.J.G.F.h.j.j.x.l.p.3 5 2 e U.;.-.-.@.} ] f -         ",
"          7.wXsXgXnXpXfXpXrX5X^.!.!.W.W.P.P.1.K.G.K.G.G.h.F.H.J.i.H.J.F.<.-.<.O.{ g y           ",
"          ; 5.0XiXwXiXiXtXqXqX^.~.~.W.7.7.3.3.3.1.1.<.;.1.=.=.F.;.;.;.<.<.*.+.[ g t o           ",
"          . - 2.8.~.qXqX0X0X0X~.8.8.8.7.6.6.>.2.0.,.,.<.<.<.-.<.1.<.-.,.,.o.{ h t =             ",
"          .   -  .2.5.8.8.8.8.8.9.7.5.4.2.4.4.4.#.2.:.4.,.,.,.,.<.>.,.O...[ z y =               ",
"                : ` } #.4.5.5.5.4.4.4.4.4.#.#.#.#.$.$.$.$.:.>.$.@.o.X.} ] g y =                 ",
"                X O t S | } +.#.$.#.+.#.#.+.#.+.+.+.+.+.+.X. . . .{ ~ g p 8 o                   ",
"                      = t d j _ | ] | } | } } } } } } } { { | ] ] g d y = .                     ",
"                          - r t p d h h h h z _ z _ _ z h h g d t r = o                         ",
"                              o ; - q r y t p k k t t t t t q - = O                             ",
"                    X             o : = ; ; 8 - - 8 - - = o                                     ",
"                                          X     .   O                                           "
};
