/* XPM */
static char *WeaponIcon_[] = {
/* columns rows colors chars-per-pixel */
"48 48 256 2",
"   c #010101",
".  c #0A0405",
"X  c #020B03",
"o  c #03040A",
"O  c #0B0B0B",
"+  c #080B07",
"@  c #031C04",
"#  c #091507",
"$  c #11160D",
"%  c #0E0C11",
"&  c #140E15",
"*  c #0B1913",
"=  c #141414",
"-  c #151C15",
";  c #191B15",
":  c #171A19",
">  c #1C1C1C",
",  c #1A141B",
"<  c #082909",
"1  c #023602",
"2  c #1D231B",
"3  c #132A1A",
"4  c #172917",
"5  c #17351A",
"6  c #0C2E14",
"7  c #21281E",
"8  c #23381E",
"9  c #1E1C23",
"0  c #241822",
"q  c #1D2822",
"w  c #1D3823",
"e  c #232323",
"r  c #242B25",
"t  c #292B26",
"y  c #242B29",
"u  c #2B2C2B",
"i  c #292629",
"p  c #2C332D",
"a  c #2A3B2C",
"s  c #253526",
"d  c #31332E",
"f  c #313C2D",
"g  c #2D3831",
"h  c #333433",
"j  c #343B34",
"k  c #3B3C3B",
"l  c #353939",
"z  c #004302",
"x  c #044804",
"c  c #025D00",
"v  c #035807",
"b  c #114F16",
"n  c #026C02",
"m  c #026604",
"M  c #067806",
"N  c #1D4824",
"B  c #1D5821",
"V  c #28452B",
"C  c #27552B",
"Z  c #2B4433",
"A  c #324434",
"S  c #34433C",
"D  c #3B433C",
"F  c #354A3B",
"G  c #3C4B3D",
"H  c #354B34",
"J  c #2B5732",
"K  c #345C3B",
"L  c #365739",
"P  c #2C6C34",
"I  c #36673A",
"U  c #2D7032",
"Y  c #40423F",
"T  c #41533D",
"R  c #343841",
"E  c #483845",
"W  c #3D4A44",
"Q  c #3C5944",
"!  c #3B5443",
"~  c #3C6745",
"^  c #3B7442",
"/  c #2F6941",
"(  c #444443",
")  c #444B44",
"_  c #4B4D4A",
"`  c #474648",
"'  c #435443",
"]  c #425D44",
"[  c #4B534C",
"{  c #445C49",
"}  c #4D5B4D",
"|  c #465648",
" . c #50504E",
".. c #4D5A51",
"X. c #4F5450",
"o. c #535553",
"O. c #545B54",
"+. c #5B5C5A",
"@. c #575A58",
"#. c #456545",
"$. c #446C45",
"%. c #43654A",
"&. c #4A634D",
"*. c #466C4B",
"=. c #4A6948",
"-. c #4B734E",
";. c #457C4C",
":. c #4A7C4E",
">. c #457447",
",. c #50734C",
"<. c #4D6252",
"1. c #4C6E54",
"2. c #536455",
"3. c #536B54",
"4. c #5C645D",
"5. c #546D5A",
"6. c #5B6A5C",
"7. c #55645A",
"8. c #4D7452",
"9. c #4C7A53",
"0. c #4C7857",
"q. c #537153",
"w. c #547B58",
"e. c #50644B",
"r. c #60615F",
"t. c #61785C",
"y. c #5C6962",
"u. c #5E7664",
"i. c #616362",
"p. c #646A63",
"a. c #686E6B",
"s. c #6C746C",
"d. c #667968",
"f. c #737C74",
"g. c #757775",
"h. c #038802",
"j. c #019D02",
"k. c #009400",
"l. c #02A402",
"z. c #00AB03",
"x. c #00BB01",
"c. c #1BB016",
"v. c #35853B",
"b. c #259439",
"n. c #349739",
"m. c #32AC35",
"M. c #02CC01",
"N. c #02C804",
"B. c #01D503",
"V. c #03DA01",
"C. c #02E402",
"Z. c #02EB05",
"A. c #01FD02",
"S. c #03F603",
"D. c #2CF52C",
"F. c #378A45",
"G. c #389746",
"H. c #3E8B53",
"J. c #3AA646",
"K. c #30AD41",
"L. c #45824C",
"P. c #438B4B",
"I. c #4B874D",
"U. c #43964C",
"Y. c #4C8352",
"T. c #498B55",
"R. c #5B825C",
"E. c #538C5B",
"W. c #548758",
"Q. c #4C9B55",
"!. c #4A9353",
"~. c #53955A",
"^. c #549A5B",
"/. c #579659",
"(. c #52804F",
"). c #48A854",
"_. c #57A75D",
"`. c #4DB059",
"'. c #4AAC53",
"]. c #5B8765",
"[. c #599963",
"{. c #5D9771",
"}. c #678668",
"|. c #649A6B",
" X c #66956A",
".X c #6D8772",
"XX c #7A867A",
"oX c #6B9B74",
"OX c #769A7C",
"+X c #57A363",
"@X c #5BB965",
"#X c #67A76B",
"$X c #6BA775",
"%X c #75A878",
"&X c #6EB776",
"*X c #75BA7B",
"=X c #66B56E",
"-X c #3EC84F",
";X c #44FD40",
":X c #65F25C",
">X c #75C27E",
",X c #74FF72",
"<X c #44CF50",
"1X c #7D9882",
"2X c #79A883",
"3X c #7AB183",
"4X c #7EF783",
"5X c #7CCC85",
"6X c #858986",
"7X c #869688",
"8X c #939393",
"9X c #999C98",
"0X c #929094",
"qX c #84A386",
"wX c #89A78B",
"eX c #85B787",
"rX c #95A195",
"tX c #99A69A",
"yX c #8CB793",
"uX c #97B89B",
"iX c #9FA7A0",
"pX c #9DBDA5",
"aX c #A7ABA7",
"sX c #A8B6A8",
"dX c #B3BCB4",
"fX c #BABCBA",
"gX c #B3B4B3",
"hX c #AFB5B1",
"jX c #8DC095",
"kX c #9AC5A5",
"lX c #99D1A2",
"zX c #AEC1B3",
"xX c #BDC3BD",
"cX c #B4C5B8",
"vX c #B8D3BC",
"bX c #A9C3AC",
"nX c #A6EAAA",
"mX c #C2CABF",
"MX c #BDC8C0",
"NX c #BDD4C4",
"BX c #C5CBC5",
"VX c #C9CBCA",
"CX c #C3C5C4",
"ZX c #CED2CD",
"AX c #C8D4C9",
"SX c #CFD3D0",
"DX c #D4D4D3",
"FX c #D6D9D6",
"GX c #DBDCDA",
"HX c #D0D2CF",
"JX c #DDE0DD",
"KX c #CEFCC9",
"LX c #E2E1DF",
"PX c #E2E3E2",
"IX c #FEFEFF",
"UX c #ECFBEE",
/* pixels */
"                                    + O = = ; : : : , : = % +                                   ",
"                              O % = ; 9 0 > > e i 0 e e e e 7 > ; % o                           ",
"                          O = = ; > 2 7 t i u d p p h p d d u t r q ; # o .                     ",
"                  .   # = : ; q r r i d r d l h l j k D W D S k l p t e 2 O   X                 ",
"                  . $ * : 2 7 y h p p g l D j W Y W G ) ) ' ' T G G A Z w q =                   ",
"                + & = 2 r s a a a j j A A D D T ) ! ' ] ] %.=.%.<.#.Q ) k p r ;                 ",
"              + = : r s s V a F H H Z H H F W G ! Q #.#.*.>.Y.].~.E.w.&.G F p r > +             ",
"            + = > s w g a J J 8 N J K J W ! Q I ] ~ >.Y.^.[.^.~.w.! %.].0.Q F a s ; .           ",
"            = 7 u s A A J J # b v # A / L L / #.I Y.E.^ N 3 0 0 P c.M 5 }.=.[ F p i = +         ",
"          = q r g Z L L I X k.N.N.x.@ K U I I ^ L.L # .   9 E #X,X:X;Xl.a }.&.G k u e %         ",
"        O 7 u j F H L U . 1 M.l.l.M.n N U I H.I X     O 2 ` g.KXUXnX:XD.5 }.*.} G h y > O       ",
"      + > s j G K ! ;.q   z B.z.z.B.n V F.G.5     .   # i ` 8XIXIXUX,XD.w {.q.&.' D p e = .     ",
"      = u j W ' | $.I       l.B.B.N.@ v.v.@             t y.rXLXIXKX,XU 4._.3.&.' F j u 2 %     ",
"    + e h ) | <.<.:.4   .   6 v m @ U b.+   +     X V !.=X5XnXvXhXwX3.y.=XW.9.%.| ) D d e - +   ",
"    = h ( } 2.q.8.0.o     C J.P U v.n.#   .     C U.`._.#X$XeXlXlXyX3X*XE.L.-.%.] ' D d r > $   ",
"    i ` o.6.p.u.].~     5 U.v.b.b.K.*   o   4 b.).U.H.Q.[.$X%X3X%X*X*X+X).E.L.*.T K H S p 2 %   ",
"  O k o.p.s.}.d. X]     P.F.F.v.U.6 X X   b J.G.F.P.P././.[. X%X*X$X~ I Q J I L.>.K F S a r = . ",
"  9  .i.f.XXXX.X1X=.  s +XP.L.J.U X     J m.F.G.J.).!.T.^. X%XW.3   .       . o y ~ L D g r 9 # ",
"  u r.g.6X7X7XXXqX3.  ,.+X!.U.).X     B K.K.K.n.Z Z 0.+XR.[.V X - 8 w X       c m @ H L f w q & ",
"  ( g.6X9XrXrX7XwX.X   X#X!._.J     N <Xb.B $ < h.k.z V +X#.'  X X{.R.T.^ $ k.C.B.l.= K Z p e = ",
"O @.6X9XaXaXtXtXwXwX, $X X[._.#   * -XB   .   C.A.Z.A.z ,./.].w.w.q.:.$.!.V x.x.j.N.x | H g 4 ; ",
"O a.9XaXgXgXsXaXtXuXo.oX$X%XI   X G.6   X   n A.M.M.Z.z.s ^.w.w.8.w.9.>.L.y n Z.B.j.* T A h r ; ",
". 6XaXfXmXfXdXhXaXpX7X2X%X&Xs   N 4 .       v A.M.B.S.l.S !.9.L.0.-.:.>.^ ;.$ x c @ T G F j q 9 ",
"% 0XgXCXVXBXxXfXsXaXuXwXeX|.O = 4 X   X C n.4 l.A.S.V.1 ;.P.;.Y.0.;.>.-.*.~ >.F R K | H A a p 3 ",
"% 0XfXVXDXHXVXCXcXsXuXwXyX-.. 0 %   C `.'.).U.3 c c < ~ U.L.L.L.9.=.-.*.*.~ #.$.=.Q G G D k i ; ",
"& 9XCXDXGXDXHXCXxXgXsXyXjXG > , o T.@XQ.G.U.U.).^ I ).`.P.I.;.;.Y.W.Y.>.~ &.%.] | ' ' W D j u > ",
". 0XVXDXGXGXDXVXvXcXsXuXkXd 0 $ /.&X^.^.^.Q.T.U.`.).I q < X   + * 4 A &.0.*.%.} { | ' ` D h y : ",
". 6XDXFXPXJXGXDXBXmXbXkXyXi $ 6.>X X|./.].[.^.^.V X     o         . n 1 j 5.} { } | ) ` W h i = ",
"  g.VXGXPXPXLXFXAXxXzXbXwX0 F yX$XoX X|./.$X$.      4 5 V V w <   h.Z.B.1 <.#...X.[ _ ) k h i % ",
"  E VXDXPXPXPXFXZXNXzXcX7X& OXeXOXoX|. X&Xa     J T././.!.W.E.Q.S m A.M.6 3...&.X.X.[ ` E d e + ",
"  : gXDXPXPXLXJXAXAXcXvXXX, wXeX2XOXoX*Xa   V [.[.W.Y.Y.:.8.:.-.W.s z < D 5.&.@.o.o. .` k d > + ",
"    1XSXFXLXJXJXSXBXcXvXs.i uXwXOXoXeXj   $.#X].(.Y.Y.Y.9.;.:.8.,.w.} e.w.2.O.O.O.O._ ` l u =   ",
"    k CXHXGXGXGXDXVXcXAXd.k kXqX1XeX3.. 8.$XW.Y.T.E.;.:.9.9.8.8.q.3.0.3.2.2.&.O.O.O._ ` h e %   ",
"      0XVXDXGXDXDXBXcXBXa.Y kX7X2XqX  { %XW./.[.E.Y./.~.W.;.8.3.5.5.5.3.2.4.4.+.@.o._ Y d 0 .   ",
"      k gXVXHXHXHXBXcXvXs.X.bXOXuXr 7 eXw.$X0.3 + X . s { ].1.0.q.6.4.4.4.2.4.+.@. .( l i =     ",
"        g.gXxXCXVXmXdXvXXX} sXwX}.O %X].oX~       X k.B.1 W R.3.6.6.6.4.r.+.r.+.@. .( h e       ",
"        > 8XaXfXfXfXdXcX6XO.uXrXk 5.OX.Xw.X w I e m A.B.C.5 u.5.6.6.4.i.i.i.r.@.o.` k u +       ",
"          k 0XiXaXsXhXhXrX4.tXOXA 1Xf. Xa 2.].[.<.v A.V.V.8 q.5.6.4.4.i.i.r.r.@. .k d ;         ",
"            ( XX9X9XtXtXtXy.rXd.2.XXd.].d.].3.8.W.q n j.< W ].7.6.4.i.i.r.+.@. .` h >           ",
"              ` s.XX6X8X7Xs.6Xs.XXf.d.d.t.6.w.8.8.0.k p | R.2.7.4.6.r.i.+.o._ E h 0             ",
"                k @.a.s.f.XXg.f.s.s.s.d.6.6.7.3.3.3.w.w.q.e.4.6.6.r.@.@.o._ Y l e o             ",
"                  t _ o.+.p.p.p.p.p.r.r.4.4.2.2.&.<.<.} <.O.2.2.@.@.o. .( Y u e                 ",
"                    ; k ( ` o.o.o.@.@.@.O.O.O.} O.} } } ..} } [ [ [ ( k l u =                   ",
"                      . e p l ( ( ( _ ` _ _ _ _ [ [ [ [ ) _ ) ` Y k l p 0 .                     ",
"                          O e e d h h l k k D ( Y Y D k k k l h h u > %                         ",
"                              + = > e e i u u i u d d d u i e e > O                             ",
"                                    + % : , : > 9 > , > = = + +                                 ",
"                                            + +   o   .                                         "
};
