/* XPM */
static char *WeaponIcon_[] = {
/* columns rows colors chars-per-pixel */
"48 48 256 2",
"   c #010101",
".  c #0A0402",
"X  c #0B0A01",
"o  c #01000A",
"O  c #0B0B0B",
"+  c #070803",
"@  c #150D03",
"#  c #191508",
"$  c #131313",
"%  c #1B1B1B",
"&  c #1A1916",
"*  c #0D0D15",
"=  c #251B08",
"-  c #351C00",
";  c #241D15",
":  c #2B2A07",
">  c #382A07",
",  c #3A3605",
"<  c #23221D",
"1  c #292617",
"2  c #322D18",
"3  c #363215",
"4  c #1F1A20",
"5  c #221B23",
"6  c #242424",
"7  c #292924",
"8  c #2C2C2B",
"9  c #262727",
"0  c #312C26",
"q  c #33322D",
"w  c #3A3827",
"e  c #343433",
"r  c #3C3B34",
"t  c #3C3C3B",
"y  c #37383A",
"u  c #1E2424",
"i  c #462A03",
"p  c #4D3302",
"a  c #43390C",
"s  c #5B3902",
"d  c #42381A",
"f  c #503F11",
"g  c #683D03",
"h  c #413E35",
"j  c #433726",
"k  c #3F4136",
"l  c #4C4718",
"z  c #554A1C",
"x  c #584F0E",
"c  c #6B4402",
"v  c #764803",
"b  c #675915",
"n  c #705706",
"m  c #6A6516",
"M  c #766913",
"N  c #7D6D05",
"B  c #4A452C",
"V  c #564B27",
"C  c #5A5428",
"Z  c #434133",
"A  c #4A4533",
"S  c #43433D",
"D  c #4A463A",
"F  c #4B493D",
"G  c #4D4A33",
"H  c #534D32",
"J  c #564F3B",
"K  c #565334",
"L  c #5C5533",
"P  c #55523B",
"I  c #5B5739",
"U  c #4F503E",
"Y  c #655A2A",
"T  c #645937",
"R  c #6A612C",
"E  c #776B27",
"W  c #6D6839",
"Q  c #766A37",
"!  c #7C7237",
"~  c #76732C",
"^  c #444442",
"/  c #4B4A45",
"(  c #4C4C4B",
")  c #484742",
"_  c #534E47",
"`  c #4F504B",
"'  c #52514C",
"]  c #5A5746",
"[  c #555451",
"{  c #5B5A55",
"}  c #5C5C59",
"|  c #585752",
" . c #444757",
".. c #635D48",
"X. c #605F5B",
"o. c #5F605B",
"O. c #696448",
"+. c #766C49",
"@. c #7C7545",
"#. c #79734C",
"$. c #6A6554",
"%. c #6C6A54",
"&. c #63625B",
"*. c #69655B",
"=. c #6D6B5C",
"-. c #656253",
";. c #726C54",
":. c #736D59",
">. c #747156",
",. c #7A7354",
"<. c #7A765C",
"1. c #6E715E",
"2. c #6A6964",
"3. c #686764",
"4. c #77756B",
"5. c #7A7A75",
"6. c #706E6A",
"7. c #895901",
"8. c #955B03",
"9. c #88771A",
"0. c #907215",
"q. c #A56800",
"w. c #B67702",
"e. c #B76E05",
"r. c #87772B",
"t. c #917C28",
"y. c #88783A",
"u. c #806C2B",
"i. c #A17936",
"p. c #C87700",
"a. c #847A49",
"s. c #857D54",
"d. c #917C43",
"f. c #857E67",
"g. c #807F73",
"h. c #9A8916",
"j. c #A99114",
"k. c #968628",
"l. c #99893C",
"z. c #938D3B",
"x. c #A18C28",
"c. c #AB973A",
"v. c #B29830",
"b. c #BCA72D",
"n. c #B6A21B",
"m. c #CA8501",
"M. c #D78A01",
"N. c #D89914",
"B. c #CF900E",
"V. c #EB9501",
"C. c #EA9702",
"Z. c #F39A01",
"A. c #F79802",
"S. c #EE9107",
"D. c #D6B61A",
"F. c #DBB20A",
"G. c #FCA302",
"H. c #FEAB01",
"J. c #F9A703",
"K. c #FEB101",
"L. c #FDB804",
"P. c #FAAC12",
"I. c #C1A824",
"U. c #D4B727",
"Y. c #C5AC34",
"T. c #CBB436",
"R. c #D2B32D",
"E. c #F0BA2F",
"W. c #D09B29",
"Q. c #C4C100",
"!. c #FAC807",
"~. c #FAD709",
"^. c #FCCE1A",
"/. c #FCE707",
"(. c #FEF803",
"). c #F1CD2C",
"_. c #89834B",
"`. c #9A8C42",
"'. c #98894A",
"]. c #999043",
"[. c #8A8559",
"{. c #9C8D54",
"}. c #958B59",
"|. c #9E9658",
" X c #A79648",
".X c #B69C46",
"XX c #A69858",
"oX c #A18D4C",
"OX c #B5A644",
"+X c #BAA85A",
"@X c #AEA151",
"#X c #8B8366",
"$X c #998E65",
"%X c #9D9569",
"&X c #888678",
"*X c #928974",
"=X c #9A9675",
"-X c #A3996B",
";X c #A69A67",
":X c #A29C7C",
">X c #A59C74",
",X c #B19E74",
"<X c #B6A868",
"1X c #AAA37A",
"2X c #BCB17B",
"3X c #B1A66D",
"4X c #C3AD49",
"5X c #CAB448",
"6X c #D3B643",
"7X c #C7AE59",
"8X c #C6B270",
"9X c #F7CF51",
"0X c #F6D272",
"qX c #FFE07B",
"wX c #DCD273",
"eX c #8C8A83",
"rX c #878483",
"tX c #93928B",
"yX c #999685",
"uX c #9A9A95",
"iX c #A19D85",
"pX c #A49E90",
"aX c #9EA09B",
"sX c #A9A384",
"dX c #B4AD89",
"fX c #BAB488",
"gX c #A7A596",
"hX c #BAB599",
"jX c #B2AD92",
"kX c #AAA9A3",
"lX c #B0AEA9",
"zX c #B9B8A9",
"xX c #BBBAB4",
"cX c #C7BD84",
"vX c #C1BC9E",
"bX c #C2BEA3",
"nX c #C1BFB8",
"mX c #CEC595",
"MX c #EFDB8A",
"NX c #CAC4A9",
"BX c #C4C1B5",
"VX c #C9C7B9",
"CX c #D2CCB7",
"ZX c #D8D3B0",
"AX c #F8EAAB",
"SX c #CBCBC5",
"DX c #D1CEC5",
"FX c #D8D6C8",
"GX c #DBDAD4",
"HX c #CFD0CA",
"JX c #E0DDD5",
"KX c #E0D8C1",
"LX c #E7E5D9",
"PX c #E8E5CE",
"IX c #FDFCFD",
"UX c #EEEDE4",
/* pixels */
"                                  O O * * $ & & % % & $ $ O O                                   ",
"                            + O $ & $ & < 5 < 6 6 6 9 6 9 < ; 4 * O                             ",
"                          $ $ & % < 9 9 0 q 0 q q w q w e q 8 9 9 % & O                         ",
"                      O $ % % < 6 9 q 0 q w h h Z Z A D Z S r h e 8 8 % $                       ",
"                  O * & % < 6 9 q q r r h B B A G U P U _ P ] / ) h y 8 9 & O                   ",
"                O $ % 6 9 8 q e w k Z A G H K L I T T O.+.$.O.*...| _ ^ r 8 u O                 ",
"              O $ 5 6 9 q e r h Z A G H H T Y Q y.y.l.y.a.a.[.[.s.,.%.] F r q < $ +   +         ",
"            O % 6 8 q q r r h D G K K I R ~ y.Q V 2 1 . ; @X3X;X;X-Xs.#.O.P B r 1 $ X + +       ",
"          O % 9 8 e y h S D G U H L T u.r.C #       o   OX8X8XwX2X2X<X|.#.+.I A q 1 # X X       ",
"          % 9 8 e t S ^ D _ P T T Q y.l X       : M b.).9XqXMXZXAXMX8X+X'.a.Q C B w ; # X + +   ",
"        % 9 e y ^ F / _ P ] T Y ! R 1     1 0.D.).n.k.k._.$XZXIXUXNXwX9X6Xc.r.~ C Z 2 < @ X +   ",
"      $ 9 q y ) / _ _ ] ] T ..@.Y .   > 9.).I.b = > c 8.i.7XPXIXIXnX-. X~ k.c.C C C j 1 # X +   ",
"    O 4 q t / ` [ | | O.O.O.s.H o + E Y.b., = v C.P.L.^.).0XPXIXIXAX7Xj n > ; p - ; V 2 = # +   ",
"    % 8 S ` ' } { -.O.%.O.s.V   1 l.T.b # 7.G.K.J.A.G.P.E.9XqXAXbX6.8 w !.V.p.G.M.# Y w 1 $ +   ",
"    9 h ( | o.2.$.%.;.%.[.K   l c.l.1 . w.C.M.M.V.A.Z.N.B.i._.(  .d.W.N.A.S.V.M.p 3 Y B 2 & X   ",
"  $ y ( } 6.6.4.4.<.,.$XL   K  Xl.~ x b a > > , > : i a m t.0 Y E.^.P.G.Z.V.V.i 3 t.C B 2 < O   ",
"  u / } 6.4.g.g.5.s.=X... W XX'.`.c.4XY.Y.U.).^.~.^.~.(.~.i W.^.P.P.A.A.Z.S.H.p m r.Y A w 1 O   ",
"o t } 6.5.eXeX&X#XiX>.. ,.3X'.].z.l. XY.I.v.h.0.x j./.Q.: N !.S.G.G.A.J.C.@ v > t.E Y A w 7 &   ",
"O ( 3.rXtXtXyXtXsX*X@ [.3X|.XXoX.X7Xl.b 1     + + D.: p g v H.A.Z.A.H.C.@ @ - m x.R Y A w 7 &   ",
"% 3.rXuXaXaXpXgXiX2 =X3X;XXX@X8X'.3         = l D.= w.L.L.V.J.H.K.G.n   = K.7.l k.Y L H r 7 4 O ",
"8 5.tXaXkXlXgXkX' =X2X-X;X+X<X3     + B u.b.b.).> 8.L.M.Z.J.@ m.8.:   c Z.Z.> M t.W C A r 8 < O ",
"y eXaXxXxXzXxX*XiXvXiX1XmX;XX   = a.@X+X4X.X6Xt.s !.G.H.L.g a x N , 7.G.V.e.= v.E T I D r 8 6 O ",
" .aXxXxXnXnXbXzXvXdXdXmX#X    #.8X<XXX|.XX.X4XO q.m.e.8.i x /.(.n v H.m.A.i m x.Q R _ D k q 6 * ",
" .lXnXSXHXVXnXNXvXvXmX[.  7 1X8X-X%X-XXX XXX.Xb z x N N h.!.~.N - K.m.Z.e.# v.r.W T K D r q 6 O ",
"[ xXSXSXHXHXDXNXNXZX*Xo ] cX2X>X-X-X|.;X|. X@X5XT.).M > X F.F.# Z.V.M.Z.# 9.x.u.W Y P D r q 6 O ",
"| xXSXGXGXGXCXVXFX=X* f.ZXdX1X1X>X:X;X%XXXXX Xc.6Xr.o   0./., 8.H.p.G.g l I.k.y.W ] P D t q 6 $ ",
" .xXGXJXGXPXDXPXgX5 iXZXfXdXdXsXsX>X%X%X;XXX X5Xr.    x ).j.= H.m.H.q.# D.x.E l T W ] F r e 6 O ",
"S xXHXGXLXKXUXxX) hXKXvXhXfXdXsX1X:X1X-X|.XX7X!     x R.D.3 q.A.H.q.+ n.n.&   @ +.T _ ) r 8 6 O ",
"4 xXHXLXLXUXFX3.VXKXbXbXbXhXjXsXsX>X-X;X3X+XC     V T.I.k.: L.G.s # I.U.2     Q +.] ] F t 8 %   ",
"  uXHXLXLXLXrXVXPXNXNXNXhXfXjXsX1X>X,X8X|.2     R 6Xc.T.a M.m.# l D.U.a   . Y a...I ] ) r 9 %   ",
"  2.HXGXLXgXGXLXKXCXCXbXbXhXdXdXfXfX>XA     1 `.7Xl.OXz.X c = t.E.b.a     z '.W O..._ F r 9 $   ",
"  e SXGXlXGXUXFXFXCXNXbXvXbXmXfX[.0   o # +.+X@Xl. XOXd # E T.R.k.;     Q '.W $.O.] _ S q 4 O   ",
"    tXVXHXUXGXFXFXFXFXKXmX=X` * o $ K _.<X<X{.].oX`.`.t.OX5Xc.b   + # y.`.Q +.%.O.] ( h 8 <     ",
"    ^ SXDXGXLXLXGXBXyXo.q 7 h ;.=X2X<X3X|.{.{.{.{.'. XOX`.C @ o   V ]._.@.+.:.O.O.' / y 8 O     ",
"    + eXBXDXBXkX*X5.4.&XgXbXmXfX1X-X%X$X}.}.}.|.XX|.+.2     @ V '.{.a.@.+.+.%.-.{ ' ^ e 6       ",
"  +   e lXzXkXxXDXCXFXCXbXjXsXyX=X=X%X%X3X-X}.O.w   o O j ! _.'.a.#.,.#.;.%.*.} ' / t 8 O       ",
"    +   &.kXBXVXBXBXzXlXgXsXsXyX>X=X%Xs.K w X $ < H @._.}._.a.#.,.,.;.>.=.*.3.{ ( S e &         ",
"        + 6.uXkXlXxXzXlXkXgXiXiX&X$.A r r ..,.#X$X[.f.,.>.>.>.:.;.$.:.*.*.*.} [ ) y 6 O         ",
"          & 6.tXpXgXgXgXaXyXyX*X#X4.&X*X*X#X<.>.;.;.;.;.;.:.;.%.=.=.*.2.&.} | / t 8 *           ",
"      +     % *.5.eXtXtXtXtXrX&X&X5.4.1.1.=.>.=.=.=.%.$.%.*.=.=.*.*.&.o.| [ / t 8 $             ",
"              & ' 2.6.5.5.5.5.5.6.4.1.1.2.=.*.*.$.$.*.*.$.*.&.&.3.&.} } ( / t 9 $               ",
"                $ k [ } o.3.6.3.3.3.3.&.&.&.o.o.X.X.} } } } } } } [ ( / ^ t 9 $                 ",
"                  O 9 S )  .[ [ } } { { { { | { | | [ [ | | [ ( ( / ^ y e 6 O                   ",
"                      % 9 y t ^ ^ ) / / ( ( ( ( ( ( ( / / ) / ^ t y e 9 $                       ",
"                        O $ 6 8 e e y y t ^ t S S ^ t t t y y e 8 u & O                         ",
"                            + * % 4 u 6 9 8 8 e q 8 e 8 9 9 9 % $ O                             ",
"                                  O O $ & % % % % % 4 % & *                                     ",
"                                          o   o   O                                             "
};
