/* XPM */
static char *WeaponIcon_[] = {
/* columns rows colors chars-per-pixel */
"48 48 256 2",
"   c #010101",
".  c #020509",
"X  c #0C020B",
"o  c #0B0B0C",
"O  c #070706",
"+  c #120002",
"@  c #1C0403",
"#  c #1A0B04",
"$  c #180C0B",
"%  c #1B130B",
"&  c #090615",
"*  c #150917",
"=  c #081314",
"-  c #131313",
";  c #1D1C17",
":  c #14151B",
">  c #141C1A",
",  c #1C1C1C",
"<  c #1B1516",
"1  c #230101",
"2  c #230A04",
"3  c #230A0A",
"4  c #28140C",
"5  c #221C1B",
"6  c #241717",
"7  c #311215",
"8  c #1B211D",
"9  c #23241B",
"0  c #362D1A",
"q  c #1C1D22",
"w  c #121823",
"e  c #150E22",
"r  c #231C22",
"t  c #251F29",
"y  c #381F28",
"u  c #1D2223",
"i  c #1C2628",
"p  c #1B353B",
"a  c #1B2D34",
"s  c #232323",
"d  c #23252A",
"f  c #242A2D",
"g  c #2B2B2B",
"h  c #282725",
"j  c #362A29",
"k  c #292D34",
"l  c #2B353A",
"z  c #293539",
"x  c #333333",
"c  c #353B3B",
"v  c #3B3B3C",
"b  c #353638",
"n  c #31312F",
"m  c #473B3B",
"M  c #4B3234",
"N  c #3B4B26",
"B  c #444B2A",
"V  c #55702B",
"C  c #1E3745",
"Z  c #2B3D43",
"A  c #253942",
"S  c #343E41",
"D  c #3B3D42",
"F  c #272F44",
"G  c #473E41",
"H  c #1A4753",
"J  c #2A444A",
"K  c #344143",
"L  c #3D4345",
"P  c #35454A",
"I  c #3D464A",
"U  c #3A4B4D",
"Y  c #284A57",
"T  c #344C51",
"R  c #3A4C53",
"E  c #2A505A",
"W  c #3A5459",
"Q  c #1A5B6F",
"!  c #285766",
"~  c #395A67",
"^  c #2A586F",
"/  c #16647C",
"(  c #3B656C",
")  c #28687C",
"_  c #3B6573",
"`  c #376979",
"'  c #3D707E",
"]  c #28606F",
"[  c #434444",
"{  c #434A4C",
"}  c #4C4C4C",
"|  c #494647",
" . c #50534F",
".. c #434D52",
"X. c #484950",
"o. c #4B5254",
"O. c #43545C",
"+. c #475959",
"@. c #535454",
"#. c #5A5B5C",
"$. c #55585A",
"%. c #524B4C",
"&. c #695C58",
"*. c #696B5F",
"=. c #455B66",
"-. c #5D5F60",
";. c #44646C",
":. c #476268",
">. c #5D6264",
",. c #586568",
"<. c #436C7B",
"1. c #476875",
"2. c #44777E",
"3. c #577579",
"4. c #556D77",
"5. c #616669",
"6. c #666769",
"7. c #697578",
"8. c #757778",
"9. c #6F7271",
"0. c #689031",
"q. c #79A936",
"w. c #7CB336",
"e. c #7E807F",
"r. c #709746",
"t. c #85BC3B",
"y. c #87B939",
"u. c #80A933",
"i. c #8CC43B",
"p. c #89C638",
"a. c #93C83C",
"s. c #99D53B",
"d. c #94CB2F",
"f. c #86BB44",
"g. c #9FBE7B",
"h. c #8CC443",
"j. c #94C845",
"k. c #9BCD54",
"l. c #9FCF58",
"z. c #9AD548",
"x. c #A2D053",
"c. c #A4E64D",
"v. c #A8D765",
"b. c #B2D679",
"n. c #A7CF6C",
"m. c #A0E05C",
"M. c #C3FC79",
"N. c #146F8D",
"B. c #266E85",
"V. c #356D84",
"C. c #28768A",
"Z. c #3B7689",
"A. c #297B94",
"S. c #377B94",
"D. c #426E81",
"F. c #467787",
"G. c #597883",
"H. c #537D93",
"J. c #697985",
"K. c #747E84",
"L. c #2A849C",
"P. c #388499",
"I. c #39919F",
"U. c #1890B1",
"Y. c #288AA9",
"T. c #3B8EAA",
"R. c #388BA5",
"E. c #3793AF",
"W. c #2794B6",
"Q. c #3797B8",
"!. c #2E8FAD",
"~. c #478698",
"^. c #578898",
"/. c #4F8C97",
"(. c #678488",
"). c #668995",
"_. c #758C96",
"`. c #69929A",
"'. c #79919A",
"]. c #77898B",
"[. c #488DA4",
"{. c #558AA2",
"}. c #4993A9",
"|. c #5593A7",
" X c #469CB9",
".X c #599DB6",
"XX c #6595A5",
"oX c #779DAC",
"OX c #4AA3BB",
"+X c #5CA6B7",
"@X c #73A6B4",
"#X c #299BC5",
"$X c #1EA9D5",
"%X c #26A4C8",
"&X c #32A8CF",
"*X c #19B9E8",
"=X c #15B4F8",
"-X c #32BDEA",
";X c #29B6E3",
":X c #1E9DD0",
">X c #48B4DC",
",X c #46A8CB",
"<X c #78B7C9",
"1X c #6CB0CB",
"2X c #44BBE1",
"3X c #60BCE1",
"4X c #11C8FC",
"5X c #2ACEF8",
"6X c #6FC3DD",
"7X c #74CDED",
"8X c #7BE0FF",
"9X c #53CAEC",
"0X c #868889",
"qX c #979999",
"wX c #8B9594",
"eX c #889CA5",
"rX c #9798A3",
"tX c #8BA9B5",
"yX c #95ADB5",
"uX c #95A9AE",
"iX c #A9ABAB",
"pX c #A7AEB1",
"aX c #A9B3B6",
"sX c #B8BABB",
"dX c #B5D587",
"fX c #BFE091",
"gX c #C1DB90",
"hX c #C1E09C",
"jX c #CEEAA8",
"kX c #D7EFAE",
"lX c #86B7C8",
"zX c #97B8C5",
"xX c #A6BDC3",
"cX c #B3BEC1",
"vX c #9AC9D9",
"bX c #90CCDC",
"nX c #AAC4CC",
"mX c #B8C4C9",
"MX c #AACAD2",
"NX c #BACDD5",
"BX c #B8D1DD",
"VX c #ADD4D9",
"CX c #ADDBE8",
"ZX c #97DCF4",
"AX c #C6C8C8",
"SX c #CAD4D7",
"DX c #D6DBDD",
"FX c #D2D4D5",
"GX c #C2CFD2",
"HX c #E3F8CC",
"JX c #C8DAE1",
"KX c #D9DEE0",
"LX c #D9E2E7",
"PX c #CAE6EC",
"IX c #FBFBFA",
"UX c #ECF4E8",
/* pixels */
"                                      O O O . o O O . & . . .   . .   .       .                 ",
"                              . O o - - > u , u i f u u i > > = . .       .                     ",
"                          O o - : , , u i d k f p z f z A a a i q : = . .                       ",
"                      O o - , q s s d f z z A Z J J J Y J J J A p i i > . .   O                 ",
"                    O - - ; r t d g k c Z J Y Y Y ! ! ^ ^ ^ ! T Y J F g q - . .                 ",
"                . o - , s s g k x b S J Y E ! ] B.C.A.A.L.A.P.C.` ~ E Z z i = .                 ",
"              O o ; u s g g x S c K J T ! ! B.) H : & X X e H A.Q.Z.( ^ J z f : .               ",
"            O - ; s g g n b S S P P E ! ! A.Y &   0 V V V B # + H  XR.1.( P c f : O             ",
"            - ; h g x b D D D D U W ~ ^ A.p O 0 q.p.a.s.s.c.m.*.1 k ,X~.<.~ T l f -   .         ",
"          - 8 g n b v D N [ [ R W W ! A.H   V p.w.q.y.y.j.l.m.M.g.M P -X/.1.W L b 8 - .         ",
"        - , g x v [ [ [ [ U { R ~ ~ B.B.. N d.q.q.y.p.j.l.n.gXjXkXdXy F.,XF.;.R S f q o         ",
"      O , g x D [ | | | } ..o.+.~ _ L.C $ w.q.q.y.y.h.j.v.dXHXIXIXHX9.x ,X~.<.~ P x s ; O       ",
"    O : g b m | } } @.} @.o.=.$.` V.L.$ B p.q.w.w.i.h.k.n.gXUXIXIXHXn.y T.}.` :.R c g , -       ",
"    O h x [ } @.@.@.$.@.#.$.=.=.` S.C.X 0.t.q.y.t.h.a.l.v.dXkXIXUXkXdXy V.OX<.:.O.L x s > O     ",
"    , b [ @.$.-.>.#.>.#.-.>.4.4.Z.P.C.X q.p.q.y.p.h.h.k.k.b.fXhXhXb.v.0 ^ &XF.~ O.I b n u -     ",
"  O g [ @.-.5.6.6.5.6.5.>.,.4.2.F.R.A.+ 0.y.y.t.y.i.a.j.k.v.v.b.b.v.v.3 !  X<.;.O.X.v x s - O   ",
"  ; D $.5.7.7.6.8.9.7.7.5.7.3.F.F.R.!.X V s.w.y.y.h.p.j.j.k.l.x.x.x.f.+ B.E.D.;.O.{ L b g , o   ",
"  g o.6.7.(._.e.(.(.J.J.(.J.G.H.[.R.$Xw 0 z.f.i.t.y.i.j.j.j.j.j.h.c.0.. !.R.' ;.O.{ L b h s -   ",
"O L ,.J.].wX'.`._.).).).(.).^.{.E.Q.W.6 * q.d.w.p.y.p.p.a.a.i.h.p.z.$ C %XA.V.;.O.{ L v g s -   ",
"- @.8.].oXeXoX@X<XXX`.XX|.^.^.[.E.&X) 2 , 6 z.a.y.y.t.i.t.h.h.h.c.N X A.%XS.' ( O.{ L v x h , O ",
"d 5.].eXtXtXlX,.X.1X1XXX.X|..X XQ.-XA 6 s & h a.z.i.y.y.t.y.s.s.N & 4 C :XS.` ] =.X.L D x g r o ",
"b K.eXyXyXzX6X| 0 D .X3XOX+X,X,X&X$X3 r r h e * V y.z.s.z.p.0.s & 5 q 3 Y.L.V._ ~ ..I v x g 5 o ",
"D wXpXzXzXvX@Xm X.m j ~.9X>X,X,X5XA.@ i ; 5 9 q * - s n s : & < h r , 2 Q Y.V._ ~ ..L D v g 9 - ",
"} uXxXVXMXCX(.%.o.%.G 0 +.>X5X;X5XH 4 9 s r r 9 5 d > * 6 5 5 5 , , r # d U.V._ =...{ L v n s o ",
"@.pXnXBXVXCX5.#.#.%.} X.j j Q.5X4X7 9 r 9 8 r 5 q 4 # r r ; r r , , 5 6 $ C.A.) ~ O.X.I v n h o ",
"$.cXMXBXBXzX&.&.&.%.@.| | m 7 A.W.4 f 5 r r r r # N.N.1 u 5 5 q , 5 6 , $ H Y.` _ W R I v k h o ",
"o.cXNXSXLXqX&.eX8X4.m %.| B G 7 j h j t 5 5 t 1 N.4X4XQ 1 , , ; , , q < < , Y.V._ ~ R R b n s - ",
"..cXNXLXJX8.uXZXZXZX).G | | G D b n h h h s @ Q *X#X:X*X/ 1 r , r < , r q # N.A.` ~ W R N n s o ",
"l cXSXLXxXqXPXCXvXbX8XXXG I | S b j g j d 3 ! -X#XQ.Q.W.*XN.1 r > r > , q $ p Y.V.^ ~ X.D k r O ",
"& pXSXLXcXPXPXBXVXbXbX8X+XM M B b j h g # E -XQ.E.E.T.W.!.*XA.1 < ; 5 , ; , < L.C._ ~ I S k ,   ",
". 0XSXKXUXLXJXJXBXMXvX<XZX1Xc j v n n 4 E -X X}.[.}.}.I.W.U.=XN.@ 6 : r : q 3 ! P.] =.U N k -   ",
"  $.GXSXLXLXKXJXJXMXMXvXlX3X6XL y v 4 Y >X XE.}.[./.~.E.W.U.:X4XU.% 6 ; 5 , $ a Y._ =.T l h - . ",
". - aXFXKXKXKXDXFXNXMXxXzXlX1X3X=.1 R >X X|.}.{.~.~.T.T.Y.$X$XN., ; , , ; 5 8 < ` V.~ U z s .   ",
"  . 9.AXFXKXKXDXSXAXcXxXzXlX1XlX1X<.1X|.|.|.{././.~.[.#X%XB.8 1 < 6 < , , q , + ! Z.W P n > .   ",
"    h iXAXFXKXFXFXAXcXcXyXzXyXoXoX1XXXXX`.^.^./.H. X#XV.a @ < u r , ; s < 2 : z ` 1.R K f o     ",
"O     6.sXAXFXFXFXAXcXcXpXyXrXeXeX'._.XX^.).~.^. XS.p 2 % s r ; > , 4 # , Y A.R.<.W Y l , .     ",
"      - 0XsXsXAXAXAXsXsXpXrXrXeX_.0X_.J.).J.^.Z.A # $ 5 r , 5 ; # 3 k / !.E.S.<.=.O.K i :       ",
"        x wXiXpXsXsXsXiXiXrXqXwX0X0XK.J.J.G.|.z + d 5 , , 6 1 3 C C.W.E.S.Z.D.;.W P z ;   .     ",
"          %.0XwXiXiXiXiXiXqXwX0XJ.J.(.8.7.G.G.}.J # d ; , < H Y.#X!.S.Z.F.F.;.=.R l q   .   .   ",
"             .g.0XqXqXqXqXwX0X0Xg.8.8.7.3.G.G.F.[.A # , , W.%X!.L.P.F.F.D.,.=...N f &     .     ",
"            O [ 9.8.e.0X0X0Xe.e.8.8.9.9.5.3.3.3.Z.T.A # $ ) Y.S.S.F.2.1.:.+.I S a &   O         ",
"            O   b &.5.9.9.8.9.9.6.9.6.5.,.,.4.1.F.F.P.F + k [.F.F.1.;.+.o.L K d . .             ",
"                  h [ } #.#.&.6.5.&.>.>.>.,.:.1._ ;.D.P.k + ` D.( :.+.{ v x , .                 ",
"              O     < x m | | %. .@.@.o.o.$.@.=.;.;.+.( Z.u i ;.O.U P x k <                     ",
"                        ; g x b v [ [ [ [ I X...W O.~ R ~ W i P L l z > o                       ",
"                          o - s g g n x c v c S N P Z S K l K z 8 u o O                         ",
"                              O o - ; ; 8 s h h f g g f u 8 w : O .                             ",
"                                    O O - - : - - : : : = = O . . . X .                         "
};
