/* XPM */
static char *WeaponIcon_[] = {
/* columns rows colors chars-per-pixel */
"48 48 256 2",
"   c #010101",
".  c #0A0405",
"X  c #0C0B0B",
"o  c #090907",
"O  c #120D0D",
"+  c #06140C",
"@  c #03041C",
"#  c #040A1B",
"$  c #140E16",
"%  c #041313",
"&  c #011A1B",
"*  c #0E1A1C",
"=  c #081716",
"-  c #141313",
";  c #1A1515",
":  c #131B1B",
">  c #1D1B1B",
",  c #181818",
"<  c #14140C",
"1  c #231D1D",
"2  c #291919",
"3  c #35191B",
"4  c #360B10",
"5  c #07211C",
"6  c #18221B",
"7  c #24211E",
"8  c #2C221E",
"9  c #36271E",
"0  c #030822",
"q  c #061A22",
"w  c #1A1D21",
"e  c #110D24",
"r  c #291D22",
"t  c #261E23",
"y  c #321629",
"u  c #082327",
"i  c #1C2222",
"p  c #1A2A27",
"a  c #143938",
"s  c #242222",
"d  c #2C2425",
"f  c #2C2A25",
"g  c #2B2A2A",
"h  c #28282A",
"j  c #322424",
"k  c #322629",
"l  c #332B2B",
"z  c #3B2C2C",
"x  c #372628",
"c  c #37312D",
"v  c #2C2B31",
"b  c #392C32",
"n  c #353232",
"m  c #3C3333",
"M  c #3D3A3B",
"N  c #3C3638",
"B  c #213131",
"V  c #461718",
"C  c #57161C",
"Z  c #410416",
"A  c #651715",
"S  c #79161E",
"D  c #49291C",
"F  c #4A1C28",
"G  c #681D27",
"H  c #751521",
"J  c #45282A",
"K  c #4C322D",
"L  c #462E32",
"P  c #552C32",
"I  c #443334",
"U  c #4B3333",
"Y  c #433C3C",
"T  c #4B3B3B",
"R  c #483838",
"E  c #533435",
"W  c #5B3335",
"Q  c #52353A",
"!  c #533B3C",
"~  c #5C3B3B",
"^  c #593838",
"/  c #543629",
"(  c #682829",
")  c #722D34",
"_  c #643235",
"`  c #683639",
"'  c #783639",
"]  c #6F292E",
"[  c #364A3F",
"{  c #46413D",
"}  c #5D433C",
"|  c #504924",
" . c #7A4A34",
".. c #6D581F",
"X. c #1F3D45",
"o. c #573B41",
"O. c #4E3F42",
"+. c #693C42",
"@. c #743C42",
"#. c #314C4A",
"$. c #4C4443",
"%. c #4B4848",
"&. c #544444",
"*. c #5B4B4B",
"=. c #584747",
"-. c #5C504E",
";. c #5B5454",
":. c #545655",
">. c #5F4F50",
",. c #674748",
"<. c #78464A",
"1. c #7A4D51",
"2. c #645253",
"3. c #695857",
"4. c #735354",
"5. c #78565A",
"6. c #664F4E",
"7. c #725E63",
"8. c #586A6E",
"9. c #6B6565",
"0. c #776566",
"q. c #747172",
"w. c #525F65",
"e. c #96161E",
"r. c #AF1A1E",
"t. c #B31927",
"y. c #87262A",
"u. c #9A2A2C",
"i. c #9C2934",
"p. c #873738",
"a. c #99353A",
"s. c #892F35",
"d. c #A7262C",
"f. c #B82429",
"g. c #AB2C31",
"h. c #B42C33",
"j. c #BC2D38",
"k. c #A83639",
"l. c #B6353A",
"z. c #AA352C",
"x. c #961720",
"c. c #D81A1C",
"v. c #E8191B",
"b. c #FC1519",
"n. c #C71B25",
"m. c #D91B24",
"M. c #E81926",
"N. c #FB1A26",
"B. c #C7262B",
"V. c #D3242B",
"C. c #C63639",
"Z. c #D12A36",
"A. c #E7363B",
"S. c #FC363D",
"D. c #F52B34",
"F. c #936E26",
"G. c #A27E32",
"H. c #EE413D",
"J. c #8B3A44",
"K. c #993643",
"L. c #A93B44",
"P. c #B93543",
"I. c #D13741",
"U. c #ED3843",
"Y. c #87474A",
"T. c #954448",
"R. c #994B53",
"E. c #885457",
"W. c #975759",
"Q. c #8D504D",
"!. c #A7444A",
"~. c #B4464B",
"^. c #A85559",
"/. c #B55456",
"(. c #B04755",
"). c #9D5962",
"_. c #865961",
"`. c #876566",
"'. c #96696A",
"]. c #857576",
"[. c #9A7676",
"{. c #956C70",
"}. c #B96B6D",
"|. c #A77779",
" X c #B77779",
".X c #A5696F",
"XX c #C54749",
"oX c #DC4449",
"OX c #D84B55",
"+X c #CC5056",
"@X c #E84C51",
"#X c #CF5966",
"$X c #FE5F63",
"%X c #C8686A",
"&X c #D56568",
"*X c #C56970",
"=X c #C5777B",
"-X c #D86E76",
";X c #E46B6D",
":X c #EB747A",
">X c #F36970",
",X c #B98927",
"<X c #BC861A",
"1X c #D2932B",
"2X c #EB9C2C",
"3X c #E79927",
"4X c #F39D29",
"5X c #F49E31",
"6X c #ECA22B",
"7X c #ECA226",
"8X c #F3A22B",
"9X c #F9A629",
"0X c #FDB829",
"qX c #F8A632",
"wX c #FFB734",
"eX c #E2A032",
"rX c #E09C1F",
"tX c #FFC32C",
"yX c #FFC232",
"uX c #A67C84",
"iX c #D27D83",
"pX c #988788",
"aX c #9C9998",
"sX c #8A8382",
"dX c #A78788",
"fX c #BA8586",
"gX c #AA9999",
"hX c #B59294",
"jX c #B8A8A7",
"kX c #BDB9B9",
"lX c #AEA6A7",
"zX c #B197A0",
"xX c #C49A99",
"cX c #D59998",
"vX c #CD8A8F",
"bX c #E99696",
"nX c #C9A4A7",
"mX c #D7A7AA",
"MX c #C5B7B7",
"NX c #D7B8B9",
"BX c #D2ABB1",
"VX c #EAB1B2",
"CX c #D69FA2",
"ZX c #C4C1BF",
"AX c #E0BEC3",
"SX c #C9C6C7",
"DX c #D9C7C7",
"FX c #DCD6D5",
"GX c #D1D0D1",
"HX c #E4CCCC",
"JX c #E5C4C6",
"KX c #E4DBDB",
"LX c #E5D5D5",
"PX c #F3DCDC",
"IX c #FBFFFC",
"UX c #FFDEE5",
/* pixels */
"                                    . X O O = , - O - - O . .                                   ",
"                            o X X , , , > 1 7 1 t d s 7 1 2 ; - O .                             ",
"                        o X - ; > 1 1 1 k d g k k l k l z f k k 1 > O o                         ",
"                    . X X , , w 1 k f k k z z z I I R U U U J J z x s , O                       ",
"                  o O , > w d g l d d I z I Q Q E E ^ ^ ` ,.+.E Q L z k s , o                   ",
"                o O : 6 s h l v z I j 2 T Q Q Q T ` ` <._ K <.<.,.,.! I c s , o                 ",
"              X - > r k k c b I m I Q x < W } _ ` ` a.^ O 3 = R.E.1.,.=.Y n d s o               ",
"        .   O ; r 8 z l J I R K E E ! +.3 + +.p.@.p.T.u S N.2 I }.W._.4.>.O.n h > X             ",
"          o 2 1 x z L I E U E ^ U _ Q _ +.- , ' p.a.~._ = V.A.X.=X X'.E.3.*.#.I h > X           ",
"        o , 1 x I L E E P _ W ^ ` ` ` ` @.P X 2 k.a.k.OX=.#.$X0.xXmXfX[.0.3.=.R c d ;           ",
"        - 7 l I / ^ ` ) ' ' ' _ ` ' p.' s.' 1 = ( P.l.+X:X8.zXHXPXJXxXuX'.0.2.$.I g 1 <         ",
"      - 7 l U U ~ ' W U x b +.p.' @.' p.y.k.r , * l.I.OX:XcXGXIXIXPXmXfX{.5.6.*.z c d 1 X       ",
"      1 l R ! +.<.r + 4 C 3 2 r ) K.s.s.u.h.3 : * G U.+X;XbXGXIXIXPXmXfX{._.4.} z T k s ; o     ",
"    - f Y &.,.<.P < M.b.M.e.A = = ( l.d.d.B.F : : t V.U.;XbXaXZXUXVXcX X'.E._.d I O.c k 1 X     ",
"    h M $.>.4.E._ O t.3 & 6 J V 2 + G f.f.M.D , d 5 f.S.OX;Xw.dXVXvX=X}.).).^ , ,.T I l 1 -     ",
"  O n %.2.3.5.E.W.Q & x k.j.C.l.j.( & f.M.x.$ @ e % C D.U.T.#.:X:X*X#X(./.Y.+ K <.! R l s 2 X   ",
"  6 %.2.0.`.`.W.W.~.~.l.l.l.h.h.f.B.m.r.$ # I ..F./ q 0 u.A.I.OX+X+X/.XXJ.= , <.} ! ^ m g t X   ",
"o N :.9.q.].{.'.).^.(.!.l.l.j.B.B.v.x.@ | 6X0X0X0X0XwXF.# G D.A.U.A.l.P * + ( <.` ~ E I g d -   ",
"  %.q.].pX[.|.|..X^.^.XXoXI.Z.V.M.r.0 F.0X8X3X3X3X2X7XtX1X@ H c.y.C : * - j K.' ` _ ^ L c 8 ,   ",
"i ;.q.pXpXhXdX|. X%X#XT._ J r 2 3 @ ..0X3X2X4X8X6X7X6X3X0X<X@ 6 & : 1 : 1 a.s.s.' W E U c 3 1 . ",
"v q.pXaXgXgXhXhX X6.c 6 i w s w : e 0X8X6X2X8X2X4X6X5X2X2X0X9 $ 2 8 : * i.u.s.s.J.' _ E z x 1 O ",
"M sXgXlXjXnXnX5.B B n n B p 6 g e | wX6X8X8X4X7X4X6X7X2X3X0XF.0 s & 1 f.g.u.s.s.3 8 W W K x r O ",
"%.pXjXMXZXgX3.3.[.|.=X*X/.!.( l 0 F.tX9X9X8X7X4X4X7X7X2X3X9X<X@ = C n.f.u.u.z.2 ; 4 : _ P x r O ",
"%.lXkXZXjXsXjXNXmXvXvX-X-X@XH.D.y ..yX8XqX9XqX4X7X4X2X3X3X2X1X@ r.M.d.d.i.d.y.& c.c.% P K J r O ",
":.jXZXZXkXDXNXnXxXxXvX=X%X+XOXS.L | yX6X9X9X6X7X4X8X2X3X3X9XF.@ v.t.d.d.g.u.% H b.2 , _ P x j < ",
":.ZXSXFXLXDXNXNXmXxXvX X-X$X+XU.y.u wXqX9X9X9X8X2X2XrX6X3X0XK 4 M.B.B.h.S : H c.4 = ' ` K z 1 $ ",
"%.ZXGXFXLXDXDXMXBXcXvXvX*XQ.a K.U.e ,XyX5X9X8X7X8X7X2X3X9X1X% e.c., , = & - C % 8 ' ` W K J 8 X ",
"%.kXGXFXKXLXHXZXmXnXCXiX%.a Q.OXU.s.q eXwX9X6X7X6X3X3X9X0X> 4 b.t.y.J 3 x b J ) p.` ^ ^ R k 1 O ",
"i kXGXFXKXKXHXDXNXVXfX%.[ W.$XOXU.D.J q ,XyXwX0XwX0X0XrX8 0 s n.f.h.l.k.a.K.J.@.@.,._ o.R g 1 . ",
"X aXFXKXKXKXHXZXVXmX:.E.:.-X&XOXoXI.h d 0 D G.,X,XF.| # $ 2 5 C V.d.i.p.p.p.@.@.,.` =.! I d w   ",
"  q.GXFXKXKXPXVXJXsXW./.9.:X&XOX@Xp.u k f % @ # @ @ Z > 6 1 > = y.l.a.a.J.<.<.,.,.,.=.T m g ;   ",
"  #.SXFXKXLXLXJXVX8.;XE.9.:X&X#X@XK p f u A N.c.v.c.N.t.: * t > = s.k.p.@.<.<.,.,.*.=.R n s X   ",
"  . aXGXFXLXHXJXBX8.$XW.9.iX;X#XOXI g , J D.V.V.B.Z.f.V.B.V q : > = ) !.Y.' <.,.6.*.%.Y l 6     ",
"    ;.MXSXHXJXHXBX9.>X/.:.iX&X&X/.p g w I.Z.Z.] w Z.h.g.j.B.y.k - $ % k <.Q.5.5.2.*.$.N h -     ",
"    X aXMXDXJXDXVX9.3.=.0.iX%X&X^.h w ` oXk.C.y.& z.P.g.g.z.j.l.p.J d - + 1 I T =.&.$.c s .     ",
"      %.lXkXNXNXDXBX].].vX=X=X}.^.6 i (.~.!.~.a.+ b C.h.k.k.a.K.L.!.T.Y.<.} { ! { { Y k ,       ",
"        q.jXjXMXMXNXmXCXvXiX X}.^., m +X!.R.!.!.r % s K.P.P.k.J.Y.Y.Y.E.4.E.4.3.;.$.n 7         ",
"        2 ].gXjXjXjXxXzXfXdX|..X}.* ^ /.W.R.T.(.P 2 S % 6 J ] L.p.Y.<.1.4.4.2.-.$.I f O         ",
"          d ].pXgXhXzXhXdXdX|.[..X1 } ^.W.E.Q.T.!.* S N.x.V < W R.<.1.4.4.3.;.*.Y l -           ",
"            l q.].pXpXpXdX[.[.'.|.l ~ '.5.E.Y.Y.T.T.& V v.N.A p R.1.4.4.3.*.%.Y c ,             ",
"            . g 3.9.q.].].].].`.{.=.U `.1.5.1.1.<.Y.K.s % 3 % +.E.1.6.2.,.&.Y n ,               ",
"                6 %.:.3.9.0.0.0.0.3.I 7.4.4.4.,.1.<.Y.T.` z ` Q.<.6.*.=.$.#.g ,                 ",
"                + < n %.%.;.;.2.2.3.Y 2.2.;.6.6.,.,.,.+.1.1.<.} =.&.$.Y n s -                   ",
"                    o i n M Y %.&.*.%.%.*.=.=.*.=.=.} ,.+.~ ~ o.{ R m g 1 X                     ",
"                        X 1 h n N m Y M Y { Y $.} ! $.R U T R N z j 7 X                         ",
"                            X - w 7 f g l g n n c n l b l x d 7 1 O .                           ",
"                                o X - , > : w s t t t 1 1 ; O o                                 ",
"                                        X X o o o o X o                                         "
};
