/* XPM */
static char *WindLeft[] = {
/* columns rows colors chars-per-pixel */
"144 33 218 2",
"   c #010101",
".  c #090305",
"X  c #000B01",
"o  c #080806",
"O  c #040309",
"+  c #080309",
"@  c #060C0A",
"#  c #080A09",
"$  c #001300",
"%  c #001A00",
"&  c #0F0A10",
"*  c #002400",
"=  c #1D7626",
"-  c #1D7F26",
";  c #1A7D2D",
":  c #1B7734",
">  c #247D26",
",  c #227E2B",
"<  c #297E2D",
"1  c #2E6D3E",
"2  c #366F3A",
"3  c #247D34",
"4  c #2A7C34",
"5  c #2C763C",
"6  c #257D3B",
"7  c #2B7A3C",
"8  c #32753D",
"9  c #327A3D",
"0  c #316C43",
"q  c #3C6D45",
"w  c #356F49",
"e  c #3D6D4A",
"r  c #2F7744",
"t  c #257D42",
"y  c #2E7942",
"u  c #297C48",
"i  c #337643",
"p  c #3B7344",
"a  c #327A43",
"s  c #3C7844",
"d  c #327549",
"f  c #3A734A",
"g  c #337A4A",
"h  c #3D7A4E",
"j  c #3D7351",
"k  c #3C7B50",
"l  c #416E47",
"z  c #446A48",
"x  c #417044",
"c  c #44714C",
"v  c #48714F",
"b  c #457450",
"n  c #4A7152",
"m  c #437951",
"M  c #1D811E",
"N  c #22861D",
"B  c #1D8424",
"V  c #178429",
"C  c #1E842B",
"Z  c #1B882C",
"A  c #168433",
"S  c #1E8432",
"D  c #1C813C",
"F  c #18883C",
"G  c #238423",
"H  c #288626",
"J  c #248A26",
"K  c #22842C",
"L  c #298229",
"P  c #24892E",
"I  c #2E8929",
"U  c #238332",
"Y  c #2A8333",
"T  c #248B33",
"R  c #298930",
"E  c #24823A",
"W  c #2A813A",
"Q  c #719F0B",
"!  c #5DA617",
"~  c #5DA71D",
"^  c #5CAB1E",
"/  c #5EB01E",
"(  c #6EA406",
")  c #6BA40E",
"_  c #75A708",
"`  c #78A50B",
"'  c #66A717",
"]  c #6BA614",
"[  c #65AA17",
"{  c #69A813",
"}  c #64A51C",
"|  c #6BA61A",
" . c #66AA1F",
".. c #6AA81A",
"X. c #72A515",
"o. c #74A915",
"O. c #71A51B",
"+. c #4FA72F",
"@. c #4FA92E",
"#. c #5BA721",
"$. c #55A825",
"%. c #5CAB25",
"&. c #54A72F",
"*. c #56AD2B",
"=. c #59AD2C",
"-. c #49A735",
";. c #47AF32",
":. c #4BAD36",
">. c #49A63B",
",. c #47AF3D",
"<. c #4CAC3B",
"1. c #5EA430",
"2. c #54AC33",
"3. c #5AAC33",
"4. c #51A73A",
"5. c #51AD3B",
"6. c #5BA939",
"7. c #4EB035",
"8. c #45B13A",
"9. c #4DB13C",
"0. c #56B134",
"q. c #5CB036",
"w. c #52B13C",
"e. c #5AB23A",
"r. c #65A623",
"t. c #6BA624",
"y. c #65AA22",
"u. c #6AAB22",
"i. c #63AB2A",
"p. c #6CA928",
"a. c #74AA21",
"s. c #7BA923",
"d. c #66B12D",
"f. c #60A731",
"g. c #6AAA30",
"h. c #61B335",
"j. c #368045",
"k. c #45AC45",
"l. c #4DAE42",
"z. c #46AC49",
"x. c #4BAD4B",
"c. c #53AD43",
"v. c #50AB4C",
"b. c #46B344",
"n. c #4DB144",
"m. c #46B24C",
"M. c #4AB24B",
"N. c #51B244",
"B. c #52B24A",
"V. c #59B149",
"C. c #43AE51",
"Z. c #4AAC51",
"A. c #44AC5D",
"S. c #52AE57",
"D. c #4BB153",
"F. c #48B65F",
"G. c #74C646",
"H. c #7ECA46",
"J. c #80A410",
"K. c #9CBC11",
"L. c #97BB19",
"P. c #9DBB1B",
"I. c #B0AE04",
"U. c #ADB603",
"Y. c #AEB903",
"T. c #AEB60B",
"R. c #A5B90D",
"E. c #ACBA0C",
"W. c #B5B503",
"Q. c #BBB503",
"!. c #B4B905",
"~. c #BCB905",
"^. c #B5B50A",
"/. c #BBB50B",
"(. c #B3B90C",
"). c #BBB90B",
"_. c #AEB712",
"`. c #A4BC15",
"'. c #ADBC13",
"]. c #A6B71B",
"[. c #A3BD1B",
"{. c #ABBA1A",
"}. c #B9B715",
"|. c #B2BA11",
" X c #B9BC10",
".X c #B1BD1A",
"XX c #95BE26",
"oX c #9CBF23",
"OX c #93BD2C",
"+X c #9CBD2A",
"@X c #94BD31",
"#X c #A1BE21",
"$X c #A8BD20",
"%X c #C1B503",
"&X c #C1B904",
"*X c #C2B60A",
"=X c #C2BA0D",
"-X c #9FC11D",
";X c #A5C00F",
":X c #A2C217",
">X c #A2C11D",
",X c #A8C11D",
"<X c #B3C010",
"1X c #B1C118",
"2X c #8FC527",
"3X c #8CC42C",
"4X c #94C423",
"5X c #9BC023",
"6X c #92C22D",
"7X c #9BC22C",
"8X c #85C531",
"9X c #88C333",
"0X c #86C73A",
"qX c #8AC93D",
"wX c #93C634",
"eX c #A3C222",
"rX c #ABC121",
"tX c #81C944",
/* pixels */
"              .                                                                 .   +   .   .     . X     X       .   .   +                 X     o .     + O                                                                                                   O O O O O               .       ",
"O                                                                       .           +           +           o     X       +       o     X @   X X       +     O                                                                       o                             O           X               ",
"          . .       O       O           .                       O                     o   O       O           .         O   X   .       $ $ % % $ X X .                           O                       O                             O         O       O     .   .               .   .       ",
"    .     .                   O                                                                   +     +   +   X X X X X   $ $ $ $ $ $ j f x q x $ X                                                                         O O   O                                 .               .         ",
"                      O   + O                               O   O   O O O         o               o     .     X $ % % % % % s 8 9 8 5 y t 6 7 y r w X .                                                                                                                   O O           .       ",
"                                                            O                         X X X X X X X X X X X $ % w f f p p 9 4 C - B K U S S , U D g %   o   .                                                                                                           O   O     O             ",
"        X                                                                               $ $ $ $ % % k d r r g y 7 3 4 , , , B H N x.V.<.,.B.k.D.A t %   @                                                                                                                       O +   +         ",
"        O                                         .             X X X X X X X X X % % % n l q p 2 a 3 U U S U K K G H B.k.x.V.-.2.2.=.3.2.:.<.m.Z 3 * $ $ $ $ % X $ $ $ X $ $ X X $ $ $ $ X $ $ X % X $ $ $ X $ $ X $ $ X $ X $ $ $ $ X $ $ $ $ X $ $ $ $ X $ $ $ $ % $ $ $ $ X     O           ",
"  .     O   O                             X                 X X % X % % % c s 5 7 y 5 7 7 7 9 4 Y L G G N c.x.x.<.9.7.7.5.5.f.g.r.r.| t.%.*.0.x.C U 6 7 i i a y r y a i i y d 9 i i i i i d i a a y i y d y a d i i r y r y i y y i y y r a y y y y d 7 i y y y 5 y 7 7 9 8 c % X     O         ",
"          O                       X   @     X X $ X X X % % % z z l q 9 9 4 U U U C K T L L L v.x.<.5.2.2.e.*.%.~ u.y.y.u.} s.OX6X7X#X7X8X^ 2.,.K C U U K , K C L U U K U K U K K K U K K K K K K U U , U L K K K K 3 K U L U K U K U K U , U K U K U K U K 3 K K C C P L < 7 s $     O         ",
"o   +     +   .           X   X X   X X % % % % % m h p a r 5 7 4 4 4 < > L G M G z.n.n.>.c.5.5.6.&.g.t.t.| ] o.oXoXP.[.$X[.]._.'.'.E.[.4X[ *.w.c.x.x.c.c.c.9.<.n.<.l.<.l.l.l.<.l.l.l.l.l.l.l.l.l.<.l.c.n.<.l.<.c.l.l.<.l.l.l.l.l.l.n.n.l.<.n.9.l.l.n.9.n.n.l.l.c.x.l.k.z.S.7 i $     O O       ",
"X       +         X X X X $ $ $ % % % b q f i i s 7 3 3 3 C U C H H v.l.B.N.5.w.5.2.q.f.=.y.y.y.r.a.@X+X#X5X>X`._. X/.^./.).W.W.W.).!.<X-X(  .=.6.6.3.3.%.%.*.*.*.=.=.*.=.=.=.=.*.=.*.=.=.=.=.*.=.=.=.*.=.=.=.=.*.=.=.=.=.=.=.*.=.*.=.*.=.*.=.=.=.*.=.*.=.*.=.*.3.*.5.N.l.x.3 8 $       O       ",
"      . . . + o X % % * % k d d 8 7 5 6 E 3 U U , - H I k.n.n.l.n.9.-.w.2.=.1.i.r.O.O.` 5X5XL.>XP.]..X(.E.E.E.W.Q.Q.Q.Q.Q.I.Q.%X&XQ.Q.W.(.P._ ) | | O.O.O.] ..[ ......................| ......................................................................|  .r.%.2.c.D.E a $       O       ",
"X       . .   X z x s a 5 6 6 6 3 Y Y C Z J D.k.B.-.5.6.2.*.*.=.=.%.d.}  .] wXOXeX+XP.`.1XT.<XU.(.W.Q.~.Q.!.Q.Q.%X%X%X%X%X%XQ.%XQ.%XQ.W.Q.(.:X:X#X#X#X[.eXoX7X5X5X5XoX5XoX5X5X5XoX5XoX5XoX5XoXoXoX5X5X+X5XP.5X+X5X5X5XoXoXoXoXoXoX5XoX5X5X5X5X5XoX5X5X5XoX5X5X5X5XwXqX%.<.x.U r $               ",
"      .     % l p y U ; T U U L x.z.z.z.b.b.8.w.&.q.%.i.} u.u.{ 7XP.5X[.P.`.'.'.|.^. X/.W.~.Q.Q.&XQ.Q.Q.~.Q.%X%X%X%X%XQ.Q.Q.%X%X%X%X~.Q.Q.*XW.(.(.E.E.E.(._._.'._.(.(.(.(.E.(.|.(.(.(.E.(.|.(.(.(.(.E.E.(.|._.E.(.|.(.(.(.(.(.(.(.|.(.E.(._.(.E.(.E.(.|.(.|.(.E.E.-X2X! 2.B.; r %           .   ",
"          X % f a : A.F.C.C.Z.Z.z.m.m.b.b.8.7.7.0.G.H.H.0X0X9X6XoX,X`.R.(.!.!.).W.Q.Q.Q.Q.Q.&XQ.Q.Q.Q.Q.%X%X%X%X%X%X%X%X%XQ.%XQ.%XQ.Q.Q.%XQ.~.!.~.!.!.!.~./.Q.!.~.(.Q.(.Q.Q.Q.(.Q.(.Q.Q.Q.(.Q.Q.Q./.Q.).Q.Q.~.~.Q.Q.W.).W./.W.).W.!.Q.Q.Q.W./.).W.Q.Q.(.Q.W.Q.!.Y.;X4X[ 3.x.U y $               ",
"X         X X b u t D F A S U K Z.D.z.m.b.b.8.9.9.9.5.=.=.i.~ qXwXXXoX>X`._.(.(.).^./././.Q././.Q.W.*XQ.%X%X%X%X%XQ.Q.%X%X*XQ.Q.%X%XQ.W.*X/.^.!.W.(.!.(./.).W.!.!.(.(.!.(.(.~.^.(.!.(.~.(.(.!.(.(.).!.(.~.(.(.!.W.).(.!.(.(.~.(.(.(.).!.(.!.(.!.(.(.!.!.!.^.(.(.E.R.4X[ 3.B.S r $     o .       ",
"      .     X % e d u t j.6 7 4 4 = T G B B D.k.z.k.k.<.w.@.3.i.y.p...] ` oXeXP.[.rX[.{.{._.(.T.(. XW.Q.Q.Q.%XQ.Q.%X%XQ.Q.Q.Q.Q.Q.Q.*X/.Q.^.`.P.].P.eX[.`.].P.[.[.[.[.[.[.[.[.[.[.[.[.[.[.[.[.[.[.[.[.[.[.[.[.[.[.[.[.[.[.[.[.[.[.[.[.[.[.[.[.[.[.[.[.[.$X[.[.P.eX4X8Xy.3.l.U u $               ",
"        .       X @ % $ f w q f s s 9 4 U U S S T U Z B M.M.n.5.:.2.+.=.=.#.y.y.} } | ] 6X+X7X5X-XK.'.|./.).!.Q.Q.Q.Q.!.Q.Q.%X%X%XQ.Q./.}.].o.| t.r.y.r.t.p.i.%.y. .y. . . .y. .y. . . . . .y. . . . . .y. .u. .y. .y. . . . . .y. .y. .u. . . . . .u. . . .u.y.~ d.$.0.<.x.Y 7 %               ",
"        +     @       X X $ % % % % m i 5 5 5 y 7 7 3 E ; U L G L G B.c.c.l.n.<.N.5.2.*.i. .| ] { o.+XoXP.[.`.'.|.^.E.(.E.!./.Q.Q.Q.*XI.{.J.i.3.4.V.l.c.6.c.k.c.<.5.5.5.5.5.<.5.5.5.5.<.5.5.5.5.5.5.5.<.5.5.<.5.5.5.5.5.5.5.5.<.5.5.5.5.5.5.<.5.5.5.5.5.5.5.5.<.c.>.b.k.M.C.; g %     O     X   ",
"    +     O         .       X X X X X X $ % % $ % n e f s i 7 9 4 L - P , K V C C m.m.M.<.2.2.=.3.1.1.i.d.~ / { OX+X[.>X:X`.)./.).!.(.'.[.] =.,.B C G H L K C C K K K K K K K J K K K K K K K K K K K J K K C K K K K C K K K K K K K K K Z K K K K K K K K K K U U E Z S U E 5 X     +       X ",
"      O O   O @   O     o         O X           X X X % % % % f 8 i 8 5 9 5 7 6 : E U V J G N l.x.x.v.B.l.9.7.0.i.t.| ] _ _ oX[.[.>XP.-X6X} 0.n.T V E 4 3 6 7 6 E 6 6 6 E 6 6 6 6 6 6 E E 6 6 6 6 6 6 6 6 7 E 6 E 6 6 E 6 6 6 E E 6 6 7 E 6 6 6 E 6 6 6 E 6 6 E t t : j.3 6 a h X     + +       ",
"            O   O     o           O         o       @ X   X X X % X % % $ n c q h a y 3 E U - I , L L - G M.z.l.l.4.5.e.3.$.d.~ #.^ / ^ tX=.w.k.V E 5 p 8 p p l f f f w f f f f w f f f f f w f f f f f w f f w f f f f w f f f f w f w f w f e f f w f f f f f f 0 f h f f j X X               ",
"X                               O     O                     .           X X X % % % % f s r a 5 7 7 4 7 3 3 4 3 U G K x.k.n.9.9.9.9.;.w.3.6.>.M.V 6 * % % % $ $ $ % $ % $ $ $ % $ % $ $ $ % $ % % $ $ % $ % $ % $ $ $ % $ % $ % % $ $ % % $ $ % $ % $ % $ $ $ % $ % % X % @ % $           O O   ",
"                                                    .           X             X X X X X $ X X $ % v q q x x 2 8 4 3 E , U K C B J k.M.x.c.c.l.m.V 6 * X @ X X X   X   X   X X X   X X X   X X X     X X   X X     X X X   X   X X X   X   X X     X   X X X X X X X X         X           O O + ",
"X                 . .                           .       .                                       X X $ % $ $ % % f d a 8 i 9 7 E 3 W 4 Y > L G C U 5 $ X   O                                                                                                       .   .                         ",
"    O                               .                                                               $ X   X X X $ $ $ $ $ $ m 0 i p p 9 7 3 E E 7 f X   O O +                                                                                                                     .             ",
"                                                                                                  X     X                 $ X % % $ % % g a a 1 l X o   O O + +                                                                                                                                 ",
". . . .                               .   .                                         O       O   o           X               X @   X $ X $ $ % X   X   &   O                                                                                                       O                             ",
"  .       .                             .                                 O           O O O   O     o X     X     O                               .     O   X                                                                                                                                   ",
"                                                    .                                         + +                   O     O           O   O     #     +                                                                                                                     O   O               ",
"                                                              o                                   +         . .           O               O       o                                                                                                                           O     +           ",
"                                                                                                                                                                                                                                                                                                "
};
