/* XPM */
static char *WindRight[] = {
/* columns rows colors chars-per-pixel */
"144 33 180 2",
"   c #010101",
".  c #080204",
"X  c #000C00",
"o  c #030309",
"O  c #0A050C",
"+  c #001200",
"@  c #001900",
"#  c #197B26",
"$  c #1C7F2D",
"%  c #177D33",
"&  c #1D7E36",
"*  c #1D7F3B",
"=  c #2E6D3E",
"-  c #237E34",
";  c #287F31",
":  c #2A753E",
">  c #247D3C",
",  c #2A7A3D",
"<  c #30733D",
"1  c #366F47",
"2  c #2E7544",
"3  c #267C43",
"4  c #2A7B44",
"5  c #2A7749",
"6  c #2C7A49",
"7  c #337546",
"8  c #3A7444",
"9  c #327A43",
"0  c #33744A",
"q  c #3B734A",
"w  c #337A4B",
"e  c #357550",
"r  c #406E4A",
"t  c #40744E",
"y  c #1E871E",
"u  c #158727",
"i  c #1B8425",
"p  c #1B8924",
"a  c #16852C",
"s  c #1A862D",
"d  c #16882C",
"f  c #1A8A2B",
"g  c #168532",
"h  c #1B8631",
"j  c #158831",
"k  c #1B8932",
"l  c #13853A",
"z  c #1D833A",
"x  c #128B3B",
"c  c #198839",
"v  c #238727",
"b  c #228B24",
"n  c #23832C",
"m  c #23892E",
"M  c #228333",
"N  c #2A8434",
"B  c #228A33",
"V  c #21813D",
"C  c #29813C",
"Z  c #719F09",
"A  c #5FA715",
"S  c #5EA61D",
"D  c #5AAA1E",
"F  c #6EA406",
"G  c #65A70F",
"H  c #6FA50F",
"J  c #7AA307",
"K  c #75A60F",
"L  c #79A60F",
"P  c #74A808",
"I  c #67A617",
"U  c #6CA514",
"Y  c #66AA15",
"T  c #6AA917",
"R  c #65A61C",
"E  c #6DA61C",
"W  c #65A91B",
"Q  c #6AA81A",
"!  c #7BA511",
"~  c #75AA12",
"^  c #75A918",
"/  c #57A722",
"(  c #5BA723",
")  c #55AA25",
"_  c #5EAC22",
"`  c #55AE2C",
"'  c #5BAD2B",
"]  c #5EB027",
"[  c #54B02C",
"{  c #5EB028",
"}  c #46AD37",
"|  c #4DAC32",
" . c #44AD3D",
".. c #4BAE3C",
"X. c #54AB33",
"o. c #5AAC33",
"O. c #52AE3C",
"+. c #4DB236",
"@. c #45B13E",
"#. c #4CB23D",
"$. c #54B133",
"%. c #5AB335",
"&. c #50B03B",
"*. c #59B23A",
"=. c #60A622",
"-. c #6AA620",
";. c #62AC25",
":. c #6CAB21",
">. c #64AC2A",
",. c #75AB21",
"<. c #63B32C",
"1. c #61B030",
"2. c #1D8141",
"3. c #238242",
"4. c #2B8044",
"5. c #298049",
"6. c #46AE43",
"7. c #4BAD43",
"8. c #44AE4B",
"9. c #4AAF4A",
"0. c #53AE44",
"q. c #47B241",
"w. c #4AB243",
"e. c #45B34B",
"r. c #4BB24A",
"t. c #47AF50",
"y. c #48AD51",
"u. c #41AF58",
"i. c #44B354",
"p. c #4AB250",
"a. c #4DB850",
"s. c #46B75B",
"d. c #77C744",
"f. c #9FB90E",
"g. c #9EB817",
"h. c #9DBC1D",
"j. c #AFAF00",
"k. c #AFB604",
"l. c #AFBD06",
"z. c #AFB70A",
"x. c #A6B80C",
"c. c #ABBA0D",
"v. c #B4B504",
"b. c #BEB401",
"n. c #B5B907",
"m. c #BEB904",
"M. c #B5B70B",
"N. c #B3B90B",
"B. c #BBBA0B",
"V. c #A4B614",
"C. c #ABB616",
"Z. c #A5BB14",
"A. c #A9BB16",
"S. c #A3BE1B",
"D. c #ABBD18",
"F. c #B5BB13",
"G. c #BBBA11",
"H. c #91BC26",
"J. c #9DBF22",
"K. c #92BF31",
"L. c #A0BF22",
"P. c #C1B401",
"I. c #C3B904",
"U. c #C1B708",
"Y. c #9CC21D",
"T. c #A8C217",
"R. c #A3C01C",
"E. c #ADC01B",
"W. c #8DC12D",
"Q. c #94C124",
"!. c #9CC122",
"~. c #94C22D",
"^. c #9AC22A",
"/. c #82C730",
"(. c #8CC534",
"). c #89C53B",
"_. c #8DC83A",
"`. c #A2C122",
"'. c #ABC120",
"]. c #83C942",
/* pixels */
"          .             . o o o                                                                                                   o o                 o                 o .                 o             .         o                                           .               . .             ",
"                        . o                           .                                                                                 .   X     X X               .       .               o o .       . o         .                                                         . .               ",
"        .                 .                         o   o     .           o                                                             .     X + + + X   .   .                                     .   .           .     o       .                       .   .               o .               ",
"                        .                                                     o                                                 . .   o     + 8 7 w 7 7 X X X X X X X   X   X     . .   .   .           .         .                             .                 o                             ",
"                  o       .                                                                                                   . .   o   . X 2 3.3 * z 3.4 , , C > 9 X X + @ + X     o .     .   X     o           .                         .   .                 .                         . . ",
"      . .       o   o     o                                                                                                     . .       X 6 l z h h h h s u u d M 9 8 7 7 7 7 X X X X X X X     X             o                                               .                         . . . ",
".     o o   o                                                                                                                         o   X 3.g 8.7.r.}  .r.w.y v i s ; - M V V 4 3 3 3 3 4 @ + X + + +       o                       .                                                         ",
"            .     X X X X X X X X X X X X X X X X X   X X X X X X X X X   X   X X X X   X X X     X   X X X   X   X X X   X X   X X X X + @ 2.k w...+.| %.` ` O.7.r.6.6.r.s s s k s h k z z , < 8 8 7 7 + X X X X X   X   X               .             .                                       ",
"        o       @ 9 , , , , 4.3 3 3 4 3 3 3 3 3 4 3 3 3 4 3 3 4 3 3 5 4 4 3 4 3 5 3 4 3 4 4 4 4 3 4 3 4 4 3 4 3 5 3 4 4 4 3 4 3 3 3 3 3 3 V z s r.X.[ ] W Q W ( o.X.O.w. .7.r.@.w.6.7.n i n n n ; ; > 3.4 4 4 , 4 4 7 @ X X + + X         .         .       .                     o o           ",
"      o o     X 2 z s s m s a s h j h h h h h h h h h j h h j h h s s h h h s s s s h h h h h s h h s h h s h h s h s h h s h h s k h h h h h v ..$.D /.^.!.^.~.K.,.S ( ' ;.;./ ` ` *.| O.0.0.r.9.s s s k h s h h z - , 8 1 7 8 q + + X X X X X X       .     X                   o             ",
"      o       X 4 z i.e.6.w.7.w.w.q.q.q.q.q.q.q.q.q.q.q.q.q.q.w.#.w.w.w.7.w.w.w.7.w.w.#.w.w.w.w.w.w.w.w.#.w.w.w.w.w.7.q.w.w.w.q.q.q...O.7.9.9.7.@.[ Y Q.C.M.M.B.B.M.C.L.c.A.A.S.~ I W W E >.| #.#.w.r. .w.q.e.i i s v n n N ; > > 3 4 4 2 w q @ + + X + X   X   .           .   o         X     ",
"              X , a e.@.&.X.X.` ` [ ` [ ` [ ` [ ` ` ` ` ` [ ` ` ` ` ` ` ` ` ` ` ` ` ` ` ` ` ` ` ` ` ` ` ` ` ` ` ` ` ` ` ` ` ` [ [ [ ' ` o.o.X.X.[ _ F R.U.P.P.b.P.P.P.U.b.b.P.n.Z.Y.!.J.J.H.:.( ( ;.=.>.[ $.X.&.0.w.w.q.6.w.v f s k h M h * , , 4 2 7 7 q @ + X X X X     X         . o o     X ",
".             X 9 M p.7.o.;.W Q Q T Q T I T Q T Q T I T Q T W T Q T Q T Q T I T Q T Q T Q T I T Q T I T Q T Q T I Q Q T Q T Q T Y Y U T E E Q W G P V.M.b.b.b.P.P.b.b.b.P.b.b.P.v.n.n.z.N.F.A.V.T.f.Z.J.Z E E R R ' | @.@.} q.q.@.@.q.q.v b i s M h z z z > , , 6 5 w @ @ @ X X     . . . .     ",
"  .           X 2 z 9.| ( (.^.Y.J.!.J.!.J.!.J.!.J.!.J.!.J.!.J.J.J.J.J.J.J.J.J.J.J.J.J.J.J.J.J.J.J.J.J.J.L.J.J.J.J.J.J.J.J.J.!.h.Y.Y.h.S.J.!.!.Y.Y.Z.M.b.b.b.P.b.b.b.b.b.P.P.P.P.P.P.b.b.P.P.b.b.v.m.b.B.A.S.`.`.J.~.Q ;.( <.' ) ` [ [ +.X.O...0.q.e.p u f s h a z z & - , < q r X     o   .     ",
"              X 4 s 9.$.Y Y.x.n.N.M.M.N.M.M.M.N.M.N.M.N.M.M.M.M.M.M.M.M.M.M.M.M.M.M.M.M.M.M.N.M.M.M.M.M.M.M.M.M.M.M.M.M.M.M.M.M.M.M.N.N.N.n.M.M.n.v.U.b.b.b.P.P.P.P.U.j.b.P.P.b.P.P.P.b.b.v.b.m.m.b.U.b.b.B.k.N.N.F.x.x.A.D.V.`.K T E E -.=.1.` +.} #.q.6.6.r.9.i n m m # M , , 1 @ X   .       ",
"        o     X 3 h 6.` Y Y.T.v.b.b.P.b.P.P.P.b.P.b.P.P.b.b.P.P.P.b.P.P.P.P.P.b.P.b.P.b.P.b.P.P.P.P.P.b.P.b.P.P.P.P.P.b.P.b.P.P.m.b.m.P.b.b.b.P.P.I.b.m.b.b.P.P.b.P.P.P.P.b.P.P.P.I.P.P.b.P.b.b.b.m.b.P.P.b.b.b.U.b.b.m.v.n.B.A.^.K.(.(.].].d.$.$.+.@.#.w.w.w.7.9.8.r.8.s.u.z 4 0 X X           ",
"    . o o     + 3 h r.` G Y.z.b.b.b.b.b.b.b.b.b.b.m.P.P.b.m.b.b.P.b.P.m.b.b.P.m.b.b.P.b.P.P.b.b.b.b.b.b.P.b.b.b.b.m.P.b.b.b.P.b.v.b.I.P.P.b.b.b.b.m.b.U.b.v.b.b.b.v.U.P.P.b.b.b.P.P.I.P.b.P.b.P.b.b.P.P.P.I.b.m.m.b.M.c.E.Y.Y.^._.( ] ` $.| &...#.@.@.q.r.8.r.y.n s k j x l 2.6 0 X             ",
"        o     X 4 h  .$.W W.h.D.A.A.D.A.A.T.D.A.A.A.A.E.A.A.A.A.A.D.A.A.D.A.A.A.A.A.A.A.D.T.A.A.D.A.D.T.D.A.A.A.A.A.A.E.D.A.A.Z.S.Z.C.C.C.E.V.E.T.c.v.b.m.m.b.b.v.b.b.v.b.P.P.P.b.P.P.b.b.b.n.n.M.M.M.F.M.c.T.A.V.E.J.J H Q Q =.( %.| #.} w.w.r.q.e.u i i B # N C > z * 2.3 5 q X X   . .       ",
"              X : m r.#.$.) <.( D ;._ _ ;.W _ _ ( ;.D _ ;.;.;.D _ D _ _ _ ;._ ;.] W _ _ ;.D _ _ _ _ ;.W _ _ _ _ _ W ;.D _ _ _ ;.D ( >.>.;.' / ' D ^ h.F.m.b.b.P.I.P.P.b.v.b.b.P.b.P.U.U.M.M.g.`.L.J.^.W.E =.D ;.>.' ( ' ` X.O.O.....w.8.i f s z g h k j z V 4 8 9 7 0 q + + X     X     o       ",
"X             X 9 $ e.e.q.w.6.w.w.q.@.q.q.@.q.q.q.q.@.q.@.@.q.@.w.@.q.q.q.@.@.@.@.q.@.q.q.@.q.q.@.q.@.q.q.@.w.q.q.q.q.q.@.q.q.q.q.q.7...q.6.a.q.w.) ! D.j.U.b.b.P.b.M.M.n.v.v.M.D.A.A.S.V.^.^ I E R ;.>.| #.@.r.q.w.7.w.8.p.i s i m M - V C > > 4.> 3 > 4 7 @ + + + X X       o       .         ",
"        o .   X : z k d u h B B s s h s s s s d s s s s f s s s s k s s s s k s s s h k s s h s s s k s h h s h s s k s h s s h d f i s h d h i @.` H A.n.m.b.P.P.B.Z.R.R.J.h.Q.Y ;./ { ' ( X.*.X.+.&. .r.e.t.s h a z s k a h k 3., : 2 5 1 t + X X X X X X       X       o         o   o o     ",
"    . o . o   X w 3.* z V z > > V V V V V 3.3.V 2.3.z 3.V V V V V 2.V V z 3.z V z 3.z 3.3.z z 3.V V 3.z * 3.V z z 3.3 z * 3.V z * V > > > 3.% B r.$.I H.S.x.D.A.D.S.! U U ^ Q ' X.#.q.q.w.6.7.6.q.p p f a h z % 3.> > 4 , 4 4 : 1 @ @ @ X X X   .   .   .                   o   o       o       ",
"      o o o     + 0 5 7 w 7 2 8 w 7 7 7 7 7 7 7 7 7 7 7 7 7 w 7 7 0 7 7 7 7 7 7 7 7 7 7 7 7 7 7 7 7 7 7 7 7 7 7 7 7 2 7 7 7 7 7 e e 7 2 9 : V f  .$.;.]._ ] ' _ _ ' / o.*.O.7.7.7.e.e.f i s m s m a h B - , , 9 : w q @ + X X X   X X   X X                   o                       X     . . ",
"o         o     X + X + X X @ + X + + X + X + X X + X + X + X + + X + X + X X X + X + X X X + X + X + X + X + + X + X + + X + + X X + X + @ - f q.+.o.X.@.@.q.q.q.q.w.6.8.s s M M n h n , - > , : 9 4 7 0 @ @ + + X X                       o       o   o   o                                   ",
"o             .           X   X X   X     X       X     X   X       X   X     X     X     X       X     X   X       X   X           X X   @ > u e.6.0.0.7.e.8.f d d j k a h M C , < 8 8 7 7 q + X   X X X                               . .                                                     ",
"o           .       .                                                                                                             .     X X 4 z s f s n m n B - V z 3 4 4 4 4 7 @ X X X @ X X                       .                     .                                                     ",
"                            o                                                                                                         o   X 0 > V M g V : < 9 w < t X X X X X X X X X   X X                             o             .                 .                                       ",
"                            .                                                                                                   . .   o     X 7 : 4 > 4 @ X X X @ X                   .                             o                 .             .                                           ",
"                o                                                                                                                       O     X X X + X X X   X                   o         . o   o         .                         o             . o     .               .         . .       ",
"            o                                                                                                                         o o o o                     X             o o       X o o o     . .                                                                         .         o . ",
"                                                                                                                                        o o   .     o               o o                       o                                                                                                 ",
".                                                                                                                                     o             .                 o   o       .       o o                     o                     . o                                                     ",
"                                                                                                                                                                                                                                                                                                "
};
