/* XPM */
static char *yes[] = {
/* columns rows colors chars-per-pixel */
"66 26 162 2",
"   c #2E2E2E",
".  c #3E3F3E",
"X  c #453F3F",
"o  c #3D413E",
"O  c #42413F",
"+  c #413F42",
"@  c #3E4143",
"#  c #424242",
"$  c #646C6F",
"%  c #6E6D6C",
"&  c #726E6E",
"*  c #6B716F",
"=  c #747267",
"-  c #797467",
";  c #74726D",
":  c #79746D",
">  c #7E7B6D",
",  c #6C6E73",
"<  c #7A6F73",
"1  c #6E7374",
"2  c #6C747A",
"3  c #757575",
"4  c #7A7674",
"5  c #767875",
"6  c #7B7975",
"7  c #757679",
"8  c #79767A",
"9  c #75797C",
"0  c #7A7A7A",
"q  c #807676",
"w  c #827C72",
"e  c #817D7A",
"r  c #888576",
"t  c #84817C",
"y  c #6D7581",
"u  c #6E7983",
"i  c #707681",
"p  c #727B83",
"a  c #797C82",
"s  c #757F88",
"d  c #787C88",
"f  c #7B8083",
"g  c #7B828A",
"h  c #808080",
"j  c #878882",
"k  c #8E8985",
"l  c #858388",
"z  c #8C878D",
"x  c #8B8C8D",
"c  c #918C89",
"v  c #92928D",
"b  c #9B978E",
"n  c #9D9B8C",
"m  c #8A8E97",
"M  c #868E99",
"N  c #869093",
"B  c #86929E",
"V  c #8B939A",
"C  c #909194",
"Z  c #9A9994",
"A  c #929699",
"S  c #939899",
"D  c #9C9D9C",
"F  c #A29E9D",
"G  c #A3A29E",
"H  c #B6B19E",
"J  c #919BA4",
"K  c #9B9DA3",
"L  c #979DA9",
"P  c #97A0A3",
"I  c #9AA4A6",
"U  c #9DA4AC",
"Y  c #A4A5A0",
"T  c #AEABA3",
"R  c #A1A5A8",
"E  c #ADAFAC",
"W  c #B2A7A3",
"Q  c #B5AFA2",
"!  c #B0AEA9",
"~  c #AFB1AE",
"^  c #B5B1A5",
"/  c #B1B0AC",
"(  c #AAAFB0",
")  c #ACB6B7",
"_  c #A6B0BC",
"`  c #ABB2BC",
"'  c #B4B3B4",
"]  c #B8B4B5",
"[  c #B6BBB4",
"{  c #BBBAB6",
"}  c #B4B6BB",
"|  c #BBB6BA",
" . c #B5BBBB",
".. c #BBBBBA",
"X. c #C0BCBB",
"o. c #C7C4B5",
"O. c #CDC7B7",
"+. c #C7C4BD",
"@. c #CAC5BD",
"#. c #CEC8BC",
"$. c #AEBCC9",
"%. c #BBBDC0",
"&. c #BBC0C3",
"*. c #BBC5CE",
"=. c #BCCACB",
"-. c #BFC7D2",
";. c #BCC8D4",
":. c #C6C6C4",
">. c #C9C4C1",
",. c #C2C8C6",
"<. c #C8C8C6",
"1. c #CBC6CC",
"2. c #C5C9CB",
"3. c #CCCDCF",
"4. c #C5CED5",
"5. c #C3CDDA",
"6. c #CCD0D3",
"7. c #CFDADE",
"8. c #D5D5D5",
"9. c #D9D6D3",
"0. c #D9DAD4",
"q. c #D2DADF",
"w. c #DBDCD8",
"e. c #E1DBCF",
"r. c #E1DBD5",
"t. c #E1DED9",
"y. c #E8E1D7",
"u. c #E4E0DA",
"i. c #ECE5DD",
"p. c #EDE8DA",
"a. c #D4DFE5",
"s. c #E5DFE3",
"d. c #D7E2E6",
"f. c #D9E2E6",
"g. c #D7E0E9",
"h. c #DEE6E9",
"j. c #DEE8F1",
"k. c #E4E0E1",
"l. c #ECE7E1",
"z. c #ECEAE4",
"x. c #E5EBE9",
"c. c #EBEBEC",
"v. c #F3ECE4",
"b. c #F2EFE8",
"n. c #FAF9E5",
"m. c #F7F2EE",
"M. c #FAF7E8",
"N. c #FDFAED",
"B. c #E7EEF4",
"V. c #E8EEFE",
"C. c #F0EFF4",
"Z. c #EFF5F5",
"A. c #ECF5FB",
"S. c #EEF9FE",
"D. c #F3F4F4",
"F. c #F9F6F3",
"G. c #F6F9F6",
"H. c #FEFBF5",
"J. c #F3F7FA",
"K. c #F9F7F8",
"L. c #F5FCFD",
"P. c #FCFEFD",
/* pixels */
"0 :.......| ....X.{ ..{ .. . .&.| ..X... .&.[ X.X.X.| [ %.%.%.%.%.| [ [ &...X... .%.....%.} %. . .{ { { X.{ ..| %...[ { { [ | &.# 3 ",
"3 ] 9 9 1 a 3 3 < 4 : 0 3 9 1 5 0 3 ; 0 2 9 3 4 < 3 ; 3 7 7 , 8 , 1 1 9 3 3 4 3 9 , 4 8 3 3 1 9 5 ; 6 3 4 4 3 8 7 3 5 6 5 5 3 0 # 3 ",
"3 ..3 3 8 0 8 0 3 6 3 5 5 1 9 9 3 3 8 3 9 2 6 0 < 0 6 0 1 3 3 a 8 3 3 0 3 0 4 3 7 7 8 3 3 a 7 7 0 ; 6 6 ; 6 7 8 8 3 3 5 5 5 3 0 # 0 ",
"5 ..5 1 0 % 3 3 4 4 3 & 0 f $ 9 0 6 3 3 9 1 5 ; > 3 1 1 a 8 3 3 4 4 3 , 7 ; 6 : p 7 3 ' L.P.L.P.H.+.4 6 q & 0 < 7 7 3 5 5 3 7 7 # 5 ",
"3 { 3 3 7 8 3 3 3 % 0 9 2.&.&.L.P.H.,.m J.H.P.P.F.! m P.L.P.L.P.9.0 K P.P.P.F.Z 2 m P.P.P.P.L.P.P.P.P.H.b > 4 3 7 5 5 5 7 3 7 7 # 0 ",
"3 ..8 3 1 0 3 3 3 h % 0 R h.U a.L.P.2.x J.P.P.H.H.b K L.P.! 3.P.P.! D.P.K.P.F.Z g S.C.P.H.P.L.P.H.P.H.H.r.& 0 0 7 : 5 5 3 7 3 8 # 3 ",
"; [ 0 3 3 3 9 0 3 * 0 9 2.B.f P H.H.:.x P.G.H.H.M.T U P.P.) D.H.H.P.P.P.P.P.M.G V L.P.P.L.P.P.P.P.P.H.H.y.- 4 3 3 7 5 : 3 3 7 7 # 0 ",
"3 [ 3 3 0 3 3 3 0 6 , 9 I L.L.S.,.G.w.K P.P.H.H.M.j d V.P.P.P.P.P.H.K.P.P.P.F.Z  .L.P.P.P.L.A } P.H.H.H.#.w & 4 8 3 5 3 9 9 7 3 # 3 ",
"3 ..3 3 5 6 7 3 3 3 0 7 2 4.L.L.L.P.P.P.P.P.H.N.^ ; y 5.P.P.H.P.l.t w.P.K.] F.Z ) L.P.P.P.P.( ' P.H.H.H.e.- : 0 3 3 5 : 3 3 3 3 # 0 ",
"3 ..3 3 3 9 3 3 3 3 7 2 i V A.S.L.L.P.H.P.P.H.p.w 6 p 5.P.P.P.P.@.6 v Y e s.9.< J L.L.P.P.P.L.P.F.k 6 : - w ; 4 3 8 5 5 3 9 0 3 # 6 ",
"3 [ 3 3 3 3 3 6 8 ; 7 9 9 2 ;.J A.P.P.P.P.N.N.Q : 5 y _ P.P.P.! k u.H.w.8 4 0 3 N L.L.P.L.P.P.P.H.F.H.T > - 6 4 7 7 3 3 3 8 3 3 # 7 ",
"3 ..7 7 3 3 3 5 3 0 7 7 2 i M j.L.P.H.P.P.P.v.w 6 3 p B g.P.L.H.z.H.F.z.4 4 4 3 9 =.L.P.L.P.P.K.P.P.F.H.H = : 0 3 8 3 5 3 7 8 3 # 3 ",
"3 ..3 3 3 3 3 4 3 3 7 9 2 i p ;.7.L.P.G.N.N.W q 6 * 2 5.P.L.K.F F.H.H.[ 3 ; e 3 f 2  .) G.L.P.P.P.P.P.N.p.r : 3 3 7 3 3 3 3 3 3 # 6 ",
"3 { 3 3 0 3 3 3 3 3 7 9 d , y s S.S.P.P.N.o.q q 6 5 u $.S.c.C.K.T w 5 5 & e : 3 $ f 2 1 9 6.K.P.P.H.P.N.N.n = 6 7 3 5 5 8 9 8 3 # 7 ",
"3 ..3 8 3 3 3 3 3 4 7 7 , g u p d.L.P.H.n.H : < ; f y ;.P.P.P.P.@.= Z w.P.H.v.5 g S.L.L.P.P.K ' P.P.P.H.n.n 6 3 8 3 3 5 3 0 8 4 # 6 ",
"3 ..3 0 3 3 3 3 4 3 3 9 9 , y p d.L.P.P.N.O.q 3 5 9 u ;.P.L.P.P.,.w Z.H.P.P.l.e I S.L.P.L.G.l z P.P.H.H.H.w > 8 3 3 3 3 8 3 3 3 # 3 ",
"3 [ 3 0 8 8 8 3 3 0 3 1 9 u 2 i g.L.P.H.N.O.4 < 7 7 p a.P.P.P.P.P.H.D K.H.P.l.w K L.P.P.L.P.1.s.P.H.P.P.+.4 4 4 4 4 3 5 3 3 6 7 # 9 ",
"; ..3 3 7 7 8 3 3 5 3 7 9 9 y K L.P.P.H.H.p.w 4 7 , V A.P.L.P.P.H.H.z.P.P.P.y.4 S P.L.x.L.K.P.P.P.P.P.H.@.4 > & 4 4 4 3 3 3 7 0 # 3 ",
"3 ..3 7 8 8 3 3 3 3 3 3 9 p 9 ` P.L.P.H.H.v.e ; 7 a 7 a.L.P.K.P.L.D ' P.P.F.v.q C J.L.P.P.P.P.P.H.H.H.u.; 6 4 4 4 4 3 3 0 3 7 7 O 3 ",
": ..3 9 7 8 3 8 3 5 5 5 2 2 d $.L.P.P.P.P.H.e 6 7 7 p L.P.L.P.8.<.,.8.P.P.H.r.6 3 3 a Z.P.L.P.P.P.P.P.v w : 6 4 : 4 : 3 3 3 7 3 # 7 ",
"3 | 3 8 7 7 < 8 6 4 ; 3 7 a , 8 9 * 5 = > > q 3 7 7 2 9 , 0 3 % 5 5 7 9 ; 5 4 4 3 9 2 1 5 9 1 3 ; 3 ; 3 6 ; 3 3 3 : 3 3 3 9 3 3 O 3 ",
"3 | 3 3 7 7 8 3 3 6 9 6 3 8 d d 9 9 0 5 4 4 : 3 3 a a , 0 0 3 e 6 7 7 3 6 6 : 4 7 9 3 9 7 5 9 3 3 6 6 4 3 : 6 3 6 6 5 5 5 3 5 5 O 3 ",
"3 ..3 8 3 8 3 8 3 4 3 3 3 3 8 3 1 5 5 5 4 & 6 0 7 0 p 9 9 9 4 3 3 8 8 a 3 * 4 4 0 9 7 9 * 7 3 8 0 3 3 0 3 6 ; 5 5 7 7 7 5 5 7 3 O 9 ",
"3 ..7 3 7 7 7 3 3 4 3 3 8 3 3 3 f 1 7 4 4 4 & 3 0 , 7 3 7 3 3 ; 8 7 3 7 3 6 4 3 0 1 9 2 3 0 8 % 3 3 3 4 ; 1 0 5 3 3 3 3 3 7 7 3 # 0 ",
"3 ..3 9 0 7 0 3 3 3 3 6 4 4 8 8 5 9 5 5 5 6 5 3 8 7 7 7 7 8 8 4 8 7 7 7 7 5 3 4 8 9 7 9 3 7 0 0 7 5 9 3 8 3 7 5 3 5 3 7 3 5 9 3 X 0 ",
"3 . # # # # . + O O O O # # # + @ @ o @ o o # @ # @ @ # # # # O + + + + # # X # # @ # @ o o @ # # o X O # o # O # # . # . o # #   4 "
};
